%TF.GenerationSoftware,KiCad,Pcbnew,10.0.4*%
%TF.CreationDate,2026-08-26T17:12:08-07:00*%
%TF.ProjectId,HyperPlex,48797065-7250-46c6-9578-2e6b69636164,rev?*%
%TF.SameCoordinates,Original*%
%TF.FileFunction,Copper,L2,Bot*%
%TF.FilePolarity,Positive*%
%FSLAX46Y46*%
G04 Gerber Fmt 4.6, Leading zero omitted, Abs format (unit mm)*
G04 Created by KiCad (PCBNEW 10.0.4) date 2026-08-26 17:12:08*
%MOMM*%
%LPD*%
G01*
G04 APERTURE LIST*
%TA.AperFunction,HeatsinkPad*%
%ADD10C,0.500000*%
%TD*%
%TA.AperFunction,HeatsinkPad*%
%ADD11R,1.900000X2.900000*%
%TD*%
%TA.AperFunction,ComponentPad*%
%ADD12O,1.000000X2.100000*%
%TD*%
%TA.AperFunction,ComponentPad*%
%ADD13O,1.000000X1.800000*%
%TD*%
%TA.AperFunction,ConnectorPad*%
%ADD14R,1.780000X7.620000*%
%TD*%
%TA.AperFunction,ViaPad*%
%ADD15C,0.600000*%
%TD*%
%TA.AperFunction,Conductor*%
%ADD16C,0.200000*%
%TD*%
G04 APERTURE END LIST*
D10*
%TO.P,U2,9,EPAD_9*%
%TO.N,GND*%
X174987646Y-91018395D03*
X174987646Y-89818395D03*
X174987646Y-88618395D03*
D11*
X174287646Y-89818395D03*
D10*
X173587646Y-91018395D03*
X173587646Y-89818395D03*
X173587646Y-88618395D03*
%TD*%
D12*
%TO.P,J1,SH,SHIELD_SH*%
%TO.N,GND*%
X177207646Y-77618395D03*
D13*
X177207646Y-73418395D03*
D12*
X168567646Y-77618395D03*
D13*
X168567646Y-73418395D03*
%TD*%
D14*
%TO.P,REF\u002A\u002A,C33*%
%TO.N,unconnected-(U1-PA15-Pad38)*%
X140287646Y-121293395D03*
%TO.P,REF\u002A\u002A,C31*%
%TO.N,unconnected-(U1-PB3-Pad39)*%
X142827646Y-121293395D03*
%TO.P,REF\u002A\u002A,C29*%
%TO.N,unconnected-(U1-PB4-Pad40)*%
X145367646Y-121293395D03*
%TO.P,REF\u002A\u002A,C27*%
%TO.N,unconnected-(U1-PB5-Pad41)*%
X147907646Y-121293395D03*
%TO.P,REF\u002A\u002A,C25*%
%TO.N,unconnected-(U1-PB6-Pad42)*%
X150447646Y-121293395D03*
%TO.P,REF\u002A\u002A,C23*%
%TO.N,unconnected-(U1-PA10-Pad31)*%
X152987646Y-121293395D03*
%TO.P,REF\u002A\u002A,C21*%
%TO.N,unconnected-(U1-PA9-Pad30)*%
X155527646Y-121293395D03*
%TO.P,REF\u002A\u002A,C19*%
%TO.N,unconnected-(U1-PA8-Pad29)*%
X158067646Y-121293395D03*
%TO.P,REF\u002A\u002A,C17*%
%TO.N,unconnected-(U1-PB15-Pad28)*%
X160607646Y-121293395D03*
%TO.P,REF\u002A\u002A,C15*%
%TO.N,unconnected-(U1-PB14-Pad27)*%
X163147646Y-121293395D03*
%TO.P,REF\u002A\u002A,C13*%
%TO.N,unconnected-(U1-PB13-Pad26)*%
X165687646Y-121293395D03*
%TO.P,REF\u002A\u002A,C11*%
%TO.N,unconnected-(U1-PB12-Pad25)*%
X168227646Y-121293395D03*
%TO.P,REF\u002A\u002A,C9*%
%TO.N,unconnected-(U1-PB11-Pad22)*%
X170767646Y-121293395D03*
%TO.P,REF\u002A\u002A,C7*%
%TO.N,unconnected-(U1-PB10-Pad21)*%
X173307646Y-121293395D03*
%TO.P,REF\u002A\u002A,C5*%
%TO.N,unconnected-(U1-PB2-Pad20)*%
X175847646Y-121293395D03*
%TO.P,REF\u002A\u002A,C3*%
%TO.N,unconnected-(U1-PB1-Pad19)*%
X178387646Y-121293395D03*
%TO.P,REF\u002A\u002A,C1*%
%TO.N,GND*%
X180927646Y-121293395D03*
%TD*%
D15*
%TO.N,+3.3V*%
X164250000Y-73443395D03*
X152000000Y-73443395D03*
%TO.N,GND*%
X179750000Y-93825000D03*
X179750000Y-88425000D03*
%TO.N,unconnected-(U1-PB12-Pad25)*%
X176887646Y-112243395D03*
%TO.N,unconnected-(U1-PB13-Pad26)*%
X176387646Y-111243395D03*
%TO.N,unconnected-(U1-PB14-Pad27)*%
X175387646Y-110493395D03*
%TO.N,unconnected-(U1-PB15-Pad28)*%
X174137646Y-109493395D03*
%TO.N,unconnected-(U1-PA8-Pad29)*%
X172137646Y-108743395D03*
%TO.N,unconnected-(U1-PA9-Pad30)*%
X172887646Y-106493395D03*
%TO.N,unconnected-(U1-PA10-Pad31)*%
X166750000Y-105493395D03*
%TO.N,unconnected-(U1-PB1-Pad19)*%
X178387646Y-115493395D03*
%TO.N,unconnected-(U1-PB2-Pad20)*%
X175637646Y-114743395D03*
%TO.N,unconnected-(U1-PB10-Pad21)*%
X173387646Y-113993395D03*
%TO.N,unconnected-(U1-PB11-Pad22)*%
X170887646Y-113243395D03*
%TO.N,/3.3V*%
X157637646Y-113743395D03*
%TO.N,GND*%
X158387646Y-109493395D03*
X175087646Y-102055895D03*
X169212646Y-102243395D03*
%TO.N,Net-(U1-BOOT0)*%
X167487646Y-99868395D03*
%TO.N,/3.3V*%
X161637646Y-103243395D03*
%TO.N,Net-(U1-BOOT0)*%
X154887646Y-106493395D03*
%TO.N,/3.3V*%
X155387646Y-108993395D03*
%TO.N,unconnected-(U1-PA15-Pad38)*%
X149137646Y-105493395D03*
%TO.N,unconnected-(U1-PB3-Pad39)*%
X150137646Y-105493395D03*
%TO.N,unconnected-(U1-PB4-Pad40)*%
X151137646Y-105493395D03*
%TO.N,unconnected-(U1-PB5-Pad41)*%
X152137646Y-105493395D03*
%TO.N,unconnected-(U1-PB6-Pad42)*%
X152961912Y-105517658D03*
%TO.N,+3.3V*%
X181250000Y-84243395D03*
X176137646Y-84243395D03*
%TO.N,/USB5V*%
X165155422Y-84011171D03*
X168655422Y-80511171D03*
X175287646Y-85993395D03*
X175287646Y-79493395D03*
%TO.N,GND*%
X157337646Y-82555895D03*
X162337646Y-82555895D03*
X176762646Y-89183395D03*
X180712646Y-77493395D03*
X165062646Y-75743395D03*
X169687646Y-78218395D03*
X176087646Y-78218395D03*
X162695580Y-107369349D03*
%TD*%
%TO.N,+3.3V*%
D16*
X181250000Y-84243395D02*
X176137646Y-84243395D01*
X152000000Y-73443395D02*
X164250000Y-73443395D01*
%TO.N,unconnected-(U1-PA10-Pad31)*%
X166736175Y-105493395D02*
X155046175Y-117183395D01*
X166750000Y-105493395D02*
X166736175Y-105493395D01*
X152947646Y-118733395D02*
X152947646Y-121493395D01*
X155046175Y-117183395D02*
X154337646Y-117183395D01*
X154337646Y-117183395D02*
X154337646Y-117383395D01*
X154337646Y-117383395D02*
X154297646Y-117383395D01*
X154297646Y-117383395D02*
X152947646Y-118733395D01*
%TO.N,unconnected-(U1-PA8-Pad29)*%
X172137646Y-108743395D02*
X167857646Y-108743395D01*
X167857646Y-108743395D02*
X158027646Y-118573395D01*
X158027646Y-118573395D02*
X158027646Y-121493395D01*
%TO.N,unconnected-(U1-PA9-Pad30)*%
X172887646Y-106493395D02*
X167727646Y-106493395D01*
X167727646Y-106493395D02*
X155487646Y-118733395D01*
X155487646Y-118733395D02*
X155487646Y-121493395D01*
%TO.N,unconnected-(U1-PB15-Pad28)*%
X174137646Y-109493395D02*
X168557646Y-109493395D01*
X168557646Y-109493395D02*
X160567646Y-117483395D01*
X160567646Y-117483395D02*
X160567646Y-121493395D01*
%TO.N,unconnected-(U1-PB14-Pad27)*%
X175387646Y-110493395D02*
X169986175Y-110493395D01*
X169986175Y-110493395D02*
X163107646Y-117371924D01*
X163107646Y-117371924D02*
X163107646Y-121493395D01*
%TO.N,unconnected-(U1-PB13-Pad26)*%
X176387646Y-111243395D02*
X171473432Y-111243395D01*
X171473432Y-111243395D02*
X165126222Y-117590605D01*
X165126222Y-117590605D02*
X165126222Y-121493395D01*
%TO.N,unconnected-(U1-PB12-Pad25)*%
X176887646Y-112243395D02*
X171039117Y-112243395D01*
X171039117Y-112243395D02*
X168187646Y-115094866D01*
X168187646Y-115094866D02*
X168187646Y-121493395D01*
%TO.N,unconnected-(U1-PB11-Pad22)*%
X170887646Y-113243395D02*
X170727646Y-113403395D01*
X170727646Y-113403395D02*
X170727646Y-121493395D01*
%TO.N,unconnected-(U1-PB10-Pad21)*%
X173387646Y-113993395D02*
X173267646Y-114113395D01*
X173267646Y-114113395D02*
X173267646Y-121493395D01*
%TO.N,unconnected-(U1-PB2-Pad20)*%
X175637646Y-114743395D02*
X175807646Y-114913395D01*
X175807646Y-114913395D02*
X175807646Y-121493395D01*
%TO.N,unconnected-(U1-PB1-Pad19)*%
X178387646Y-115493395D02*
X178387646Y-115743395D01*
X178387646Y-115743395D02*
X178347646Y-115783395D01*
X178347646Y-115783395D02*
X178347646Y-121493395D01*
%TO.N,/3.3V*%
X157637646Y-113743395D02*
X155387646Y-111493395D01*
X155387646Y-111493395D02*
X155387646Y-108993395D01*
%TO.N,Net-(U1-BOOT0)*%
X167487646Y-99868395D02*
X165362646Y-101993395D01*
X165362646Y-101993395D02*
X161321960Y-101993395D01*
X161321960Y-101993395D02*
X156821960Y-106493395D01*
X156821960Y-106493395D02*
X154887646Y-106493395D01*
%TO.N,/3.3V*%
X155387646Y-108993395D02*
X155387646Y-108493395D01*
X155387646Y-108493395D02*
X160637646Y-103243395D01*
X160637646Y-103243395D02*
X161637646Y-103243395D01*
%TO.N,unconnected-(U1-PB6-Pad42)*%
X152961912Y-105517658D02*
X150407646Y-108071924D01*
X150407646Y-108071924D02*
X150407646Y-121493395D01*
%TO.N,unconnected-(U1-PB5-Pad41)*%
X152137646Y-105493395D02*
X147867646Y-109763395D01*
X147867646Y-109763395D02*
X147867646Y-121493395D01*
%TO.N,unconnected-(U1-PB4-Pad40)*%
X151137646Y-105493395D02*
X145327646Y-111303395D01*
X145327646Y-111303395D02*
X145327646Y-121493395D01*
%TO.N,unconnected-(U1-PB3-Pad39)*%
X150137646Y-105493395D02*
X142787646Y-112843395D01*
X142787646Y-112843395D02*
X142787646Y-121493395D01*
%TO.N,unconnected-(U1-PA15-Pad38)*%
X149137646Y-105493395D02*
X140247646Y-114383395D01*
X140247646Y-114383395D02*
X140247646Y-121493395D01*
%TO.N,/USB5V*%
X168655422Y-80511171D02*
X165155422Y-84011171D01*
X175287646Y-85993395D02*
X175287646Y-79493395D01*
%TD*%
%TA.AperFunction,Conductor*%
%TO.N,GND*%
G36*
X167959231Y-72013580D02*
G01*
X168004986Y-72066384D01*
X168014930Y-72135542D01*
X167985905Y-72199098D01*
X167961083Y-72220997D01*
X167930182Y-72241643D01*
X167790897Y-72380928D01*
X167790894Y-72380932D01*
X167681460Y-72544710D01*
X167681453Y-72544723D01*
X167606076Y-72726701D01*
X167606073Y-72726713D01*
X167567646Y-72919899D01*
X167567646Y-73168395D01*
X168267646Y-73168395D01*
X168267646Y-73668395D01*
X167567646Y-73668395D01*
X167567646Y-73916890D01*
X167606073Y-74110076D01*
X167606076Y-74110088D01*
X167681453Y-74292066D01*
X167681460Y-74292079D01*
X167790894Y-74455857D01*
X167790897Y-74455861D01*
X167930179Y-74595143D01*
X167930183Y-74595146D01*
X168093961Y-74704580D01*
X168093974Y-74704587D01*
X168275954Y-74779964D01*
X168317646Y-74788257D01*
X168317646Y-73985383D01*
X168327586Y-74002600D01*
X168383441Y-74058455D01*
X168451850Y-74097951D01*
X168528150Y-74118395D01*
X168607142Y-74118395D01*
X168683442Y-74097951D01*
X168751851Y-74058455D01*
X168807706Y-74002600D01*
X168817646Y-73985383D01*
X168817646Y-74788257D01*
X168859336Y-74779964D01*
X168859338Y-74779964D01*
X169041317Y-74704587D01*
X169041330Y-74704580D01*
X169205108Y-74595146D01*
X169205112Y-74595143D01*
X169344394Y-74455861D01*
X169344397Y-74455857D01*
X169453831Y-74292079D01*
X169453838Y-74292066D01*
X169529215Y-74110088D01*
X169529218Y-74110076D01*
X169567645Y-73916890D01*
X169567646Y-73916887D01*
X169567646Y-73668395D01*
X168867646Y-73668395D01*
X168867646Y-73168395D01*
X169567646Y-73168395D01*
X169567646Y-72919903D01*
X169567645Y-72919899D01*
X169529218Y-72726713D01*
X169529215Y-72726701D01*
X169453838Y-72544723D01*
X169453831Y-72544710D01*
X169344397Y-72380932D01*
X169344394Y-72380928D01*
X169205109Y-72241643D01*
X169174209Y-72220997D01*
X169129404Y-72167385D01*
X169120697Y-72098060D01*
X169150851Y-72035033D01*
X169210294Y-71998313D01*
X169243100Y-71993895D01*
X176532192Y-71993895D01*
X176599231Y-72013580D01*
X176644986Y-72066384D01*
X176654930Y-72135542D01*
X176625905Y-72199098D01*
X176601083Y-72220997D01*
X176570182Y-72241643D01*
X176430897Y-72380928D01*
X176430894Y-72380932D01*
X176321460Y-72544710D01*
X176321453Y-72544723D01*
X176246076Y-72726701D01*
X176246073Y-72726713D01*
X176207646Y-72919899D01*
X176207646Y-73168395D01*
X176907646Y-73168395D01*
X176907646Y-73668395D01*
X176207646Y-73668395D01*
X176207646Y-73916890D01*
X176246073Y-74110076D01*
X176246076Y-74110088D01*
X176321453Y-74292066D01*
X176321460Y-74292079D01*
X176430894Y-74455857D01*
X176430897Y-74455861D01*
X176570179Y-74595143D01*
X176570183Y-74595146D01*
X176733961Y-74704580D01*
X176733974Y-74704587D01*
X176915954Y-74779964D01*
X176957646Y-74788257D01*
X176957646Y-73985383D01*
X176967586Y-74002600D01*
X177023441Y-74058455D01*
X177091850Y-74097951D01*
X177168150Y-74118395D01*
X177247142Y-74118395D01*
X177323442Y-74097951D01*
X177391851Y-74058455D01*
X177447706Y-74002600D01*
X177457646Y-73985383D01*
X177457646Y-74788257D01*
X177499336Y-74779964D01*
X177499338Y-74779964D01*
X177681317Y-74704587D01*
X177681330Y-74704580D01*
X177845108Y-74595146D01*
X177845112Y-74595143D01*
X177984394Y-74455861D01*
X177984397Y-74455857D01*
X178093831Y-74292079D01*
X178093838Y-74292066D01*
X178148585Y-74159895D01*
X178192426Y-74105491D01*
X178258720Y-74083426D01*
X178326419Y-74100705D01*
X178374030Y-74151842D01*
X178387146Y-74207347D01*
X178387146Y-74427503D01*
X178387146Y-74559287D01*
X178396754Y-74595146D01*
X178421254Y-74686582D01*
X178454200Y-74743645D01*
X178487146Y-74800709D01*
X178580332Y-74893895D01*
X178694460Y-74959787D01*
X178821754Y-74993895D01*
X182844502Y-74993895D01*
X182911541Y-75013580D01*
X182926261Y-75024667D01*
X183149302Y-75220269D01*
X183160771Y-75231738D01*
X183356374Y-75454780D01*
X183385777Y-75518162D01*
X183387146Y-75536539D01*
X183387146Y-122989328D01*
X183386881Y-122997438D01*
X183370571Y-123246278D01*
X183368453Y-123262359D01*
X183320600Y-123502930D01*
X183316402Y-123518597D01*
X183237555Y-123750874D01*
X183231348Y-123765860D01*
X183122858Y-123985855D01*
X183114748Y-123999901D01*
X182978471Y-124203855D01*
X182968597Y-124216724D01*
X182806864Y-124401144D01*
X182795395Y-124412613D01*
X182610975Y-124574346D01*
X182598106Y-124584220D01*
X182510536Y-124642732D01*
X182443859Y-124663610D01*
X182376479Y-124645125D01*
X182329789Y-124593146D01*
X182317646Y-124539630D01*
X182317646Y-121543395D01*
X181051646Y-121543395D01*
X180984607Y-121523710D01*
X180938852Y-121470906D01*
X180927646Y-121419395D01*
X180927646Y-121293395D01*
X180801646Y-121293395D01*
X180734607Y-121273710D01*
X180688852Y-121220906D01*
X180677646Y-121169395D01*
X180677646Y-121043395D01*
X181177646Y-121043395D01*
X182317646Y-121043395D01*
X182317646Y-117435567D01*
X182317645Y-117435550D01*
X182311244Y-117376022D01*
X182311242Y-117376015D01*
X182261000Y-117241308D01*
X182260996Y-117241301D01*
X182174836Y-117126207D01*
X182174833Y-117126204D01*
X182059739Y-117040044D01*
X182059732Y-117040040D01*
X181925025Y-116989798D01*
X181925018Y-116989796D01*
X181865490Y-116983395D01*
X181177646Y-116983395D01*
X181177646Y-121043395D01*
X180677646Y-121043395D01*
X180677646Y-116983395D01*
X179989801Y-116983395D01*
X179930273Y-116989796D01*
X179930266Y-116989798D01*
X179795559Y-117040040D01*
X179795552Y-117040044D01*
X179680458Y-117126204D01*
X179621779Y-117204589D01*
X179565845Y-117246459D01*
X179496153Y-117251443D01*
X179452437Y-117232577D01*
X179450411Y-117231189D01*
X179347638Y-117185810D01*
X179322514Y-117182895D01*
X179322511Y-117182895D01*
X178872146Y-117182895D01*
X178805107Y-117163210D01*
X178759352Y-117110406D01*
X178748146Y-117058895D01*
X178748146Y-116033493D01*
X178767831Y-115966454D01*
X178784465Y-115945812D01*
X178803142Y-115927135D01*
X178868166Y-115862111D01*
X178947223Y-115725179D01*
X178988146Y-115572452D01*
X178988146Y-115414338D01*
X178947223Y-115261611D01*
X178925763Y-115224440D01*
X178868170Y-115124685D01*
X178868164Y-115124677D01*
X178756363Y-115012876D01*
X178756355Y-115012870D01*
X178619436Y-114933821D01*
X178619432Y-114933819D01*
X178619430Y-114933818D01*
X178466703Y-114892895D01*
X178308589Y-114892895D01*
X178155862Y-114933818D01*
X178155855Y-114933821D01*
X178018936Y-115012870D01*
X178018928Y-115012876D01*
X177907127Y-115124677D01*
X177907121Y-115124685D01*
X177828072Y-115261604D01*
X177828069Y-115261611D01*
X177787146Y-115414338D01*
X177787146Y-115572451D01*
X177828069Y-115725178D01*
X177828072Y-115725185D01*
X177907121Y-115862104D01*
X177907127Y-115862112D01*
X177910827Y-115865812D01*
X177944312Y-115927135D01*
X177947146Y-115953493D01*
X177947146Y-117058895D01*
X177927461Y-117125934D01*
X177874657Y-117171689D01*
X177823146Y-117182895D01*
X177452789Y-117182895D01*
X177452763Y-117182897D01*
X177427658Y-117185808D01*
X177427654Y-117185810D01*
X177324881Y-117231188D01*
X177245440Y-117310629D01*
X177231078Y-117343155D01*
X177185990Y-117396529D01*
X177119204Y-117417055D01*
X177051922Y-117398215D01*
X177005507Y-117345990D01*
X177004238Y-117343211D01*
X176989852Y-117310630D01*
X176910411Y-117231189D01*
X176850168Y-117204589D01*
X176807638Y-117185810D01*
X176782514Y-117182895D01*
X176782511Y-117182895D01*
X176332146Y-117182895D01*
X176265107Y-117163210D01*
X176219352Y-117110406D01*
X176208146Y-117058895D01*
X176208146Y-114950738D01*
X176212371Y-114918645D01*
X176238146Y-114822452D01*
X176238146Y-114664338D01*
X176197223Y-114511611D01*
X176184196Y-114489048D01*
X176118170Y-114374685D01*
X176118164Y-114374677D01*
X176006363Y-114262876D01*
X176006355Y-114262870D01*
X175869436Y-114183821D01*
X175869432Y-114183819D01*
X175869430Y-114183818D01*
X175716703Y-114142895D01*
X175558589Y-114142895D01*
X175405862Y-114183818D01*
X175405855Y-114183821D01*
X175268936Y-114262870D01*
X175268928Y-114262876D01*
X175157127Y-114374677D01*
X175157121Y-114374685D01*
X175078072Y-114511604D01*
X175078069Y-114511611D01*
X175037146Y-114664338D01*
X175037146Y-114822452D01*
X175066987Y-114933818D01*
X175078069Y-114975178D01*
X175078072Y-114975185D01*
X175157121Y-115112104D01*
X175157125Y-115112109D01*
X175157126Y-115112111D01*
X175268930Y-115223915D01*
X175345145Y-115267917D01*
X175393361Y-115318484D01*
X175407146Y-115375305D01*
X175407146Y-117058895D01*
X175387461Y-117125934D01*
X175334657Y-117171689D01*
X175283146Y-117182895D01*
X174912789Y-117182895D01*
X174912763Y-117182897D01*
X174887658Y-117185808D01*
X174887654Y-117185810D01*
X174784881Y-117231188D01*
X174705440Y-117310629D01*
X174691078Y-117343155D01*
X174645990Y-117396529D01*
X174579204Y-117417055D01*
X174511922Y-117398215D01*
X174465507Y-117345990D01*
X174464238Y-117343211D01*
X174449852Y-117310630D01*
X174370411Y-117231189D01*
X174310168Y-117204589D01*
X174267638Y-117185810D01*
X174242514Y-117182895D01*
X174242511Y-117182895D01*
X173792146Y-117182895D01*
X173725107Y-117163210D01*
X173679352Y-117110406D01*
X173668146Y-117058895D01*
X173668146Y-114596437D01*
X173687831Y-114529398D01*
X173730146Y-114489050D01*
X173756362Y-114473915D01*
X173868166Y-114362111D01*
X173947223Y-114225179D01*
X173988146Y-114072452D01*
X173988146Y-113914338D01*
X173947223Y-113761611D01*
X173930959Y-113733440D01*
X173868170Y-113624685D01*
X173868164Y-113624677D01*
X173756363Y-113512876D01*
X173756355Y-113512870D01*
X173619436Y-113433821D01*
X173619432Y-113433819D01*
X173619430Y-113433818D01*
X173466703Y-113392895D01*
X173308589Y-113392895D01*
X173155862Y-113433818D01*
X173155855Y-113433821D01*
X173018936Y-113512870D01*
X173018928Y-113512876D01*
X172907127Y-113624677D01*
X172907121Y-113624685D01*
X172828072Y-113761604D01*
X172828069Y-113761611D01*
X172787146Y-113914338D01*
X172787146Y-114072451D01*
X172828069Y-114225181D01*
X172843796Y-114252420D01*
X172849833Y-114262876D01*
X172850532Y-114264085D01*
X172867146Y-114326087D01*
X172867146Y-117058895D01*
X172847461Y-117125934D01*
X172794657Y-117171689D01*
X172743146Y-117182895D01*
X172372789Y-117182895D01*
X172372763Y-117182897D01*
X172347658Y-117185808D01*
X172347654Y-117185810D01*
X172244881Y-117231188D01*
X172165440Y-117310629D01*
X172151078Y-117343155D01*
X172105990Y-117396529D01*
X172039204Y-117417055D01*
X171971922Y-117398215D01*
X171925507Y-117345990D01*
X171924238Y-117343211D01*
X171909852Y-117310630D01*
X171830411Y-117231189D01*
X171770168Y-117204589D01*
X171727638Y-117185810D01*
X171702514Y-117182895D01*
X171702511Y-117182895D01*
X171252146Y-117182895D01*
X171185107Y-117163210D01*
X171139352Y-117110406D01*
X171128146Y-117058895D01*
X171128146Y-113869531D01*
X171147831Y-113802492D01*
X171190145Y-113762144D01*
X171256362Y-113723915D01*
X171368166Y-113612111D01*
X171447223Y-113475179D01*
X171488146Y-113322452D01*
X171488146Y-113164338D01*
X171447223Y-113011611D01*
X171424913Y-112972968D01*
X171368170Y-112874685D01*
X171368164Y-112874677D01*
X171349063Y-112855576D01*
X171315578Y-112794253D01*
X171320562Y-112724561D01*
X171362434Y-112668628D01*
X171427898Y-112644211D01*
X171436744Y-112643895D01*
X176387548Y-112643895D01*
X176454587Y-112663580D01*
X176475229Y-112680214D01*
X176518930Y-112723915D01*
X176518932Y-112723916D01*
X176518936Y-112723919D01*
X176586411Y-112762875D01*
X176655862Y-112802972D01*
X176808589Y-112843895D01*
X176808591Y-112843895D01*
X176966701Y-112843895D01*
X176966703Y-112843895D01*
X177119430Y-112802972D01*
X177256362Y-112723915D01*
X177368166Y-112612111D01*
X177447223Y-112475179D01*
X177488146Y-112322452D01*
X177488146Y-112164338D01*
X177447223Y-112011611D01*
X177447219Y-112011604D01*
X177368170Y-111874685D01*
X177368164Y-111874677D01*
X177256363Y-111762876D01*
X177256355Y-111762870D01*
X177119436Y-111683821D01*
X177119431Y-111683818D01*
X177072553Y-111671257D01*
X177022066Y-111657729D01*
X176962407Y-111621365D01*
X176931878Y-111558518D01*
X176940173Y-111489142D01*
X176946775Y-111475954D01*
X176947223Y-111475179D01*
X176988146Y-111322452D01*
X176988146Y-111164338D01*
X176947223Y-111011611D01*
X176947219Y-111011604D01*
X176868170Y-110874685D01*
X176868164Y-110874677D01*
X176756363Y-110762876D01*
X176756355Y-110762870D01*
X176619436Y-110683821D01*
X176619432Y-110683819D01*
X176619430Y-110683818D01*
X176466703Y-110642895D01*
X176308589Y-110642895D01*
X176155862Y-110683818D01*
X176155860Y-110683818D01*
X176148011Y-110685922D01*
X176147385Y-110683585D01*
X176090118Y-110689737D01*
X176027642Y-110658456D01*
X175991995Y-110598364D01*
X175988146Y-110567709D01*
X175988146Y-110414340D01*
X175988146Y-110414338D01*
X175947223Y-110261611D01*
X175896015Y-110172915D01*
X175868170Y-110124685D01*
X175868164Y-110124677D01*
X175756363Y-110012876D01*
X175756355Y-110012870D01*
X175619436Y-109933821D01*
X175619432Y-109933819D01*
X175619430Y-109933818D01*
X175466703Y-109892895D01*
X175308589Y-109892895D01*
X175155862Y-109933818D01*
X175155855Y-109933821D01*
X175018936Y-110012870D01*
X175018928Y-110012876D01*
X174975229Y-110056576D01*
X174948301Y-110071279D01*
X174922483Y-110087872D01*
X174916282Y-110088763D01*
X174913906Y-110090061D01*
X174887548Y-110092895D01*
X174686744Y-110092895D01*
X174619705Y-110073210D01*
X174573950Y-110020406D01*
X174564006Y-109951248D01*
X174593031Y-109887692D01*
X174599063Y-109881214D01*
X174618166Y-109862111D01*
X174697223Y-109725179D01*
X174738146Y-109572452D01*
X174738146Y-109414338D01*
X174697223Y-109261611D01*
X174646015Y-109172915D01*
X174618170Y-109124685D01*
X174618164Y-109124677D01*
X174506363Y-109012876D01*
X174506355Y-109012870D01*
X174369436Y-108933821D01*
X174369432Y-108933819D01*
X174369430Y-108933818D01*
X174216703Y-108892895D01*
X174058589Y-108892895D01*
X173905862Y-108933818D01*
X173905855Y-108933821D01*
X173768936Y-109012870D01*
X173768928Y-109012876D01*
X173725229Y-109056576D01*
X173663906Y-109090061D01*
X173637548Y-109092895D01*
X172827281Y-109092895D01*
X172760242Y-109073210D01*
X172714487Y-109020406D01*
X172704543Y-108951248D01*
X172707506Y-108936802D01*
X172708306Y-108933818D01*
X172738146Y-108822452D01*
X172738146Y-108664338D01*
X172697223Y-108511611D01*
X172679437Y-108480804D01*
X172618170Y-108374685D01*
X172618164Y-108374677D01*
X172506363Y-108262876D01*
X172506355Y-108262870D01*
X172369436Y-108183821D01*
X172369432Y-108183819D01*
X172369430Y-108183818D01*
X172216703Y-108142895D01*
X172058589Y-108142895D01*
X171905862Y-108183818D01*
X171905855Y-108183821D01*
X171768936Y-108262870D01*
X171768928Y-108262876D01*
X171725229Y-108306576D01*
X171663906Y-108340061D01*
X171637548Y-108342895D01*
X167804919Y-108342895D01*
X167703059Y-108370188D01*
X167703056Y-108370189D01*
X167611731Y-108422916D01*
X158888071Y-117146576D01*
X158826748Y-117180061D01*
X158800390Y-117182895D01*
X157903900Y-117182895D01*
X157836861Y-117163210D01*
X157791106Y-117110406D01*
X157781162Y-117041248D01*
X157810187Y-116977692D01*
X157816219Y-116971214D01*
X162775823Y-112011611D01*
X167857220Y-106930214D01*
X167918543Y-106896729D01*
X167944901Y-106893895D01*
X172387548Y-106893895D01*
X172454587Y-106913580D01*
X172475229Y-106930214D01*
X172518930Y-106973915D01*
X172518932Y-106973916D01*
X172518936Y-106973919D01*
X172625672Y-107035542D01*
X172655862Y-107052972D01*
X172808589Y-107093895D01*
X172808591Y-107093895D01*
X172966701Y-107093895D01*
X172966703Y-107093895D01*
X173119430Y-107052972D01*
X173256362Y-106973915D01*
X173368166Y-106862111D01*
X173447223Y-106725179D01*
X173488146Y-106572452D01*
X173488146Y-106414338D01*
X173447223Y-106261611D01*
X173371362Y-106130214D01*
X173368170Y-106124685D01*
X173368164Y-106124677D01*
X173256363Y-106012876D01*
X173256355Y-106012870D01*
X173119436Y-105933821D01*
X173119432Y-105933819D01*
X173119430Y-105933818D01*
X172966703Y-105892895D01*
X172808589Y-105892895D01*
X172655862Y-105933818D01*
X172655855Y-105933821D01*
X172518936Y-106012870D01*
X172518928Y-106012876D01*
X172475229Y-106056576D01*
X172413906Y-106090061D01*
X172387548Y-106092895D01*
X167674919Y-106092895D01*
X167573056Y-106120188D01*
X167481733Y-106172915D01*
X167481730Y-106172917D01*
X156508071Y-117146576D01*
X156446748Y-117180061D01*
X156420390Y-117182895D01*
X155912429Y-117182895D01*
X155845390Y-117163210D01*
X155799635Y-117110406D01*
X155789691Y-117041248D01*
X155818716Y-116977692D01*
X155824748Y-116971214D01*
X166665748Y-106130214D01*
X166727071Y-106096729D01*
X166753429Y-106093895D01*
X166829055Y-106093895D01*
X166829057Y-106093895D01*
X166981784Y-106052972D01*
X167118716Y-105973915D01*
X167230520Y-105862111D01*
X167309577Y-105725179D01*
X167350500Y-105572452D01*
X167350500Y-105414338D01*
X167309577Y-105261611D01*
X167244532Y-105148948D01*
X167230524Y-105124685D01*
X167230518Y-105124677D01*
X167118717Y-105012876D01*
X167118709Y-105012870D01*
X166981790Y-104933821D01*
X166981786Y-104933819D01*
X166981784Y-104933818D01*
X166829057Y-104892895D01*
X166670943Y-104892895D01*
X166518216Y-104933818D01*
X166518209Y-104933821D01*
X166381290Y-105012870D01*
X166381282Y-105012876D01*
X166269481Y-105124677D01*
X166269475Y-105124685D01*
X166190426Y-105261604D01*
X166190423Y-105261611D01*
X166149500Y-105414338D01*
X166149500Y-105462314D01*
X166129815Y-105529353D01*
X166113181Y-105549995D01*
X158291012Y-113372163D01*
X158229689Y-113405648D01*
X158159997Y-113400664D01*
X158115650Y-113372163D01*
X158006363Y-113262876D01*
X158006355Y-113262870D01*
X157869436Y-113183821D01*
X157869432Y-113183819D01*
X157869430Y-113183818D01*
X157716703Y-113142895D01*
X157716702Y-113142895D01*
X157654900Y-113142895D01*
X157587861Y-113123210D01*
X157567219Y-113106576D01*
X155824465Y-111363821D01*
X155790980Y-111302498D01*
X155788146Y-111276140D01*
X155788146Y-109493493D01*
X155807831Y-109426454D01*
X155824465Y-109405812D01*
X155868166Y-109362111D01*
X155947223Y-109225179D01*
X155988146Y-109072452D01*
X155988146Y-108914338D01*
X155947223Y-108761611D01*
X155899117Y-108678288D01*
X155882645Y-108610388D01*
X155905498Y-108544361D01*
X155918818Y-108528614D01*
X160767220Y-103680214D01*
X160828543Y-103646729D01*
X160854901Y-103643895D01*
X161137548Y-103643895D01*
X161204587Y-103663580D01*
X161225229Y-103680214D01*
X161268930Y-103723915D01*
X161268932Y-103723916D01*
X161268936Y-103723919D01*
X161371155Y-103782934D01*
X161405862Y-103802972D01*
X161558589Y-103843895D01*
X161558591Y-103843895D01*
X161716701Y-103843895D01*
X161716703Y-103843895D01*
X161869430Y-103802972D01*
X162006362Y-103723915D01*
X162118166Y-103612111D01*
X162197223Y-103475179D01*
X162238146Y-103322452D01*
X162238146Y-103164338D01*
X162197223Y-103011611D01*
X162168014Y-102961019D01*
X162118170Y-102874685D01*
X162118164Y-102874677D01*
X162006363Y-102762876D01*
X162006355Y-102762870D01*
X161869436Y-102683821D01*
X161869432Y-102683819D01*
X161869430Y-102683818D01*
X161716703Y-102642895D01*
X161558589Y-102642895D01*
X161552543Y-102643691D01*
X161483507Y-102632926D01*
X161431251Y-102586546D01*
X161412366Y-102519277D01*
X161432846Y-102452476D01*
X161448682Y-102433065D01*
X161451551Y-102430196D01*
X161512878Y-102396724D01*
X161539215Y-102393895D01*
X165415371Y-102393895D01*
X165415373Y-102393895D01*
X165517234Y-102366602D01*
X165608559Y-102313875D01*
X167417220Y-100505214D01*
X167478543Y-100471729D01*
X167504901Y-100468895D01*
X167566701Y-100468895D01*
X167566703Y-100468895D01*
X167719430Y-100427972D01*
X167856362Y-100348915D01*
X167968166Y-100237111D01*
X168047223Y-100100179D01*
X168088146Y-99947452D01*
X168088146Y-99789338D01*
X168047223Y-99636611D01*
X168047219Y-99636604D01*
X167968170Y-99499685D01*
X167968164Y-99499677D01*
X167856363Y-99387876D01*
X167856355Y-99387870D01*
X167719436Y-99308821D01*
X167719432Y-99308819D01*
X167719430Y-99308818D01*
X167566703Y-99267895D01*
X167408589Y-99267895D01*
X167255862Y-99308818D01*
X167255855Y-99308821D01*
X167118936Y-99387870D01*
X167118928Y-99387876D01*
X167007127Y-99499677D01*
X167007121Y-99499685D01*
X166928072Y-99636604D01*
X166928069Y-99636611D01*
X166887146Y-99789338D01*
X166887146Y-99851140D01*
X166867461Y-99918179D01*
X166850827Y-99938821D01*
X165233072Y-101556576D01*
X165171749Y-101590061D01*
X165145391Y-101592895D01*
X161269233Y-101592895D01*
X161167370Y-101620188D01*
X161076047Y-101672915D01*
X161076044Y-101672917D01*
X156692386Y-106056576D01*
X156631063Y-106090061D01*
X156604705Y-106092895D01*
X155387744Y-106092895D01*
X155320705Y-106073210D01*
X155300063Y-106056576D01*
X155256363Y-106012876D01*
X155256355Y-106012870D01*
X155119436Y-105933821D01*
X155119432Y-105933819D01*
X155119430Y-105933818D01*
X154966703Y-105892895D01*
X154808589Y-105892895D01*
X154655862Y-105933818D01*
X154655855Y-105933821D01*
X154518936Y-106012870D01*
X154518928Y-106012876D01*
X154407127Y-106124677D01*
X154407121Y-106124685D01*
X154328072Y-106261604D01*
X154328069Y-106261611D01*
X154287146Y-106414338D01*
X154287146Y-106572451D01*
X154328069Y-106725178D01*
X154328072Y-106725185D01*
X154407121Y-106862104D01*
X154407125Y-106862109D01*
X154407126Y-106862111D01*
X154518930Y-106973915D01*
X154518932Y-106973916D01*
X154518936Y-106973919D01*
X154625672Y-107035542D01*
X154655862Y-107052972D01*
X154808589Y-107093895D01*
X154808591Y-107093895D01*
X154966701Y-107093895D01*
X154966703Y-107093895D01*
X155119430Y-107052972D01*
X155256362Y-106973915D01*
X155300063Y-106930214D01*
X155361386Y-106896729D01*
X155387744Y-106893895D01*
X156121391Y-106893895D01*
X156188430Y-106913580D01*
X156234185Y-106966384D01*
X156244129Y-107035542D01*
X156215104Y-107099098D01*
X156209072Y-107105576D01*
X155067168Y-108247479D01*
X155067166Y-108247482D01*
X155014440Y-108338804D01*
X155014439Y-108338806D01*
X155014439Y-108338807D01*
X154991903Y-108422915D01*
X154991902Y-108422914D01*
X154987146Y-108440665D01*
X154987146Y-108493297D01*
X154967461Y-108560336D01*
X154950827Y-108580978D01*
X154907127Y-108624677D01*
X154907121Y-108624685D01*
X154828072Y-108761604D01*
X154828069Y-108761611D01*
X154787146Y-108914338D01*
X154787146Y-109072452D01*
X154791865Y-109090061D01*
X154828069Y-109225178D01*
X154828072Y-109225185D01*
X154907121Y-109362104D01*
X154907127Y-109362112D01*
X154950827Y-109405812D01*
X154984312Y-109467135D01*
X154987146Y-109493493D01*
X154987146Y-111440668D01*
X154987146Y-111546122D01*
X154991080Y-111560803D01*
X155014439Y-111647984D01*
X155035130Y-111683821D01*
X155067166Y-111739308D01*
X156051777Y-112723919D01*
X157000827Y-113672968D01*
X157034312Y-113734291D01*
X157037146Y-113760649D01*
X157037146Y-113822452D01*
X157061768Y-113914340D01*
X157078069Y-113975178D01*
X157078072Y-113975185D01*
X157157121Y-114112104D01*
X157157127Y-114112112D01*
X157266414Y-114221399D01*
X157299899Y-114282722D01*
X157294915Y-114352414D01*
X157266414Y-114396761D01*
X154916601Y-116746576D01*
X154855278Y-116780061D01*
X154828920Y-116782895D01*
X154284919Y-116782895D01*
X154183059Y-116810188D01*
X154183056Y-116810189D01*
X154091731Y-116862916D01*
X154017167Y-116937480D01*
X153964440Y-117028805D01*
X153964439Y-117028806D01*
X153947778Y-117090989D01*
X153911413Y-117150649D01*
X153848566Y-117181178D01*
X153828003Y-117182895D01*
X152052789Y-117182895D01*
X152052763Y-117182897D01*
X152027658Y-117185808D01*
X152027654Y-117185810D01*
X151924881Y-117231188D01*
X151845440Y-117310629D01*
X151831078Y-117343155D01*
X151785990Y-117396529D01*
X151719204Y-117417055D01*
X151651922Y-117398215D01*
X151605507Y-117345990D01*
X151604238Y-117343211D01*
X151589852Y-117310630D01*
X151510411Y-117231189D01*
X151450168Y-117204589D01*
X151407638Y-117185810D01*
X151382514Y-117182895D01*
X151382511Y-117182895D01*
X150932146Y-117182895D01*
X150865107Y-117163210D01*
X150819352Y-117110406D01*
X150808146Y-117058895D01*
X150808146Y-108289178D01*
X150827831Y-108222139D01*
X150844465Y-108201497D01*
X152891485Y-106154477D01*
X152952808Y-106120992D01*
X152979166Y-106118158D01*
X153040967Y-106118158D01*
X153040969Y-106118158D01*
X153193696Y-106077235D01*
X153330628Y-105998178D01*
X153442432Y-105886374D01*
X153521489Y-105749442D01*
X153562412Y-105596715D01*
X153562412Y-105438601D01*
X153521489Y-105285874D01*
X153507477Y-105261604D01*
X153442436Y-105148948D01*
X153442430Y-105148940D01*
X153330629Y-105037139D01*
X153330621Y-105037133D01*
X153193702Y-104958084D01*
X153193698Y-104958082D01*
X153193696Y-104958081D01*
X153040969Y-104917158D01*
X152882855Y-104917158D01*
X152730128Y-104958081D01*
X152730127Y-104958081D01*
X152632790Y-105014278D01*
X152564889Y-105030749D01*
X152508792Y-105014277D01*
X152369436Y-104933821D01*
X152369432Y-104933819D01*
X152369430Y-104933818D01*
X152216703Y-104892895D01*
X152058589Y-104892895D01*
X151905862Y-104933818D01*
X151905855Y-104933821D01*
X151768936Y-105012870D01*
X151768928Y-105012876D01*
X151725327Y-105056478D01*
X151664004Y-105089963D01*
X151594312Y-105084979D01*
X151549965Y-105056478D01*
X151506363Y-105012876D01*
X151506355Y-105012870D01*
X151369436Y-104933821D01*
X151369432Y-104933819D01*
X151369430Y-104933818D01*
X151216703Y-104892895D01*
X151058589Y-104892895D01*
X150905862Y-104933818D01*
X150905855Y-104933821D01*
X150768936Y-105012870D01*
X150768928Y-105012876D01*
X150725327Y-105056478D01*
X150664004Y-105089963D01*
X150594312Y-105084979D01*
X150549965Y-105056478D01*
X150506363Y-105012876D01*
X150506355Y-105012870D01*
X150369436Y-104933821D01*
X150369432Y-104933819D01*
X150369430Y-104933818D01*
X150216703Y-104892895D01*
X150058589Y-104892895D01*
X149905862Y-104933818D01*
X149905855Y-104933821D01*
X149768936Y-105012870D01*
X149768928Y-105012876D01*
X149725327Y-105056478D01*
X149664004Y-105089963D01*
X149594312Y-105084979D01*
X149549965Y-105056478D01*
X149506363Y-105012876D01*
X149506355Y-105012870D01*
X149369436Y-104933821D01*
X149369432Y-104933819D01*
X149369430Y-104933818D01*
X149216703Y-104892895D01*
X149058589Y-104892895D01*
X148905862Y-104933818D01*
X148905855Y-104933821D01*
X148768936Y-105012870D01*
X148768928Y-105012876D01*
X148657127Y-105124677D01*
X148657121Y-105124685D01*
X148578072Y-105261604D01*
X148578069Y-105261611D01*
X148537146Y-105414338D01*
X148537146Y-105476140D01*
X148517461Y-105543179D01*
X148500827Y-105563821D01*
X139927168Y-114137479D01*
X139927166Y-114137482D01*
X139876534Y-114225179D01*
X139874439Y-114228807D01*
X139857267Y-114292895D01*
X139857267Y-114292896D01*
X139857266Y-114292895D01*
X139847146Y-114330666D01*
X139847146Y-117058895D01*
X139827461Y-117125934D01*
X139774657Y-117171689D01*
X139723146Y-117182895D01*
X139352789Y-117182895D01*
X139352763Y-117182897D01*
X139327658Y-117185808D01*
X139327654Y-117185810D01*
X139224881Y-117231188D01*
X139145440Y-117310629D01*
X139100061Y-117413401D01*
X139100061Y-117413403D01*
X139097146Y-117438526D01*
X139097146Y-124445428D01*
X139092021Y-124462880D01*
X139091913Y-124481070D01*
X139082381Y-124495709D01*
X139077461Y-124512467D01*
X139063716Y-124524376D01*
X139053790Y-124539623D01*
X139037855Y-124546785D01*
X139024657Y-124558222D01*
X139006654Y-124560810D01*
X138990062Y-124568269D01*
X138972787Y-124565680D01*
X138955499Y-124568166D01*
X138938953Y-124560609D01*
X138920964Y-124557914D01*
X138892575Y-124539429D01*
X138891943Y-124539141D01*
X138891387Y-124538656D01*
X138747663Y-124412613D01*
X138736194Y-124401144D01*
X138574461Y-124216724D01*
X138564587Y-124203855D01*
X138428310Y-123999901D01*
X138420200Y-123985855D01*
X138314268Y-123771047D01*
X138311707Y-123765853D01*
X138305503Y-123750874D01*
X138226656Y-123518597D01*
X138222458Y-123502930D01*
X138214599Y-123463421D01*
X138174603Y-123262348D01*
X138172488Y-123246290D01*
X138156178Y-122997438D01*
X138155913Y-122989328D01*
X138155913Y-122920031D01*
X138155839Y-122918934D01*
X138138150Y-104997496D01*
X138138413Y-104989299D01*
X138154721Y-104740496D01*
X138156835Y-104724444D01*
X138204691Y-104483857D01*
X138208889Y-104468192D01*
X138231983Y-104400157D01*
X138287739Y-104235907D01*
X138293937Y-104220942D01*
X138402436Y-104000928D01*
X138410543Y-103986888D01*
X138457484Y-103916636D01*
X138546823Y-103782929D01*
X138556685Y-103770076D01*
X138718432Y-103585639D01*
X138729890Y-103574181D01*
X138914327Y-103412434D01*
X138927180Y-103402572D01*
X139131139Y-103266292D01*
X139145179Y-103258185D01*
X139365193Y-103149686D01*
X139380158Y-103143488D01*
X139544408Y-103087732D01*
X139612443Y-103064638D01*
X139628110Y-103060440D01*
X139868694Y-103012585D01*
X139884748Y-103010470D01*
X140133603Y-102994160D01*
X140141713Y-102993895D01*
X156044891Y-102993895D01*
X156044896Y-102993895D01*
X156357672Y-102961021D01*
X156665298Y-102895633D01*
X156964405Y-102798448D01*
X157251714Y-102670529D01*
X157524078Y-102513280D01*
X157778513Y-102328422D01*
X158012232Y-102117981D01*
X158222673Y-101884262D01*
X158407531Y-101629827D01*
X158564780Y-101357463D01*
X158692699Y-101070154D01*
X158789884Y-100771047D01*
X158855272Y-100463421D01*
X158888146Y-100150645D01*
X158888146Y-99993395D01*
X158888146Y-99927503D01*
X158888146Y-91695972D01*
X173263621Y-91695972D01*
X173368882Y-91739573D01*
X173368886Y-91739574D01*
X173513772Y-91768394D01*
X173513775Y-91768395D01*
X173661517Y-91768395D01*
X173661519Y-91768394D01*
X173806406Y-91739574D01*
X173806421Y-91739570D01*
X173911670Y-91695973D01*
X173911670Y-91695972D01*
X174663621Y-91695972D01*
X174768882Y-91739573D01*
X174768886Y-91739574D01*
X174913772Y-91768394D01*
X174913775Y-91768395D01*
X175061517Y-91768395D01*
X175061519Y-91768394D01*
X175206406Y-91739574D01*
X175206421Y-91739570D01*
X175311670Y-91695973D01*
X175311670Y-91695972D01*
X174987647Y-91371949D01*
X174987646Y-91371949D01*
X174663621Y-91695972D01*
X173911670Y-91695972D01*
X173587647Y-91371949D01*
X173587646Y-91371949D01*
X173263621Y-91695972D01*
X158888146Y-91695972D01*
X158888146Y-90944521D01*
X172837646Y-90944521D01*
X172837646Y-91092268D01*
X172866466Y-91237154D01*
X172866468Y-91237162D01*
X172910067Y-91342419D01*
X173234092Y-91018395D01*
X173234092Y-91018394D01*
X173214202Y-90998504D01*
X173487646Y-90998504D01*
X173487646Y-91038286D01*
X173502870Y-91075040D01*
X173531001Y-91103171D01*
X173567755Y-91118395D01*
X173607537Y-91118395D01*
X173644291Y-91103171D01*
X173672422Y-91075040D01*
X173687646Y-91038286D01*
X173687646Y-91018394D01*
X173941200Y-91018394D01*
X173941200Y-91018396D01*
X174265575Y-91342771D01*
X174309715Y-91342771D01*
X174634092Y-91018395D01*
X174614201Y-90998504D01*
X174887646Y-90998504D01*
X174887646Y-91038286D01*
X174902870Y-91075040D01*
X174931001Y-91103171D01*
X174967755Y-91118395D01*
X175007537Y-91118395D01*
X175044291Y-91103171D01*
X175072422Y-91075040D01*
X175087646Y-91038286D01*
X175087646Y-91018394D01*
X175341200Y-91018394D01*
X175341200Y-91018396D01*
X175665223Y-91342419D01*
X175665224Y-91342419D01*
X175708821Y-91237170D01*
X175708825Y-91237155D01*
X175737645Y-91092268D01*
X175737646Y-91092266D01*
X175737646Y-90944523D01*
X175737645Y-90944521D01*
X175708825Y-90799635D01*
X175708824Y-90799631D01*
X175665223Y-90694370D01*
X175341200Y-91018394D01*
X175087646Y-91018394D01*
X175087646Y-90998504D01*
X175072422Y-90961750D01*
X175044291Y-90933619D01*
X175007537Y-90918395D01*
X174967755Y-90918395D01*
X174931001Y-90933619D01*
X174902870Y-90961750D01*
X174887646Y-90998504D01*
X174614201Y-90998504D01*
X174309714Y-90694017D01*
X174265576Y-90694017D01*
X173941200Y-91018394D01*
X173687646Y-91018394D01*
X173687646Y-90998504D01*
X173672422Y-90961750D01*
X173644291Y-90933619D01*
X173607537Y-90918395D01*
X173567755Y-90918395D01*
X173531001Y-90933619D01*
X173502870Y-90961750D01*
X173487646Y-90998504D01*
X173214202Y-90998504D01*
X172910067Y-90694369D01*
X172910066Y-90694369D01*
X172866469Y-90799623D01*
X172866466Y-90799635D01*
X172837646Y-90944521D01*
X158888146Y-90944521D01*
X158888146Y-90418395D01*
X173341200Y-90418395D01*
X173587646Y-90664841D01*
X173834092Y-90418395D01*
X174741200Y-90418395D01*
X174987646Y-90664841D01*
X175234092Y-90418395D01*
X174987646Y-90171949D01*
X174741200Y-90418395D01*
X173834092Y-90418395D01*
X173587646Y-90171949D01*
X173341200Y-90418395D01*
X158888146Y-90418395D01*
X158888146Y-89744521D01*
X172837646Y-89744521D01*
X172837646Y-89892268D01*
X172866466Y-90037154D01*
X172866468Y-90037162D01*
X172910067Y-90142419D01*
X173234092Y-89818395D01*
X173234092Y-89818394D01*
X173214202Y-89798504D01*
X173487646Y-89798504D01*
X173487646Y-89838286D01*
X173502870Y-89875040D01*
X173531001Y-89903171D01*
X173567755Y-89918395D01*
X173607537Y-89918395D01*
X173644291Y-89903171D01*
X173672422Y-89875040D01*
X173687646Y-89838286D01*
X173687646Y-89818394D01*
X173941200Y-89818394D01*
X173941200Y-89818396D01*
X174265575Y-90142771D01*
X174309715Y-90142771D01*
X174634092Y-89818395D01*
X174614201Y-89798504D01*
X174887646Y-89798504D01*
X174887646Y-89838286D01*
X174902870Y-89875040D01*
X174931001Y-89903171D01*
X174967755Y-89918395D01*
X175007537Y-89918395D01*
X175044291Y-89903171D01*
X175072422Y-89875040D01*
X175087646Y-89838286D01*
X175087646Y-89818394D01*
X175341200Y-89818394D01*
X175341200Y-89818396D01*
X175665223Y-90142419D01*
X175665224Y-90142419D01*
X175708821Y-90037170D01*
X175708825Y-90037155D01*
X175737645Y-89892268D01*
X175737646Y-89892266D01*
X175737646Y-89744523D01*
X175737645Y-89744521D01*
X175708825Y-89599635D01*
X175708824Y-89599631D01*
X175665223Y-89494370D01*
X175341200Y-89818394D01*
X175087646Y-89818394D01*
X175087646Y-89798504D01*
X175072422Y-89761750D01*
X175044291Y-89733619D01*
X175007537Y-89718395D01*
X174967755Y-89718395D01*
X174931001Y-89733619D01*
X174902870Y-89761750D01*
X174887646Y-89798504D01*
X174614201Y-89798504D01*
X174309714Y-89494017D01*
X174265576Y-89494017D01*
X173941200Y-89818394D01*
X173687646Y-89818394D01*
X173687646Y-89798504D01*
X173672422Y-89761750D01*
X173644291Y-89733619D01*
X173607537Y-89718395D01*
X173567755Y-89718395D01*
X173531001Y-89733619D01*
X173502870Y-89761750D01*
X173487646Y-89798504D01*
X173214202Y-89798504D01*
X172910067Y-89494369D01*
X172910066Y-89494369D01*
X172866469Y-89599623D01*
X172866466Y-89599635D01*
X172837646Y-89744521D01*
X158888146Y-89744521D01*
X158888146Y-89677503D01*
X158888146Y-89586145D01*
X158855272Y-89273369D01*
X158843587Y-89218395D01*
X173341200Y-89218395D01*
X173587646Y-89464841D01*
X173834092Y-89218395D01*
X174741200Y-89218395D01*
X174987646Y-89464841D01*
X175234092Y-89218395D01*
X174987646Y-88971949D01*
X174741200Y-89218395D01*
X173834092Y-89218395D01*
X173587646Y-88971949D01*
X173341200Y-89218395D01*
X158843587Y-89218395D01*
X158789884Y-88965743D01*
X158692699Y-88666636D01*
X158638330Y-88544521D01*
X172837646Y-88544521D01*
X172837646Y-88692268D01*
X172866466Y-88837154D01*
X172866468Y-88837162D01*
X172910067Y-88942419D01*
X173234092Y-88618395D01*
X173234092Y-88618394D01*
X173214202Y-88598504D01*
X173487646Y-88598504D01*
X173487646Y-88638286D01*
X173502870Y-88675040D01*
X173531001Y-88703171D01*
X173567755Y-88718395D01*
X173607537Y-88718395D01*
X173644291Y-88703171D01*
X173672422Y-88675040D01*
X173687646Y-88638286D01*
X173687646Y-88618394D01*
X173941200Y-88618394D01*
X173941200Y-88618396D01*
X174265575Y-88942771D01*
X174309715Y-88942771D01*
X174634092Y-88618395D01*
X174614201Y-88598504D01*
X174887646Y-88598504D01*
X174887646Y-88638286D01*
X174902870Y-88675040D01*
X174931001Y-88703171D01*
X174967755Y-88718395D01*
X175007537Y-88718395D01*
X175044291Y-88703171D01*
X175072422Y-88675040D01*
X175087646Y-88638286D01*
X175087646Y-88618394D01*
X175341200Y-88618394D01*
X175341200Y-88618396D01*
X175665223Y-88942419D01*
X175665224Y-88942419D01*
X175708821Y-88837170D01*
X175708825Y-88837155D01*
X175737645Y-88692268D01*
X175737646Y-88692266D01*
X175737646Y-88544523D01*
X175737645Y-88544521D01*
X175708825Y-88399635D01*
X175708824Y-88399631D01*
X175665223Y-88294370D01*
X175341200Y-88618394D01*
X175087646Y-88618394D01*
X175087646Y-88598504D01*
X175072422Y-88561750D01*
X175044291Y-88533619D01*
X175007537Y-88518395D01*
X174967755Y-88518395D01*
X174931001Y-88533619D01*
X174902870Y-88561750D01*
X174887646Y-88598504D01*
X174614201Y-88598504D01*
X174309714Y-88294017D01*
X174265576Y-88294017D01*
X173941200Y-88618394D01*
X173687646Y-88618394D01*
X173687646Y-88598504D01*
X173672422Y-88561750D01*
X173644291Y-88533619D01*
X173607537Y-88518395D01*
X173567755Y-88518395D01*
X173531001Y-88533619D01*
X173502870Y-88561750D01*
X173487646Y-88598504D01*
X173214202Y-88598504D01*
X172910067Y-88294369D01*
X172910066Y-88294369D01*
X172866469Y-88399623D01*
X172866466Y-88399635D01*
X172837646Y-88544521D01*
X158638330Y-88544521D01*
X158564780Y-88379327D01*
X158564777Y-88379323D01*
X158564776Y-88379319D01*
X158407534Y-88106968D01*
X158407533Y-88106967D01*
X158407531Y-88106963D01*
X158286818Y-87940816D01*
X158286817Y-87940815D01*
X173263620Y-87940815D01*
X173263620Y-87940816D01*
X173587646Y-88264841D01*
X173587647Y-88264841D01*
X173911670Y-87940816D01*
X173911668Y-87940815D01*
X174663620Y-87940815D01*
X174663620Y-87940816D01*
X174987646Y-88264841D01*
X174987647Y-88264841D01*
X175311670Y-87940816D01*
X175206413Y-87897217D01*
X175206405Y-87897215D01*
X175061518Y-87868395D01*
X174913774Y-87868395D01*
X174768886Y-87897215D01*
X174768874Y-87897218D01*
X174663620Y-87940815D01*
X173911668Y-87940815D01*
X173806413Y-87897217D01*
X173806405Y-87897215D01*
X173661518Y-87868395D01*
X173513774Y-87868395D01*
X173368886Y-87897215D01*
X173368874Y-87897218D01*
X173263620Y-87940815D01*
X158286817Y-87940815D01*
X158222678Y-87852534D01*
X158222671Y-87852525D01*
X158079262Y-87693254D01*
X158012232Y-87618809D01*
X157888531Y-87507428D01*
X157778515Y-87408369D01*
X157778506Y-87408362D01*
X157524079Y-87223510D01*
X157524074Y-87223507D01*
X157251721Y-87066264D01*
X157251714Y-87066261D01*
X157239123Y-87060655D01*
X156964405Y-86938342D01*
X156964400Y-86938340D01*
X156964397Y-86938339D01*
X156665295Y-86841156D01*
X156665293Y-86841155D01*
X156400061Y-86784779D01*
X156357672Y-86775769D01*
X156044896Y-86742895D01*
X156044891Y-86742895D01*
X155887693Y-86742895D01*
X140229878Y-86725211D01*
X140229872Y-86725211D01*
X140221580Y-86725201D01*
X140221305Y-86725128D01*
X140159345Y-86725128D01*
X140159326Y-86725122D01*
X140151381Y-86724863D01*
X139902528Y-86708553D01*
X139886450Y-86706435D01*
X139814109Y-86692046D01*
X139645876Y-86658582D01*
X139630210Y-86654384D01*
X139397933Y-86575537D01*
X139382947Y-86569330D01*
X139162952Y-86460840D01*
X139148906Y-86452730D01*
X138944952Y-86316453D01*
X138932083Y-86306579D01*
X138747663Y-86144846D01*
X138736194Y-86133377D01*
X138574461Y-85948957D01*
X138564587Y-85936088D01*
X138428310Y-85732134D01*
X138420200Y-85718088D01*
X138334674Y-85544659D01*
X138311707Y-85498086D01*
X138305503Y-85483107D01*
X138226656Y-85250830D01*
X138222458Y-85235163D01*
X138214599Y-85195654D01*
X138174603Y-84994581D01*
X138172488Y-84978523D01*
X138156178Y-84729671D01*
X138155913Y-84721738D01*
X138155913Y-84659736D01*
X138155824Y-84659405D01*
X138154848Y-83932114D01*
X164554922Y-83932114D01*
X164554922Y-84090227D01*
X164595845Y-84242954D01*
X164595848Y-84242961D01*
X164674897Y-84379880D01*
X164674901Y-84379885D01*
X164674902Y-84379887D01*
X164786706Y-84491691D01*
X164786708Y-84491692D01*
X164786712Y-84491695D01*
X164923631Y-84570744D01*
X164923638Y-84570748D01*
X165076365Y-84611671D01*
X165076367Y-84611671D01*
X165234477Y-84611671D01*
X165234479Y-84611671D01*
X165387206Y-84570748D01*
X165524138Y-84491691D01*
X165635942Y-84379887D01*
X165714999Y-84242955D01*
X165755922Y-84090228D01*
X165755922Y-84028426D01*
X165775607Y-83961387D01*
X165792241Y-83940745D01*
X168584996Y-81147990D01*
X168646319Y-81114505D01*
X168672677Y-81111671D01*
X168734477Y-81111671D01*
X168734479Y-81111671D01*
X168887206Y-81070748D01*
X169024138Y-80991691D01*
X169135942Y-80879887D01*
X169214999Y-80742955D01*
X169255922Y-80590228D01*
X169255922Y-80432114D01*
X169214999Y-80279387D01*
X169214995Y-80279380D01*
X169135946Y-80142461D01*
X169135940Y-80142453D01*
X169024139Y-80030652D01*
X169024131Y-80030646D01*
X168887212Y-79951597D01*
X168887208Y-79951595D01*
X168887206Y-79951594D01*
X168734479Y-79910671D01*
X168576365Y-79910671D01*
X168423638Y-79951594D01*
X168423631Y-79951597D01*
X168286712Y-80030646D01*
X168286704Y-80030652D01*
X168174903Y-80142453D01*
X168174897Y-80142461D01*
X168095848Y-80279380D01*
X168095845Y-80279387D01*
X168054922Y-80432114D01*
X168054922Y-80493916D01*
X168035237Y-80560955D01*
X168018603Y-80581597D01*
X165225848Y-83374352D01*
X165164525Y-83407837D01*
X165138167Y-83410671D01*
X165076365Y-83410671D01*
X164923638Y-83451594D01*
X164923631Y-83451597D01*
X164786712Y-83530646D01*
X164786704Y-83530652D01*
X164674903Y-83642453D01*
X164674897Y-83642461D01*
X164595848Y-83779380D01*
X164595845Y-83779387D01*
X164554922Y-83932114D01*
X138154848Y-83932114D01*
X138148994Y-79572450D01*
X138148782Y-79414338D01*
X174687146Y-79414338D01*
X174687146Y-79572451D01*
X174728069Y-79725178D01*
X174728072Y-79725185D01*
X174807121Y-79862104D01*
X174807127Y-79862112D01*
X174850827Y-79905812D01*
X174884312Y-79967135D01*
X174887146Y-79993493D01*
X174887146Y-85493297D01*
X174867461Y-85560336D01*
X174850827Y-85580978D01*
X174807127Y-85624677D01*
X174807121Y-85624685D01*
X174728072Y-85761604D01*
X174728069Y-85761611D01*
X174687146Y-85914338D01*
X174687146Y-86072451D01*
X174728069Y-86225178D01*
X174728072Y-86225185D01*
X174807121Y-86362104D01*
X174807125Y-86362109D01*
X174807126Y-86362111D01*
X174918930Y-86473915D01*
X174918932Y-86473916D01*
X174918936Y-86473919D01*
X175055855Y-86552968D01*
X175055862Y-86552972D01*
X175208589Y-86593895D01*
X175208591Y-86593895D01*
X175366701Y-86593895D01*
X175366703Y-86593895D01*
X175519430Y-86552972D01*
X175656362Y-86473915D01*
X175768166Y-86362111D01*
X175847223Y-86225179D01*
X175888146Y-86072452D01*
X175888146Y-85914338D01*
X175847223Y-85761611D01*
X175822095Y-85718088D01*
X175768170Y-85624685D01*
X175768164Y-85624677D01*
X175724465Y-85580978D01*
X175690980Y-85519655D01*
X175688146Y-85493297D01*
X175688146Y-84892048D01*
X175707831Y-84825009D01*
X175760635Y-84779254D01*
X175829793Y-84769310D01*
X175874146Y-84784661D01*
X175905862Y-84802972D01*
X176058589Y-84843895D01*
X176058591Y-84843895D01*
X176216701Y-84843895D01*
X176216703Y-84843895D01*
X176369430Y-84802972D01*
X176506362Y-84723915D01*
X176550063Y-84680214D01*
X176611386Y-84646729D01*
X176637744Y-84643895D01*
X180749902Y-84643895D01*
X180816941Y-84663580D01*
X180837583Y-84680214D01*
X180881284Y-84723915D01*
X180881286Y-84723916D01*
X180881290Y-84723919D01*
X180959911Y-84769310D01*
X181018216Y-84802972D01*
X181170943Y-84843895D01*
X181170945Y-84843895D01*
X181329055Y-84843895D01*
X181329057Y-84843895D01*
X181481784Y-84802972D01*
X181618716Y-84723915D01*
X181730520Y-84612111D01*
X181809577Y-84475179D01*
X181850500Y-84322452D01*
X181850500Y-84164338D01*
X181809577Y-84011611D01*
X181809573Y-84011604D01*
X181730524Y-83874685D01*
X181730518Y-83874677D01*
X181618717Y-83762876D01*
X181618709Y-83762870D01*
X181481790Y-83683821D01*
X181481786Y-83683819D01*
X181481784Y-83683818D01*
X181329057Y-83642895D01*
X181170943Y-83642895D01*
X181018216Y-83683818D01*
X181018209Y-83683821D01*
X180881290Y-83762870D01*
X180881282Y-83762876D01*
X180837583Y-83806576D01*
X180776260Y-83840061D01*
X180749902Y-83842895D01*
X176637744Y-83842895D01*
X176570705Y-83823210D01*
X176550063Y-83806576D01*
X176506363Y-83762876D01*
X176506355Y-83762870D01*
X176369436Y-83683821D01*
X176369432Y-83683819D01*
X176369430Y-83683818D01*
X176216703Y-83642895D01*
X176058589Y-83642895D01*
X175905862Y-83683818D01*
X175905859Y-83683819D01*
X175874143Y-83702130D01*
X175806243Y-83718600D01*
X175740217Y-83695747D01*
X175697027Y-83640824D01*
X175688146Y-83594741D01*
X175688146Y-79993493D01*
X175707831Y-79926454D01*
X175724465Y-79905812D01*
X175768166Y-79862111D01*
X175847223Y-79725179D01*
X175888146Y-79572452D01*
X175888146Y-79414338D01*
X175847223Y-79261611D01*
X175847219Y-79261604D01*
X175768170Y-79124685D01*
X175768164Y-79124677D01*
X175656363Y-79012876D01*
X175656355Y-79012870D01*
X175519436Y-78933821D01*
X175519432Y-78933819D01*
X175519430Y-78933818D01*
X175366703Y-78892895D01*
X175208589Y-78892895D01*
X175055862Y-78933818D01*
X175055855Y-78933821D01*
X174918936Y-79012870D01*
X174918928Y-79012876D01*
X174807127Y-79124677D01*
X174807121Y-79124685D01*
X174728072Y-79261604D01*
X174728069Y-79261611D01*
X174687146Y-79414338D01*
X138148782Y-79414338D01*
X138148771Y-79406377D01*
X138146637Y-77817200D01*
X138146146Y-77451756D01*
X138145499Y-76969899D01*
X167567646Y-76969899D01*
X167567646Y-77368395D01*
X168267646Y-77368395D01*
X168267646Y-77868395D01*
X167567646Y-77868395D01*
X167567646Y-78266890D01*
X167606073Y-78460076D01*
X167606076Y-78460088D01*
X167681453Y-78642066D01*
X167681460Y-78642079D01*
X167790894Y-78805857D01*
X167790897Y-78805861D01*
X167930179Y-78945143D01*
X167930183Y-78945146D01*
X168093961Y-79054580D01*
X168093974Y-79054587D01*
X168275954Y-79129964D01*
X168317646Y-79138257D01*
X168317646Y-78335383D01*
X168327586Y-78352600D01*
X168383441Y-78408455D01*
X168451850Y-78447951D01*
X168528150Y-78468395D01*
X168607142Y-78468395D01*
X168683442Y-78447951D01*
X168751851Y-78408455D01*
X168807706Y-78352600D01*
X168817646Y-78335383D01*
X168817646Y-79138257D01*
X168859336Y-79129964D01*
X168859338Y-79129964D01*
X169041317Y-79054587D01*
X169041330Y-79054580D01*
X169205108Y-78945146D01*
X169205112Y-78945143D01*
X169344394Y-78805861D01*
X169344397Y-78805857D01*
X169453831Y-78642079D01*
X169453838Y-78642066D01*
X169529215Y-78460088D01*
X169529218Y-78460076D01*
X169567645Y-78266890D01*
X169567646Y-78266887D01*
X169567646Y-77868395D01*
X168867646Y-77868395D01*
X168867646Y-77368395D01*
X169417409Y-77368395D01*
X169484448Y-77388080D01*
X169524795Y-77430394D01*
X169537131Y-77451760D01*
X169644281Y-77558910D01*
X169775511Y-77634676D01*
X169921880Y-77673895D01*
X169921882Y-77673895D01*
X170073410Y-77673895D01*
X170073412Y-77673895D01*
X170219781Y-77634676D01*
X170351011Y-77558910D01*
X170458161Y-77451760D01*
X170533927Y-77320530D01*
X170573146Y-77174161D01*
X170573146Y-77022629D01*
X175202146Y-77022629D01*
X175202146Y-77174160D01*
X175241365Y-77320531D01*
X175269000Y-77368395D01*
X175317131Y-77451760D01*
X175424281Y-77558910D01*
X175555511Y-77634676D01*
X175701880Y-77673895D01*
X175701882Y-77673895D01*
X175853410Y-77673895D01*
X175853412Y-77673895D01*
X175999781Y-77634676D01*
X176131011Y-77558910D01*
X176238161Y-77451760D01*
X176250496Y-77430394D01*
X176301063Y-77382179D01*
X176357883Y-77368395D01*
X176907646Y-77368395D01*
X176907646Y-77868395D01*
X176207646Y-77868395D01*
X176207646Y-78266890D01*
X176246073Y-78460076D01*
X176246076Y-78460088D01*
X176321453Y-78642066D01*
X176321460Y-78642079D01*
X176430894Y-78805857D01*
X176430897Y-78805861D01*
X176570179Y-78945143D01*
X176570183Y-78945146D01*
X176733961Y-79054580D01*
X176733974Y-79054587D01*
X176915954Y-79129964D01*
X176957646Y-79138257D01*
X176957646Y-78335383D01*
X176967586Y-78352600D01*
X177023441Y-78408455D01*
X177091850Y-78447951D01*
X177168150Y-78468395D01*
X177247142Y-78468395D01*
X177323442Y-78447951D01*
X177391851Y-78408455D01*
X177447706Y-78352600D01*
X177457646Y-78335383D01*
X177457646Y-79138257D01*
X177499336Y-79129964D01*
X177499338Y-79129964D01*
X177681317Y-79054587D01*
X177681330Y-79054580D01*
X177845108Y-78945146D01*
X177845112Y-78945143D01*
X177984394Y-78805861D01*
X177984397Y-78805857D01*
X178093831Y-78642079D01*
X178093838Y-78642066D01*
X178169215Y-78460088D01*
X178169218Y-78460076D01*
X178207645Y-78266890D01*
X178207646Y-78266887D01*
X178207646Y-77868395D01*
X177507646Y-77868395D01*
X177507646Y-77368395D01*
X178207646Y-77368395D01*
X178207646Y-76969903D01*
X178207645Y-76969899D01*
X178169218Y-76776713D01*
X178169215Y-76776701D01*
X178093838Y-76594723D01*
X178093831Y-76594710D01*
X177984397Y-76430932D01*
X177984394Y-76430928D01*
X177845112Y-76291646D01*
X177845108Y-76291643D01*
X177681330Y-76182209D01*
X177681317Y-76182202D01*
X177499337Y-76106824D01*
X177499329Y-76106822D01*
X177457646Y-76098530D01*
X177457646Y-76901406D01*
X177447706Y-76884190D01*
X177391851Y-76828335D01*
X177323442Y-76788839D01*
X177247142Y-76768395D01*
X177168150Y-76768395D01*
X177091850Y-76788839D01*
X177023441Y-76828335D01*
X176967586Y-76884190D01*
X176957646Y-76901406D01*
X176957646Y-76098531D01*
X176957645Y-76098530D01*
X176915962Y-76106822D01*
X176915954Y-76106824D01*
X176733974Y-76182202D01*
X176733961Y-76182209D01*
X176570183Y-76291643D01*
X176570179Y-76291646D01*
X176430894Y-76430931D01*
X176321457Y-76594716D01*
X176318595Y-76600071D01*
X176269628Y-76649911D01*
X176201489Y-76665366D01*
X176135811Y-76641529D01*
X176133758Y-76639987D01*
X176131017Y-76637884D01*
X176131012Y-76637881D01*
X176131011Y-76637880D01*
X176056239Y-76594710D01*
X175999782Y-76562114D01*
X175926596Y-76542504D01*
X175853412Y-76522895D01*
X175701880Y-76522895D01*
X175555509Y-76562114D01*
X175424281Y-76637880D01*
X175424278Y-76637882D01*
X175317133Y-76745027D01*
X175317131Y-76745030D01*
X175241365Y-76876258D01*
X175202146Y-77022629D01*
X170573146Y-77022629D01*
X170533927Y-76876260D01*
X170458161Y-76745030D01*
X170351011Y-76637880D01*
X170276239Y-76594710D01*
X170219782Y-76562114D01*
X170146596Y-76542504D01*
X170073412Y-76522895D01*
X169921880Y-76522895D01*
X169775509Y-76562114D01*
X169644272Y-76637885D01*
X169641528Y-76639991D01*
X169638798Y-76641046D01*
X169637243Y-76641944D01*
X169637102Y-76641701D01*
X169576356Y-76665180D01*
X169507913Y-76651136D01*
X169457927Y-76602317D01*
X169456688Y-76600055D01*
X169453833Y-76594713D01*
X169344397Y-76430932D01*
X169344394Y-76430928D01*
X169205112Y-76291646D01*
X169205108Y-76291643D01*
X169041330Y-76182209D01*
X169041317Y-76182202D01*
X168859337Y-76106824D01*
X168859329Y-76106822D01*
X168817646Y-76098530D01*
X168817646Y-76901406D01*
X168807706Y-76884190D01*
X168751851Y-76828335D01*
X168683442Y-76788839D01*
X168607142Y-76768395D01*
X168528150Y-76768395D01*
X168451850Y-76788839D01*
X168383441Y-76828335D01*
X168327586Y-76884190D01*
X168317646Y-76901406D01*
X168317646Y-76098531D01*
X168317645Y-76098530D01*
X168275962Y-76106822D01*
X168275954Y-76106824D01*
X168093974Y-76182202D01*
X168093961Y-76182209D01*
X167930183Y-76291643D01*
X167930179Y-76291646D01*
X167790897Y-76430928D01*
X167790894Y-76430932D01*
X167681460Y-76594710D01*
X167681453Y-76594723D01*
X167606076Y-76776701D01*
X167606073Y-76776713D01*
X167567646Y-76969899D01*
X138145499Y-76969899D01*
X138141931Y-74312390D01*
X142287145Y-74312390D01*
X142314064Y-74447717D01*
X142314067Y-74447727D01*
X142366867Y-74575199D01*
X142366874Y-74575212D01*
X142443531Y-74689936D01*
X142443534Y-74689940D01*
X142541100Y-74787506D01*
X142541104Y-74787509D01*
X142655828Y-74864166D01*
X142655841Y-74864173D01*
X142783313Y-74916973D01*
X142783318Y-74916975D01*
X142783322Y-74916975D01*
X142783323Y-74916976D01*
X142918650Y-74943895D01*
X142918653Y-74943895D01*
X143056641Y-74943895D01*
X143147687Y-74925784D01*
X143191974Y-74916975D01*
X143319457Y-74864170D01*
X143434188Y-74787509D01*
X143531760Y-74689937D01*
X143608421Y-74575206D01*
X143661226Y-74447723D01*
X143688146Y-74312390D01*
X149087145Y-74312390D01*
X149114064Y-74447717D01*
X149114067Y-74447727D01*
X149166867Y-74575199D01*
X149166874Y-74575212D01*
X149243531Y-74689936D01*
X149243534Y-74689940D01*
X149341100Y-74787506D01*
X149341104Y-74787509D01*
X149455828Y-74864166D01*
X149455841Y-74864173D01*
X149583313Y-74916973D01*
X149583318Y-74916975D01*
X149583322Y-74916975D01*
X149583323Y-74916976D01*
X149718650Y-74943895D01*
X149718653Y-74943895D01*
X149856641Y-74943895D01*
X149947687Y-74925784D01*
X149991974Y-74916975D01*
X150119457Y-74864170D01*
X150234188Y-74787509D01*
X150331760Y-74689937D01*
X150408421Y-74575206D01*
X150461226Y-74447723D01*
X150488146Y-74312388D01*
X150488146Y-74174402D01*
X150488146Y-74174399D01*
X150461227Y-74039072D01*
X150461226Y-74039071D01*
X150461226Y-74039067D01*
X150446275Y-74002971D01*
X150408424Y-73911590D01*
X150408417Y-73911577D01*
X150331760Y-73796853D01*
X150331757Y-73796849D01*
X150234191Y-73699283D01*
X150234187Y-73699280D01*
X150119463Y-73622623D01*
X150119450Y-73622616D01*
X149991978Y-73569816D01*
X149991968Y-73569813D01*
X149856641Y-73542895D01*
X149856639Y-73542895D01*
X149718653Y-73542895D01*
X149718651Y-73542895D01*
X149583323Y-73569813D01*
X149583313Y-73569816D01*
X149455841Y-73622616D01*
X149455828Y-73622623D01*
X149341104Y-73699280D01*
X149341100Y-73699283D01*
X149243534Y-73796849D01*
X149243531Y-73796853D01*
X149166874Y-73911577D01*
X149166867Y-73911590D01*
X149114067Y-74039062D01*
X149114064Y-74039072D01*
X149087146Y-74174399D01*
X149087146Y-74174402D01*
X149087146Y-74312388D01*
X149087146Y-74312390D01*
X149087145Y-74312390D01*
X143688146Y-74312390D01*
X143688146Y-74312388D01*
X143688146Y-74174402D01*
X143688146Y-74174399D01*
X143661227Y-74039072D01*
X143661226Y-74039071D01*
X143661226Y-74039067D01*
X143646275Y-74002971D01*
X143608424Y-73911590D01*
X143608417Y-73911577D01*
X143531760Y-73796853D01*
X143531757Y-73796849D01*
X143434191Y-73699283D01*
X143434187Y-73699280D01*
X143319463Y-73622623D01*
X143319450Y-73622616D01*
X143191978Y-73569816D01*
X143191968Y-73569813D01*
X143056641Y-73542895D01*
X143056639Y-73542895D01*
X142918653Y-73542895D01*
X142918651Y-73542895D01*
X142783323Y-73569813D01*
X142783313Y-73569816D01*
X142655841Y-73622616D01*
X142655828Y-73622623D01*
X142541104Y-73699280D01*
X142541100Y-73699283D01*
X142443534Y-73796849D01*
X142443531Y-73796853D01*
X142366874Y-73911577D01*
X142366867Y-73911590D01*
X142314067Y-74039062D01*
X142314064Y-74039072D01*
X142287146Y-74174399D01*
X142287146Y-74174402D01*
X142287146Y-74312388D01*
X142287146Y-74312390D01*
X142287145Y-74312390D01*
X138141931Y-74312390D01*
X138140658Y-73364338D01*
X151399500Y-73364338D01*
X151399500Y-73522452D01*
X151438606Y-73668395D01*
X151440423Y-73675178D01*
X151440426Y-73675185D01*
X151519475Y-73812104D01*
X151519479Y-73812109D01*
X151519480Y-73812111D01*
X151631284Y-73923915D01*
X151631286Y-73923916D01*
X151631290Y-73923919D01*
X151738026Y-73985542D01*
X151768216Y-74002972D01*
X151920943Y-74043895D01*
X151920945Y-74043895D01*
X152079055Y-74043895D01*
X152079057Y-74043895D01*
X152231784Y-74002972D01*
X152368716Y-73923915D01*
X152412417Y-73880214D01*
X152473740Y-73846729D01*
X152500098Y-73843895D01*
X153709330Y-73843895D01*
X153776369Y-73863580D01*
X153822124Y-73916384D01*
X153832068Y-73985542D01*
X153823891Y-74015348D01*
X153814066Y-74039066D01*
X153814064Y-74039072D01*
X153787146Y-74174399D01*
X153787146Y-74174402D01*
X153787146Y-74312388D01*
X153787146Y-74312390D01*
X153787145Y-74312390D01*
X153814064Y-74447717D01*
X153814067Y-74447727D01*
X153866867Y-74575199D01*
X153866874Y-74575212D01*
X153943531Y-74689936D01*
X153943534Y-74689940D01*
X154041100Y-74787506D01*
X154041104Y-74787509D01*
X154155828Y-74864166D01*
X154155841Y-74864173D01*
X154283313Y-74916973D01*
X154283318Y-74916975D01*
X154283322Y-74916975D01*
X154283323Y-74916976D01*
X154418650Y-74943895D01*
X154418653Y-74943895D01*
X154556641Y-74943895D01*
X154647687Y-74925784D01*
X154691974Y-74916975D01*
X154819457Y-74864170D01*
X154934188Y-74787509D01*
X155031760Y-74689937D01*
X155108421Y-74575206D01*
X155161226Y-74447723D01*
X155188146Y-74312388D01*
X155188146Y-74174402D01*
X155188146Y-74174399D01*
X155161227Y-74039072D01*
X155161226Y-74039071D01*
X155161226Y-74039067D01*
X155151400Y-74015347D01*
X155143932Y-73945879D01*
X155175207Y-73883399D01*
X155235296Y-73847747D01*
X155265962Y-73843895D01*
X160509330Y-73843895D01*
X160576369Y-73863580D01*
X160622124Y-73916384D01*
X160632068Y-73985542D01*
X160623891Y-74015348D01*
X160614066Y-74039066D01*
X160614064Y-74039072D01*
X160587146Y-74174399D01*
X160587146Y-74174402D01*
X160587146Y-74312388D01*
X160587146Y-74312390D01*
X160587145Y-74312390D01*
X160614064Y-74447717D01*
X160614067Y-74447727D01*
X160666867Y-74575199D01*
X160666874Y-74575212D01*
X160743531Y-74689936D01*
X160743534Y-74689940D01*
X160841100Y-74787506D01*
X160841104Y-74787509D01*
X160955828Y-74864166D01*
X160955841Y-74864173D01*
X161083313Y-74916973D01*
X161083318Y-74916975D01*
X161083322Y-74916975D01*
X161083323Y-74916976D01*
X161218650Y-74943895D01*
X161218653Y-74943895D01*
X161356641Y-74943895D01*
X161447687Y-74925784D01*
X161491974Y-74916975D01*
X161619457Y-74864170D01*
X161734188Y-74787509D01*
X161831760Y-74689937D01*
X161908421Y-74575206D01*
X161961226Y-74447723D01*
X161988146Y-74312388D01*
X161988146Y-74174402D01*
X161988146Y-74174399D01*
X161961227Y-74039072D01*
X161961226Y-74039071D01*
X161961226Y-74039067D01*
X161951400Y-74015347D01*
X161943932Y-73945879D01*
X161975207Y-73883399D01*
X162035296Y-73847747D01*
X162065962Y-73843895D01*
X163749902Y-73843895D01*
X163816941Y-73863580D01*
X163837583Y-73880214D01*
X163881284Y-73923915D01*
X163881286Y-73923916D01*
X163881290Y-73923919D01*
X163988026Y-73985542D01*
X164018216Y-74002972D01*
X164170943Y-74043895D01*
X164170945Y-74043895D01*
X164329055Y-74043895D01*
X164329057Y-74043895D01*
X164481784Y-74002972D01*
X164618716Y-73923915D01*
X164730520Y-73812111D01*
X164809577Y-73675179D01*
X164850500Y-73522452D01*
X164850500Y-73364338D01*
X164809577Y-73211611D01*
X164809573Y-73211604D01*
X164730524Y-73074685D01*
X164730518Y-73074677D01*
X164618717Y-72962876D01*
X164618709Y-72962870D01*
X164481790Y-72883821D01*
X164481786Y-72883819D01*
X164481784Y-72883818D01*
X164329057Y-72842895D01*
X164170943Y-72842895D01*
X164018216Y-72883818D01*
X164018209Y-72883821D01*
X163881290Y-72962870D01*
X163881282Y-72962876D01*
X163837583Y-73006576D01*
X163776260Y-73040061D01*
X163749902Y-73042895D01*
X152500098Y-73042895D01*
X152433059Y-73023210D01*
X152412417Y-73006576D01*
X152368717Y-72962876D01*
X152368709Y-72962870D01*
X152231790Y-72883821D01*
X152231786Y-72883819D01*
X152231784Y-72883818D01*
X152079057Y-72842895D01*
X151920943Y-72842895D01*
X151768216Y-72883818D01*
X151768209Y-72883821D01*
X151631290Y-72962870D01*
X151631282Y-72962876D01*
X151519481Y-73074677D01*
X151519475Y-73074685D01*
X151440426Y-73211604D01*
X151440423Y-73211611D01*
X151399500Y-73364338D01*
X138140658Y-73364338D01*
X138140011Y-72882814D01*
X138145798Y-72863006D01*
X138146729Y-72842387D01*
X138158583Y-72819251D01*
X138159606Y-72815750D01*
X138162798Y-72811012D01*
X138290729Y-72630399D01*
X138299382Y-72619532D01*
X138514298Y-72378692D01*
X138524112Y-72368864D01*
X138764671Y-72153618D01*
X138775536Y-72144943D01*
X138955932Y-72016802D01*
X139021985Y-71994029D01*
X139027740Y-71993895D01*
X167892192Y-71993895D01*
X167959231Y-72013580D01*
G37*
%TD.AperFunction*%
%TD*%
M02*
