%TF.GenerationSoftware,KiCad,Pcbnew,10.0.4*%
%TF.CreationDate,2026-08-26T17:12:08-07:00*%
%TF.ProjectId,HyperPlex,48797065-7250-46c6-9578-2e6b69636164,rev?*%
%TF.SameCoordinates,Original*%
%TF.FileFunction,Copper,L1,Top*%
%TF.FilePolarity,Positive*%
%FSLAX46Y46*%
G04 Gerber Fmt 4.6, Leading zero omitted, Abs format (unit mm)*
G04 Created by KiCad (PCBNEW 10.0.4) date 2026-08-26 17:12:08*
%MOMM*%
%LPD*%
G01*
G04 APERTURE LIST*
G04 Aperture macros list*
%AMRoundRect*
0 Rectangle with rounded corners*
0 $1 Rounding radius*
0 $2 $3 $4 $5 $6 $7 $8 $9 X,Y pos of 4 corners*
0 Add a 4 corners polygon primitive as box body*
4,1,4,$2,$3,$4,$5,$6,$7,$8,$9,$2,$3,0*
0 Add four circle primitives for the rounded corners*
1,1,$1+$1,$2,$3*
1,1,$1+$1,$4,$5*
1,1,$1+$1,$6,$7*
1,1,$1+$1,$8,$9*
0 Add four rect primitives between the rounded corners*
20,1,$1+$1,$2,$3,$4,$5,0*
20,1,$1+$1,$4,$5,$6,$7,0*
20,1,$1+$1,$6,$7,$8,$9,0*
20,1,$1+$1,$8,$9,$2,$3,0*%
G04 Aperture macros list end*
%TA.AperFunction,SMDPad,CuDef*%
%ADD10RoundRect,0.150000X-0.150000X0.587500X-0.150000X-0.587500X0.150000X-0.587500X0.150000X0.587500X0*%
%TD*%
%TA.AperFunction,SMDPad,CuDef*%
%ADD11RoundRect,0.075000X0.415425X-0.521491X0.521491X-0.415425X-0.415425X0.521491X-0.521491X0.415425X0*%
%TD*%
%TA.AperFunction,SMDPad,CuDef*%
%ADD12RoundRect,0.075000X-0.415425X-0.521491X0.521491X0.415425X0.415425X0.521491X-0.521491X-0.415425X0*%
%TD*%
%TA.AperFunction,SMDPad,CuDef*%
%ADD13RoundRect,0.218750X0.256250X-0.218750X0.256250X0.218750X-0.256250X0.218750X-0.256250X-0.218750X0*%
%TD*%
%TA.AperFunction,SMDPad,CuDef*%
%ADD14RoundRect,0.200000X0.200000X0.275000X-0.200000X0.275000X-0.200000X-0.275000X0.200000X-0.275000X0*%
%TD*%
%TA.AperFunction,SMDPad,CuDef*%
%ADD15RoundRect,0.250000X0.250000X-0.525000X0.250000X0.525000X-0.250000X0.525000X-0.250000X-0.525000X0*%
%TD*%
%TA.AperFunction,SMDPad,CuDef*%
%ADD16RoundRect,0.200000X-0.200000X-0.275000X0.200000X-0.275000X0.200000X0.275000X-0.200000X0.275000X0*%
%TD*%
%TA.AperFunction,SMDPad,CuDef*%
%ADD17RoundRect,0.250000X0.375000X1.000000X-0.375000X1.000000X-0.375000X-1.000000X0.375000X-1.000000X0*%
%TD*%
%TA.AperFunction,SMDPad,CuDef*%
%ADD18RoundRect,0.200000X-0.275000X0.200000X-0.275000X-0.200000X0.275000X-0.200000X0.275000X0.200000X0*%
%TD*%
%TA.AperFunction,SMDPad,CuDef*%
%ADD19RoundRect,0.150000X0.825000X0.150000X-0.825000X0.150000X-0.825000X-0.150000X0.825000X-0.150000X0*%
%TD*%
%TA.AperFunction,HeatsinkPad*%
%ADD20C,0.500000*%
%TD*%
%TA.AperFunction,HeatsinkPad*%
%ADD21R,2.410000X3.300000*%
%TD*%
%TA.AperFunction,SMDPad,CuDef*%
%ADD22RoundRect,0.218750X-0.256250X0.218750X-0.256250X-0.218750X0.256250X-0.218750X0.256250X0.218750X0*%
%TD*%
%TA.AperFunction,SMDPad,CuDef*%
%ADD23RoundRect,0.150000X0.150000X0.470000X-0.150000X0.470000X-0.150000X-0.470000X0.150000X-0.470000X0*%
%TD*%
%TA.AperFunction,SMDPad,CuDef*%
%ADD24RoundRect,0.075000X0.075000X0.545000X-0.075000X0.545000X-0.075000X-0.545000X0.075000X-0.545000X0*%
%TD*%
%TA.AperFunction,ComponentPad*%
%ADD25O,1.000000X2.100000*%
%TD*%
%TA.AperFunction,ComponentPad*%
%ADD26O,1.000000X1.800000*%
%TD*%
%TA.AperFunction,SMDPad,CuDef*%
%ADD27RoundRect,0.200000X0.275000X-0.200000X0.275000X0.200000X-0.275000X0.200000X-0.275000X-0.200000X0*%
%TD*%
%TA.AperFunction,ConnectorPad*%
%ADD28R,1.780000X7.620000*%
%TD*%
%TA.AperFunction,ViaPad*%
%ADD29C,0.600000*%
%TD*%
%TA.AperFunction,Conductor*%
%ADD30C,0.200000*%
%TD*%
G04 APERTURE END LIST*
D10*
%TO.P,Q1,3,C_3*%
%TO.N,/RST*%
X174137646Y-103930896D03*
%TO.P,Q1,2,B_2*%
%TO.N,Net-(Q3-B)*%
X173187646Y-102055895D03*
%TO.P,Q1,1,E_1*%
%TO.N,GND*%
X175087646Y-102055895D03*
%TD*%
D11*
%TO.P,U1,48,VDD_48*%
%TO.N,/3.3V*%
X156999770Y-108744607D03*
%TO.P,U1,47,VSS_47*%
%TO.N,GND*%
X157353324Y-108391053D03*
%TO.P,U1,46,PB9_46*%
%TO.N,unconnected-(U1-PB9-Pad46)*%
X157706877Y-108037500D03*
%TO.P,U1,45,PB8_45*%
%TO.N,unconnected-(U1-PB8-Pad45)*%
X158060431Y-107683946D03*
%TO.P,U1,44,BOOT0_44*%
%TO.N,Net-(U1-BOOT0)*%
X158413984Y-107330393D03*
%TO.P,U1,43,PB7_43*%
%TO.N,unconnected-(U1-PB7-Pad43)*%
X158767537Y-106976840D03*
%TO.P,U1,42,PB6_42*%
%TO.N,unconnected-(U1-PB6-Pad42)*%
X159121091Y-106623286D03*
%TO.P,U1,41,PB5_41*%
%TO.N,unconnected-(U1-PB5-Pad41)*%
X159474644Y-106269733D03*
%TO.P,U1,40,PB4_40*%
%TO.N,unconnected-(U1-PB4-Pad40)*%
X159828197Y-105916180D03*
%TO.P,U1,39,PB3_39*%
%TO.N,unconnected-(U1-PB3-Pad39)*%
X160181751Y-105562626D03*
%TO.P,U1,38,PA15_38*%
%TO.N,unconnected-(U1-PA15-Pad38)*%
X160535304Y-105209073D03*
%TO.P,U1,37,SWCLK_37*%
%TO.N,unconnected-(U1-SWCLK-Pad37)*%
X160888858Y-104855519D03*
D12*
%TO.P,U1,36,VDD_36*%
%TO.N,/3.3V*%
X162886434Y-104855519D03*
%TO.P,U1,35,VSS_35*%
%TO.N,GND*%
X163239988Y-105209073D03*
%TO.P,U1,34,SWDIO_34*%
%TO.N,unconnected-(U1-SWDIO-Pad34)*%
X163593541Y-105562626D03*
%TO.P,U1,33,PA12_33*%
%TO.N,/USBDP*%
X163947095Y-105916180D03*
%TO.P,U1,32,PA11_32*%
%TO.N,/USBDN*%
X164300648Y-106269733D03*
%TO.P,U1,31,PA10_31*%
%TO.N,unconnected-(U1-PA10-Pad31)*%
X164654201Y-106623286D03*
%TO.P,U1,30,PA9_30*%
%TO.N,unconnected-(U1-PA9-Pad30)*%
X165007755Y-106976840D03*
%TO.P,U1,29,PA8_29*%
%TO.N,unconnected-(U1-PA8-Pad29)*%
X165361308Y-107330393D03*
%TO.P,U1,28,PB15_28*%
%TO.N,unconnected-(U1-PB15-Pad28)*%
X165714861Y-107683946D03*
%TO.P,U1,27,PB14_27*%
%TO.N,unconnected-(U1-PB14-Pad27)*%
X166068415Y-108037500D03*
%TO.P,U1,26,PB13_26*%
%TO.N,unconnected-(U1-PB13-Pad26)*%
X166421968Y-108391053D03*
%TO.P,U1,25,PB12_25*%
%TO.N,unconnected-(U1-PB12-Pad25)*%
X166775522Y-108744607D03*
D11*
%TO.P,U1,24,VDD_VIO_24*%
%TO.N,/3.3V*%
X166775522Y-110742183D03*
%TO.P,U1,23,VSS_23*%
%TO.N,GND*%
X166421968Y-111095737D03*
%TO.P,U1,22,PB11_22*%
%TO.N,unconnected-(U1-PB11-Pad22)*%
X166068415Y-111449290D03*
%TO.P,U1,21,PB10_21*%
%TO.N,unconnected-(U1-PB10-Pad21)*%
X165714861Y-111802844D03*
%TO.P,U1,20,PB2_20*%
%TO.N,unconnected-(U1-PB2-Pad20)*%
X165361308Y-112156397D03*
%TO.P,U1,19,PB1_19*%
%TO.N,unconnected-(U1-PB1-Pad19)*%
X165007755Y-112509950D03*
%TO.P,U1,18,PB0_18*%
%TO.N,unconnected-(U1-PB0-Pad18)*%
X164654201Y-112863504D03*
%TO.P,U1,17,PA7_17*%
%TO.N,unconnected-(U1-PA7-Pad17)*%
X164300648Y-113217057D03*
%TO.P,U1,16,PA6_16*%
%TO.N,unconnected-(U1-PA6-Pad16)*%
X163947095Y-113570610D03*
%TO.P,U1,15,PA5_15*%
%TO.N,unconnected-(U1-PA5-Pad15)*%
X163593541Y-113924164D03*
%TO.P,U1,14,PA4_14*%
%TO.N,unconnected-(U1-PA4-Pad14)*%
X163239988Y-114277717D03*
%TO.P,U1,13,PA3_13*%
%TO.N,unconnected-(U1-PA3-Pad13)*%
X162886434Y-114631271D03*
D12*
%TO.P,U1,12,PA2_12*%
%TO.N,unconnected-(U1-PA2-Pad12)*%
X160888858Y-114631271D03*
%TO.P,U1,11,PA1_11*%
%TO.N,unconnected-(U1-PA1-Pad11)*%
X160535304Y-114277717D03*
%TO.P,U1,10,PA0_10*%
%TO.N,unconnected-(U1-PA0-Pad10)*%
X160181751Y-113924164D03*
%TO.P,U1,9,VDDA_9*%
%TO.N,/3.3V*%
X159828197Y-113570610D03*
%TO.P,U1,8,VSSA_8*%
%TO.N,GND*%
X159474644Y-113217057D03*
%TO.P,U1,7,~{RST}_7*%
%TO.N,/RST*%
X159121091Y-112863504D03*
%TO.P,U1,6,OSC_OUT_6*%
%TO.N,unconnected-(U1-OSC_OUT-Pad6)*%
X158767537Y-112509950D03*
%TO.P,U1,5,OSC_IN_5*%
%TO.N,unconnected-(U1-OSC_IN-Pad5)*%
X158413984Y-112156397D03*
%TO.P,U1,4,PC15_4*%
%TO.N,unconnected-(U1-PC15-Pad4)*%
X158060431Y-111802844D03*
%TO.P,U1,3,PC14_3*%
%TO.N,unconnected-(U1-PC14-Pad3)*%
X157706877Y-111449290D03*
%TO.P,U1,2,PC13_2*%
%TO.N,unconnected-(U1-PC13-Pad2)*%
X157353324Y-111095737D03*
%TO.P,U1,1,VBAT_1*%
%TO.N,/3.3V*%
X156999770Y-110742183D03*
%TD*%
D13*
%TO.P,D1,1,K_1*%
%TO.N,Net-(Q2-B)*%
X165587646Y-90655896D03*
%TO.P,D1,2,A_2*%
%TO.N,Net-(D2-A)*%
X165587646Y-89080894D03*
%TD*%
D14*
%TO.P,R4,1*%
%TO.N,GND*%
X169212646Y-102243395D03*
%TO.P,R4,2*%
%TO.N,Net-(U1-BOOT0)*%
X167562646Y-102243395D03*
%TD*%
D15*
%TO.P,SW1,1,1_1*%
%TO.N,/3.3V*%
X164287646Y-99868395D03*
X164287646Y-94618395D03*
%TO.P,SW1,2,2_2*%
%TO.N,Net-(U1-BOOT0)*%
X167487646Y-99868395D03*
X167487646Y-94618395D03*
%TD*%
D16*
%TO.P,R13,1*%
%TO.N,Net-(J1-CC1)*%
X179062646Y-77493395D03*
%TO.P,R13,2*%
%TO.N,GND*%
X180712646Y-77493395D03*
%TD*%
D10*
%TO.P,U3,1,GND_1*%
%TO.N,GND*%
X162337646Y-82555895D03*
%TO.P,U3,2,VO_2*%
%TO.N,Net-(SW3-A)*%
X160437646Y-82555895D03*
%TO.P,U3,3,VI_3*%
%TO.N,/3.3VRAW*%
X161387646Y-84430896D03*
%TD*%
D16*
%TO.P,R1,1*%
%TO.N,/3.3V*%
X162262648Y-90975000D03*
%TO.P,R1,2*%
%TO.N,Net-(D2-A)*%
X163912648Y-90975000D03*
%TD*%
%TO.P,R1,1*%
%TO.N,/3.3V*%
X162262647Y-88725000D03*
%TO.P,R1,2*%
%TO.N,Net-(D1-A)*%
X163912647Y-88725000D03*
%TD*%
D14*
%TO.P,R1,1*%
%TO.N,/3.3V*%
X178962646Y-103493395D03*
%TO.P,R1,2*%
%TO.N,/RST*%
X177312646Y-103493395D03*
%TD*%
D17*
%TO.P,SW2,1,A_1*%
%TO.N,Net-(SW3-A)*%
X160387646Y-76993395D03*
%TO.P,SW2,2,B_2*%
%TO.N,/3.3V*%
X157887646Y-76993395D03*
%TO.P,SW2,3,C_3*%
%TO.N,Net-(SW3-C)*%
X155387646Y-76993395D03*
%TD*%
D18*
%TO.P,R4,1*%
%TO.N,Net-(U4-TEMP)*%
X179750000Y-92175000D03*
%TO.P,R4,2*%
%TO.N,GND*%
X179750000Y-93825000D03*
%TD*%
D15*
%TO.P,SW1,1,1_1*%
%TO.N,Net-(Q3-B)*%
X173037646Y-99868395D03*
X173037646Y-94618395D03*
%TO.P,SW1,2,2_2*%
%TO.N,/3.3V*%
X176237646Y-99868395D03*
X176237646Y-94618395D03*
%TD*%
D10*
%TO.P,U3,1,GND_1*%
%TO.N,GND*%
X157337646Y-82555895D03*
%TO.P,U3,2,VO_2*%
%TO.N,Net-(SW3-C)*%
X155437646Y-82555895D03*
%TO.P,U3,3,VI_3*%
%TO.N,/USB5V*%
X156387646Y-84430896D03*
%TD*%
D19*
%TO.P,U2,1,TEMP_1*%
%TO.N,Net-(U4-TEMP)*%
X176762646Y-91723395D03*
%TO.P,U2,2,PROG_2*%
%TO.N,Net-(U4-PROG)*%
X176762646Y-90453395D03*
%TO.P,U2,3,GND_3*%
%TO.N,GND*%
X176762646Y-89183395D03*
%TO.P,U2,4,V_{CC}_4*%
%TO.N,/USB5V*%
X176762646Y-87913395D03*
%TO.P,U2,5,BAT_5*%
%TO.N,+3.3V*%
X171812646Y-87913395D03*
%TO.P,U2,6,~{STDBY}_6*%
%TO.N,Net-(Q2-B)*%
X171812646Y-89183395D03*
%TO.P,U2,7,~{CHRG}_7*%
%TO.N,Net-(Q1-B)*%
X171812646Y-90453395D03*
%TO.P,U2,8,CE_8*%
%TO.N,/USB5V*%
X171812646Y-91723395D03*
D20*
%TO.P,U2,9,EPAD_9*%
%TO.N,GND*%
X174987646Y-91018395D03*
X174987646Y-89818395D03*
X174987646Y-88618395D03*
D21*
X174287646Y-89818395D03*
D20*
X173587646Y-91018395D03*
X173587646Y-89818395D03*
X173587646Y-88618395D03*
%TD*%
D17*
%TO.P,SW2,1,A_1*%
%TO.N,/3.3VRAW*%
X148887646Y-76993395D03*
%TO.P,SW2,2,B_2*%
%TO.N,+3.3V*%
X146387646Y-76993395D03*
%TO.P,SW2,3,C_3*%
%TO.N,unconnected-(SW2-C-Pad3)*%
X143887646Y-76993395D03*
%TD*%
D14*
%TO.P,R3,1*%
%TO.N,Net-(J1-CC2)*%
X166712646Y-75743395D03*
%TO.P,R3,2*%
%TO.N,GND*%
X165062646Y-75743395D03*
%TD*%
D22*
%TO.P,D1,1,K_1*%
%TO.N,Net-(Q1-B)*%
X167337647Y-89043394D03*
%TO.P,D1,2,A_2*%
%TO.N,Net-(D1-A)*%
X167337647Y-90618396D03*
%TD*%
D23*
%TO.P,J1,A1,GND_A1*%
%TO.N,GND*%
X176087646Y-78218395D03*
%TO.P,J1,A4,VBUS_A4*%
%TO.N,/USB5V*%
X175287646Y-78218395D03*
D24*
%TO.P,J1,A5,CC1_A5*%
%TO.N,Net-(J1-CC1)*%
X174137646Y-78218395D03*
%TO.P,J1,A6,D+_A6*%
%TO.N,/USBDP*%
X173137646Y-78218395D03*
%TO.P,J1,A7,D-_A7*%
%TO.N,/USBDN*%
X172637646Y-78218395D03*
%TO.P,J1,A8,SBU1_A8*%
%TO.N,unconnected-(J1-SBU1-PadA8)*%
X171637646Y-78218395D03*
D23*
%TO.P,J1,A9,VBUS_A9*%
%TO.N,/USB5V*%
X170487646Y-78218395D03*
%TO.P,J1,A12,GND_A12*%
%TO.N,GND*%
X169687646Y-78218395D03*
%TO.P,J1,B1,GND_B1*%
X169687646Y-78218395D03*
%TO.P,J1,B4,VBUS_B4*%
%TO.N,/USB5V*%
X170487646Y-78218395D03*
D24*
%TO.P,J1,B5,CC2_B5*%
%TO.N,Net-(J1-CC2)*%
X171137646Y-78218395D03*
%TO.P,J1,B6,D+_B6*%
%TO.N,/USBDP*%
X172137646Y-78218395D03*
%TO.P,J1,B7,D-_B7*%
%TO.N,/USBDN*%
X173637646Y-78218395D03*
%TO.P,J1,B8,SBU2_B8*%
%TO.N,unconnected-(J1-SBU2-PadB8)*%
X174637646Y-78218395D03*
D23*
%TO.P,J1,B9,VBUS_B9*%
%TO.N,/USB5V*%
X175287646Y-78218395D03*
%TO.P,J1,B12,GND_B12*%
%TO.N,GND*%
X176087646Y-78218395D03*
D25*
%TO.P,J1,SH,SHIELD_SH*%
X177207646Y-77618395D03*
D26*
X177207646Y-73418395D03*
D25*
X168567646Y-77618395D03*
D26*
X168567646Y-73418395D03*
%TD*%
D27*
%TO.P,R2,1*%
%TO.N,Net-(U4-PROG)*%
X179750000Y-90075000D03*
%TO.P,R2,2*%
%TO.N,GND*%
X179750000Y-88425000D03*
%TD*%
D28*
%TO.P,REF\u002A\u002A,C34*%
%TO.N,unconnected-(U1-PB7-Pad43)*%
X140287646Y-121293395D03*
%TO.P,REF\u002A\u002A,C32*%
%TO.N,unconnected-(U1-PB8-Pad45)*%
X142827646Y-121293395D03*
%TO.P,REF\u002A\u002A,C30*%
%TO.N,unconnected-(U1-PB9-Pad46)*%
X145367646Y-121293395D03*
%TO.P,REF\u002A\u002A,C28*%
%TO.N,unconnected-(U1-PC13-Pad2)*%
X147907646Y-121293395D03*
%TO.P,REF\u002A\u002A,C26*%
%TO.N,unconnected-(U1-PC14-Pad3)*%
X150447646Y-121293395D03*
%TO.P,REF\u002A\u002A,C24*%
%TO.N,unconnected-(U1-PC15-Pad4)*%
X152987646Y-121293395D03*
%TO.P,REF\u002A\u002A,C22*%
%TO.N,unconnected-(U1-PA0-Pad10)*%
X155527646Y-121293395D03*
%TO.P,REF\u002A\u002A,C20*%
%TO.N,unconnected-(U1-PA1-Pad11)*%
X158067646Y-121293395D03*
%TO.P,REF\u002A\u002A,C18*%
%TO.N,unconnected-(U1-PA2-Pad12)*%
X160607646Y-121293395D03*
%TO.P,REF\u002A\u002A,C16*%
%TO.N,unconnected-(U1-PA3-Pad13)*%
X163147646Y-121293395D03*
%TO.P,REF\u002A\u002A,C14*%
%TO.N,unconnected-(U1-PA4-Pad14)*%
X165687646Y-121293395D03*
%TO.P,REF\u002A\u002A,C12*%
%TO.N,unconnected-(U1-PA5-Pad15)*%
X168227646Y-121293395D03*
%TO.P,REF\u002A\u002A,C10*%
%TO.N,unconnected-(U1-PA6-Pad16)*%
X170767646Y-121293395D03*
%TO.P,REF\u002A\u002A,C8*%
%TO.N,unconnected-(U1-PA7-Pad17)*%
X173307646Y-121293395D03*
%TO.P,REF\u002A\u002A,C6*%
%TO.N,unconnected-(U1-PB0-Pad18)*%
X175847646Y-121293395D03*
%TO.P,REF\u002A\u002A,C4*%
%TO.N,/3.3V*%
X178387646Y-121293395D03*
%TO.P,REF\u002A\u002A,C2*%
%TO.N,+3.3V*%
X180927646Y-121293395D03*
%TD*%
D29*
%TO.N,+3.3V*%
X164250000Y-73443395D03*
X152000000Y-73443395D03*
%TO.N,GND*%
X179750000Y-93825000D03*
X179750000Y-88425000D03*
%TO.N,unconnected-(U1-PB12-Pad25)*%
X176887646Y-112243395D03*
%TO.N,unconnected-(U1-PB13-Pad26)*%
X176387646Y-111243395D03*
%TO.N,unconnected-(U1-PB14-Pad27)*%
X175387646Y-110493395D03*
%TO.N,unconnected-(U1-PB15-Pad28)*%
X174137646Y-109493395D03*
%TO.N,unconnected-(U1-PA8-Pad29)*%
X172137646Y-108743395D03*
%TO.N,unconnected-(U1-PA9-Pad30)*%
X172887646Y-106493395D03*
%TO.N,unconnected-(U1-PA10-Pad31)*%
X166750000Y-105493395D03*
%TO.N,unconnected-(U1-PB1-Pad19)*%
X178387646Y-115493395D03*
%TO.N,unconnected-(U1-PB2-Pad20)*%
X175637646Y-114743395D03*
%TO.N,unconnected-(U1-PB10-Pad21)*%
X173387646Y-113993395D03*
%TO.N,unconnected-(U1-PB11-Pad22)*%
X170887646Y-113243395D03*
%TO.N,/3.3V*%
X157637646Y-113743395D03*
%TO.N,GND*%
X158387646Y-109493395D03*
X175087646Y-102055895D03*
X169212646Y-102243395D03*
%TO.N,Net-(U1-BOOT0)*%
X167487646Y-99868395D03*
%TO.N,/3.3V*%
X161637646Y-103243395D03*
%TO.N,Net-(U1-BOOT0)*%
X154887646Y-106493395D03*
%TO.N,/3.3V*%
X155387646Y-108993395D03*
%TO.N,unconnected-(U1-PA15-Pad38)*%
X149137646Y-105493395D03*
%TO.N,unconnected-(U1-PB3-Pad39)*%
X150137646Y-105493395D03*
%TO.N,unconnected-(U1-PB4-Pad40)*%
X151137646Y-105493395D03*
%TO.N,unconnected-(U1-PB5-Pad41)*%
X152137646Y-105493395D03*
%TO.N,unconnected-(U1-PB6-Pad42)*%
X152961912Y-105517658D03*
%TO.N,+3.3V*%
X181250000Y-84243395D03*
X176137646Y-84243395D03*
%TO.N,/USB5V*%
X165155422Y-84011171D03*
X168655422Y-80511171D03*
X175287646Y-85993395D03*
X175287646Y-79493395D03*
%TO.N,GND*%
X157337646Y-82555895D03*
X162337646Y-82555895D03*
X176762646Y-89183395D03*
X180712646Y-77493395D03*
X165062646Y-75743395D03*
X169687646Y-78218395D03*
X176087646Y-78218395D03*
X162695580Y-107369349D03*
%TD*%
%TO.N,Net-(U1-BOOT0)*%
D30*
X158413984Y-107330393D02*
X157576986Y-106493395D01*
X157576986Y-106493395D02*
X154887646Y-106493395D01*
%TO.N,+3.3V*%
X183137646Y-82355749D02*
X183137646Y-75243395D01*
X181250000Y-84243395D02*
X183137646Y-86131041D01*
X183137646Y-86131041D02*
X183137646Y-119243395D01*
X165600294Y-73443395D02*
X164250000Y-73443395D01*
X183137646Y-119243395D02*
X180887646Y-121493395D01*
X181250000Y-84243395D02*
X183137646Y-82355749D01*
X183137646Y-75243395D02*
X167400294Y-75243395D01*
X167400294Y-75243395D02*
X165600294Y-73443395D01*
%TO.N,unconnected-(U1-PA6-Pad16)*%
X163947095Y-113570610D02*
X165369880Y-114993395D01*
X165369880Y-114993395D02*
X165637646Y-114993395D01*
X165637646Y-114993395D02*
X167394251Y-116750000D01*
X167409327Y-116750000D02*
X167459327Y-116800001D01*
X167394251Y-116750000D02*
X167409327Y-116750000D01*
X167459327Y-116800001D02*
X168944251Y-116800000D01*
X168944251Y-116800000D02*
X170727646Y-118583395D01*
X170727646Y-118583395D02*
X170727646Y-121493395D01*
%TO.N,unconnected-(U1-PA7-Pad17)*%
X164300648Y-113217057D02*
X165676986Y-114593395D01*
X167475011Y-116250000D02*
X167625012Y-116400000D01*
X165676986Y-114593395D02*
X165803332Y-114593395D01*
X165803332Y-114593395D02*
X167459937Y-116250000D01*
X167459937Y-116250000D02*
X167475011Y-116250000D01*
X173267646Y-117267646D02*
X173267646Y-121493395D01*
X167625012Y-116400000D02*
X169109938Y-116400000D01*
X171527645Y-116993395D02*
X171677646Y-117143395D01*
X169109938Y-116400000D02*
X169703333Y-116993395D01*
X169703333Y-116993395D02*
X171527645Y-116993395D01*
X171677646Y-117143395D02*
X173143395Y-117143395D01*
X173143395Y-117143395D02*
X173267646Y-117267646D01*
%TO.N,unconnected-(U1-PB0-Pad18)*%
X164654201Y-112863504D02*
X167790697Y-116000000D01*
X174500000Y-117000000D02*
X175000000Y-117000000D01*
X167790697Y-116000000D02*
X169275623Y-116000000D01*
X169275623Y-116000000D02*
X169869018Y-116593395D01*
X169869018Y-116593395D02*
X171693332Y-116593395D01*
X171693332Y-116593395D02*
X171843331Y-116743395D01*
X174243395Y-116743395D02*
X174500000Y-117000000D01*
X171843331Y-116743395D02*
X174243395Y-116743395D01*
X175000000Y-117000000D02*
X175807646Y-117807646D01*
X175807646Y-117807646D02*
X175807646Y-121493395D01*
%TO.N,+3.3V*%
X152000000Y-73443395D02*
X148687646Y-73443395D01*
%TO.N,/USBDP*%
X163947095Y-105916180D02*
X165113275Y-104750000D01*
X165113275Y-104750000D02*
X165254695Y-104750000D01*
X167164215Y-104493395D02*
X167770820Y-105100000D01*
X165254695Y-104750000D02*
X165436300Y-104568396D01*
X165436300Y-104568396D02*
X166260784Y-104568396D01*
X166335786Y-104493395D02*
X167164215Y-104493395D01*
X166260784Y-104568396D02*
X166335786Y-104493395D01*
X167770820Y-105100000D02*
X179334314Y-105100000D01*
X179334314Y-105100000D02*
X181350000Y-103084314D01*
X181350000Y-103084314D02*
X181350000Y-87165686D01*
X181350000Y-87165686D02*
X173187646Y-79003332D01*
X173187646Y-79003332D02*
X173187646Y-77698395D01*
%TO.N,/USBDN*%
X164300648Y-106269733D02*
X165601985Y-104968396D01*
X165601985Y-104968396D02*
X166426470Y-104968396D01*
X166426470Y-104968396D02*
X166501471Y-104893395D01*
X166501471Y-104893395D02*
X166998529Y-104893395D01*
X166998529Y-104893395D02*
X167605134Y-105500000D01*
X167605134Y-105500000D02*
X179500000Y-105500000D01*
X179500000Y-105500000D02*
X181750000Y-103250000D01*
X181750000Y-103250000D02*
X181750000Y-87000000D01*
X181750000Y-87000000D02*
X173637646Y-78887646D01*
X173637646Y-78887646D02*
X173637646Y-78218395D01*
%TO.N,unconnected-(U1-PA10-Pad31)*%
X166750000Y-105493395D02*
X165784092Y-105493395D01*
X165784092Y-105493395D02*
X164654201Y-106623286D01*
%TO.N,/RST*%
X177312646Y-103493395D02*
X176875145Y-103930896D01*
X176875145Y-103930896D02*
X174137646Y-103930896D01*
%TO.N,unconnected-(U1-PA9-Pad30)*%
X165737947Y-106246648D02*
X172640899Y-106246648D01*
X172640899Y-106246648D02*
X172887646Y-106493395D01*
X165007755Y-106976840D02*
X165737947Y-106246648D01*
%TO.N,unconnected-(U1-PA8-Pad29)*%
X165361308Y-107330393D02*
X166045054Y-106646647D01*
X166045054Y-106646647D02*
X167841867Y-106646647D01*
X167841867Y-106646647D02*
X168873483Y-107678265D01*
X168873483Y-107782174D02*
X169834704Y-108743395D01*
X169834704Y-108743395D02*
X172137646Y-108743395D01*
X168873483Y-107678265D02*
X168873483Y-107782174D01*
%TO.N,unconnected-(U1-PB15-Pad28)*%
X165714861Y-107683946D02*
X166352161Y-107046646D01*
X167676181Y-107046647D02*
X168473483Y-107843950D01*
X166352161Y-107046646D02*
X167676181Y-107046647D01*
X168473483Y-107843950D02*
X168473483Y-107947860D01*
X168473483Y-107947860D02*
X170019018Y-109493395D01*
X170019018Y-109493395D02*
X174137646Y-109493395D01*
%TO.N,unconnected-(U1-PB14-Pad27)*%
X166068415Y-108037500D02*
X166659269Y-107446646D01*
X166659269Y-107446646D02*
X167510495Y-107446646D01*
X167510495Y-107446646D02*
X168073483Y-108009635D01*
X168073483Y-108009635D02*
X168073483Y-108113546D01*
X168073483Y-108113546D02*
X170453332Y-110493395D01*
X170453332Y-110493395D02*
X175387646Y-110493395D01*
%TO.N,unconnected-(U1-PB13-Pad26)*%
X166421968Y-108391053D02*
X166966375Y-107846646D01*
X166966375Y-107846646D02*
X167344809Y-107846646D01*
X167344809Y-107846646D02*
X167673483Y-108175320D01*
X170637646Y-111243395D02*
X176387646Y-111243395D01*
X167673483Y-108175320D02*
X167673483Y-108279232D01*
X167673483Y-108279232D02*
X170637646Y-111243395D01*
%TO.N,unconnected-(U1-PB12-Pad25)*%
X166775522Y-108744607D02*
X166888858Y-108744607D01*
X166888858Y-108744607D02*
X170137646Y-111993395D01*
X170137646Y-111993395D02*
X176637646Y-111993395D01*
X176637646Y-111993395D02*
X176887646Y-112243395D01*
%TO.N,unconnected-(U1-PB11-Pad22)*%
X167862520Y-113243395D02*
X170887646Y-113243395D01*
X166068415Y-111449290D02*
X167862520Y-113243395D01*
%TO.N,unconnected-(U1-PB10-Pad21)*%
X167905412Y-113993395D02*
X173387646Y-113993395D01*
X165714861Y-111802844D02*
X167905412Y-113993395D01*
%TO.N,unconnected-(U1-PB2-Pad20)*%
X167948306Y-114743395D02*
X175637646Y-114743395D01*
X165361308Y-112156397D02*
X167948306Y-114743395D01*
%TO.N,unconnected-(U1-PB1-Pad19)*%
X167991200Y-115493395D02*
X178387646Y-115493395D01*
X165007755Y-112509950D02*
X167991200Y-115493395D01*
%TO.N,/3.3V*%
X158887646Y-114493395D02*
X158137646Y-113743395D01*
X158137646Y-113743395D02*
X157637646Y-113743395D01*
%TO.N,/RST*%
X159121091Y-112863504D02*
X159665498Y-112319097D01*
X159665498Y-112319097D02*
X159665498Y-107747781D01*
X159665498Y-107747781D02*
X161988473Y-105424806D01*
X161988473Y-105424806D02*
X161988473Y-105076882D01*
X161988473Y-105076882D02*
X163821960Y-103243395D01*
X163821960Y-103243395D02*
X173450145Y-103243395D01*
X173450145Y-103243395D02*
X174137646Y-103930896D01*
%TO.N,GND*%
X162695580Y-107369349D02*
X162695580Y-108380253D01*
X162695580Y-108380253D02*
X160887646Y-110188187D01*
X160887646Y-110188187D02*
X160887646Y-111804055D01*
X160887646Y-111804055D02*
X159474644Y-113217057D01*
X158387646Y-109425375D02*
X158387646Y-109493395D01*
X157353324Y-108391053D02*
X158387646Y-109425375D01*
%TO.N,Net-(Q3-B)*%
X173037646Y-99868395D02*
X173037646Y-101905895D01*
X173037646Y-101905895D02*
X173187646Y-102055895D01*
%TO.N,Net-(U1-BOOT0)*%
X167487646Y-99868395D02*
X167487646Y-100393395D01*
X167562646Y-100468395D02*
X167562646Y-102243395D01*
X167487646Y-100393395D02*
X167562646Y-100468395D01*
X167487646Y-94618395D02*
X167387646Y-94718395D01*
X167387646Y-94718395D02*
X167387646Y-99768395D01*
X167387646Y-99768395D02*
X167487646Y-99868395D01*
%TO.N,unconnected-(U1-PB8-Pad45)*%
X158060431Y-107683946D02*
X157619880Y-107243395D01*
X157619880Y-107243395D02*
X157549168Y-107243395D01*
X157549168Y-107243395D02*
X157445312Y-107139539D01*
X157303891Y-107139539D02*
X157257444Y-107093092D01*
X157445312Y-107139539D02*
X157303891Y-107139539D01*
X157257444Y-107093092D02*
X156618351Y-107093092D01*
X156618351Y-107093092D02*
X156468049Y-107243395D01*
X156468049Y-107243395D02*
X154117646Y-107243395D01*
X154117646Y-107243395D02*
X142787646Y-118573395D01*
X142787646Y-118573395D02*
X142787646Y-121493395D01*
%TO.N,unconnected-(U1-PB9-Pad46)*%
X157706877Y-108037500D02*
X157412772Y-107743395D01*
X157412772Y-107743395D02*
X157342062Y-107743395D01*
X145327646Y-117237709D02*
X145327646Y-121493395D01*
X157342062Y-107743395D02*
X157091759Y-107493092D01*
X157091759Y-107493092D02*
X156784037Y-107493092D01*
X156784037Y-107493092D02*
X156533734Y-107743395D01*
X154821960Y-107743395D02*
X145327646Y-117237709D01*
X156533734Y-107743395D02*
X154821960Y-107743395D01*
%TO.N,/3.3V*%
X156999770Y-108744607D02*
X156888858Y-108744607D01*
X156888858Y-108744607D02*
X156640070Y-108993395D01*
X156640070Y-108993395D02*
X155387646Y-108993395D01*
%TO.N,unconnected-(U1-PB7-Pad43)*%
X158767537Y-106976840D02*
X157684092Y-105893395D01*
X153434704Y-105893395D02*
X153210441Y-106117658D01*
X140247646Y-118573395D02*
X140247646Y-121493395D01*
X157684092Y-105893395D02*
X153434704Y-105893395D01*
X153210441Y-106117658D02*
X152713383Y-106117658D01*
X152713383Y-106117658D02*
X152708383Y-106112658D01*
X152708383Y-106112658D02*
X140247646Y-118573395D01*
%TO.N,unconnected-(U1-PB6-Pad42)*%
X152961912Y-105517658D02*
X152986175Y-105493395D01*
X152986175Y-105493395D02*
X157991200Y-105493395D01*
X157991200Y-105493395D02*
X159121091Y-106623286D01*
%TO.N,unconnected-(U1-PB5-Pad41)*%
X152137646Y-105493395D02*
X152737646Y-104893395D01*
X152737646Y-104893395D02*
X158098306Y-104893395D01*
X158098306Y-104893395D02*
X159474644Y-106269733D01*
%TO.N,unconnected-(U1-PB4-Pad40)*%
X151137646Y-105493395D02*
X152137646Y-104493395D01*
X152137646Y-104493395D02*
X158405412Y-104493395D01*
X158405412Y-104493395D02*
X159828197Y-105916180D01*
%TO.N,unconnected-(U1-PB3-Pad39)*%
X150137646Y-105493395D02*
X151537646Y-104093395D01*
X151537646Y-104093395D02*
X158712520Y-104093395D01*
X158712520Y-104093395D02*
X160181751Y-105562626D01*
%TO.N,unconnected-(U1-PA15-Pad38)*%
X149137646Y-105493395D02*
X150937646Y-103693395D01*
X150937646Y-103693395D02*
X159019626Y-103693395D01*
X159019626Y-103693395D02*
X160535304Y-105209073D01*
%TO.N,unconnected-(U1-PA5-Pad15)*%
X163593541Y-113924164D02*
X168187646Y-118518269D01*
X168187646Y-118518269D02*
X168187646Y-121493395D01*
%TO.N,unconnected-(U1-PA4-Pad14)*%
X163239988Y-114277717D02*
X165647646Y-116685375D01*
X165647646Y-116685375D02*
X165647646Y-121493395D01*
%TO.N,unconnected-(U1-PA3-Pad13)*%
X162886434Y-114631271D02*
X162886434Y-121272183D01*
X162886434Y-121272183D02*
X163107646Y-121493395D01*
%TO.N,unconnected-(U1-PC13-Pad2)*%
X157353324Y-111095737D02*
X155705666Y-112743395D01*
X155705666Y-112743395D02*
X153697646Y-112743395D01*
X153697646Y-112743395D02*
X147867646Y-118573395D01*
X147867646Y-118573395D02*
X147867646Y-121493395D01*
%TO.N,unconnected-(U1-PC14-Pad3)*%
X157706877Y-111449290D02*
X150407646Y-118748521D01*
X150407646Y-118748521D02*
X150407646Y-121493395D01*
%TO.N,unconnected-(U1-PC15-Pad4)*%
X158060431Y-111802844D02*
X152947646Y-116915629D01*
X152947646Y-116915629D02*
X152947646Y-121493395D01*
%TO.N,unconnected-(U1-PA0-Pad10)*%
X160181751Y-113924164D02*
X155487646Y-118618269D01*
X155487646Y-118618269D02*
X155487646Y-121493395D01*
%TO.N,unconnected-(U1-PA1-Pad11)*%
X160535304Y-114277717D02*
X158027646Y-116785375D01*
X158027646Y-116785375D02*
X158027646Y-121493395D01*
%TO.N,unconnected-(U1-PA2-Pad12)*%
X160888858Y-114631271D02*
X160888858Y-121172183D01*
X160888858Y-121172183D02*
X160567646Y-121493395D01*
%TO.N,/3.3V*%
X156888858Y-110742183D02*
X155637646Y-111993395D01*
X156999770Y-110742183D02*
X156888858Y-110742183D01*
X162886434Y-104744607D02*
X163887646Y-103743395D01*
X162886434Y-104855519D02*
X162886434Y-104744607D01*
X166886434Y-110742183D02*
X167887646Y-111743395D01*
X166775522Y-110742183D02*
X166886434Y-110742183D01*
X159810431Y-113570610D02*
X158887646Y-114493395D01*
X159828197Y-113570610D02*
X159810431Y-113570610D01*
%TO.N,/USB5V*%
X165155422Y-84011171D02*
X163698197Y-85468396D01*
%TO.N,+3.3V*%
X171812646Y-87913395D02*
X175482646Y-84243395D01*
X175482646Y-84243395D02*
X176137646Y-84243395D01*
%TO.N,/USB5V*%
X175287646Y-85993395D02*
X175287646Y-86438395D01*
X175365146Y-86515895D02*
X176762646Y-87913395D01*
X160887646Y-85468396D02*
X157425146Y-85468396D01*
X160887646Y-85468396D02*
X160887646Y-90787646D01*
X160887646Y-90787646D02*
X162250000Y-92150000D01*
X162250000Y-92150000D02*
X171386041Y-92150000D01*
X171386041Y-92150000D02*
X171812646Y-91723395D01*
X175287646Y-78218395D02*
X175287646Y-79493395D01*
X175287646Y-86438395D02*
X175365146Y-86515895D01*
%TO.N,Net-(SW3-A)*%
X160387646Y-76993395D02*
X160387646Y-82505895D01*
X160387646Y-82505895D02*
X160437646Y-82555895D01*
%TO.N,Net-(SW3-C)*%
X155387646Y-76993395D02*
X155387646Y-82505895D01*
X155387646Y-82505895D02*
X155437646Y-82555895D01*
%TO.N,/USBDN*%
X172637646Y-78218395D02*
X172637646Y-77565985D01*
X172637646Y-77565985D02*
X172905236Y-77298395D01*
X172905236Y-77298395D02*
X173370056Y-77298395D01*
X173370056Y-77298395D02*
X173637646Y-77565985D01*
X173637646Y-77565985D02*
X173637646Y-78218395D01*
%TO.N,/USBDP*%
X173137646Y-78218395D02*
X173137646Y-78870805D01*
X173137646Y-78870805D02*
X172870056Y-79138395D01*
X172137646Y-78870805D02*
X172137646Y-78218395D01*
X172870056Y-79138395D02*
X172405236Y-79138395D01*
X172405236Y-79138395D02*
X172137646Y-78870805D01*
%TO.N,/USB5V*%
X170487646Y-78218395D02*
X170487646Y-78678947D01*
X170487646Y-78678947D02*
X168655422Y-80511171D01*
X163698197Y-85468396D02*
X160887646Y-85468396D01*
X157425146Y-85468396D02*
X156387646Y-84430896D01*
%TO.N,/3.3VRAW*%
X148887646Y-76993395D02*
X148887646Y-77383947D01*
X148887646Y-77383947D02*
X155156543Y-83652844D01*
X155156543Y-83652844D02*
X155787646Y-83652844D01*
X155787646Y-83652844D02*
X156047094Y-83393396D01*
X156047094Y-83393396D02*
X156728198Y-83393396D01*
X156728198Y-83393396D02*
X157765698Y-84430896D01*
X157765698Y-84430896D02*
X161387646Y-84430896D01*
%TO.N,+3.3V*%
X146387646Y-75743395D02*
X146387646Y-76993395D01*
X148687646Y-73443395D02*
X146387646Y-75743395D01*
%TO.N,Net-(J1-CC1)*%
X179062646Y-77493395D02*
X177312646Y-75743395D01*
X177312646Y-75743395D02*
X175960236Y-75743395D01*
X175960236Y-75743395D02*
X174137646Y-77565985D01*
X174137646Y-77565985D02*
X174137646Y-78218395D01*
%TO.N,Net-(J1-CC2)*%
X166712646Y-75743395D02*
X169597240Y-75743395D01*
X169597240Y-75743395D02*
X171137646Y-77283801D01*
X171137646Y-77283801D02*
X171137646Y-78218395D01*
%TO.N,Net-(Q2-B)*%
X165587646Y-90655896D02*
X166362646Y-89880896D01*
X169960146Y-88305894D02*
X170837647Y-89183395D01*
X170837647Y-89183395D02*
X171812646Y-89183395D01*
X166362646Y-89880896D02*
X166362646Y-88803709D01*
X166860461Y-88305894D02*
X169960146Y-88305894D01*
X166362646Y-88803709D02*
X166860461Y-88305894D01*
%TO.N,Net-(D2-A)*%
X165587646Y-89300002D02*
X163912648Y-90975000D01*
X165587646Y-89080894D02*
X165587646Y-89300002D01*
%TO.N,GND*%
X166421968Y-111095737D02*
X162695580Y-107369349D01*
X162695580Y-105753481D02*
X163239988Y-105209073D01*
X162695580Y-107369349D02*
X162695580Y-105753481D01*
%TO.N,/3.3V*%
X156999770Y-108744607D02*
X156455363Y-108200200D01*
%TO.N,Net-(D1-A)*%
X163212648Y-91462648D02*
X163212648Y-89424999D01*
X166206043Y-91750000D02*
X163500000Y-91750000D01*
X163500000Y-91750000D02*
X163212648Y-91462648D01*
X163212648Y-89424999D02*
X163912647Y-88725000D01*
X167337647Y-90618396D02*
X166206043Y-91750000D01*
%TO.N,Net-(U4-TEMP)*%
X176762646Y-91723395D02*
X179367646Y-91723395D01*
X179367646Y-91723395D02*
X179762646Y-92118395D01*
%TO.N,Net-(U4-PROG)*%
X179427646Y-90453395D02*
X179762646Y-90118395D01*
X176762646Y-90453395D02*
X179427646Y-90453395D01*
%TO.N,Net-(Q1-B)*%
X167337647Y-89043394D02*
X168747648Y-90453395D01*
X168747648Y-90453395D02*
X171812646Y-90453395D01*
%TD*%
%TA.AperFunction,Conductor*%
%TO.N,/3.3V*%
G36*
X168422974Y-72013580D02*
G01*
X168468729Y-72066384D01*
X168478673Y-72135542D01*
X168449648Y-72199098D01*
X168390870Y-72236872D01*
X168380126Y-72239512D01*
X168334156Y-72248656D01*
X168334144Y-72248659D01*
X168188473Y-72308997D01*
X168188460Y-72309004D01*
X168057357Y-72396605D01*
X168057353Y-72396608D01*
X167945859Y-72508102D01*
X167945856Y-72508106D01*
X167858255Y-72639209D01*
X167858248Y-72639222D01*
X167797910Y-72784893D01*
X167797907Y-72784905D01*
X167767146Y-72939548D01*
X167767146Y-73897241D01*
X167797907Y-74051884D01*
X167797910Y-74051896D01*
X167858248Y-74197567D01*
X167858255Y-74197580D01*
X167945856Y-74328683D01*
X167945859Y-74328687D01*
X168057353Y-74440181D01*
X168057357Y-74440184D01*
X168188460Y-74527785D01*
X168188473Y-74527792D01*
X168302957Y-74575212D01*
X168334149Y-74588132D01*
X168353413Y-74591963D01*
X168380126Y-74597278D01*
X168442037Y-74629663D01*
X168476611Y-74690379D01*
X168472872Y-74760148D01*
X168432005Y-74816820D01*
X168366987Y-74842401D01*
X168355935Y-74842895D01*
X167617549Y-74842895D01*
X167550510Y-74823210D01*
X167529868Y-74806576D01*
X165846209Y-73122917D01*
X165846207Y-73122915D01*
X165800544Y-73096551D01*
X165754883Y-73070188D01*
X165703951Y-73056541D01*
X165653021Y-73042895D01*
X165653020Y-73042895D01*
X164750098Y-73042895D01*
X164683059Y-73023210D01*
X164662417Y-73006576D01*
X164618717Y-72962876D01*
X164618709Y-72962870D01*
X164481790Y-72883821D01*
X164481786Y-72883819D01*
X164481784Y-72883818D01*
X164329057Y-72842895D01*
X164170943Y-72842895D01*
X164018216Y-72883818D01*
X164018209Y-72883821D01*
X163881290Y-72962870D01*
X163881282Y-72962876D01*
X163769481Y-73074677D01*
X163769475Y-73074685D01*
X163690426Y-73211604D01*
X163690423Y-73211611D01*
X163649500Y-73364338D01*
X163649500Y-73522452D01*
X163662191Y-73569813D01*
X163690423Y-73675178D01*
X163690426Y-73675185D01*
X163769475Y-73812104D01*
X163769479Y-73812109D01*
X163769480Y-73812111D01*
X163881284Y-73923915D01*
X163881286Y-73923916D01*
X163881290Y-73923919D01*
X163962426Y-73970762D01*
X164018216Y-74002972D01*
X164170943Y-74043895D01*
X164170945Y-74043895D01*
X164329055Y-74043895D01*
X164329057Y-74043895D01*
X164481784Y-74002972D01*
X164618716Y-73923915D01*
X164662417Y-73880214D01*
X164723740Y-73846729D01*
X164750098Y-73843895D01*
X165383039Y-73843895D01*
X165450078Y-73863580D01*
X165470720Y-73880214D01*
X166385005Y-74794499D01*
X166418490Y-74855822D01*
X166413506Y-74925514D01*
X166371634Y-74981447D01*
X166340658Y-74998362D01*
X166270316Y-75024598D01*
X166270310Y-75024601D01*
X166155101Y-75110847D01*
X166155098Y-75110850D01*
X166068852Y-75226059D01*
X166068848Y-75226066D01*
X166018556Y-75360908D01*
X166018555Y-75360912D01*
X166012146Y-75420522D01*
X166012146Y-75420529D01*
X166012146Y-75420530D01*
X166012146Y-76066265D01*
X166012147Y-76066271D01*
X166018554Y-76125878D01*
X166068848Y-76260723D01*
X166068852Y-76260730D01*
X166155098Y-76375939D01*
X166155101Y-76375942D01*
X166270310Y-76462188D01*
X166270317Y-76462192D01*
X166315264Y-76478956D01*
X166405163Y-76512486D01*
X166464773Y-76518895D01*
X166960518Y-76518894D01*
X167020129Y-76512486D01*
X167154977Y-76462191D01*
X167270192Y-76375941D01*
X167356442Y-76260726D01*
X167369931Y-76224561D01*
X167411803Y-76168628D01*
X167477267Y-76144211D01*
X167486113Y-76143895D01*
X168101622Y-76143895D01*
X168168661Y-76163580D01*
X168214416Y-76216384D01*
X168224360Y-76285542D01*
X168195335Y-76349098D01*
X168170513Y-76370997D01*
X168057357Y-76446605D01*
X168057353Y-76446608D01*
X167945859Y-76558102D01*
X167945856Y-76558106D01*
X167858255Y-76689209D01*
X167858248Y-76689222D01*
X167797910Y-76834893D01*
X167797907Y-76834905D01*
X167767146Y-76989548D01*
X167767146Y-78247241D01*
X167797907Y-78401884D01*
X167797910Y-78401896D01*
X167858248Y-78547567D01*
X167858255Y-78547580D01*
X167945856Y-78678683D01*
X167945859Y-78678687D01*
X168057353Y-78790181D01*
X168057357Y-78790184D01*
X168188460Y-78877785D01*
X168188473Y-78877792D01*
X168245172Y-78901277D01*
X168334149Y-78938132D01*
X168488799Y-78968894D01*
X168488802Y-78968895D01*
X168488804Y-78968895D01*
X168646490Y-78968895D01*
X168646491Y-78968894D01*
X168801143Y-78938132D01*
X168946825Y-78877789D01*
X168962747Y-78867149D01*
X169029424Y-78846269D01*
X169096804Y-78864751D01*
X169131412Y-78896615D01*
X169134853Y-78901277D01*
X169215496Y-79010545D01*
X169313743Y-79083054D01*
X169314838Y-79083862D01*
X169357088Y-79139509D01*
X169362547Y-79209165D01*
X169329480Y-79270715D01*
X169328885Y-79271313D01*
X168725848Y-79874352D01*
X168664525Y-79907837D01*
X168638167Y-79910671D01*
X168576365Y-79910671D01*
X168423638Y-79951594D01*
X168423631Y-79951597D01*
X168286712Y-80030646D01*
X168286704Y-80030652D01*
X168174903Y-80142453D01*
X168174897Y-80142461D01*
X168095848Y-80279380D01*
X168095845Y-80279387D01*
X168054922Y-80432114D01*
X168054922Y-80590227D01*
X168095845Y-80742954D01*
X168095848Y-80742961D01*
X168174897Y-80879880D01*
X168174901Y-80879885D01*
X168174902Y-80879887D01*
X168286706Y-80991691D01*
X168286708Y-80991692D01*
X168286712Y-80991695D01*
X168423631Y-81070744D01*
X168423638Y-81070748D01*
X168576365Y-81111671D01*
X168576367Y-81111671D01*
X168734477Y-81111671D01*
X168734479Y-81111671D01*
X168887206Y-81070748D01*
X169024138Y-80991691D01*
X169135942Y-80879887D01*
X169214999Y-80742955D01*
X169255922Y-80590228D01*
X169255922Y-80528426D01*
X169275607Y-80461387D01*
X169292241Y-80440745D01*
X170557772Y-79175214D01*
X170619095Y-79141729D01*
X170620834Y-79141363D01*
X170633017Y-79138895D01*
X170691912Y-79138895D01*
X170722345Y-79136041D01*
X170825784Y-79099846D01*
X170834098Y-79098162D01*
X170860788Y-79100455D01*
X170887540Y-79099090D01*
X170900962Y-79103908D01*
X170903711Y-79104145D01*
X170905531Y-79105548D01*
X170913178Y-79108294D01*
X170954018Y-79128260D01*
X170954019Y-79128260D01*
X170954021Y-79128261D01*
X171027010Y-79138895D01*
X171027016Y-79138895D01*
X171248276Y-79138895D01*
X171248282Y-79138895D01*
X171321271Y-79128261D01*
X171333185Y-79122436D01*
X171402054Y-79110676D01*
X171442104Y-79122435D01*
X171454021Y-79128261D01*
X171527010Y-79138895D01*
X171527016Y-79138895D01*
X171748275Y-79138895D01*
X171748282Y-79138895D01*
X171766197Y-79136284D01*
X171835369Y-79146095D01*
X171871755Y-79171307D01*
X172084755Y-79384307D01*
X172084756Y-79384308D01*
X172159323Y-79458875D01*
X172250649Y-79511602D01*
X172352509Y-79538895D01*
X172352511Y-79538895D01*
X172922781Y-79538895D01*
X172922783Y-79538895D01*
X173024644Y-79511602D01*
X173024645Y-79511601D01*
X173032495Y-79509498D01*
X173033014Y-79511435D01*
X173091719Y-79505120D01*
X173154200Y-79536390D01*
X173157391Y-79539470D01*
X180913181Y-87295259D01*
X180946666Y-87356582D01*
X180949500Y-87382940D01*
X180949500Y-102867058D01*
X180929815Y-102934097D01*
X180913181Y-102954739D01*
X180074327Y-103793593D01*
X180013004Y-103827078D01*
X179943312Y-103822094D01*
X179887379Y-103780222D01*
X179880184Y-103760933D01*
X179862646Y-103743395D01*
X179086646Y-103743395D01*
X179019607Y-103723710D01*
X178973852Y-103670906D01*
X178962646Y-103619395D01*
X178962646Y-103493395D01*
X178836646Y-103493395D01*
X178769607Y-103473710D01*
X178723852Y-103420906D01*
X178712646Y-103369395D01*
X178712646Y-103243395D01*
X179212646Y-103243395D01*
X179862645Y-103243395D01*
X179862645Y-103161812D01*
X179856237Y-103091292D01*
X179856236Y-103091287D01*
X179805664Y-102928998D01*
X179717718Y-102783517D01*
X179597523Y-102663322D01*
X179452041Y-102575375D01*
X179452042Y-102575375D01*
X179289751Y-102524804D01*
X179289752Y-102524804D01*
X179219218Y-102518395D01*
X179212646Y-102518395D01*
X179212646Y-103243395D01*
X178712646Y-103243395D01*
X178712646Y-102518395D01*
X178712645Y-102518394D01*
X178706082Y-102518395D01*
X178706063Y-102518396D01*
X178635543Y-102524803D01*
X178635538Y-102524804D01*
X178473249Y-102575376D01*
X178327768Y-102663322D01*
X178207573Y-102783517D01*
X178126137Y-102918229D01*
X178074609Y-102965417D01*
X178005749Y-102977255D01*
X177941421Y-102949986D01*
X177920754Y-102928390D01*
X177870193Y-102860850D01*
X177870190Y-102860847D01*
X177754981Y-102774601D01*
X177754974Y-102774597D01*
X177620132Y-102724305D01*
X177620131Y-102724304D01*
X177620129Y-102724304D01*
X177560519Y-102717895D01*
X177560509Y-102717895D01*
X177064775Y-102717895D01*
X177064769Y-102717896D01*
X177005162Y-102724303D01*
X176870317Y-102774597D01*
X176870310Y-102774601D01*
X176755101Y-102860847D01*
X176755098Y-102860850D01*
X176668852Y-102976059D01*
X176668848Y-102976066D01*
X176618556Y-103110908D01*
X176618555Y-103110912D01*
X176612146Y-103170522D01*
X176612146Y-103338808D01*
X176612147Y-103406395D01*
X176592463Y-103473435D01*
X176539659Y-103519190D01*
X176488147Y-103530396D01*
X174862146Y-103530396D01*
X174856800Y-103528826D01*
X174851338Y-103529924D01*
X174823640Y-103519089D01*
X174795107Y-103510711D01*
X174791458Y-103506500D01*
X174786270Y-103504471D01*
X174768825Y-103480380D01*
X174749352Y-103457907D01*
X174747697Y-103451203D01*
X174745291Y-103447880D01*
X174741627Y-103426610D01*
X174738337Y-103413278D01*
X174738146Y-103409841D01*
X174738146Y-103289130D01*
X174735292Y-103258697D01*
X174728696Y-103239848D01*
X174727723Y-103222334D01*
X174731850Y-103204711D01*
X174730927Y-103186635D01*
X174739653Y-103171399D01*
X174743657Y-103154306D01*
X174756656Y-103141712D01*
X174765653Y-103126005D01*
X174781229Y-103117906D01*
X174793840Y-103105690D01*
X174811586Y-103102123D01*
X174827644Y-103093775D01*
X174861618Y-103092068D01*
X174862340Y-103091924D01*
X174862586Y-103092020D01*
X174863110Y-103091994D01*
X174883380Y-103093895D01*
X175291916Y-103093895D01*
X175322345Y-103091041D01*
X175322347Y-103091041D01*
X175386436Y-103068614D01*
X175450528Y-103046188D01*
X175559796Y-102965545D01*
X175640439Y-102856277D01*
X175669866Y-102772179D01*
X175685292Y-102728096D01*
X175685292Y-102728094D01*
X175688146Y-102697664D01*
X175688146Y-101414125D01*
X175685292Y-101383695D01*
X175685292Y-101383693D01*
X175649662Y-101281871D01*
X175646099Y-101212093D01*
X175680828Y-101151465D01*
X175742821Y-101119237D01*
X175805708Y-101123210D01*
X175834951Y-101132900D01*
X175834955Y-101132901D01*
X175937665Y-101143394D01*
X176487646Y-101143394D01*
X176537618Y-101143394D01*
X176537632Y-101143393D01*
X176640343Y-101132900D01*
X176806765Y-101077753D01*
X176806770Y-101077751D01*
X176955991Y-100985710D01*
X177079961Y-100861740D01*
X177172002Y-100712519D01*
X177172004Y-100712514D01*
X177227151Y-100546092D01*
X177227152Y-100546085D01*
X177237645Y-100443381D01*
X177237646Y-100443368D01*
X177237646Y-100118395D01*
X176487646Y-100118395D01*
X176487646Y-101143394D01*
X175937665Y-101143394D01*
X175987645Y-101143393D01*
X175987646Y-101143393D01*
X175987646Y-100118395D01*
X175237647Y-100118395D01*
X175237647Y-100443381D01*
X175248140Y-100546092D01*
X175303287Y-100712514D01*
X175303289Y-100712519D01*
X175375011Y-100828798D01*
X175393451Y-100896191D01*
X175372528Y-100962854D01*
X175318886Y-101007624D01*
X175269472Y-101017895D01*
X174883376Y-101017895D01*
X174852946Y-101020748D01*
X174852944Y-101020748D01*
X174724765Y-101065601D01*
X174724763Y-101065602D01*
X174615496Y-101146245D01*
X174534853Y-101255512D01*
X174534852Y-101255514D01*
X174489999Y-101383693D01*
X174489999Y-101383695D01*
X174487146Y-101414125D01*
X174487146Y-102697664D01*
X174489999Y-102728093D01*
X174490801Y-102730384D01*
X174490892Y-102732184D01*
X174491610Y-102735468D01*
X174491066Y-102735586D01*
X174494362Y-102800163D01*
X174459633Y-102860790D01*
X174397639Y-102893017D01*
X174362184Y-102894797D01*
X174357793Y-102894385D01*
X174341912Y-102892896D01*
X173933380Y-102892896D01*
X173923419Y-102893830D01*
X173913106Y-102894797D01*
X173844522Y-102881456D01*
X173794038Y-102833153D01*
X173777683Y-102765225D01*
X173784493Y-102730376D01*
X173785292Y-102728094D01*
X173788146Y-102697661D01*
X173788146Y-101414129D01*
X173787501Y-101407255D01*
X173785292Y-101383695D01*
X173785292Y-101383693D01*
X173749662Y-101281871D01*
X173740439Y-101255513D01*
X173659796Y-101146245D01*
X173563144Y-101074913D01*
X173520895Y-101019267D01*
X173515436Y-100949611D01*
X173548503Y-100888061D01*
X173561845Y-100876347D01*
X173680568Y-100786317D01*
X173772007Y-100665737D01*
X173827523Y-100524959D01*
X173838146Y-100436497D01*
X173838146Y-99300293D01*
X173837319Y-99293408D01*
X175237646Y-99293408D01*
X175237646Y-99618395D01*
X175987646Y-99618395D01*
X176487646Y-99618395D01*
X177237645Y-99618395D01*
X177237645Y-99293423D01*
X177237644Y-99293408D01*
X177227151Y-99190697D01*
X177172004Y-99024275D01*
X177172002Y-99024270D01*
X177079961Y-98875049D01*
X176955991Y-98751079D01*
X176806770Y-98659038D01*
X176806765Y-98659036D01*
X176640343Y-98603889D01*
X176640336Y-98603888D01*
X176537632Y-98593395D01*
X176487646Y-98593395D01*
X176487646Y-99618395D01*
X175987646Y-99618395D01*
X175987646Y-98593395D01*
X175987645Y-98593394D01*
X175937675Y-98593395D01*
X175937657Y-98593396D01*
X175834948Y-98603889D01*
X175668526Y-98659036D01*
X175668521Y-98659038D01*
X175519300Y-98751079D01*
X175395330Y-98875049D01*
X175303289Y-99024270D01*
X175303287Y-99024275D01*
X175248140Y-99190697D01*
X175248139Y-99190704D01*
X175237646Y-99293408D01*
X173837319Y-99293408D01*
X173827523Y-99211831D01*
X173772007Y-99071053D01*
X173772006Y-99071052D01*
X173772006Y-99071051D01*
X173680568Y-98950472D01*
X173559989Y-98859034D01*
X173419207Y-98803517D01*
X173373572Y-98798037D01*
X173330748Y-98792895D01*
X172744544Y-98792895D01*
X172705499Y-98797583D01*
X172656084Y-98803517D01*
X172515302Y-98859034D01*
X172394723Y-98950472D01*
X172303285Y-99071051D01*
X172247768Y-99211833D01*
X172241834Y-99261248D01*
X172237146Y-99300293D01*
X172237146Y-100436497D01*
X172237973Y-100443381D01*
X172247768Y-100524956D01*
X172303285Y-100665738D01*
X172394723Y-100786317D01*
X172515301Y-100877754D01*
X172515304Y-100877756D01*
X172558636Y-100894843D01*
X172575226Y-100907751D01*
X172594349Y-100916485D01*
X172602248Y-100928776D01*
X172613780Y-100937749D01*
X172620758Y-100957578D01*
X172632123Y-100975263D01*
X172635675Y-100999967D01*
X172636973Y-101003656D01*
X172637146Y-101010198D01*
X172637146Y-101227890D01*
X172630188Y-101268844D01*
X172589999Y-101383697D01*
X172587146Y-101414125D01*
X172587146Y-101414129D01*
X172587146Y-102697661D01*
X172587944Y-102706171D01*
X172588052Y-102707320D01*
X172574711Y-102775904D01*
X172526409Y-102826388D01*
X172464593Y-102842895D01*
X170004388Y-102842895D01*
X169937349Y-102823210D01*
X169891594Y-102770406D01*
X169881650Y-102701248D01*
X169888206Y-102675561D01*
X169890084Y-102670528D01*
X169906737Y-102625878D01*
X169913146Y-102566268D01*
X169913145Y-101920523D01*
X169906737Y-101860912D01*
X169899195Y-101840692D01*
X169856443Y-101726066D01*
X169856439Y-101726059D01*
X169770193Y-101610850D01*
X169770190Y-101610847D01*
X169654981Y-101524601D01*
X169654974Y-101524597D01*
X169520132Y-101474305D01*
X169520131Y-101474304D01*
X169520129Y-101474304D01*
X169460519Y-101467895D01*
X169460509Y-101467895D01*
X168964775Y-101467895D01*
X168964769Y-101467896D01*
X168905162Y-101474303D01*
X168770317Y-101524597D01*
X168770310Y-101524601D01*
X168655101Y-101610847D01*
X168655098Y-101610850D01*
X168568852Y-101726059D01*
X168568848Y-101726066D01*
X168518556Y-101860908D01*
X168518555Y-101860912D01*
X168512146Y-101920522D01*
X168512146Y-101920529D01*
X168512146Y-101920530D01*
X168512146Y-102566265D01*
X168512147Y-102566271D01*
X168518554Y-102625876D01*
X168525163Y-102643595D01*
X168535208Y-102670528D01*
X168537086Y-102675561D01*
X168539275Y-102706171D01*
X168543642Y-102736542D01*
X168541744Y-102740697D01*
X168542070Y-102745253D01*
X168527366Y-102772179D01*
X168514617Y-102800098D01*
X168510773Y-102802568D01*
X168508585Y-102806576D01*
X168481657Y-102821279D01*
X168455839Y-102837872D01*
X168449638Y-102838763D01*
X168447262Y-102840061D01*
X168420904Y-102842895D01*
X168354388Y-102842895D01*
X168287349Y-102823210D01*
X168241594Y-102770406D01*
X168231650Y-102701248D01*
X168238206Y-102675561D01*
X168240084Y-102670528D01*
X168256737Y-102625878D01*
X168263146Y-102566268D01*
X168263145Y-101920523D01*
X168256737Y-101860912D01*
X168249195Y-101840692D01*
X168206443Y-101726066D01*
X168206439Y-101726059D01*
X168120193Y-101610850D01*
X168012834Y-101530480D01*
X167970964Y-101474546D01*
X167963146Y-101431214D01*
X167963146Y-100974866D01*
X167982831Y-100907827D01*
X168012218Y-100876064D01*
X168130568Y-100786317D01*
X168222007Y-100665737D01*
X168277523Y-100524959D01*
X168288146Y-100436497D01*
X168288146Y-99300293D01*
X168277523Y-99211831D01*
X168222007Y-99071053D01*
X168222006Y-99071052D01*
X168222006Y-99071051D01*
X168130568Y-98950472D01*
X168009987Y-98859033D01*
X168009985Y-98859032D01*
X167866656Y-98802510D01*
X167811512Y-98759604D01*
X167788319Y-98693697D01*
X167788146Y-98687156D01*
X167788146Y-95799633D01*
X167807831Y-95732594D01*
X167860635Y-95686839D01*
X167866656Y-95684278D01*
X167869205Y-95683272D01*
X167869210Y-95683272D01*
X168009988Y-95627756D01*
X168130568Y-95536317D01*
X168222007Y-95415737D01*
X168277523Y-95274959D01*
X168288146Y-95186497D01*
X168288146Y-94050293D01*
X172237146Y-94050293D01*
X172237146Y-95186497D01*
X172237973Y-95193381D01*
X172247768Y-95274956D01*
X172303285Y-95415738D01*
X172394723Y-95536317D01*
X172515302Y-95627755D01*
X172515303Y-95627755D01*
X172515304Y-95627756D01*
X172656082Y-95683272D01*
X172744544Y-95693895D01*
X172744549Y-95693895D01*
X173330743Y-95693895D01*
X173330748Y-95693895D01*
X173419210Y-95683272D01*
X173559988Y-95627756D01*
X173680568Y-95536317D01*
X173772007Y-95415737D01*
X173827523Y-95274959D01*
X173837319Y-95193381D01*
X175237647Y-95193381D01*
X175248140Y-95296092D01*
X175303287Y-95462514D01*
X175303289Y-95462519D01*
X175395330Y-95611740D01*
X175519300Y-95735710D01*
X175668521Y-95827751D01*
X175668526Y-95827753D01*
X175834948Y-95882900D01*
X175834955Y-95882901D01*
X175937665Y-95893394D01*
X176487646Y-95893394D01*
X176537618Y-95893394D01*
X176537632Y-95893393D01*
X176640343Y-95882900D01*
X176806765Y-95827753D01*
X176806770Y-95827751D01*
X176955991Y-95735710D01*
X177079961Y-95611740D01*
X177172002Y-95462519D01*
X177172004Y-95462514D01*
X177227151Y-95296092D01*
X177227152Y-95296085D01*
X177237645Y-95193381D01*
X177237646Y-95193368D01*
X177237646Y-94868395D01*
X176487646Y-94868395D01*
X176487646Y-95893394D01*
X175937665Y-95893394D01*
X175987645Y-95893393D01*
X175987646Y-95893393D01*
X175987646Y-94868395D01*
X175237647Y-94868395D01*
X175237647Y-95193381D01*
X173837319Y-95193381D01*
X173838146Y-95186497D01*
X173838146Y-94050293D01*
X173837319Y-94043408D01*
X175237646Y-94043408D01*
X175237646Y-94368395D01*
X175987646Y-94368395D01*
X176487646Y-94368395D01*
X177237645Y-94368395D01*
X177237645Y-94043423D01*
X177237644Y-94043408D01*
X177227151Y-93940697D01*
X177172004Y-93774275D01*
X177171999Y-93774264D01*
X177088507Y-93638903D01*
X177088505Y-93638901D01*
X177079961Y-93625049D01*
X177032039Y-93577127D01*
X178974500Y-93577127D01*
X178974500Y-93577134D01*
X178974500Y-93577135D01*
X178974500Y-94072870D01*
X178974501Y-94072876D01*
X178980908Y-94132483D01*
X179031202Y-94267328D01*
X179031206Y-94267335D01*
X179117452Y-94382544D01*
X179117455Y-94382547D01*
X179232664Y-94468793D01*
X179232671Y-94468797D01*
X179277618Y-94485561D01*
X179367517Y-94519091D01*
X179427127Y-94525500D01*
X180072872Y-94525499D01*
X180132483Y-94519091D01*
X180267331Y-94468796D01*
X180382546Y-94382546D01*
X180468796Y-94267331D01*
X180519091Y-94132483D01*
X180525500Y-94072873D01*
X180525499Y-93577128D01*
X180519091Y-93517517D01*
X180478630Y-93409036D01*
X180468797Y-93382671D01*
X180468793Y-93382664D01*
X180382547Y-93267455D01*
X180382544Y-93267452D01*
X180267335Y-93181206D01*
X180267328Y-93181202D01*
X180132486Y-93130910D01*
X180132485Y-93130909D01*
X180132483Y-93130909D01*
X180072873Y-93124500D01*
X180072863Y-93124500D01*
X179427129Y-93124500D01*
X179427123Y-93124501D01*
X179367516Y-93130908D01*
X179232671Y-93181202D01*
X179232664Y-93181206D01*
X179117455Y-93267452D01*
X179117452Y-93267455D01*
X179031206Y-93382664D01*
X179031202Y-93382671D01*
X178980910Y-93517513D01*
X178980909Y-93517517D01*
X178974500Y-93577127D01*
X177032039Y-93577127D01*
X176955991Y-93501079D01*
X176806770Y-93409038D01*
X176806765Y-93409036D01*
X176640343Y-93353889D01*
X176640336Y-93353888D01*
X176537632Y-93343395D01*
X176487646Y-93343395D01*
X176487646Y-94368395D01*
X175987646Y-94368395D01*
X175987646Y-93343395D01*
X175987645Y-93343394D01*
X175937675Y-93343395D01*
X175937657Y-93343396D01*
X175834948Y-93353889D01*
X175668526Y-93409036D01*
X175668521Y-93409038D01*
X175519300Y-93501079D01*
X175395330Y-93625049D01*
X175303289Y-93774270D01*
X175303287Y-93774275D01*
X175248140Y-93940697D01*
X175248139Y-93940704D01*
X175237646Y-94043408D01*
X173837319Y-94043408D01*
X173827523Y-93961831D01*
X173772007Y-93821053D01*
X173772006Y-93821052D01*
X173772006Y-93821051D01*
X173680568Y-93700472D01*
X173559989Y-93609034D01*
X173419207Y-93553517D01*
X173373572Y-93548037D01*
X173330748Y-93542895D01*
X172744544Y-93542895D01*
X172705499Y-93547583D01*
X172656084Y-93553517D01*
X172515302Y-93609034D01*
X172394723Y-93700472D01*
X172303285Y-93821051D01*
X172247768Y-93961833D01*
X172241834Y-94011248D01*
X172237146Y-94050293D01*
X168288146Y-94050293D01*
X168277523Y-93961831D01*
X168222007Y-93821053D01*
X168222006Y-93821052D01*
X168222006Y-93821051D01*
X168130568Y-93700472D01*
X168009989Y-93609034D01*
X167869207Y-93553517D01*
X167823572Y-93548037D01*
X167780748Y-93542895D01*
X167194544Y-93542895D01*
X167155499Y-93547583D01*
X167106084Y-93553517D01*
X166965302Y-93609034D01*
X166844723Y-93700472D01*
X166753285Y-93821051D01*
X166697768Y-93961833D01*
X166691834Y-94011248D01*
X166687146Y-94050293D01*
X166687146Y-95186497D01*
X166687973Y-95193381D01*
X166697768Y-95274956D01*
X166753285Y-95415738D01*
X166844723Y-95536317D01*
X166901133Y-95579094D01*
X166938071Y-95607105D01*
X166979594Y-95663296D01*
X166987146Y-95705908D01*
X166987146Y-98780881D01*
X166967461Y-98847920D01*
X166938071Y-98879685D01*
X166844723Y-98950472D01*
X166753285Y-99071051D01*
X166697768Y-99211833D01*
X166691834Y-99261248D01*
X166687146Y-99300293D01*
X166687146Y-100436497D01*
X166687973Y-100443381D01*
X166697768Y-100524956D01*
X166753285Y-100665738D01*
X166844723Y-100786317D01*
X166965303Y-100877756D01*
X166998906Y-100891006D01*
X167083637Y-100924421D01*
X167138779Y-100967325D01*
X167161973Y-101033232D01*
X167162146Y-101039774D01*
X167162146Y-101431214D01*
X167142461Y-101498253D01*
X167112458Y-101530480D01*
X167005098Y-101610850D01*
X166918852Y-101726059D01*
X166918848Y-101726066D01*
X166868556Y-101860908D01*
X166868555Y-101860912D01*
X166862146Y-101920522D01*
X166862146Y-101920529D01*
X166862146Y-101920530D01*
X166862146Y-102566265D01*
X166862147Y-102566271D01*
X166868554Y-102625876D01*
X166875163Y-102643595D01*
X166885208Y-102670528D01*
X166887086Y-102675561D01*
X166892070Y-102745253D01*
X166858585Y-102806576D01*
X166797262Y-102840061D01*
X166770904Y-102842895D01*
X163769233Y-102842895D01*
X163667370Y-102870188D01*
X163576047Y-102922915D01*
X163576044Y-102922917D01*
X161672383Y-104826578D01*
X161611060Y-104860063D01*
X161541368Y-104855079D01*
X161497021Y-104826578D01*
X160713750Y-104043307D01*
X160654625Y-103999220D01*
X160654623Y-103999219D01*
X160536094Y-103958528D01*
X160536093Y-103958528D01*
X160410772Y-103958528D01*
X160410771Y-103958528D01*
X160292243Y-103999219D01*
X160292240Y-103999220D01*
X160233116Y-104043307D01*
X160172204Y-104104219D01*
X160110880Y-104137703D01*
X160041189Y-104132718D01*
X159996842Y-104104218D01*
X159265541Y-103372917D01*
X159265539Y-103372915D01*
X159219876Y-103346551D01*
X159174215Y-103320188D01*
X159123283Y-103306541D01*
X159072353Y-103292895D01*
X150884919Y-103292895D01*
X150783059Y-103320188D01*
X150783056Y-103320189D01*
X150750810Y-103338807D01*
X150721271Y-103355861D01*
X150691734Y-103372914D01*
X150691731Y-103372916D01*
X149208072Y-104856576D01*
X149146749Y-104890061D01*
X149120391Y-104892895D01*
X149058589Y-104892895D01*
X148905862Y-104933818D01*
X148905855Y-104933821D01*
X148768936Y-105012870D01*
X148768928Y-105012876D01*
X148657127Y-105124677D01*
X148657121Y-105124685D01*
X148578072Y-105261604D01*
X148578069Y-105261611D01*
X148537146Y-105414338D01*
X148537146Y-105572452D01*
X148571525Y-105700754D01*
X148578069Y-105725178D01*
X148578072Y-105725185D01*
X148657121Y-105862104D01*
X148657125Y-105862109D01*
X148657126Y-105862111D01*
X148768930Y-105973915D01*
X148768932Y-105973916D01*
X148768936Y-105973919D01*
X148836411Y-106012875D01*
X148905862Y-106052972D01*
X149058589Y-106093895D01*
X149058591Y-106093895D01*
X149216701Y-106093895D01*
X149216703Y-106093895D01*
X149369430Y-106052972D01*
X149506362Y-105973915D01*
X149549965Y-105930312D01*
X149611288Y-105896827D01*
X149680980Y-105901811D01*
X149725327Y-105930312D01*
X149768930Y-105973915D01*
X149768932Y-105973916D01*
X149768936Y-105973919D01*
X149836411Y-106012875D01*
X149905862Y-106052972D01*
X150058589Y-106093895D01*
X150058591Y-106093895D01*
X150216701Y-106093895D01*
X150216703Y-106093895D01*
X150369430Y-106052972D01*
X150506362Y-105973915D01*
X150549965Y-105930312D01*
X150611288Y-105896827D01*
X150680980Y-105901811D01*
X150725327Y-105930312D01*
X150768930Y-105973915D01*
X150768932Y-105973916D01*
X150768936Y-105973919D01*
X150836411Y-106012875D01*
X150905862Y-106052972D01*
X151058589Y-106093895D01*
X151058591Y-106093895D01*
X151216701Y-106093895D01*
X151216703Y-106093895D01*
X151369430Y-106052972D01*
X151506362Y-105973915D01*
X151549965Y-105930312D01*
X151611288Y-105896827D01*
X151680980Y-105901811D01*
X151725327Y-105930312D01*
X151768930Y-105973915D01*
X151768932Y-105973916D01*
X151768936Y-105973919D01*
X151836411Y-106012875D01*
X151905862Y-106052972D01*
X151931709Y-106059897D01*
X151991366Y-106096259D01*
X152021897Y-106159105D01*
X152013603Y-106228481D01*
X151987295Y-106267352D01*
X141108070Y-117146576D01*
X141046747Y-117180061D01*
X141020389Y-117182895D01*
X139352789Y-117182895D01*
X139352763Y-117182897D01*
X139327658Y-117185808D01*
X139327654Y-117185810D01*
X139224881Y-117231188D01*
X139145440Y-117310629D01*
X139100061Y-117413401D01*
X139100061Y-117413403D01*
X139097146Y-117438526D01*
X139097146Y-124445428D01*
X139092021Y-124462880D01*
X139091913Y-124481070D01*
X139082381Y-124495709D01*
X139077461Y-124512467D01*
X139063716Y-124524376D01*
X139053790Y-124539623D01*
X139037855Y-124546785D01*
X139024657Y-124558222D01*
X139006654Y-124560810D01*
X138990062Y-124568269D01*
X138972787Y-124565680D01*
X138955499Y-124568166D01*
X138938953Y-124560609D01*
X138920964Y-124557914D01*
X138892575Y-124539429D01*
X138891943Y-124539141D01*
X138891387Y-124538656D01*
X138747663Y-124412613D01*
X138736194Y-124401144D01*
X138574461Y-124216724D01*
X138564587Y-124203855D01*
X138428310Y-123999901D01*
X138420200Y-123985855D01*
X138314268Y-123771047D01*
X138311707Y-123765853D01*
X138305503Y-123750874D01*
X138226656Y-123518597D01*
X138222458Y-123502930D01*
X138214599Y-123463421D01*
X138174603Y-123262348D01*
X138172488Y-123246290D01*
X138156178Y-122997438D01*
X138155913Y-122989328D01*
X138155913Y-122920031D01*
X138155839Y-122918934D01*
X138138150Y-104997496D01*
X138138413Y-104989299D01*
X138154721Y-104740496D01*
X138156835Y-104724444D01*
X138204691Y-104483857D01*
X138208889Y-104468192D01*
X138255325Y-104331395D01*
X138287739Y-104235907D01*
X138293937Y-104220942D01*
X138402436Y-104000928D01*
X138410543Y-103986888D01*
X138484717Y-103875878D01*
X138546823Y-103782929D01*
X138556685Y-103770076D01*
X138718432Y-103585639D01*
X138729890Y-103574181D01*
X138914327Y-103412434D01*
X138927180Y-103402572D01*
X139131139Y-103266292D01*
X139145179Y-103258185D01*
X139365193Y-103149686D01*
X139380158Y-103143488D01*
X139544408Y-103087732D01*
X139612443Y-103064638D01*
X139628110Y-103060440D01*
X139868694Y-103012585D01*
X139884748Y-103010470D01*
X140133603Y-102994160D01*
X140141713Y-102993895D01*
X156044891Y-102993895D01*
X156044896Y-102993895D01*
X156357672Y-102961021D01*
X156665298Y-102895633D01*
X156964405Y-102798448D01*
X157251714Y-102670529D01*
X157524078Y-102513280D01*
X157778513Y-102328422D01*
X158012232Y-102117981D01*
X158222673Y-101884262D01*
X158407531Y-101629827D01*
X158564780Y-101357463D01*
X158692699Y-101070154D01*
X158789884Y-100771047D01*
X158855272Y-100463421D01*
X158857378Y-100443381D01*
X163287647Y-100443381D01*
X163298140Y-100546092D01*
X163353287Y-100712514D01*
X163353289Y-100712519D01*
X163445330Y-100861740D01*
X163569300Y-100985710D01*
X163718521Y-101077751D01*
X163718526Y-101077753D01*
X163884948Y-101132900D01*
X163884955Y-101132901D01*
X163987665Y-101143394D01*
X164537646Y-101143394D01*
X164587618Y-101143394D01*
X164587632Y-101143393D01*
X164690343Y-101132900D01*
X164856765Y-101077753D01*
X164856770Y-101077751D01*
X165005991Y-100985710D01*
X165129961Y-100861740D01*
X165222002Y-100712519D01*
X165222004Y-100712514D01*
X165277151Y-100546092D01*
X165277152Y-100546085D01*
X165287645Y-100443381D01*
X165287646Y-100443368D01*
X165287646Y-100118395D01*
X164537646Y-100118395D01*
X164537646Y-101143394D01*
X163987665Y-101143394D01*
X164037645Y-101143393D01*
X164037646Y-101143393D01*
X164037646Y-100118395D01*
X163287647Y-100118395D01*
X163287647Y-100443381D01*
X158857378Y-100443381D01*
X158888146Y-100150645D01*
X158888146Y-99993395D01*
X158888146Y-99927503D01*
X158888146Y-99293408D01*
X163287646Y-99293408D01*
X163287646Y-99618395D01*
X164037646Y-99618395D01*
X164537646Y-99618395D01*
X165287645Y-99618395D01*
X165287645Y-99293423D01*
X165287644Y-99293408D01*
X165277151Y-99190697D01*
X165222004Y-99024275D01*
X165222002Y-99024270D01*
X165129961Y-98875049D01*
X165005991Y-98751079D01*
X164856770Y-98659038D01*
X164856765Y-98659036D01*
X164690343Y-98603889D01*
X164690336Y-98603888D01*
X164587632Y-98593395D01*
X164537646Y-98593395D01*
X164537646Y-99618395D01*
X164037646Y-99618395D01*
X164037646Y-98593395D01*
X164037645Y-98593394D01*
X163987675Y-98593395D01*
X163987657Y-98593396D01*
X163884948Y-98603889D01*
X163718526Y-98659036D01*
X163718521Y-98659038D01*
X163569300Y-98751079D01*
X163445330Y-98875049D01*
X163353289Y-99024270D01*
X163353287Y-99024275D01*
X163298140Y-99190697D01*
X163298139Y-99190704D01*
X163287646Y-99293408D01*
X158888146Y-99293408D01*
X158888146Y-95193381D01*
X163287647Y-95193381D01*
X163298140Y-95296092D01*
X163353287Y-95462514D01*
X163353289Y-95462519D01*
X163445330Y-95611740D01*
X163569300Y-95735710D01*
X163718521Y-95827751D01*
X163718526Y-95827753D01*
X163884948Y-95882900D01*
X163884955Y-95882901D01*
X163987665Y-95893394D01*
X164537646Y-95893394D01*
X164587618Y-95893394D01*
X164587632Y-95893393D01*
X164690343Y-95882900D01*
X164856765Y-95827753D01*
X164856770Y-95827751D01*
X165005991Y-95735710D01*
X165129961Y-95611740D01*
X165222002Y-95462519D01*
X165222004Y-95462514D01*
X165277151Y-95296092D01*
X165277152Y-95296085D01*
X165287645Y-95193381D01*
X165287646Y-95193368D01*
X165287646Y-94868395D01*
X164537646Y-94868395D01*
X164537646Y-95893394D01*
X163987665Y-95893394D01*
X164037645Y-95893393D01*
X164037646Y-95893393D01*
X164037646Y-94868395D01*
X163287647Y-94868395D01*
X163287647Y-95193381D01*
X158888146Y-95193381D01*
X158888146Y-94043408D01*
X163287646Y-94043408D01*
X163287646Y-94368395D01*
X164037646Y-94368395D01*
X164537646Y-94368395D01*
X165287645Y-94368395D01*
X165287645Y-94043423D01*
X165287644Y-94043408D01*
X165277151Y-93940697D01*
X165222004Y-93774275D01*
X165222002Y-93774270D01*
X165129961Y-93625049D01*
X165005991Y-93501079D01*
X164856770Y-93409038D01*
X164856765Y-93409036D01*
X164690343Y-93353889D01*
X164690336Y-93353888D01*
X164587632Y-93343395D01*
X164537646Y-93343395D01*
X164537646Y-94368395D01*
X164037646Y-94368395D01*
X164037646Y-93343395D01*
X164037645Y-93343394D01*
X163987675Y-93343395D01*
X163987657Y-93343396D01*
X163884948Y-93353889D01*
X163718526Y-93409036D01*
X163718521Y-93409038D01*
X163569300Y-93501079D01*
X163445330Y-93625049D01*
X163353289Y-93774270D01*
X163353287Y-93774275D01*
X163298140Y-93940697D01*
X163298139Y-93940704D01*
X163287646Y-94043408D01*
X158888146Y-94043408D01*
X158888146Y-89677503D01*
X158888146Y-89586145D01*
X158855272Y-89273369D01*
X158792729Y-88979129D01*
X158789885Y-88965747D01*
X158789884Y-88965745D01*
X158789884Y-88965743D01*
X158692699Y-88666636D01*
X158564780Y-88379327D01*
X158564777Y-88379323D01*
X158564776Y-88379319D01*
X158407533Y-88106966D01*
X158407530Y-88106961D01*
X158222678Y-87852534D01*
X158222671Y-87852525D01*
X158135931Y-87756191D01*
X158012232Y-87618809D01*
X157815027Y-87441245D01*
X157778515Y-87408369D01*
X157778506Y-87408362D01*
X157524079Y-87223510D01*
X157524074Y-87223507D01*
X157251721Y-87066264D01*
X157251714Y-87066261D01*
X157239123Y-87060655D01*
X156964405Y-86938342D01*
X156964400Y-86938340D01*
X156964397Y-86938339D01*
X156665295Y-86841156D01*
X156665293Y-86841155D01*
X156400061Y-86784779D01*
X156357672Y-86775769D01*
X156044896Y-86742895D01*
X156044891Y-86742895D01*
X155887693Y-86742895D01*
X140229878Y-86725211D01*
X140229872Y-86725211D01*
X140221580Y-86725201D01*
X140221305Y-86725128D01*
X140159345Y-86725128D01*
X140159326Y-86725122D01*
X140151381Y-86724863D01*
X139902528Y-86708553D01*
X139886450Y-86706435D01*
X139814109Y-86692046D01*
X139645876Y-86658582D01*
X139630210Y-86654384D01*
X139397933Y-86575537D01*
X139382947Y-86569330D01*
X139162952Y-86460840D01*
X139148906Y-86452730D01*
X138944952Y-86316453D01*
X138932083Y-86306579D01*
X138915796Y-86292296D01*
X138860178Y-86243520D01*
X138747663Y-86144846D01*
X138736194Y-86133377D01*
X138574461Y-85948957D01*
X138564587Y-85936088D01*
X138428310Y-85732134D01*
X138420200Y-85718088D01*
X138374135Y-85624677D01*
X138311707Y-85498086D01*
X138305503Y-85483107D01*
X138297817Y-85460466D01*
X138273842Y-85389836D01*
X138226656Y-85250830D01*
X138222458Y-85235163D01*
X138211774Y-85181450D01*
X138174603Y-84994581D01*
X138172488Y-84978523D01*
X138156178Y-84729671D01*
X138155913Y-84721738D01*
X138155913Y-84659736D01*
X138155824Y-84659405D01*
X138144130Y-75950293D01*
X142962146Y-75950293D01*
X142962146Y-78036497D01*
X142962973Y-78043381D01*
X142972768Y-78124956D01*
X142972768Y-78124958D01*
X142972769Y-78124959D01*
X142973156Y-78125941D01*
X143028285Y-78265738D01*
X143119723Y-78386317D01*
X143240302Y-78477755D01*
X143240303Y-78477755D01*
X143240304Y-78477756D01*
X143381082Y-78533272D01*
X143469544Y-78543895D01*
X143469549Y-78543895D01*
X144305743Y-78543895D01*
X144305748Y-78543895D01*
X144394210Y-78533272D01*
X144534988Y-78477756D01*
X144655568Y-78386317D01*
X144747007Y-78265737D01*
X144802523Y-78124959D01*
X144813146Y-78036497D01*
X144813146Y-75950293D01*
X145462146Y-75950293D01*
X145462146Y-78036497D01*
X145462973Y-78043381D01*
X145472768Y-78124956D01*
X145472768Y-78124958D01*
X145472769Y-78124959D01*
X145473156Y-78125941D01*
X145528285Y-78265738D01*
X145619723Y-78386317D01*
X145740302Y-78477755D01*
X145740303Y-78477755D01*
X145740304Y-78477756D01*
X145881082Y-78533272D01*
X145969544Y-78543895D01*
X145969549Y-78543895D01*
X146805743Y-78543895D01*
X146805748Y-78543895D01*
X146894210Y-78533272D01*
X147034988Y-78477756D01*
X147155568Y-78386317D01*
X147247007Y-78265737D01*
X147302523Y-78124959D01*
X147313146Y-78036497D01*
X147313146Y-75950293D01*
X147962146Y-75950293D01*
X147962146Y-78036497D01*
X147962973Y-78043381D01*
X147972768Y-78124956D01*
X147972768Y-78124958D01*
X147972769Y-78124959D01*
X147973156Y-78125941D01*
X148028285Y-78265738D01*
X148119723Y-78386317D01*
X148240302Y-78477755D01*
X148240303Y-78477755D01*
X148240304Y-78477756D01*
X148381082Y-78533272D01*
X148469544Y-78543895D01*
X148469549Y-78543895D01*
X149305743Y-78543895D01*
X149305748Y-78543895D01*
X149391441Y-78533604D01*
X149402105Y-78532324D01*
X149402518Y-78535766D01*
X149456391Y-78537668D01*
X149504964Y-78567658D01*
X154910630Y-83973324D01*
X155001955Y-84026051D01*
X155103816Y-84053344D01*
X155663146Y-84053344D01*
X155730185Y-84073029D01*
X155775940Y-84125833D01*
X155787146Y-84177344D01*
X155787146Y-85072665D01*
X155789999Y-85103095D01*
X155789999Y-85103097D01*
X155834852Y-85231276D01*
X155834853Y-85231278D01*
X155915496Y-85340546D01*
X156024764Y-85421189D01*
X156060856Y-85433818D01*
X156152945Y-85466042D01*
X156183376Y-85468896D01*
X156183380Y-85468896D01*
X156591916Y-85468896D01*
X156622345Y-85466042D01*
X156622347Y-85466042D01*
X156722187Y-85431106D01*
X156791966Y-85427544D01*
X156850823Y-85460466D01*
X156992825Y-85602467D01*
X157104664Y-85714306D01*
X157104666Y-85714309D01*
X157179233Y-85788876D01*
X157216793Y-85810561D01*
X157270559Y-85841603D01*
X157372419Y-85868897D01*
X157372421Y-85868897D01*
X157485469Y-85868897D01*
X157485485Y-85868896D01*
X160363146Y-85868896D01*
X160430185Y-85888581D01*
X160475940Y-85941385D01*
X160487146Y-85992896D01*
X160487146Y-90734919D01*
X160487146Y-90840373D01*
X160496044Y-90873580D01*
X160514439Y-90942235D01*
X160540802Y-90987896D01*
X160567166Y-91033559D01*
X161929518Y-92395910D01*
X161929520Y-92395913D01*
X162004087Y-92470480D01*
X162040670Y-92491601D01*
X162095413Y-92523207D01*
X162197274Y-92550501D01*
X162197277Y-92550501D01*
X162310323Y-92550501D01*
X162310339Y-92550500D01*
X171438766Y-92550500D01*
X171438768Y-92550500D01*
X171540629Y-92523207D01*
X171631954Y-92470480D01*
X171742220Y-92360214D01*
X171803543Y-92326729D01*
X171829901Y-92323895D01*
X172691916Y-92323895D01*
X172722345Y-92321041D01*
X172722347Y-92321041D01*
X172786436Y-92298614D01*
X172850528Y-92276188D01*
X172959796Y-92195545D01*
X173040439Y-92086277D01*
X173062865Y-92022185D01*
X173085292Y-91958096D01*
X173085292Y-91958094D01*
X173088146Y-91927664D01*
X173088146Y-91892894D01*
X173107831Y-91825855D01*
X173160635Y-91780100D01*
X173212146Y-91768894D01*
X175363146Y-91768894D01*
X175430185Y-91788579D01*
X175475940Y-91841383D01*
X175487146Y-91892894D01*
X175487146Y-91927664D01*
X175489999Y-91958094D01*
X175489999Y-91958096D01*
X175534852Y-92086275D01*
X175534853Y-92086277D01*
X175615496Y-92195545D01*
X175724764Y-92276188D01*
X175767491Y-92291139D01*
X175852945Y-92321041D01*
X175883376Y-92323895D01*
X175883380Y-92323895D01*
X177641916Y-92323895D01*
X177672345Y-92321041D01*
X177672347Y-92321041D01*
X177736436Y-92298614D01*
X177800528Y-92276188D01*
X177909796Y-92195545D01*
X177925504Y-92174260D01*
X177981152Y-92132010D01*
X178025274Y-92123895D01*
X178850500Y-92123895D01*
X178917539Y-92143580D01*
X178963294Y-92196384D01*
X178974500Y-92247894D01*
X178974500Y-92422869D01*
X178974501Y-92422876D01*
X178980908Y-92482483D01*
X179031202Y-92617328D01*
X179031206Y-92617335D01*
X179117452Y-92732544D01*
X179117455Y-92732547D01*
X179232664Y-92818793D01*
X179232671Y-92818797D01*
X179277618Y-92835561D01*
X179367517Y-92869091D01*
X179427127Y-92875500D01*
X180072872Y-92875499D01*
X180132483Y-92869091D01*
X180267331Y-92818796D01*
X180382546Y-92732546D01*
X180468796Y-92617331D01*
X180519091Y-92482483D01*
X180525500Y-92422873D01*
X180525499Y-91927128D01*
X180519091Y-91867517D01*
X180468796Y-91732669D01*
X180468795Y-91732668D01*
X180468793Y-91732664D01*
X180382547Y-91617455D01*
X180382544Y-91617452D01*
X180267335Y-91531206D01*
X180267328Y-91531202D01*
X180132482Y-91480908D01*
X180132483Y-91480908D01*
X180072883Y-91474501D01*
X180072881Y-91474500D01*
X180072873Y-91474500D01*
X180072865Y-91474500D01*
X179736506Y-91474500D01*
X179669467Y-91454815D01*
X179648825Y-91438181D01*
X179613561Y-91402917D01*
X179613559Y-91402915D01*
X179567896Y-91376551D01*
X179522235Y-91350188D01*
X179452529Y-91331511D01*
X179420373Y-91322895D01*
X179420372Y-91322895D01*
X178025274Y-91322895D01*
X177958235Y-91303210D01*
X177943996Y-91292542D01*
X177933642Y-91283556D01*
X177909796Y-91251245D01*
X177820380Y-91185253D01*
X177816680Y-91182042D01*
X177800357Y-91156598D01*
X177782074Y-91132518D01*
X177781679Y-91127483D01*
X177778953Y-91123234D01*
X177778977Y-91093003D01*
X177776615Y-91062862D01*
X177779004Y-91058413D01*
X177779009Y-91053364D01*
X177795372Y-91027947D01*
X177809682Y-91001312D01*
X177816102Y-90995748D01*
X177816831Y-90994617D01*
X177818049Y-90994061D01*
X177824316Y-90988631D01*
X177909796Y-90925545D01*
X177925504Y-90904260D01*
X177981152Y-90862010D01*
X178025274Y-90853895D01*
X179480371Y-90853895D01*
X179480373Y-90853895D01*
X179582234Y-90826602D01*
X179641971Y-90792111D01*
X179703972Y-90775499D01*
X180072871Y-90775499D01*
X180072872Y-90775499D01*
X180132483Y-90769091D01*
X180267331Y-90718796D01*
X180382546Y-90632546D01*
X180468796Y-90517331D01*
X180519091Y-90382483D01*
X180525500Y-90322873D01*
X180525499Y-89827128D01*
X180519506Y-89771373D01*
X180519091Y-89767516D01*
X180468797Y-89632671D01*
X180468793Y-89632664D01*
X180382547Y-89517455D01*
X180382544Y-89517452D01*
X180267335Y-89431206D01*
X180267328Y-89431202D01*
X180132486Y-89380910D01*
X180132485Y-89380909D01*
X180132483Y-89380909D01*
X180072873Y-89374500D01*
X180072863Y-89374500D01*
X179427129Y-89374500D01*
X179427123Y-89374501D01*
X179367516Y-89380908D01*
X179232671Y-89431202D01*
X179232664Y-89431206D01*
X179117455Y-89517452D01*
X179117452Y-89517455D01*
X179031206Y-89632664D01*
X179031202Y-89632671D01*
X178980908Y-89767517D01*
X178975385Y-89818894D01*
X178974501Y-89827123D01*
X178974500Y-89827135D01*
X178974500Y-89928895D01*
X178954815Y-89995934D01*
X178902011Y-90041689D01*
X178850500Y-90052895D01*
X178025274Y-90052895D01*
X177958235Y-90033210D01*
X177943996Y-90022542D01*
X177933642Y-90013556D01*
X177909796Y-89981245D01*
X177820380Y-89915253D01*
X177816680Y-89912042D01*
X177800357Y-89886598D01*
X177782074Y-89862518D01*
X177781679Y-89857483D01*
X177778953Y-89853234D01*
X177778977Y-89823003D01*
X177776615Y-89792862D01*
X177779004Y-89788413D01*
X177779009Y-89783364D01*
X177795372Y-89757947D01*
X177809682Y-89731312D01*
X177816102Y-89725748D01*
X177816831Y-89724617D01*
X177818049Y-89724061D01*
X177824316Y-89718631D01*
X177909796Y-89655545D01*
X177990439Y-89546277D01*
X178023969Y-89450453D01*
X178035292Y-89418096D01*
X178035292Y-89418094D01*
X178038146Y-89387664D01*
X178038146Y-88979125D01*
X178035292Y-88948695D01*
X178035292Y-88948693D01*
X177993896Y-88830394D01*
X177990439Y-88820513D01*
X177909796Y-88711245D01*
X177824323Y-88648163D01*
X177782074Y-88592518D01*
X177776615Y-88522862D01*
X177809682Y-88461312D01*
X177824316Y-88448631D01*
X177909796Y-88385545D01*
X177990439Y-88276277D01*
X178025133Y-88177127D01*
X178974500Y-88177127D01*
X178974500Y-88177134D01*
X178974500Y-88177135D01*
X178974500Y-88672870D01*
X178974501Y-88672876D01*
X178980908Y-88732483D01*
X179031202Y-88867328D01*
X179031206Y-88867335D01*
X179117452Y-88982544D01*
X179117455Y-88982547D01*
X179232664Y-89068793D01*
X179232671Y-89068797D01*
X179277618Y-89085561D01*
X179367517Y-89119091D01*
X179427127Y-89125500D01*
X180072872Y-89125499D01*
X180132483Y-89119091D01*
X180267331Y-89068796D01*
X180382546Y-88982546D01*
X180468796Y-88867331D01*
X180519091Y-88732483D01*
X180525500Y-88672873D01*
X180525499Y-88177128D01*
X180519107Y-88117664D01*
X180519091Y-88117516D01*
X180468797Y-87982671D01*
X180468793Y-87982664D01*
X180382547Y-87867455D01*
X180382544Y-87867452D01*
X180267335Y-87781206D01*
X180267328Y-87781202D01*
X180132486Y-87730910D01*
X180132485Y-87730909D01*
X180132483Y-87730909D01*
X180072873Y-87724500D01*
X180072863Y-87724500D01*
X179427129Y-87724500D01*
X179427123Y-87724501D01*
X179367516Y-87730908D01*
X179232671Y-87781202D01*
X179232664Y-87781206D01*
X179117455Y-87867452D01*
X179117452Y-87867455D01*
X179031206Y-87982664D01*
X179031202Y-87982671D01*
X178980910Y-88117513D01*
X178980909Y-88117517D01*
X178974500Y-88177127D01*
X178025133Y-88177127D01*
X178026450Y-88173364D01*
X178035292Y-88148095D01*
X178038146Y-88117664D01*
X178038146Y-87709125D01*
X178035292Y-87678695D01*
X178035292Y-87678693D01*
X177990439Y-87550514D01*
X177990438Y-87550512D01*
X177975802Y-87530681D01*
X177909796Y-87441245D01*
X177800528Y-87360602D01*
X177800526Y-87360601D01*
X177672346Y-87315748D01*
X177641916Y-87312895D01*
X177641912Y-87312895D01*
X176779901Y-87312895D01*
X176712862Y-87293210D01*
X176692220Y-87276576D01*
X175838955Y-86423311D01*
X175805470Y-86361988D01*
X175810454Y-86292296D01*
X175819246Y-86273635D01*
X175847223Y-86225179D01*
X175888146Y-86072452D01*
X175888146Y-85914338D01*
X175847223Y-85761611D01*
X175822095Y-85718088D01*
X175768170Y-85624685D01*
X175768164Y-85624677D01*
X175656363Y-85512876D01*
X175656355Y-85512870D01*
X175519436Y-85433821D01*
X175519432Y-85433819D01*
X175519430Y-85433818D01*
X175366703Y-85392895D01*
X175208589Y-85392895D01*
X175200462Y-85392895D01*
X175200462Y-85389836D01*
X175145761Y-85381280D01*
X175093527Y-85334876D01*
X175074672Y-85267598D01*
X175095184Y-85200807D01*
X175110977Y-85181455D01*
X175581043Y-84711390D01*
X175642366Y-84677905D01*
X175712058Y-84682889D01*
X175756405Y-84711390D01*
X175768930Y-84723915D01*
X175768932Y-84723916D01*
X175768936Y-84723919D01*
X175816494Y-84751376D01*
X175905862Y-84802972D01*
X176058589Y-84843895D01*
X176058591Y-84843895D01*
X176216701Y-84843895D01*
X176216703Y-84843895D01*
X176369430Y-84802972D01*
X176506362Y-84723915D01*
X176618166Y-84612111D01*
X176697223Y-84475179D01*
X176738146Y-84322452D01*
X176738146Y-84164338D01*
X176697223Y-84011611D01*
X176678465Y-83979121D01*
X176618170Y-83874685D01*
X176618164Y-83874677D01*
X176506363Y-83762876D01*
X176506355Y-83762870D01*
X176369436Y-83683821D01*
X176369432Y-83683819D01*
X176369430Y-83683818D01*
X176216703Y-83642895D01*
X176058589Y-83642895D01*
X175905862Y-83683818D01*
X175905855Y-83683821D01*
X175768936Y-83762870D01*
X175768928Y-83762876D01*
X175725229Y-83806576D01*
X175663906Y-83840061D01*
X175637548Y-83842895D01*
X175429919Y-83842895D01*
X175328058Y-83870188D01*
X175328055Y-83870189D01*
X175282396Y-83896550D01*
X175282396Y-83896551D01*
X175236733Y-83922915D01*
X175236730Y-83922917D01*
X171883072Y-87276576D01*
X171821749Y-87310061D01*
X171795391Y-87312895D01*
X170933376Y-87312895D01*
X170902946Y-87315748D01*
X170902944Y-87315748D01*
X170774765Y-87360601D01*
X170774763Y-87360602D01*
X170665496Y-87441245D01*
X170584853Y-87550512D01*
X170584852Y-87550514D01*
X170539999Y-87678693D01*
X170539999Y-87678695D01*
X170537146Y-87709125D01*
X170537146Y-88017139D01*
X170517461Y-88084178D01*
X170464657Y-88129933D01*
X170395499Y-88139877D01*
X170331943Y-88110852D01*
X170325465Y-88104820D01*
X170206061Y-87985416D01*
X170206059Y-87985414D01*
X170154954Y-87955908D01*
X170114735Y-87932687D01*
X170063803Y-87919040D01*
X170012873Y-87905394D01*
X170012872Y-87905394D01*
X166920800Y-87905394D01*
X166920784Y-87905393D01*
X166913188Y-87905393D01*
X166807734Y-87905393D01*
X166739827Y-87923589D01*
X166705873Y-87932687D01*
X166659363Y-87959540D01*
X166619303Y-87982669D01*
X166614545Y-87985416D01*
X166539979Y-88059983D01*
X166225635Y-88374326D01*
X166164312Y-88407811D01*
X166094620Y-88402827D01*
X166092465Y-88402000D01*
X165967993Y-88352915D01*
X165967989Y-88352914D01*
X165884548Y-88342894D01*
X165290744Y-88342894D01*
X165207302Y-88352914D01*
X165207301Y-88352914D01*
X165074511Y-88405280D01*
X164960778Y-88491526D01*
X164874532Y-88605259D01*
X164874530Y-88605263D01*
X164852500Y-88661127D01*
X164809594Y-88716271D01*
X164743686Y-88739463D01*
X164675701Y-88723342D01*
X164627225Y-88673025D01*
X164613146Y-88615636D01*
X164613146Y-88402129D01*
X164613145Y-88402123D01*
X164606738Y-88342516D01*
X164556444Y-88207671D01*
X164556440Y-88207664D01*
X164470194Y-88092455D01*
X164470191Y-88092452D01*
X164354982Y-88006206D01*
X164354975Y-88006202D01*
X164220133Y-87955910D01*
X164220132Y-87955909D01*
X164220130Y-87955909D01*
X164160520Y-87949500D01*
X164160510Y-87949500D01*
X163664776Y-87949500D01*
X163664770Y-87949501D01*
X163605163Y-87955908D01*
X163470318Y-88006202D01*
X163470311Y-88006206D01*
X163355102Y-88092452D01*
X163304538Y-88159996D01*
X163248603Y-88201867D01*
X163178912Y-88206850D01*
X163117589Y-88173364D01*
X163099155Y-88149834D01*
X163017719Y-88015122D01*
X162897524Y-87894927D01*
X162752042Y-87806980D01*
X162752043Y-87806980D01*
X162589752Y-87756409D01*
X162589753Y-87756409D01*
X162519219Y-87750000D01*
X162512647Y-87750000D01*
X162512647Y-89699999D01*
X162519228Y-89699999D01*
X162589749Y-89693591D01*
X162589751Y-89693591D01*
X162651256Y-89674425D01*
X162678664Y-89673973D01*
X162705795Y-89670072D01*
X162713093Y-89673405D01*
X162721116Y-89673273D01*
X162744415Y-89687709D01*
X162769351Y-89699097D01*
X162773689Y-89705847D01*
X162780509Y-89710073D01*
X162792304Y-89734814D01*
X162807125Y-89757875D01*
X162808776Y-89769363D01*
X162810578Y-89773141D01*
X162812148Y-89792810D01*
X162812148Y-89907189D01*
X162792463Y-89974228D01*
X162739659Y-90019983D01*
X162670501Y-90029927D01*
X162651259Y-90025575D01*
X162589751Y-90006409D01*
X162519220Y-90000000D01*
X162512648Y-90000000D01*
X162512648Y-90851000D01*
X162492963Y-90918039D01*
X162440159Y-90963794D01*
X162388648Y-90975000D01*
X162136648Y-90975000D01*
X162069609Y-90955315D01*
X162023854Y-90902511D01*
X162012648Y-90851000D01*
X162012648Y-90000000D01*
X162012647Y-89999999D01*
X162006084Y-90000000D01*
X162006065Y-90000001D01*
X161935545Y-90006408D01*
X161935540Y-90006409D01*
X161773251Y-90056981D01*
X161627770Y-90144927D01*
X161627769Y-90144928D01*
X161502269Y-90270429D01*
X161500672Y-90268832D01*
X161452917Y-90302971D01*
X161383133Y-90306423D01*
X161322560Y-90271599D01*
X161290430Y-90209555D01*
X161288146Y-90185865D01*
X161288146Y-89514136D01*
X161307831Y-89447097D01*
X161360635Y-89401342D01*
X161429793Y-89391398D01*
X161493349Y-89420423D01*
X161502158Y-89429680D01*
X161502268Y-89429571D01*
X161627769Y-89555072D01*
X161773251Y-89643019D01*
X161773250Y-89643019D01*
X161935541Y-89693590D01*
X161935540Y-89693590D01*
X162006055Y-89699998D01*
X162006073Y-89699999D01*
X162012646Y-89699998D01*
X162012647Y-89699998D01*
X162012647Y-87750000D01*
X162012646Y-87749999D01*
X162006083Y-87750000D01*
X162006064Y-87750001D01*
X161935544Y-87756408D01*
X161935539Y-87756409D01*
X161773250Y-87806981D01*
X161627769Y-87894927D01*
X161627768Y-87894928D01*
X161502268Y-88020429D01*
X161500672Y-88018833D01*
X161452904Y-88052973D01*
X161383119Y-88056418D01*
X161322550Y-88021587D01*
X161290427Y-87959540D01*
X161288146Y-87935863D01*
X161288146Y-85992896D01*
X161307831Y-85925857D01*
X161360635Y-85880102D01*
X161412146Y-85868896D01*
X163750922Y-85868896D01*
X163750924Y-85868896D01*
X163852785Y-85841603D01*
X163944110Y-85788876D01*
X165084996Y-84647990D01*
X165146319Y-84614505D01*
X165172677Y-84611671D01*
X165234477Y-84611671D01*
X165234479Y-84611671D01*
X165387206Y-84570748D01*
X165524138Y-84491691D01*
X165635942Y-84379887D01*
X165714999Y-84242955D01*
X165755922Y-84090228D01*
X165755922Y-83932114D01*
X165714999Y-83779387D01*
X165714995Y-83779380D01*
X165635946Y-83642461D01*
X165635940Y-83642453D01*
X165524139Y-83530652D01*
X165524131Y-83530646D01*
X165387212Y-83451597D01*
X165387208Y-83451595D01*
X165387206Y-83451594D01*
X165234479Y-83410671D01*
X165076365Y-83410671D01*
X164923638Y-83451594D01*
X164923631Y-83451597D01*
X164786712Y-83530646D01*
X164786704Y-83530652D01*
X164674903Y-83642453D01*
X164674897Y-83642461D01*
X164595848Y-83779380D01*
X164595845Y-83779387D01*
X164554922Y-83932114D01*
X164554922Y-83993916D01*
X164535237Y-84060955D01*
X164518603Y-84081597D01*
X163568623Y-85031577D01*
X163507300Y-85065062D01*
X163480942Y-85067896D01*
X162112146Y-85067896D01*
X162045107Y-85048211D01*
X161999352Y-84995407D01*
X161988146Y-84943896D01*
X161988146Y-83789126D01*
X161985292Y-83758697D01*
X161984493Y-83756413D01*
X161984401Y-83754615D01*
X161983682Y-83751323D01*
X161984226Y-83751204D01*
X161980927Y-83686635D01*
X162015653Y-83626005D01*
X162077644Y-83593775D01*
X162113110Y-83591994D01*
X162133380Y-83593895D01*
X162541916Y-83593895D01*
X162572345Y-83591041D01*
X162572347Y-83591041D01*
X162648478Y-83564401D01*
X162700528Y-83546188D01*
X162809796Y-83465545D01*
X162890439Y-83356277D01*
X162912865Y-83292185D01*
X162935292Y-83228096D01*
X162935292Y-83228094D01*
X162938146Y-83197664D01*
X162938146Y-81914125D01*
X162935292Y-81883695D01*
X162935292Y-81883693D01*
X162890439Y-81755514D01*
X162890438Y-81755512D01*
X162809796Y-81646245D01*
X162700528Y-81565602D01*
X162700526Y-81565601D01*
X162572346Y-81520748D01*
X162541916Y-81517895D01*
X162541912Y-81517895D01*
X162133380Y-81517895D01*
X162133376Y-81517895D01*
X162102946Y-81520748D01*
X162102944Y-81520748D01*
X161974765Y-81565601D01*
X161974763Y-81565602D01*
X161865496Y-81646245D01*
X161784853Y-81755512D01*
X161784852Y-81755514D01*
X161739999Y-81883693D01*
X161739999Y-81883695D01*
X161737146Y-81914125D01*
X161737146Y-83197664D01*
X161739999Y-83228093D01*
X161740801Y-83230384D01*
X161740892Y-83232184D01*
X161741610Y-83235468D01*
X161741066Y-83235586D01*
X161744362Y-83300163D01*
X161709633Y-83360790D01*
X161647639Y-83393017D01*
X161612184Y-83394797D01*
X161607793Y-83394385D01*
X161591912Y-83392896D01*
X161183380Y-83392896D01*
X161173419Y-83393830D01*
X161163106Y-83394797D01*
X161094522Y-83381456D01*
X161044038Y-83333153D01*
X161027683Y-83265225D01*
X161034493Y-83230376D01*
X161035292Y-83228094D01*
X161038146Y-83197661D01*
X161038146Y-81914129D01*
X161035292Y-81883696D01*
X161035292Y-81883695D01*
X161035292Y-81883693D01*
X160990439Y-81755514D01*
X160990438Y-81755512D01*
X160909796Y-81646245D01*
X160838512Y-81593635D01*
X160796261Y-81537987D01*
X160788146Y-81493865D01*
X160788146Y-78656009D01*
X160807831Y-78588970D01*
X160860635Y-78543215D01*
X160886669Y-78535899D01*
X160886498Y-78535222D01*
X160894202Y-78533274D01*
X160894205Y-78533272D01*
X160894210Y-78533272D01*
X161034988Y-78477756D01*
X161155568Y-78386317D01*
X161247007Y-78265737D01*
X161302523Y-78124959D01*
X161313146Y-78036497D01*
X161313146Y-75950293D01*
X161302523Y-75861831D01*
X161247007Y-75721053D01*
X161247006Y-75721052D01*
X161247006Y-75721051D01*
X161155568Y-75600472D01*
X161044181Y-75516005D01*
X161034989Y-75509034D01*
X160894207Y-75453517D01*
X160848572Y-75448037D01*
X160805748Y-75442895D01*
X159969544Y-75442895D01*
X159930499Y-75447583D01*
X159881084Y-75453517D01*
X159740302Y-75509034D01*
X159619723Y-75600472D01*
X159528285Y-75721051D01*
X159472768Y-75861833D01*
X159466834Y-75911248D01*
X159462146Y-75950293D01*
X159462146Y-78036497D01*
X159462973Y-78043381D01*
X159472768Y-78124956D01*
X159472768Y-78124958D01*
X159472769Y-78124959D01*
X159473156Y-78125941D01*
X159528285Y-78265738D01*
X159619723Y-78386317D01*
X159740302Y-78477755D01*
X159740303Y-78477755D01*
X159740304Y-78477756D01*
X159881082Y-78533272D01*
X159881084Y-78533272D01*
X159881089Y-78533274D01*
X159888794Y-78535222D01*
X159888262Y-78537326D01*
X159942136Y-78560423D01*
X159981274Y-78618302D01*
X159987146Y-78656009D01*
X159987146Y-81576106D01*
X159967461Y-81643145D01*
X159962917Y-81649739D01*
X159884853Y-81755513D01*
X159884852Y-81755514D01*
X159839999Y-81883693D01*
X159839999Y-81883695D01*
X159837146Y-81914125D01*
X159837146Y-83197664D01*
X159839999Y-83228094D01*
X159839999Y-83228096D01*
X159884852Y-83356275D01*
X159884853Y-83356277D01*
X159965496Y-83465545D01*
X160074764Y-83546188D01*
X160117491Y-83561139D01*
X160202945Y-83591041D01*
X160233376Y-83593895D01*
X160233380Y-83593895D01*
X160641912Y-83593895D01*
X160662180Y-83591994D01*
X160730764Y-83605332D01*
X160781250Y-83653632D01*
X160797608Y-83721560D01*
X160797568Y-83722334D01*
X160796594Y-83739851D01*
X160790000Y-83758697D01*
X160787146Y-83789130D01*
X160787146Y-83909841D01*
X160786955Y-83913278D01*
X160776371Y-83943090D01*
X160767461Y-83973435D01*
X160764771Y-83975765D01*
X160763580Y-83979121D01*
X160738559Y-83998478D01*
X160714657Y-84019190D01*
X160710666Y-84020058D01*
X160708318Y-84021875D01*
X160698275Y-84022753D01*
X160663146Y-84030396D01*
X157982952Y-84030396D01*
X157915913Y-84010711D01*
X157895271Y-83994077D01*
X157652544Y-83751349D01*
X157619059Y-83690026D01*
X157624043Y-83620334D01*
X157665915Y-83564401D01*
X157699270Y-83546627D01*
X157700528Y-83546188D01*
X157809796Y-83465545D01*
X157890439Y-83356277D01*
X157912865Y-83292185D01*
X157935292Y-83228096D01*
X157935292Y-83228094D01*
X157938146Y-83197664D01*
X157938146Y-81914125D01*
X157935292Y-81883695D01*
X157935292Y-81883693D01*
X157890439Y-81755514D01*
X157890438Y-81755512D01*
X157809796Y-81646245D01*
X157700528Y-81565602D01*
X157700526Y-81565601D01*
X157572346Y-81520748D01*
X157541916Y-81517895D01*
X157541912Y-81517895D01*
X157133380Y-81517895D01*
X157133376Y-81517895D01*
X157102946Y-81520748D01*
X157102944Y-81520748D01*
X156974765Y-81565601D01*
X156974763Y-81565602D01*
X156865496Y-81646245D01*
X156784853Y-81755512D01*
X156784852Y-81755514D01*
X156739999Y-81883693D01*
X156739999Y-81883695D01*
X156737146Y-81914125D01*
X156737146Y-82868896D01*
X156717461Y-82935935D01*
X156664657Y-82981690D01*
X156613146Y-82992896D01*
X156162146Y-82992896D01*
X156095107Y-82973211D01*
X156049352Y-82920407D01*
X156038146Y-82868896D01*
X156038146Y-81914125D01*
X156035292Y-81883695D01*
X156035292Y-81883693D01*
X155990439Y-81755514D01*
X155990438Y-81755512D01*
X155909796Y-81646245D01*
X155838512Y-81593635D01*
X155796261Y-81537987D01*
X155788146Y-81493865D01*
X155788146Y-78656009D01*
X155807831Y-78588970D01*
X155860635Y-78543215D01*
X155886669Y-78535899D01*
X155886498Y-78535222D01*
X155894202Y-78533274D01*
X155894205Y-78533272D01*
X155894210Y-78533272D01*
X156034988Y-78477756D01*
X156155568Y-78386317D01*
X156247007Y-78265737D01*
X156302523Y-78124959D01*
X156312319Y-78043381D01*
X156762647Y-78043381D01*
X156773140Y-78146092D01*
X156828287Y-78312514D01*
X156828289Y-78312519D01*
X156920330Y-78461740D01*
X157044300Y-78585710D01*
X157193521Y-78677751D01*
X157193526Y-78677753D01*
X157359948Y-78732900D01*
X157359955Y-78732901D01*
X157462665Y-78743394D01*
X157637645Y-78743394D01*
X158137646Y-78743394D01*
X158312618Y-78743394D01*
X158312632Y-78743393D01*
X158415343Y-78732900D01*
X158581765Y-78677753D01*
X158581770Y-78677751D01*
X158730991Y-78585710D01*
X158854961Y-78461740D01*
X158947002Y-78312519D01*
X158947004Y-78312514D01*
X159002151Y-78146092D01*
X159002152Y-78146085D01*
X159012645Y-78043381D01*
X159012646Y-78043368D01*
X159012646Y-77243395D01*
X158137646Y-77243395D01*
X158137646Y-78743394D01*
X157637645Y-78743394D01*
X157637646Y-78743393D01*
X157637646Y-77243395D01*
X156762647Y-77243395D01*
X156762647Y-78043381D01*
X156312319Y-78043381D01*
X156313146Y-78036497D01*
X156313146Y-75950293D01*
X156312319Y-75943408D01*
X156762646Y-75943408D01*
X156762646Y-76743395D01*
X157637646Y-76743395D01*
X158137646Y-76743395D01*
X159012645Y-76743395D01*
X159012645Y-75943423D01*
X159012644Y-75943408D01*
X159002151Y-75840697D01*
X158947004Y-75674275D01*
X158947002Y-75674270D01*
X158854961Y-75525049D01*
X158750434Y-75420522D01*
X164362146Y-75420522D01*
X164362146Y-75420529D01*
X164362146Y-75420530D01*
X164362146Y-76066265D01*
X164362147Y-76066271D01*
X164368554Y-76125878D01*
X164418848Y-76260723D01*
X164418852Y-76260730D01*
X164505098Y-76375939D01*
X164505101Y-76375942D01*
X164620310Y-76462188D01*
X164620317Y-76462192D01*
X164665264Y-76478956D01*
X164755163Y-76512486D01*
X164814773Y-76518895D01*
X165310518Y-76518894D01*
X165370129Y-76512486D01*
X165504977Y-76462191D01*
X165620192Y-76375941D01*
X165706442Y-76260726D01*
X165756737Y-76125878D01*
X165763146Y-76066268D01*
X165763145Y-75420523D01*
X165756737Y-75360912D01*
X165737389Y-75309038D01*
X165706443Y-75226066D01*
X165706439Y-75226059D01*
X165620193Y-75110850D01*
X165620190Y-75110847D01*
X165504981Y-75024601D01*
X165504974Y-75024597D01*
X165370132Y-74974305D01*
X165370131Y-74974304D01*
X165370129Y-74974304D01*
X165310519Y-74967895D01*
X165310509Y-74967895D01*
X164814775Y-74967895D01*
X164814769Y-74967896D01*
X164755162Y-74974303D01*
X164620317Y-75024597D01*
X164620310Y-75024601D01*
X164505101Y-75110847D01*
X164505098Y-75110850D01*
X164418852Y-75226059D01*
X164418848Y-75226066D01*
X164368556Y-75360908D01*
X164368555Y-75360912D01*
X164362146Y-75420522D01*
X158750434Y-75420522D01*
X158730991Y-75401079D01*
X158581770Y-75309038D01*
X158581765Y-75309036D01*
X158415343Y-75253889D01*
X158415336Y-75253888D01*
X158312632Y-75243395D01*
X158137646Y-75243395D01*
X158137646Y-76743395D01*
X157637646Y-76743395D01*
X157637646Y-75243395D01*
X157462675Y-75243395D01*
X157462658Y-75243396D01*
X157359948Y-75253889D01*
X157193526Y-75309036D01*
X157193521Y-75309038D01*
X157044300Y-75401079D01*
X156920330Y-75525049D01*
X156828289Y-75674270D01*
X156828287Y-75674275D01*
X156773140Y-75840697D01*
X156773139Y-75840704D01*
X156762646Y-75943408D01*
X156312319Y-75943408D01*
X156302523Y-75861831D01*
X156247007Y-75721053D01*
X156247006Y-75721052D01*
X156247006Y-75721051D01*
X156155568Y-75600472D01*
X156034989Y-75509034D01*
X155894207Y-75453517D01*
X155848572Y-75448037D01*
X155805748Y-75442895D01*
X154969544Y-75442895D01*
X154930499Y-75447583D01*
X154881084Y-75453517D01*
X154740302Y-75509034D01*
X154619723Y-75600472D01*
X154528285Y-75721051D01*
X154472768Y-75861833D01*
X154466834Y-75911248D01*
X154462146Y-75950293D01*
X154462146Y-78036497D01*
X154462973Y-78043381D01*
X154472768Y-78124956D01*
X154472768Y-78124958D01*
X154472769Y-78124959D01*
X154473156Y-78125941D01*
X154528285Y-78265738D01*
X154619723Y-78386317D01*
X154740302Y-78477755D01*
X154740303Y-78477755D01*
X154740304Y-78477756D01*
X154881082Y-78533272D01*
X154881084Y-78533272D01*
X154881089Y-78533274D01*
X154888794Y-78535222D01*
X154888262Y-78537326D01*
X154942136Y-78560423D01*
X154981274Y-78618302D01*
X154987146Y-78656009D01*
X154987146Y-81576106D01*
X154967461Y-81643145D01*
X154962917Y-81649739D01*
X154884853Y-81755513D01*
X154884852Y-81755514D01*
X154839999Y-81883693D01*
X154839999Y-81883695D01*
X154837146Y-81914125D01*
X154837146Y-82467692D01*
X154817461Y-82534731D01*
X154764657Y-82580486D01*
X154695499Y-82590430D01*
X154631943Y-82561405D01*
X154625465Y-82555373D01*
X149849465Y-77779373D01*
X149815980Y-77718050D01*
X149813146Y-77691692D01*
X149813146Y-75950298D01*
X149813146Y-75950293D01*
X149802523Y-75861831D01*
X149747007Y-75721053D01*
X149747006Y-75721052D01*
X149747006Y-75721051D01*
X149655568Y-75600472D01*
X149534989Y-75509034D01*
X149394207Y-75453517D01*
X149348572Y-75448037D01*
X149305748Y-75442895D01*
X148469544Y-75442895D01*
X148430499Y-75447583D01*
X148381084Y-75453517D01*
X148240302Y-75509034D01*
X148119723Y-75600472D01*
X148028285Y-75721051D01*
X147972768Y-75861833D01*
X147966834Y-75911248D01*
X147962146Y-75950293D01*
X147313146Y-75950293D01*
X147302523Y-75861831D01*
X147247007Y-75721053D01*
X147247006Y-75721052D01*
X147247006Y-75721051D01*
X147195623Y-75653292D01*
X147170800Y-75587980D01*
X147185228Y-75519616D01*
X147206742Y-75490690D01*
X148817220Y-73880214D01*
X148844147Y-73865510D01*
X148869966Y-73848918D01*
X148876166Y-73848026D01*
X148878543Y-73846729D01*
X148904901Y-73843895D01*
X149009330Y-73843895D01*
X149076369Y-73863580D01*
X149122124Y-73916384D01*
X149132068Y-73985542D01*
X149123891Y-74015348D01*
X149114066Y-74039066D01*
X149114064Y-74039072D01*
X149087146Y-74174399D01*
X149087146Y-74174402D01*
X149087146Y-74312388D01*
X149087146Y-74312390D01*
X149087145Y-74312390D01*
X149114064Y-74447717D01*
X149114067Y-74447727D01*
X149166867Y-74575199D01*
X149166874Y-74575212D01*
X149243531Y-74689936D01*
X149243534Y-74689940D01*
X149341100Y-74787506D01*
X149341104Y-74787509D01*
X149455828Y-74864166D01*
X149455841Y-74864173D01*
X149583313Y-74916973D01*
X149583318Y-74916975D01*
X149583322Y-74916975D01*
X149583323Y-74916976D01*
X149718650Y-74943895D01*
X149718653Y-74943895D01*
X149856641Y-74943895D01*
X149949046Y-74925514D01*
X149991974Y-74916975D01*
X150119457Y-74864170D01*
X150234188Y-74787509D01*
X150331760Y-74689937D01*
X150408421Y-74575206D01*
X150461226Y-74447723D01*
X150488146Y-74312390D01*
X153787145Y-74312390D01*
X153814064Y-74447717D01*
X153814067Y-74447727D01*
X153866867Y-74575199D01*
X153866874Y-74575212D01*
X153943531Y-74689936D01*
X153943534Y-74689940D01*
X154041100Y-74787506D01*
X154041104Y-74787509D01*
X154155828Y-74864166D01*
X154155841Y-74864173D01*
X154283313Y-74916973D01*
X154283318Y-74916975D01*
X154283322Y-74916975D01*
X154283323Y-74916976D01*
X154418650Y-74943895D01*
X154418653Y-74943895D01*
X154556641Y-74943895D01*
X154649046Y-74925514D01*
X154691974Y-74916975D01*
X154819457Y-74864170D01*
X154934188Y-74787509D01*
X155031760Y-74689937D01*
X155108421Y-74575206D01*
X155161226Y-74447723D01*
X155188146Y-74312390D01*
X160587145Y-74312390D01*
X160614064Y-74447717D01*
X160614067Y-74447727D01*
X160666867Y-74575199D01*
X160666874Y-74575212D01*
X160743531Y-74689936D01*
X160743534Y-74689940D01*
X160841100Y-74787506D01*
X160841104Y-74787509D01*
X160955828Y-74864166D01*
X160955841Y-74864173D01*
X161083313Y-74916973D01*
X161083318Y-74916975D01*
X161083322Y-74916975D01*
X161083323Y-74916976D01*
X161218650Y-74943895D01*
X161218653Y-74943895D01*
X161356641Y-74943895D01*
X161449046Y-74925514D01*
X161491974Y-74916975D01*
X161619457Y-74864170D01*
X161734188Y-74787509D01*
X161831760Y-74689937D01*
X161908421Y-74575206D01*
X161961226Y-74447723D01*
X161988146Y-74312388D01*
X161988146Y-74174402D01*
X161988146Y-74174399D01*
X161961227Y-74039072D01*
X161961226Y-74039071D01*
X161961226Y-74039067D01*
X161946275Y-74002971D01*
X161908424Y-73911590D01*
X161908417Y-73911577D01*
X161831760Y-73796853D01*
X161831757Y-73796849D01*
X161734191Y-73699283D01*
X161734187Y-73699280D01*
X161619463Y-73622623D01*
X161619450Y-73622616D01*
X161491978Y-73569816D01*
X161491968Y-73569813D01*
X161356641Y-73542895D01*
X161356639Y-73542895D01*
X161218653Y-73542895D01*
X161218651Y-73542895D01*
X161083323Y-73569813D01*
X161083313Y-73569816D01*
X160955841Y-73622616D01*
X160955828Y-73622623D01*
X160841104Y-73699280D01*
X160841100Y-73699283D01*
X160743534Y-73796849D01*
X160743531Y-73796853D01*
X160666874Y-73911577D01*
X160666867Y-73911590D01*
X160614067Y-74039062D01*
X160614064Y-74039072D01*
X160587146Y-74174399D01*
X160587146Y-74174402D01*
X160587146Y-74312388D01*
X160587146Y-74312390D01*
X160587145Y-74312390D01*
X155188146Y-74312390D01*
X155188146Y-74312388D01*
X155188146Y-74174402D01*
X155188146Y-74174399D01*
X155161227Y-74039072D01*
X155161226Y-74039071D01*
X155161226Y-74039067D01*
X155146275Y-74002971D01*
X155108424Y-73911590D01*
X155108417Y-73911577D01*
X155031760Y-73796853D01*
X155031757Y-73796849D01*
X154934191Y-73699283D01*
X154934187Y-73699280D01*
X154819463Y-73622623D01*
X154819450Y-73622616D01*
X154691978Y-73569816D01*
X154691968Y-73569813D01*
X154556641Y-73542895D01*
X154556639Y-73542895D01*
X154418653Y-73542895D01*
X154418651Y-73542895D01*
X154283323Y-73569813D01*
X154283313Y-73569816D01*
X154155841Y-73622616D01*
X154155828Y-73622623D01*
X154041104Y-73699280D01*
X154041100Y-73699283D01*
X153943534Y-73796849D01*
X153943531Y-73796853D01*
X153866874Y-73911577D01*
X153866867Y-73911590D01*
X153814067Y-74039062D01*
X153814064Y-74039072D01*
X153787146Y-74174399D01*
X153787146Y-74174402D01*
X153787146Y-74312388D01*
X153787146Y-74312390D01*
X153787145Y-74312390D01*
X150488146Y-74312390D01*
X150488146Y-74312388D01*
X150488146Y-74174402D01*
X150461226Y-74039067D01*
X150447448Y-74005804D01*
X150445129Y-73995740D01*
X150446607Y-73970762D01*
X150443932Y-73945879D01*
X150448636Y-73936481D01*
X150449257Y-73925992D01*
X150464005Y-73905777D01*
X150475207Y-73883399D01*
X150484244Y-73878037D01*
X150490437Y-73869549D01*
X150513773Y-73860516D01*
X150535296Y-73847747D01*
X150552277Y-73845613D01*
X150555597Y-73844329D01*
X150558224Y-73844866D01*
X150565962Y-73843895D01*
X151499902Y-73843895D01*
X151566941Y-73863580D01*
X151587583Y-73880214D01*
X151631284Y-73923915D01*
X151631286Y-73923916D01*
X151631290Y-73923919D01*
X151712426Y-73970762D01*
X151768216Y-74002972D01*
X151920943Y-74043895D01*
X151920945Y-74043895D01*
X152079055Y-74043895D01*
X152079057Y-74043895D01*
X152231784Y-74002972D01*
X152368716Y-73923915D01*
X152480520Y-73812111D01*
X152559577Y-73675179D01*
X152600500Y-73522452D01*
X152600500Y-73364338D01*
X152559577Y-73211611D01*
X152508369Y-73122915D01*
X152480524Y-73074685D01*
X152480518Y-73074677D01*
X152368717Y-72962876D01*
X152368709Y-72962870D01*
X152231790Y-72883821D01*
X152231786Y-72883819D01*
X152231784Y-72883818D01*
X152079057Y-72842895D01*
X151920943Y-72842895D01*
X151768216Y-72883818D01*
X151768209Y-72883821D01*
X151631290Y-72962870D01*
X151631282Y-72962876D01*
X151587583Y-73006576D01*
X151526260Y-73040061D01*
X151499902Y-73042895D01*
X148634919Y-73042895D01*
X148533056Y-73070188D01*
X148441733Y-73122915D01*
X148441730Y-73122917D01*
X146158072Y-75406576D01*
X146096749Y-75440061D01*
X146070391Y-75442895D01*
X145969544Y-75442895D01*
X145930499Y-75447583D01*
X145881084Y-75453517D01*
X145740302Y-75509034D01*
X145619723Y-75600472D01*
X145528285Y-75721051D01*
X145472768Y-75861833D01*
X145466834Y-75911248D01*
X145462146Y-75950293D01*
X144813146Y-75950293D01*
X144802523Y-75861831D01*
X144747007Y-75721053D01*
X144747006Y-75721052D01*
X144747006Y-75721051D01*
X144655568Y-75600472D01*
X144534989Y-75509034D01*
X144394207Y-75453517D01*
X144348572Y-75448037D01*
X144305748Y-75442895D01*
X143469544Y-75442895D01*
X143430499Y-75447583D01*
X143381084Y-75453517D01*
X143240302Y-75509034D01*
X143119723Y-75600472D01*
X143028285Y-75721051D01*
X142972768Y-75861833D01*
X142966834Y-75911248D01*
X142962146Y-75950293D01*
X138144130Y-75950293D01*
X138141931Y-74312390D01*
X142287145Y-74312390D01*
X142314064Y-74447717D01*
X142314067Y-74447727D01*
X142366867Y-74575199D01*
X142366874Y-74575212D01*
X142443531Y-74689936D01*
X142443534Y-74689940D01*
X142541100Y-74787506D01*
X142541104Y-74787509D01*
X142655828Y-74864166D01*
X142655841Y-74864173D01*
X142783313Y-74916973D01*
X142783318Y-74916975D01*
X142783322Y-74916975D01*
X142783323Y-74916976D01*
X142918650Y-74943895D01*
X142918653Y-74943895D01*
X143056641Y-74943895D01*
X143149046Y-74925514D01*
X143191974Y-74916975D01*
X143319457Y-74864170D01*
X143434188Y-74787509D01*
X143531760Y-74689937D01*
X143608421Y-74575206D01*
X143661226Y-74447723D01*
X143688146Y-74312388D01*
X143688146Y-74174402D01*
X143688146Y-74174399D01*
X143661227Y-74039072D01*
X143661226Y-74039071D01*
X143661226Y-74039067D01*
X143646275Y-74002971D01*
X143608424Y-73911590D01*
X143608417Y-73911577D01*
X143531760Y-73796853D01*
X143531757Y-73796849D01*
X143434191Y-73699283D01*
X143434187Y-73699280D01*
X143319463Y-73622623D01*
X143319450Y-73622616D01*
X143191978Y-73569816D01*
X143191968Y-73569813D01*
X143056641Y-73542895D01*
X143056639Y-73542895D01*
X142918653Y-73542895D01*
X142918651Y-73542895D01*
X142783323Y-73569813D01*
X142783313Y-73569816D01*
X142655841Y-73622616D01*
X142655828Y-73622623D01*
X142541104Y-73699280D01*
X142541100Y-73699283D01*
X142443534Y-73796849D01*
X142443531Y-73796853D01*
X142366874Y-73911577D01*
X142366867Y-73911590D01*
X142314067Y-74039062D01*
X142314064Y-74039072D01*
X142287146Y-74174399D01*
X142287146Y-74174402D01*
X142287146Y-74312388D01*
X142287146Y-74312390D01*
X142287145Y-74312390D01*
X138141931Y-74312390D01*
X138140011Y-72882813D01*
X138145798Y-72863006D01*
X138146729Y-72842387D01*
X138158582Y-72819251D01*
X138159606Y-72815750D01*
X138162798Y-72811012D01*
X138290729Y-72630399D01*
X138299382Y-72619532D01*
X138514298Y-72378692D01*
X138524112Y-72368864D01*
X138764671Y-72153618D01*
X138775536Y-72144943D01*
X138955932Y-72016802D01*
X139021985Y-71994029D01*
X139027740Y-71993895D01*
X168355935Y-71993895D01*
X168422974Y-72013580D01*
G37*
%TD.AperFunction*%
%TA.AperFunction,Conductor*%
G36*
X182680185Y-75663580D02*
G01*
X182725940Y-75716384D01*
X182737146Y-75767895D01*
X182737146Y-82138494D01*
X182717461Y-82205533D01*
X182700827Y-82226175D01*
X181320426Y-83606576D01*
X181259103Y-83640061D01*
X181232745Y-83642895D01*
X181170943Y-83642895D01*
X181018216Y-83683818D01*
X181018209Y-83683821D01*
X180881290Y-83762870D01*
X180881282Y-83762876D01*
X180769481Y-83874677D01*
X180769475Y-83874685D01*
X180690426Y-84011604D01*
X180690423Y-84011611D01*
X180649500Y-84164338D01*
X180649500Y-84322452D01*
X180687697Y-84465003D01*
X180690423Y-84475178D01*
X180690426Y-84475185D01*
X180769475Y-84612104D01*
X180769479Y-84612109D01*
X180769480Y-84612111D01*
X180881284Y-84723915D01*
X180881286Y-84723916D01*
X180881290Y-84723919D01*
X180928848Y-84751376D01*
X181018216Y-84802972D01*
X181170943Y-84843895D01*
X181232745Y-84843895D01*
X181299784Y-84863580D01*
X181320426Y-84880214D01*
X182700827Y-86260614D01*
X182734312Y-86321937D01*
X182737146Y-86348295D01*
X182737146Y-119026140D01*
X182717461Y-119093179D01*
X182700827Y-119113821D01*
X182329826Y-119484822D01*
X182268503Y-119518307D01*
X182198811Y-119513323D01*
X182142878Y-119471451D01*
X182118461Y-119405987D01*
X182118145Y-119397141D01*
X182118145Y-117438538D01*
X182118145Y-117438531D01*
X182118143Y-117438512D01*
X182115232Y-117413407D01*
X182115231Y-117413405D01*
X182115231Y-117413404D01*
X182069852Y-117310630D01*
X181990411Y-117231189D01*
X181930168Y-117204589D01*
X181887638Y-117185810D01*
X181862511Y-117182895D01*
X179992789Y-117182895D01*
X179992763Y-117182897D01*
X179967658Y-117185808D01*
X179967654Y-117185810D01*
X179864880Y-117231189D01*
X179862850Y-117232580D01*
X179858579Y-117233971D01*
X179854370Y-117235830D01*
X179854181Y-117235404D01*
X179796417Y-117254224D01*
X179728829Y-117236515D01*
X179693511Y-117204588D01*
X179634832Y-117126204D01*
X179519739Y-117040044D01*
X179519732Y-117040040D01*
X179385025Y-116989798D01*
X179385018Y-116989796D01*
X179325490Y-116983395D01*
X178637646Y-116983395D01*
X178637646Y-121169395D01*
X178617961Y-121236434D01*
X178565157Y-121282189D01*
X178513646Y-121293395D01*
X178261646Y-121293395D01*
X178194607Y-121273710D01*
X178148852Y-121220906D01*
X178137646Y-121169395D01*
X178137646Y-116983395D01*
X177449801Y-116983395D01*
X177390273Y-116989796D01*
X177390266Y-116989798D01*
X177255559Y-117040040D01*
X177255552Y-117040044D01*
X177140458Y-117126204D01*
X177081779Y-117204589D01*
X177025845Y-117246459D01*
X176956153Y-117251443D01*
X176912437Y-117232577D01*
X176910411Y-117231189D01*
X176807638Y-117185810D01*
X176782514Y-117182895D01*
X176782511Y-117182895D01*
X175800650Y-117182895D01*
X175733611Y-117163210D01*
X175712969Y-117146576D01*
X175245915Y-116679522D01*
X175245913Y-116679520D01*
X175200250Y-116653156D01*
X175154589Y-116626793D01*
X175103657Y-116613146D01*
X175052727Y-116599500D01*
X175052726Y-116599500D01*
X174717255Y-116599500D01*
X174650216Y-116579815D01*
X174629574Y-116563181D01*
X174489310Y-116422917D01*
X174489308Y-116422915D01*
X174443645Y-116396551D01*
X174397984Y-116370188D01*
X174347052Y-116356541D01*
X174296122Y-116342895D01*
X174296121Y-116342895D01*
X172060587Y-116342895D01*
X171993548Y-116323210D01*
X171972906Y-116306576D01*
X171939246Y-116272916D01*
X171939245Y-116272915D01*
X171847921Y-116220189D01*
X171847920Y-116220188D01*
X171774938Y-116200633D01*
X171762406Y-116197275D01*
X171746060Y-116192895D01*
X171640607Y-116192894D01*
X171640603Y-116192895D01*
X170086273Y-116192895D01*
X170019234Y-116173210D01*
X169998592Y-116156576D01*
X169947592Y-116105576D01*
X169914107Y-116044253D01*
X169919091Y-115974561D01*
X169960963Y-115918628D01*
X170026427Y-115894211D01*
X170035273Y-115893895D01*
X177887548Y-115893895D01*
X177954587Y-115913580D01*
X177975229Y-115930214D01*
X178018930Y-115973915D01*
X178018932Y-115973916D01*
X178018936Y-115973919D01*
X178140760Y-116044253D01*
X178155862Y-116052972D01*
X178308589Y-116093895D01*
X178308591Y-116093895D01*
X178466701Y-116093895D01*
X178466703Y-116093895D01*
X178619430Y-116052972D01*
X178756362Y-115973915D01*
X178868166Y-115862111D01*
X178947223Y-115725179D01*
X178988146Y-115572452D01*
X178988146Y-115414338D01*
X178947223Y-115261611D01*
X178947219Y-115261604D01*
X178868170Y-115124685D01*
X178868164Y-115124677D01*
X178756363Y-115012876D01*
X178756355Y-115012870D01*
X178619436Y-114933821D01*
X178619432Y-114933819D01*
X178619430Y-114933818D01*
X178466703Y-114892895D01*
X178308589Y-114892895D01*
X178155862Y-114933818D01*
X178155855Y-114933821D01*
X178018936Y-115012870D01*
X178018928Y-115012876D01*
X177975229Y-115056576D01*
X177913906Y-115090061D01*
X177887548Y-115092895D01*
X176327281Y-115092895D01*
X176260242Y-115073210D01*
X176214487Y-115020406D01*
X176204543Y-114951248D01*
X176207506Y-114936802D01*
X176212213Y-114919236D01*
X176238146Y-114822452D01*
X176238146Y-114664338D01*
X176197223Y-114511611D01*
X176165212Y-114456166D01*
X176118170Y-114374685D01*
X176118164Y-114374677D01*
X176006363Y-114262876D01*
X176006355Y-114262870D01*
X175869436Y-114183821D01*
X175869432Y-114183819D01*
X175869430Y-114183818D01*
X175716703Y-114142895D01*
X175558589Y-114142895D01*
X175405862Y-114183818D01*
X175405855Y-114183821D01*
X175268936Y-114262870D01*
X175268928Y-114262876D01*
X175225229Y-114306576D01*
X175163906Y-114340061D01*
X175137548Y-114342895D01*
X174077281Y-114342895D01*
X174010242Y-114323210D01*
X173964487Y-114270406D01*
X173954543Y-114201248D01*
X173957506Y-114186802D01*
X173963322Y-114165097D01*
X173988146Y-114072452D01*
X173988146Y-113914338D01*
X173947223Y-113761611D01*
X173936936Y-113743793D01*
X173868170Y-113624685D01*
X173868164Y-113624677D01*
X173756363Y-113512876D01*
X173756355Y-113512870D01*
X173619436Y-113433821D01*
X173619432Y-113433819D01*
X173619430Y-113433818D01*
X173466703Y-113392895D01*
X173308589Y-113392895D01*
X173155862Y-113433818D01*
X173155855Y-113433821D01*
X173018936Y-113512870D01*
X173018928Y-113512876D01*
X172975229Y-113556576D01*
X172913906Y-113590061D01*
X172887548Y-113592895D01*
X171577281Y-113592895D01*
X171510242Y-113573210D01*
X171464487Y-113520406D01*
X171454543Y-113451248D01*
X171457506Y-113436802D01*
X171461628Y-113421417D01*
X171488146Y-113322452D01*
X171488146Y-113164338D01*
X171447223Y-113011611D01*
X171422394Y-112968605D01*
X171368170Y-112874685D01*
X171368164Y-112874677D01*
X171256363Y-112762876D01*
X171256355Y-112762870D01*
X171119436Y-112683821D01*
X171119432Y-112683819D01*
X171119430Y-112683818D01*
X170966703Y-112642895D01*
X170808589Y-112642895D01*
X170655862Y-112683818D01*
X170655855Y-112683821D01*
X170518936Y-112762870D01*
X170518928Y-112762876D01*
X170475229Y-112806576D01*
X170413906Y-112840061D01*
X170387548Y-112842895D01*
X168079774Y-112842895D01*
X168012735Y-112823210D01*
X167992093Y-112806576D01*
X167225775Y-112040258D01*
X167192290Y-111978935D01*
X167197274Y-111909243D01*
X167239146Y-111853310D01*
X167297273Y-111829638D01*
X167341050Y-111823875D01*
X167341053Y-111823874D01*
X167480924Y-111765937D01*
X167541026Y-111719819D01*
X167541026Y-111719818D01*
X167355278Y-111534070D01*
X167323580Y-111479926D01*
X167318959Y-111463477D01*
X167318959Y-111448502D01*
X167295800Y-111381042D01*
X167294849Y-111377656D01*
X167295219Y-111346100D01*
X167293797Y-111314583D01*
X167295626Y-111311432D01*
X167295669Y-111307791D01*
X167313036Y-111281450D01*
X167328883Y-111254162D01*
X167332124Y-111252500D01*
X167334130Y-111249460D01*
X167362980Y-111236691D01*
X167391066Y-111222301D01*
X167394691Y-111222656D01*
X167398021Y-111221183D01*
X167429192Y-111226038D01*
X167460602Y-111229117D01*
X167464188Y-111231489D01*
X167467058Y-111231936D01*
X167473483Y-111237636D01*
X167501909Y-111256438D01*
X167753157Y-111507687D01*
X167753158Y-111507687D01*
X167799276Y-111447585D01*
X167857213Y-111307714D01*
X167857214Y-111307712D01*
X167876975Y-111157609D01*
X167876975Y-111157606D01*
X167857214Y-111007504D01*
X167857213Y-111007502D01*
X167799276Y-110867629D01*
X167799274Y-110867626D01*
X167730252Y-110777674D01*
X167730246Y-110777667D01*
X167341207Y-110388629D01*
X167341206Y-110388629D01*
X166981244Y-110748592D01*
X166979836Y-110768289D01*
X166971763Y-110779072D01*
X166967969Y-110791996D01*
X166951236Y-110806494D01*
X166937966Y-110824223D01*
X166925343Y-110828931D01*
X166915165Y-110837751D01*
X166893249Y-110840902D01*
X166872502Y-110848641D01*
X166859339Y-110845777D01*
X166846007Y-110847695D01*
X166825864Y-110838496D01*
X166804229Y-110833790D01*
X166786502Y-110820520D01*
X166782451Y-110818670D01*
X166775974Y-110812639D01*
X166740520Y-110777186D01*
X166705066Y-110741732D01*
X166671581Y-110680409D01*
X166676565Y-110610717D01*
X166718437Y-110554784D01*
X166770035Y-110535538D01*
X167129075Y-110176497D01*
X167129075Y-110176496D01*
X166740037Y-109787458D01*
X166740030Y-109787452D01*
X166643631Y-109713483D01*
X166645601Y-109710915D01*
X166607844Y-109671282D01*
X166594651Y-109602670D01*
X166620647Y-109537816D01*
X166630403Y-109526829D01*
X166779864Y-109377368D01*
X166841187Y-109343883D01*
X166910879Y-109348867D01*
X166955226Y-109377368D01*
X169891733Y-112313875D01*
X169941997Y-112342895D01*
X169972932Y-112360756D01*
X169983058Y-112366602D01*
X170084919Y-112393895D01*
X176211546Y-112393895D01*
X176278585Y-112413580D01*
X176324340Y-112466384D01*
X176326107Y-112470443D01*
X176328069Y-112475181D01*
X176407121Y-112612104D01*
X176407125Y-112612109D01*
X176407126Y-112612111D01*
X176518930Y-112723915D01*
X176518932Y-112723916D01*
X176518936Y-112723919D01*
X176586411Y-112762875D01*
X176655862Y-112802972D01*
X176808589Y-112843895D01*
X176808591Y-112843895D01*
X176966701Y-112843895D01*
X176966703Y-112843895D01*
X177119430Y-112802972D01*
X177256362Y-112723915D01*
X177368166Y-112612111D01*
X177447223Y-112475179D01*
X177488146Y-112322452D01*
X177488146Y-112164338D01*
X177447223Y-112011611D01*
X177444678Y-112007203D01*
X177368170Y-111874685D01*
X177368164Y-111874677D01*
X177256363Y-111762876D01*
X177256355Y-111762870D01*
X177119436Y-111683821D01*
X177119431Y-111683818D01*
X177072553Y-111671257D01*
X177022066Y-111657729D01*
X176962407Y-111621365D01*
X176931878Y-111558518D01*
X176940173Y-111489142D01*
X176946775Y-111475954D01*
X176947223Y-111475179D01*
X176988146Y-111322452D01*
X176988146Y-111164338D01*
X176947223Y-111011611D01*
X176909657Y-110946544D01*
X176868170Y-110874685D01*
X176868164Y-110874677D01*
X176756363Y-110762876D01*
X176756355Y-110762870D01*
X176619436Y-110683821D01*
X176619432Y-110683819D01*
X176619430Y-110683818D01*
X176466703Y-110642895D01*
X176308589Y-110642895D01*
X176155862Y-110683818D01*
X176155860Y-110683818D01*
X176148011Y-110685922D01*
X176147385Y-110683585D01*
X176090118Y-110689737D01*
X176027642Y-110658456D01*
X175991995Y-110598364D01*
X175988146Y-110567709D01*
X175988146Y-110414340D01*
X175988146Y-110414338D01*
X175947223Y-110261611D01*
X175898083Y-110176497D01*
X175868170Y-110124685D01*
X175868164Y-110124677D01*
X175756363Y-110012876D01*
X175756355Y-110012870D01*
X175619436Y-109933821D01*
X175619432Y-109933819D01*
X175619430Y-109933818D01*
X175466703Y-109892895D01*
X175308589Y-109892895D01*
X175155862Y-109933818D01*
X175155855Y-109933821D01*
X175018936Y-110012870D01*
X175018928Y-110012876D01*
X174975229Y-110056576D01*
X174948301Y-110071279D01*
X174922483Y-110087872D01*
X174916282Y-110088763D01*
X174913906Y-110090061D01*
X174887548Y-110092895D01*
X174686744Y-110092895D01*
X174619705Y-110073210D01*
X174573950Y-110020406D01*
X174564006Y-109951248D01*
X174593031Y-109887692D01*
X174599063Y-109881214D01*
X174618166Y-109862111D01*
X174697223Y-109725179D01*
X174738146Y-109572452D01*
X174738146Y-109414338D01*
X174697223Y-109261611D01*
X174663535Y-109203261D01*
X174618170Y-109124685D01*
X174618164Y-109124677D01*
X174506363Y-109012876D01*
X174506355Y-109012870D01*
X174369436Y-108933821D01*
X174369432Y-108933819D01*
X174369430Y-108933818D01*
X174216703Y-108892895D01*
X174058589Y-108892895D01*
X173905862Y-108933818D01*
X173905855Y-108933821D01*
X173768936Y-109012870D01*
X173768928Y-109012876D01*
X173725229Y-109056576D01*
X173663906Y-109090061D01*
X173637548Y-109092895D01*
X172827281Y-109092895D01*
X172760242Y-109073210D01*
X172714487Y-109020406D01*
X172704543Y-108951248D01*
X172707506Y-108936802D01*
X172708306Y-108933818D01*
X172738146Y-108822452D01*
X172738146Y-108664338D01*
X172697223Y-108511611D01*
X172651826Y-108432980D01*
X172618170Y-108374685D01*
X172618164Y-108374677D01*
X172506363Y-108262876D01*
X172506355Y-108262870D01*
X172369436Y-108183821D01*
X172369432Y-108183819D01*
X172369430Y-108183818D01*
X172216703Y-108142895D01*
X172058589Y-108142895D01*
X171905862Y-108183818D01*
X171905855Y-108183821D01*
X171768936Y-108262870D01*
X171768928Y-108262876D01*
X171725229Y-108306576D01*
X171663906Y-108340061D01*
X171637548Y-108342895D01*
X170051958Y-108342895D01*
X169984919Y-108323210D01*
X169964277Y-108306576D01*
X169294089Y-107636387D01*
X169288194Y-107627190D01*
X169282318Y-107622768D01*
X169272914Y-107603349D01*
X169265480Y-107591749D01*
X169263486Y-107586361D01*
X169246690Y-107523678D01*
X169234098Y-107501868D01*
X169193963Y-107432352D01*
X169119396Y-107357785D01*
X169119394Y-107357783D01*
X168887641Y-107126030D01*
X168620441Y-106858829D01*
X168586956Y-106797506D01*
X168591940Y-106727814D01*
X168633812Y-106671881D01*
X168699276Y-106647464D01*
X168708122Y-106647148D01*
X172212894Y-106647148D01*
X172279933Y-106666833D01*
X172325688Y-106719637D01*
X172327458Y-106723702D01*
X172328067Y-106725174D01*
X172328069Y-106725179D01*
X172328071Y-106725183D01*
X172328073Y-106725187D01*
X172407121Y-106862104D01*
X172407125Y-106862109D01*
X172407126Y-106862111D01*
X172518930Y-106973915D01*
X172518932Y-106973916D01*
X172518936Y-106973919D01*
X172655855Y-107052968D01*
X172655862Y-107052972D01*
X172808589Y-107093895D01*
X172808591Y-107093895D01*
X172966701Y-107093895D01*
X172966703Y-107093895D01*
X173119430Y-107052972D01*
X173256362Y-106973915D01*
X173368166Y-106862111D01*
X173447223Y-106725179D01*
X173488146Y-106572452D01*
X173488146Y-106414338D01*
X173447223Y-106261611D01*
X173388042Y-106159105D01*
X173368170Y-106124685D01*
X173368164Y-106124677D01*
X173355668Y-106112181D01*
X173322183Y-106050858D01*
X173327167Y-105981166D01*
X173369039Y-105925233D01*
X173434503Y-105900816D01*
X173443349Y-105900500D01*
X179552725Y-105900500D01*
X179552727Y-105900500D01*
X179654588Y-105873207D01*
X179745913Y-105820480D01*
X181985703Y-103580687D01*
X181985708Y-103580684D01*
X181995911Y-103570480D01*
X181995913Y-103570480D01*
X182070480Y-103495913D01*
X182123207Y-103404587D01*
X182124977Y-103397982D01*
X182150501Y-103302726D01*
X182150501Y-103197273D01*
X182150501Y-103189678D01*
X182150500Y-103189660D01*
X182150500Y-86947273D01*
X182143132Y-86919774D01*
X182123207Y-86845412D01*
X182070480Y-86754087D01*
X175538561Y-80222168D01*
X175505076Y-80160845D01*
X175510060Y-80091153D01*
X175551932Y-80035220D01*
X175564237Y-80027102D01*
X175656362Y-79973915D01*
X175768166Y-79862111D01*
X175847223Y-79725179D01*
X175888146Y-79572452D01*
X175888146Y-79414338D01*
X175856166Y-79294986D01*
X175857829Y-79225139D01*
X175896992Y-79167276D01*
X175961220Y-79139772D01*
X175975941Y-79138895D01*
X176291916Y-79138895D01*
X176322345Y-79136041D01*
X176322347Y-79136041D01*
X176394834Y-79110676D01*
X176450528Y-79091188D01*
X176559796Y-79010545D01*
X176640439Y-78901277D01*
X176640438Y-78901277D01*
X176643879Y-78896616D01*
X176699526Y-78854365D01*
X176769182Y-78848906D01*
X176812541Y-78867147D01*
X176828467Y-78877789D01*
X176828469Y-78877789D01*
X176828473Y-78877792D01*
X176885172Y-78901277D01*
X176974149Y-78938132D01*
X177128799Y-78968894D01*
X177128802Y-78968895D01*
X177128804Y-78968895D01*
X177286490Y-78968895D01*
X177286491Y-78968894D01*
X177441143Y-78938132D01*
X177586825Y-78877789D01*
X177717935Y-78790184D01*
X177829435Y-78678684D01*
X177917040Y-78547574D01*
X177977383Y-78401892D01*
X178008146Y-78247237D01*
X178008146Y-77304649D01*
X178014384Y-77283403D01*
X178015964Y-77261315D01*
X178024036Y-77250531D01*
X178027831Y-77237610D01*
X178044564Y-77223110D01*
X178057836Y-77205382D01*
X178070456Y-77200674D01*
X178080635Y-77191855D01*
X178102552Y-77188703D01*
X178123300Y-77180965D01*
X178136460Y-77183827D01*
X178149793Y-77181911D01*
X178169936Y-77191110D01*
X178191573Y-77195817D01*
X178209298Y-77209085D01*
X178213349Y-77210936D01*
X178219827Y-77216968D01*
X178325827Y-77322968D01*
X178359312Y-77384291D01*
X178362146Y-77410649D01*
X178362146Y-77816265D01*
X178362147Y-77816271D01*
X178368554Y-77875878D01*
X178418848Y-78010723D01*
X178418852Y-78010730D01*
X178505098Y-78125939D01*
X178505101Y-78125942D01*
X178620310Y-78212188D01*
X178620317Y-78212192D01*
X178665264Y-78228956D01*
X178755163Y-78262486D01*
X178814773Y-78268895D01*
X179310518Y-78268894D01*
X179370129Y-78262486D01*
X179504977Y-78212191D01*
X179620192Y-78125941D01*
X179706442Y-78010726D01*
X179756737Y-77875878D01*
X179763146Y-77816268D01*
X179763145Y-77170523D01*
X179763145Y-77170522D01*
X180012146Y-77170522D01*
X180012146Y-77170529D01*
X180012146Y-77170530D01*
X180012146Y-77816265D01*
X180012147Y-77816271D01*
X180018554Y-77875878D01*
X180068848Y-78010723D01*
X180068852Y-78010730D01*
X180155098Y-78125939D01*
X180155101Y-78125942D01*
X180270310Y-78212188D01*
X180270317Y-78212192D01*
X180315264Y-78228956D01*
X180405163Y-78262486D01*
X180464773Y-78268895D01*
X180960518Y-78268894D01*
X181020129Y-78262486D01*
X181154977Y-78212191D01*
X181270192Y-78125941D01*
X181356442Y-78010726D01*
X181406737Y-77875878D01*
X181413146Y-77816268D01*
X181413145Y-77170523D01*
X181406737Y-77110912D01*
X181390686Y-77067878D01*
X181356443Y-76976066D01*
X181356439Y-76976059D01*
X181270193Y-76860850D01*
X181270190Y-76860847D01*
X181154981Y-76774601D01*
X181154974Y-76774597D01*
X181020132Y-76724305D01*
X181020131Y-76724304D01*
X181020129Y-76724304D01*
X180960519Y-76717895D01*
X180960509Y-76717895D01*
X180464775Y-76717895D01*
X180464769Y-76717896D01*
X180405162Y-76724303D01*
X180270317Y-76774597D01*
X180270310Y-76774601D01*
X180155101Y-76860847D01*
X180155098Y-76860850D01*
X180068852Y-76976059D01*
X180068848Y-76976066D01*
X180018556Y-77110908D01*
X180018555Y-77110912D01*
X180012146Y-77170522D01*
X179763145Y-77170522D01*
X179756737Y-77110912D01*
X179740686Y-77067878D01*
X179706443Y-76976066D01*
X179706439Y-76976059D01*
X179620193Y-76860850D01*
X179620190Y-76860847D01*
X179504981Y-76774601D01*
X179504974Y-76774597D01*
X179370128Y-76724303D01*
X179370129Y-76724303D01*
X179310529Y-76717896D01*
X179310527Y-76717895D01*
X179310519Y-76717895D01*
X179310511Y-76717895D01*
X178904901Y-76717895D01*
X178837862Y-76698210D01*
X178817220Y-76681576D01*
X177991220Y-75855576D01*
X177957735Y-75794253D01*
X177962719Y-75724561D01*
X178004591Y-75668628D01*
X178070055Y-75644211D01*
X178078901Y-75643895D01*
X182613146Y-75643895D01*
X182680185Y-75663580D01*
G37*
%TD.AperFunction*%
%TA.AperFunction,Conductor*%
G36*
X155848354Y-108163580D02*
G01*
X155894109Y-108216384D01*
X155904254Y-108284079D01*
X155898317Y-108329179D01*
X155898317Y-108329183D01*
X155918077Y-108479285D01*
X155918078Y-108479287D01*
X155976015Y-108619160D01*
X155976017Y-108619163D01*
X156045039Y-108709115D01*
X156045045Y-108709122D01*
X156434083Y-109098160D01*
X156434084Y-109098160D01*
X156806022Y-108726221D01*
X156813967Y-108721882D01*
X156819393Y-108714635D01*
X156844152Y-108705400D01*
X156867345Y-108692736D01*
X156876374Y-108693381D01*
X156884857Y-108690218D01*
X156910677Y-108695834D01*
X156937036Y-108697720D01*
X156946089Y-108703538D01*
X156953130Y-108705070D01*
X156981384Y-108726221D01*
X157018154Y-108762991D01*
X157051639Y-108824314D01*
X157046655Y-108894006D01*
X157018154Y-108938353D01*
X156646216Y-109310291D01*
X156646216Y-109310292D01*
X156991637Y-109655713D01*
X157025122Y-109717036D01*
X157020138Y-109786728D01*
X156991637Y-109831075D01*
X156646216Y-110176496D01*
X156646216Y-110176497D01*
X157018155Y-110548436D01*
X157022493Y-110556381D01*
X157029741Y-110561807D01*
X157038975Y-110586566D01*
X157051640Y-110609759D01*
X157050994Y-110618788D01*
X157054158Y-110627271D01*
X157048541Y-110653091D01*
X157046656Y-110679451D01*
X157040837Y-110688504D01*
X157039306Y-110695544D01*
X157018155Y-110723798D01*
X156981385Y-110760568D01*
X156920062Y-110794053D01*
X156850370Y-110789069D01*
X156806023Y-110760568D01*
X156434084Y-110388629D01*
X156434083Y-110388629D01*
X156045045Y-110777667D01*
X156045039Y-110777674D01*
X155976017Y-110867626D01*
X155976015Y-110867629D01*
X155918078Y-111007502D01*
X155918077Y-111007504D01*
X155898317Y-111157606D01*
X155898317Y-111157609D01*
X155918077Y-111307712D01*
X155918078Y-111307714D01*
X155976016Y-111447589D01*
X156022131Y-111507687D01*
X156022132Y-111507687D01*
X156273382Y-111256438D01*
X156279891Y-111252883D01*
X156284180Y-111246831D01*
X156310141Y-111236365D01*
X156334705Y-111222953D01*
X156342102Y-111223482D01*
X156348982Y-111220709D01*
X156376478Y-111225940D01*
X156404397Y-111227937D01*
X156410334Y-111232381D01*
X156417621Y-111233768D01*
X156437925Y-111253036D01*
X156460330Y-111269809D01*
X156462922Y-111276758D01*
X156468302Y-111281864D01*
X156474965Y-111309047D01*
X156484747Y-111335273D01*
X156483582Y-111344201D01*
X156484936Y-111349724D01*
X156478339Y-111384396D01*
X156477229Y-111387628D01*
X156447634Y-111435032D01*
X155576092Y-112306576D01*
X155514769Y-112340061D01*
X155488411Y-112342895D01*
X153644919Y-112342895D01*
X153543056Y-112370188D01*
X153451733Y-112422915D01*
X153451730Y-112422917D01*
X148728070Y-117146576D01*
X148666747Y-117180061D01*
X148640389Y-117182895D01*
X146972789Y-117182895D01*
X146972763Y-117182897D01*
X146947658Y-117185808D01*
X146947654Y-117185810D01*
X146844881Y-117231188D01*
X146765440Y-117310629D01*
X146751078Y-117343155D01*
X146705990Y-117396529D01*
X146639204Y-117417055D01*
X146571922Y-117398215D01*
X146525507Y-117345990D01*
X146524238Y-117343211D01*
X146509852Y-117310630D01*
X146430411Y-117231189D01*
X146370168Y-117204589D01*
X146327638Y-117185810D01*
X146302514Y-117182895D01*
X146302511Y-117182895D01*
X146248214Y-117182895D01*
X146181175Y-117163210D01*
X146135420Y-117110406D01*
X146125476Y-117041248D01*
X146154501Y-116977692D01*
X146160533Y-116971214D01*
X154951533Y-108180214D01*
X155012856Y-108146729D01*
X155039214Y-108143895D01*
X155781315Y-108143895D01*
X155848354Y-108163580D01*
G37*
%TD.AperFunction*%
%TA.AperFunction,Conductor*%
G36*
X157619004Y-112876766D02*
G01*
X157652984Y-112879197D01*
X157653883Y-112879775D01*
X157654680Y-112879844D01*
X157685406Y-112897211D01*
X157691708Y-112902074D01*
X157758239Y-112968605D01*
X157817369Y-113012697D01*
X157849234Y-113023636D01*
X157865405Y-113036115D01*
X157906453Y-113092655D01*
X157906930Y-113094019D01*
X157911237Y-113106566D01*
X157955330Y-113165697D01*
X158111794Y-113322161D01*
X158162391Y-113359888D01*
X158170922Y-113366250D01*
X158182244Y-113370136D01*
X158183465Y-113370556D01*
X158240481Y-113410942D01*
X158260483Y-113447573D01*
X158264789Y-113460117D01*
X158264790Y-113460118D01*
X158308884Y-113519251D01*
X158465348Y-113675715D01*
X158523802Y-113719301D01*
X158524476Y-113719804D01*
X158537019Y-113724110D01*
X158594032Y-113764491D01*
X158597357Y-113768896D01*
X158608081Y-113783778D01*
X158618344Y-113813672D01*
X158662436Y-113872802D01*
X158697498Y-113907864D01*
X158703345Y-113915978D01*
X158711765Y-113939870D01*
X158723910Y-113962112D01*
X158725616Y-113977985D01*
X158725683Y-113977977D01*
X158725974Y-113980192D01*
X158726568Y-113981876D01*
X158726329Y-113982885D01*
X158746504Y-114136139D01*
X158746505Y-114136141D01*
X158804443Y-114276016D01*
X158850558Y-114336114D01*
X158850559Y-114336114D01*
X159036308Y-114150367D01*
X159063235Y-114135663D01*
X159089054Y-114119071D01*
X159095254Y-114118179D01*
X159097631Y-114116882D01*
X159123989Y-114114048D01*
X159126111Y-114114048D01*
X159193150Y-114133733D01*
X159238905Y-114186537D01*
X159248849Y-114255695D01*
X159219824Y-114319251D01*
X159213792Y-114325729D01*
X156392944Y-117146576D01*
X156331621Y-117180061D01*
X156305263Y-117182895D01*
X154592789Y-117182895D01*
X154592763Y-117182897D01*
X154567658Y-117185808D01*
X154567654Y-117185810D01*
X154464881Y-117231188D01*
X154385440Y-117310629D01*
X154371078Y-117343155D01*
X154325990Y-117396529D01*
X154259204Y-117417055D01*
X154191922Y-117398215D01*
X154145507Y-117345990D01*
X154144238Y-117343211D01*
X154129852Y-117310630D01*
X154050411Y-117231189D01*
X153990168Y-117204589D01*
X153947638Y-117185810D01*
X153922514Y-117182895D01*
X153922511Y-117182895D01*
X153546135Y-117182895D01*
X153479096Y-117163210D01*
X153433341Y-117110406D01*
X153423397Y-117041248D01*
X153452422Y-116977692D01*
X153458454Y-116971214D01*
X155478420Y-114951248D01*
X157521971Y-112907696D01*
X157522796Y-112907245D01*
X157523262Y-112906423D01*
X157553414Y-112890527D01*
X157583292Y-112874213D01*
X157584233Y-112874280D01*
X157585069Y-112873840D01*
X157619004Y-112876766D01*
G37*
%TD.AperFunction*%
%TA.AperFunction,Conductor*%
G36*
X173299929Y-103663580D02*
G01*
X173320571Y-103680214D01*
X173500827Y-103860470D01*
X173534312Y-103921793D01*
X173537146Y-103948151D01*
X173537146Y-104575500D01*
X173517461Y-104642539D01*
X173464657Y-104688294D01*
X173413146Y-104699500D01*
X167988075Y-104699500D01*
X167921036Y-104679815D01*
X167900394Y-104663181D01*
X167410130Y-104172917D01*
X167410128Y-104172915D01*
X167349140Y-104137703D01*
X167318804Y-104120188D01*
X167267872Y-104106541D01*
X167216942Y-104092895D01*
X167216941Y-104092895D01*
X166396056Y-104092895D01*
X166388515Y-104092895D01*
X166283062Y-104092894D01*
X166188548Y-104118218D01*
X166179898Y-104119274D01*
X166179068Y-104119136D01*
X166167061Y-104128350D01*
X166159496Y-104132718D01*
X166127341Y-104151282D01*
X166065341Y-104167896D01*
X165496640Y-104167896D01*
X165496624Y-104167895D01*
X165489028Y-104167895D01*
X165383575Y-104167895D01*
X165383571Y-104167895D01*
X165318998Y-104185196D01*
X165318999Y-104185197D01*
X165281716Y-104195187D01*
X165281713Y-104195188D01*
X165190384Y-104247918D01*
X165126221Y-104312082D01*
X165126209Y-104312094D01*
X165122628Y-104315674D01*
X165067054Y-104347756D01*
X165060549Y-104349499D01*
X165060548Y-104349499D01*
X165048330Y-104352773D01*
X164958686Y-104376793D01*
X164867359Y-104429522D01*
X164792793Y-104504089D01*
X164485556Y-104811325D01*
X164484728Y-104811777D01*
X164484263Y-104812600D01*
X164454110Y-104828495D01*
X164424233Y-104844810D01*
X164423291Y-104844742D01*
X164422456Y-104845183D01*
X164388520Y-104842256D01*
X164354541Y-104839826D01*
X164353474Y-104839233D01*
X164352845Y-104839179D01*
X164349814Y-104837200D01*
X164322119Y-104821812D01*
X164315816Y-104816948D01*
X164249286Y-104750418D01*
X164190156Y-104706326D01*
X164158290Y-104695386D01*
X164142118Y-104682906D01*
X164133109Y-104670497D01*
X164120595Y-104661633D01*
X164102153Y-104627857D01*
X164101070Y-104626366D01*
X164101038Y-104625817D01*
X164100595Y-104625005D01*
X164096288Y-104612458D01*
X164095785Y-104611784D01*
X164052199Y-104553330D01*
X164024206Y-104525337D01*
X163990721Y-104464014D01*
X163989014Y-104448143D01*
X163988948Y-104448152D01*
X163968126Y-104289989D01*
X163968125Y-104289987D01*
X163910187Y-104150113D01*
X163864071Y-104090013D01*
X163834649Y-104088085D01*
X163769041Y-104064058D01*
X163726837Y-104008374D01*
X163721438Y-103938713D01*
X163754558Y-103877192D01*
X163754904Y-103876843D01*
X163951534Y-103680214D01*
X164012857Y-103646729D01*
X164039215Y-103643895D01*
X173232890Y-103643895D01*
X173299929Y-103663580D01*
G37*
%TD.AperFunction*%
%TD*%
M02*
