%TF.GenerationSoftware,KiCad,Pcbnew,10.0.4*%
%TF.CreationDate,2026-08-26T17:12:08-07:00*%
%TF.ProjectId,HyperPlex,48797065-7250-46c6-9578-2e6b69636164,rev?*%
%TF.SameCoordinates,Original*%
%TF.FileFunction,Paste,Top*%
%TF.FilePolarity,Positive*%
%FSLAX46Y46*%
G04 Gerber Fmt 4.6, Leading zero omitted, Abs format (unit mm)*
G04 Created by KiCad (PCBNEW 10.0.4) date 2026-08-26 17:12:08*
%MOMM*%
%LPD*%
G01*
G04 APERTURE LIST*
G04 Aperture macros list*
%AMRoundRect*
0 Rectangle with rounded corners*
0 $1 Rounding radius*
0 $2 $3 $4 $5 $6 $7 $8 $9 X,Y pos of 4 corners*
0 Add a 4 corners polygon primitive as box body*
4,1,4,$2,$3,$4,$5,$6,$7,$8,$9,$2,$3,0*
0 Add four circle primitives for the rounded corners*
1,1,$1+$1,$2,$3*
1,1,$1+$1,$4,$5*
1,1,$1+$1,$6,$7*
1,1,$1+$1,$8,$9*
0 Add four rect primitives between the rounded corners*
20,1,$1+$1,$2,$3,$4,$5,0*
20,1,$1+$1,$4,$5,$6,$7,0*
20,1,$1+$1,$6,$7,$8,$9,0*
20,1,$1+$1,$8,$9,$2,$3,0*%
G04 Aperture macros list end*
%ADD10RoundRect,0.150000X-0.150000X0.587500X-0.150000X-0.587500X0.150000X-0.587500X0.150000X0.587500X0*%
%ADD11RoundRect,0.075000X0.415425X-0.521491X0.521491X-0.415425X-0.415425X0.521491X-0.521491X0.415425X0*%
%ADD12RoundRect,0.075000X-0.415425X-0.521491X0.521491X0.415425X0.415425X0.521491X-0.521491X-0.415425X0*%
%ADD13RoundRect,0.218750X0.256250X-0.218750X0.256250X0.218750X-0.256250X0.218750X-0.256250X-0.218750X0*%
%ADD14RoundRect,0.200000X0.200000X0.275000X-0.200000X0.275000X-0.200000X-0.275000X0.200000X-0.275000X0*%
%ADD15RoundRect,0.250000X0.250000X-0.525000X0.250000X0.525000X-0.250000X0.525000X-0.250000X-0.525000X0*%
%ADD16RoundRect,0.200000X-0.200000X-0.275000X0.200000X-0.275000X0.200000X0.275000X-0.200000X0.275000X0*%
%ADD17RoundRect,0.250000X0.375000X1.000000X-0.375000X1.000000X-0.375000X-1.000000X0.375000X-1.000000X0*%
%ADD18RoundRect,0.200000X-0.275000X0.200000X-0.275000X-0.200000X0.275000X-0.200000X0.275000X0.200000X0*%
%ADD19RoundRect,0.250000X0.255000X0.440000X-0.255000X0.440000X-0.255000X-0.440000X0.255000X-0.440000X0*%
%ADD20RoundRect,0.150000X0.825000X0.150000X-0.825000X0.150000X-0.825000X-0.150000X0.825000X-0.150000X0*%
%ADD21RoundRect,0.218750X-0.256250X0.218750X-0.256250X-0.218750X0.256250X-0.218750X0.256250X0.218750X0*%
%ADD22RoundRect,0.150000X0.150000X0.470000X-0.150000X0.470000X-0.150000X-0.470000X0.150000X-0.470000X0*%
%ADD23RoundRect,0.075000X0.075000X0.545000X-0.075000X0.545000X-0.075000X-0.545000X0.075000X-0.545000X0*%
%ADD24RoundRect,0.200000X0.275000X-0.200000X0.275000X0.200000X-0.275000X0.200000X-0.275000X-0.200000X0*%
G04 APERTURE END LIST*
D10*
%TO.C,Q1*%
X174137646Y-103930896D03*
X173187646Y-102055895D03*
X175087646Y-102055895D03*
%TD*%
D11*
%TO.C,U1*%
X156999770Y-108744607D03*
X157353324Y-108391053D03*
X157706877Y-108037500D03*
X158060431Y-107683946D03*
X158413984Y-107330393D03*
X158767537Y-106976840D03*
X159121091Y-106623286D03*
X159474644Y-106269733D03*
X159828197Y-105916180D03*
X160181751Y-105562626D03*
X160535304Y-105209073D03*
X160888858Y-104855519D03*
D12*
X162886434Y-104855519D03*
X163239988Y-105209073D03*
X163593541Y-105562626D03*
X163947095Y-105916180D03*
X164300648Y-106269733D03*
X164654201Y-106623286D03*
X165007755Y-106976840D03*
X165361308Y-107330393D03*
X165714861Y-107683946D03*
X166068415Y-108037500D03*
X166421968Y-108391053D03*
X166775522Y-108744607D03*
D11*
X166775522Y-110742183D03*
X166421968Y-111095737D03*
X166068415Y-111449290D03*
X165714861Y-111802844D03*
X165361308Y-112156397D03*
X165007755Y-112509950D03*
X164654201Y-112863504D03*
X164300648Y-113217057D03*
X163947095Y-113570610D03*
X163593541Y-113924164D03*
X163239988Y-114277717D03*
X162886434Y-114631271D03*
D12*
X160888858Y-114631271D03*
X160535304Y-114277717D03*
X160181751Y-113924164D03*
X159828197Y-113570610D03*
X159474644Y-113217057D03*
X159121091Y-112863504D03*
X158767537Y-112509950D03*
X158413984Y-112156397D03*
X158060431Y-111802844D03*
X157706877Y-111449290D03*
X157353324Y-111095737D03*
X156999770Y-110742183D03*
%TD*%
D13*
%TO.C,D1*%
X165587646Y-90655896D03*
X165587646Y-89080894D03*
%TD*%
D14*
%TO.C,R4*%
X169212646Y-102243395D03*
X167562646Y-102243395D03*
%TD*%
D15*
%TO.C,SW1*%
X164287646Y-99868395D03*
X164287646Y-94618395D03*
X167487646Y-99868395D03*
X167487646Y-94618395D03*
%TD*%
D16*
%TO.C,R13*%
X179062646Y-77493395D03*
X180712646Y-77493395D03*
%TD*%
D10*
%TO.C,U3*%
X162337646Y-82555895D03*
X160437646Y-82555895D03*
X161387646Y-84430896D03*
%TD*%
D16*
%TO.C,R1*%
X162262648Y-90975000D03*
X163912648Y-90975000D03*
%TD*%
%TO.C,R1*%
X162262647Y-88725000D03*
X163912647Y-88725000D03*
%TD*%
D14*
%TO.C,R1*%
X178962646Y-103493395D03*
X177312646Y-103493395D03*
%TD*%
D17*
%TO.C,SW2*%
X160387646Y-76993395D03*
X157887646Y-76993395D03*
X155387646Y-76993395D03*
%TD*%
D18*
%TO.C,R4*%
X179750000Y-92175000D03*
X179750000Y-93825000D03*
%TD*%
D15*
%TO.C,SW1*%
X173037646Y-99868395D03*
X173037646Y-94618395D03*
X176237646Y-99868395D03*
X176237646Y-94618395D03*
%TD*%
D10*
%TO.C,U3*%
X157337646Y-82555895D03*
X155437646Y-82555895D03*
X156387646Y-84430896D03*
%TD*%
D19*
%TO.C,U2*%
X174887646Y-90643395D03*
X174887646Y-88993395D03*
X173687646Y-90643395D03*
X173687646Y-88993395D03*
D20*
X176762646Y-91723395D03*
X176762646Y-90453395D03*
X176762646Y-89183395D03*
X176762646Y-87913395D03*
X171812646Y-87913395D03*
X171812646Y-89183395D03*
X171812646Y-90453395D03*
X171812646Y-91723395D03*
%TD*%
D17*
%TO.C,SW2*%
X148887646Y-76993395D03*
X146387646Y-76993395D03*
X143887646Y-76993395D03*
%TD*%
D14*
%TO.C,R3*%
X166712646Y-75743395D03*
X165062646Y-75743395D03*
%TD*%
D21*
%TO.C,D1*%
X167337647Y-89043394D03*
X167337647Y-90618396D03*
%TD*%
D22*
%TO.C,J1*%
X176087646Y-78218395D03*
X175287646Y-78218395D03*
D23*
X174137646Y-78218395D03*
X173137646Y-78218395D03*
X172637646Y-78218395D03*
X171637646Y-78218395D03*
D22*
X170487646Y-78218395D03*
X169687646Y-78218395D03*
X169687646Y-78218395D03*
X170487646Y-78218395D03*
D23*
X171137646Y-78218395D03*
X172137646Y-78218395D03*
X173637646Y-78218395D03*
X174637646Y-78218395D03*
D22*
X175287646Y-78218395D03*
X176087646Y-78218395D03*
%TD*%
D24*
%TO.C,R2*%
X179750000Y-90075000D03*
X179750000Y-88425000D03*
%TD*%
M02*
