M48
; DRILL file KiCad 10.0.4 date 2026-08-26T17:12:04
; FORMAT={-:-/ absolute / metric / decimal}
; #@! TF.CreationDate,2026-08-26T17:12:04-07:00
; #@! TF.GenerationSoftware,Kicad,Pcbnew,10.0.4
; #@! TF.FileFunction,Plated,1,2,PTH
FMAT,2
METRIC
; #@! TA.AperFunction,Plated,PTH,ComponentDrill
T1C0.200
; #@! TA.AperFunction,Plated,PTH,ViaDrill
T2C0.300
; #@! TA.AperFunction,Plated,PTH,ComponentDrill
T3C0.600
%
G90
G05
T1
X173.588Y-88.618
X173.588Y-89.818
X173.588Y-91.018
X174.988Y-88.618
X174.988Y-89.818
X174.988Y-91.018
T2
X149.138Y-105.493
X150.138Y-105.493
X151.138Y-105.493
X152.0Y-73.443
X152.138Y-105.493
X152.962Y-105.518
X154.888Y-106.493
X155.388Y-108.993
X157.338Y-82.556
X157.638Y-113.743
X158.388Y-109.493
X161.638Y-103.243
X162.338Y-82.556
X162.696Y-107.369
X164.25Y-73.443
X165.063Y-75.743
X165.155Y-84.011
X166.75Y-105.493
X167.488Y-99.868
X168.655Y-80.511
X169.213Y-102.243
X169.688Y-78.218
X170.888Y-113.243
X172.138Y-108.743
X172.888Y-106.493
X173.388Y-113.993
X174.138Y-109.493
X175.088Y-102.056
X175.288Y-79.493
X175.288Y-85.993
X175.388Y-110.493
X175.638Y-114.743
X176.088Y-78.218
X176.138Y-84.243
X176.388Y-111.243
X176.763Y-89.183
X176.888Y-112.243
X178.388Y-115.493
X179.75Y-88.425
X179.75Y-93.825
X180.713Y-77.493
X181.25Y-84.243
T3
G00X168.568Y-73.818
M15
G01X168.568Y-73.018
M16
G05
G00X168.568Y-78.168
M15
G01X168.568Y-77.068
M16
G05
G00X177.208Y-73.818
M15
G01X177.208Y-73.018
M16
G05
G00X177.208Y-78.168
M15
G01X177.208Y-77.068
M16
G05
M30
