%TF.GenerationSoftware,KiCad,Pcbnew,10.0.4*%
%TF.CreationDate,2026-07-22T17:28:46-07:00*%
%TF.ProjectId,HyperPlex,48797065-7250-46c6-9578-2e6b69636164,rev?*%
%TF.SameCoordinates,Original*%
%TF.FileFunction,Copper,L1,Top*%
%TF.FilePolarity,Positive*%
%FSLAX46Y46*%
G04 Gerber Fmt 4.6, Leading zero omitted, Abs format (unit mm)*
G04 Created by KiCad (PCBNEW 10.0.4) date 2026-07-22 17:28:46*
%MOMM*%
%LPD*%
G01*
G04 APERTURE LIST*
G04 Aperture macros list*
%AMRoundRect*
0 Rectangle with rounded corners*
0 $1 Rounding radius*
0 $2 $3 $4 $5 $6 $7 $8 $9 X,Y pos of 4 corners*
0 Add a 4 corners polygon primitive as box body*
4,1,4,$2,$3,$4,$5,$6,$7,$8,$9,$2,$3,0*
0 Add four circle primitives for the rounded corners*
1,1,$1+$1,$2,$3*
1,1,$1+$1,$4,$5*
1,1,$1+$1,$6,$7*
1,1,$1+$1,$8,$9*
0 Add four rect primitives between the rounded corners*
20,1,$1+$1,$2,$3,$4,$5,0*
20,1,$1+$1,$4,$5,$6,$7,0*
20,1,$1+$1,$6,$7,$8,$9,0*
20,1,$1+$1,$8,$9,$2,$3,0*%
G04 Aperture macros list end*
%TA.AperFunction,ComponentPad*%
%ADD10R,1.350000X1.350000*%
%TD*%
%TA.AperFunction,ComponentPad*%
%ADD11O,1.000000X1.800000*%
%TD*%
%TA.AperFunction,ComponentPad*%
%ADD12O,1.000000X2.100000*%
%TD*%
%TA.AperFunction,SMDPad,CuDef*%
%ADD13RoundRect,0.150000X-0.150000X-0.470000X0.150000X-0.470000X0.150000X0.470000X-0.150000X0.470000X0*%
%TD*%
%TA.AperFunction,SMDPad,CuDef*%
%ADD14RoundRect,0.075000X-0.075000X-0.545000X0.075000X-0.545000X0.075000X0.545000X-0.075000X0.545000X0*%
%TD*%
%TA.AperFunction,SMDPad,CuDef*%
%ADD15RoundRect,0.218750X-0.218750X-0.256250X0.218750X-0.256250X0.218750X0.256250X-0.218750X0.256250X0*%
%TD*%
%TA.AperFunction,SMDPad,CuDef*%
%ADD16RoundRect,0.150000X0.150000X-0.587500X0.150000X0.587500X-0.150000X0.587500X-0.150000X-0.587500X0*%
%TD*%
%TA.AperFunction,SMDPad,CuDef*%
%ADD17RoundRect,0.200000X-0.275000X0.200000X-0.275000X-0.200000X0.275000X-0.200000X0.275000X0.200000X0*%
%TD*%
%TA.AperFunction,SMDPad,CuDef*%
%ADD18RoundRect,0.250000X0.250000X-0.525000X0.250000X0.525000X-0.250000X0.525000X-0.250000X-0.525000X0*%
%TD*%
%TA.AperFunction,SMDPad,CuDef*%
%ADD19RoundRect,0.200000X0.200000X0.275000X-0.200000X0.275000X-0.200000X-0.275000X0.200000X-0.275000X0*%
%TD*%
%TA.AperFunction,SMDPad,CuDef*%
%ADD20RoundRect,0.150000X-0.587500X-0.150000X0.587500X-0.150000X0.587500X0.150000X-0.587500X0.150000X0*%
%TD*%
%TA.AperFunction,SMDPad,CuDef*%
%ADD21RoundRect,0.200000X-0.200000X-0.275000X0.200000X-0.275000X0.200000X0.275000X-0.200000X0.275000X0*%
%TD*%
%TA.AperFunction,SMDPad,CuDef*%
%ADD22RoundRect,0.150000X0.587500X0.150000X-0.587500X0.150000X-0.587500X-0.150000X0.587500X-0.150000X0*%
%TD*%
%TA.AperFunction,SMDPad,CuDef*%
%ADD23RoundRect,0.150000X-0.825000X-0.150000X0.825000X-0.150000X0.825000X0.150000X-0.825000X0.150000X0*%
%TD*%
%TA.AperFunction,HeatsinkPad*%
%ADD24C,0.500000*%
%TD*%
%TA.AperFunction,HeatsinkPad*%
%ADD25R,2.410000X3.300000*%
%TD*%
%TA.AperFunction,SMDPad,CuDef*%
%ADD26RoundRect,0.250000X1.000000X-0.375000X1.000000X0.375000X-1.000000X0.375000X-1.000000X-0.375000X0*%
%TD*%
%TA.AperFunction,SMDPad,CuDef*%
%ADD27RoundRect,0.218750X0.218750X0.256250X-0.218750X0.256250X-0.218750X-0.256250X0.218750X-0.256250X0*%
%TD*%
%TA.AperFunction,SMDPad,CuDef*%
%ADD28RoundRect,0.075000X-0.415425X-0.521491X0.521491X0.415425X0.415425X0.521491X-0.521491X-0.415425X0*%
%TD*%
%TA.AperFunction,SMDPad,CuDef*%
%ADD29RoundRect,0.075000X0.415425X-0.521491X0.521491X-0.415425X-0.415425X0.521491X-0.521491X0.415425X0*%
%TD*%
%TA.AperFunction,SMDPad,CuDef*%
%ADD30RoundRect,0.250000X-1.000000X0.375000X-1.000000X-0.375000X1.000000X-0.375000X1.000000X0.375000X0*%
%TD*%
%TA.AperFunction,ViaPad*%
%ADD31C,0.600000*%
%TD*%
%TA.AperFunction,Conductor*%
%ADD32C,0.200000*%
%TD*%
G04 APERTURE END LIST*
D10*
%TO.P,REF\u002A\u002A,1*%
%TO.N,GND*%
X34000000Y-78750000D03*
%TD*%
%TO.P,REF\u002A\u002A,1*%
%TO.N,+3.3V*%
X51000000Y-78750000D03*
%TD*%
D11*
%TO.P,J1,SH,SHIELD_SH*%
%TO.N,GND*%
X46820000Y-93575000D03*
D12*
X46820000Y-89375000D03*
D11*
X38180000Y-93575000D03*
D12*
X38180000Y-89375000D03*
D13*
%TO.P,J1,B12,GND_B12*%
X39300000Y-88775000D03*
%TO.P,J1,B9,VBUS_B9*%
%TO.N,/USB5V*%
X40100000Y-88775000D03*
D14*
%TO.P,J1,B8,SBU2_B8*%
%TO.N,unconnected-(J1-SBU2-PadB8)*%
X40750000Y-88775000D03*
%TO.P,J1,B7,D-_B7*%
%TO.N,/USBDN*%
X41750000Y-88775000D03*
%TO.P,J1,B6,D+_B6*%
%TO.N,/USBDP*%
X43250000Y-88775000D03*
%TO.P,J1,B5,CC2_B5*%
%TO.N,Net-(J1-CC2)*%
X44250000Y-88775000D03*
D13*
%TO.P,J1,B4,VBUS_B4*%
%TO.N,/USB5V*%
X44900000Y-88775000D03*
%TO.P,J1,B1,GND_B1*%
%TO.N,GND*%
X45700000Y-88775000D03*
%TO.P,J1,A12,GND_A12*%
X45700000Y-88775000D03*
%TO.P,J1,A9,VBUS_A9*%
%TO.N,/USB5V*%
X44900000Y-88775000D03*
D14*
%TO.P,J1,A8,SBU1_A8*%
%TO.N,unconnected-(J1-SBU1-PadA8)*%
X43750000Y-88775000D03*
%TO.P,J1,A7,D-_A7*%
%TO.N,/USBDN*%
X42750000Y-88775000D03*
%TO.P,J1,A6,D+_A6*%
%TO.N,/USBDP*%
X42250000Y-88775000D03*
%TO.P,J1,A5,CC1_A5*%
%TO.N,Net-(J1-CC1)*%
X41250000Y-88775000D03*
D13*
%TO.P,J1,A4,VBUS_A4*%
%TO.N,/USB5V*%
X40100000Y-88775000D03*
%TO.P,J1,A1,GND_A1*%
%TO.N,GND*%
X39300000Y-88775000D03*
%TD*%
D15*
%TO.P,D2,1,K_1*%
%TO.N,Net-(D2-K)*%
X41674999Y-73000000D03*
%TO.P,D2,2,A_2*%
%TO.N,Net-(D2-A)*%
X43250001Y-73000000D03*
%TD*%
D16*
%TO.P,Q2,1,E_1*%
%TO.N,GND*%
X38550000Y-77875001D03*
%TO.P,Q2,2,B_2*%
%TO.N,Net-(Q2-B)*%
X40450000Y-77875001D03*
%TO.P,Q2,3,C_3*%
%TO.N,Net-(D2-K)*%
X39500000Y-76000000D03*
%TD*%
D17*
%TO.P,R6,1*%
%TO.N,/3.3V*%
X39605895Y-69675000D03*
%TO.P,R6,2*%
%TO.N,Net-(D2-K)*%
X39605895Y-71325000D03*
%TD*%
D18*
%TO.P,SW4,1,1_1*%
%TO.N,/3.3V*%
X37505895Y-67375000D03*
X37505895Y-62125000D03*
%TO.P,SW4,2,2_2*%
%TO.N,Net-(U1-BOOT0)*%
X40705895Y-67375000D03*
X40705895Y-62125000D03*
%TD*%
D19*
%TO.P,R13,1*%
%TO.N,Net-(J1-CC1)*%
X39575000Y-86750000D03*
%TO.P,R13,2*%
%TO.N,GND*%
X37925000Y-86750000D03*
%TD*%
D20*
%TO.P,U3,1,GND_1*%
%TO.N,GND*%
X47812500Y-83300000D03*
%TO.P,U3,2,VO_2*%
%TO.N,Net-(SW3-A)*%
X47812500Y-85200000D03*
%TO.P,U3,3,VI_3*%
%TO.N,/3.3VRAW*%
X49687500Y-84250000D03*
%TD*%
D16*
%TO.P,Q1,1,E_1*%
%TO.N,GND*%
X44550000Y-77875001D03*
%TO.P,Q1,2,B_2*%
%TO.N,Net-(Q1-B)*%
X46450000Y-77875001D03*
%TO.P,Q1,3,C_3*%
%TO.N,Net-(D1-K)*%
X45500000Y-76000000D03*
%TD*%
D17*
%TO.P,R5,1*%
%TO.N,/3.3V*%
X41355895Y-69675000D03*
%TO.P,R5,2*%
%TO.N,Net-(D2-A)*%
X41355895Y-71325000D03*
%TD*%
%TO.P,R4,1*%
%TO.N,/3.3V*%
X43605895Y-69675000D03*
%TO.P,R4,2*%
%TO.N,Net-(D1-A)*%
X43605895Y-71325000D03*
%TD*%
D21*
%TO.P,R15,1*%
%TO.N,/3.3V*%
X34750000Y-58250000D03*
%TO.P,R15,2*%
%TO.N,/RST*%
X36400000Y-58250000D03*
%TD*%
D19*
%TO.P,R1,1*%
%TO.N,Net-(U4-TEMP)*%
X38075000Y-79750000D03*
%TO.P,R1,2*%
%TO.N,GND*%
X36425000Y-79750000D03*
%TD*%
D18*
%TO.P,SW1,1,1_1*%
%TO.N,Net-(Q3-B)*%
X44255895Y-67375000D03*
X44255895Y-62125000D03*
%TO.P,SW1,2,2_2*%
%TO.N,/3.3V*%
X47455895Y-67375000D03*
X47455895Y-62125000D03*
%TD*%
D22*
%TO.P,U6,1,GND_1*%
%TO.N,GND*%
X37125001Y-85200000D03*
%TO.P,U6,2,VO_2*%
%TO.N,Net-(SW3-C)*%
X37125001Y-83300000D03*
%TO.P,U6,3,VI_3*%
%TO.N,/USB5V*%
X35250000Y-84250000D03*
%TD*%
D23*
%TO.P,U4,1,TEMP_1*%
%TO.N,Net-(U4-TEMP)*%
X39975000Y-81295000D03*
%TO.P,U4,2,PROG_2*%
%TO.N,Net-(U4-PROG)*%
X39975000Y-82565000D03*
%TO.P,U4,3,GND_3*%
%TO.N,GND*%
X39975000Y-83835000D03*
%TO.P,U4,4,V_{CC}_4*%
%TO.N,/USB5V*%
X39975000Y-85105000D03*
%TO.P,U4,5,BAT_5*%
%TO.N,/3.3VRAW*%
X44925000Y-85105000D03*
%TO.P,U4,6,~{STDBY}_6*%
%TO.N,Net-(Q2-B)*%
X44925000Y-83835000D03*
%TO.P,U4,7,~{CHRG}_7*%
%TO.N,Net-(Q1-B)*%
X44925000Y-82565000D03*
%TO.P,U4,8,CE_8*%
%TO.N,/USB5V*%
X44925000Y-81295000D03*
D24*
%TO.P,U4,9,EPAD_9*%
%TO.N,GND*%
X41750000Y-82000000D03*
X41750000Y-83200000D03*
X41750000Y-84400000D03*
D25*
X42450000Y-83200000D03*
D24*
X43150000Y-82000000D03*
X43150000Y-83200000D03*
X43150000Y-84400000D03*
%TD*%
D17*
%TO.P,R3,1*%
%TO.N,/3.3V*%
X45355895Y-69675000D03*
%TO.P,R3,2*%
%TO.N,Net-(D1-K)*%
X45355895Y-71325000D03*
%TD*%
D26*
%TO.P,SW2,1,A_1*%
%TO.N,/3.3VRAW*%
X48105895Y-74500000D03*
%TO.P,SW2,2,B_2*%
%TO.N,+3.3V*%
X48105895Y-72000000D03*
%TO.P,SW2,3,C_3*%
%TO.N,unconnected-(SW2-C-Pad3)*%
X48105895Y-69500000D03*
%TD*%
D21*
%TO.P,R12,1*%
%TO.N,Net-(J1-CC2)*%
X45425000Y-86750000D03*
%TO.P,R12,2*%
%TO.N,GND*%
X47075000Y-86750000D03*
%TD*%
D27*
%TO.P,D1,1,K_1*%
%TO.N,Net-(D1-K)*%
X43287501Y-74750000D03*
%TO.P,D1,2,A_2*%
%TO.N,Net-(D1-A)*%
X41712499Y-74750000D03*
%TD*%
D19*
%TO.P,R2,1*%
%TO.N,Net-(U4-PROG)*%
X38075000Y-81500000D03*
%TO.P,R2,2*%
%TO.N,GND*%
X36425000Y-81500000D03*
%TD*%
D20*
%TO.P,Q3,1,E_1*%
%TO.N,GND*%
X49812500Y-64050000D03*
%TO.P,Q3,2,B_2*%
%TO.N,Net-(Q3-B)*%
X49812500Y-65950000D03*
%TO.P,Q3,3,C_3*%
%TO.N,/RST*%
X51687501Y-65000000D03*
%TD*%
D28*
%TO.P,U1,1,VBAT_1*%
%TO.N,/3.3V*%
X37612124Y-55179557D03*
%TO.P,U1,2,PC13_2*%
%TO.N,unconnected-(U1-PC13-Pad2)*%
X37965678Y-55533111D03*
%TO.P,U1,3,PC14_3*%
%TO.N,unconnected-(U1-PC14-Pad3)*%
X38319231Y-55886664D03*
%TO.P,U1,4,PC15_4*%
%TO.N,unconnected-(U1-PC15-Pad4)*%
X38672785Y-56240218D03*
%TO.P,U1,5,OSC_IN_5*%
%TO.N,unconnected-(U1-OSC_IN-Pad5)*%
X39026338Y-56593771D03*
%TO.P,U1,6,OSC_OUT_6*%
%TO.N,unconnected-(U1-OSC_OUT-Pad6)*%
X39379891Y-56947324D03*
%TO.P,U1,7,~{RST}_7*%
%TO.N,/RST*%
X39733445Y-57300878D03*
%TO.P,U1,8,VSSA_8*%
%TO.N,GND*%
X40086998Y-57654431D03*
%TO.P,U1,9,VDDA_9*%
%TO.N,/3.3V*%
X40440551Y-58007984D03*
%TO.P,U1,10,PA0_10*%
%TO.N,unconnected-(U1-PA0-Pad10)*%
X40794105Y-58361538D03*
%TO.P,U1,11,PA1_11*%
%TO.N,unconnected-(U1-PA1-Pad11)*%
X41147658Y-58715091D03*
%TO.P,U1,12,PA2_12*%
%TO.N,unconnected-(U1-PA2-Pad12)*%
X41501212Y-59068645D03*
D29*
%TO.P,U1,13,PA3_13*%
%TO.N,unconnected-(U1-PA3-Pad13)*%
X43498788Y-59068645D03*
%TO.P,U1,14,PA4_14*%
%TO.N,unconnected-(U1-PA4-Pad14)*%
X43852342Y-58715091D03*
%TO.P,U1,15,PA5_15*%
%TO.N,unconnected-(U1-PA5-Pad15)*%
X44205895Y-58361538D03*
%TO.P,U1,16,PA6_16*%
%TO.N,unconnected-(U1-PA6-Pad16)*%
X44559449Y-58007984D03*
%TO.P,U1,17,PA7_17*%
%TO.N,unconnected-(U1-PA7-Pad17)*%
X44913002Y-57654431D03*
%TO.P,U1,18,PB0_18*%
%TO.N,unconnected-(U1-PB0-Pad18)*%
X45266555Y-57300878D03*
%TO.P,U1,19,PB1_19*%
%TO.N,unconnected-(U1-PB1-Pad19)*%
X45620109Y-56947324D03*
%TO.P,U1,20,PB2_20*%
%TO.N,unconnected-(U1-PB2-Pad20)*%
X45973662Y-56593771D03*
%TO.P,U1,21,PB10_21*%
%TO.N,unconnected-(U1-PB10-Pad21)*%
X46327215Y-56240218D03*
%TO.P,U1,22,PB11_22*%
%TO.N,unconnected-(U1-PB11-Pad22)*%
X46680769Y-55886664D03*
%TO.P,U1,23,VSS_23*%
%TO.N,GND*%
X47034322Y-55533111D03*
%TO.P,U1,24,VDD_VIO_24*%
%TO.N,/3.3V*%
X47387876Y-55179557D03*
D28*
%TO.P,U1,25,PB12_25*%
%TO.N,unconnected-(U1-PB12-Pad25)*%
X47387876Y-53181981D03*
%TO.P,U1,26,PB13_26*%
%TO.N,unconnected-(U1-PB13-Pad26)*%
X47034322Y-52828427D03*
%TO.P,U1,27,PB14_27*%
%TO.N,unconnected-(U1-PB14-Pad27)*%
X46680769Y-52474874D03*
%TO.P,U1,28,PB15_28*%
%TO.N,unconnected-(U1-PB15-Pad28)*%
X46327215Y-52121320D03*
%TO.P,U1,29,PA8_29*%
%TO.N,unconnected-(U1-PA8-Pad29)*%
X45973662Y-51767767D03*
%TO.P,U1,30,PA9_30*%
%TO.N,unconnected-(U1-PA9-Pad30)*%
X45620109Y-51414214D03*
%TO.P,U1,31,PA10_31*%
%TO.N,unconnected-(U1-PA10-Pad31)*%
X45266555Y-51060660D03*
%TO.P,U1,32,PA11_32*%
%TO.N,/USBDN*%
X44913002Y-50707107D03*
%TO.P,U1,33,PA12_33*%
%TO.N,/USBDP*%
X44559449Y-50353554D03*
%TO.P,U1,34,SWDIO_34*%
%TO.N,unconnected-(U1-SWDIO-Pad34)*%
X44205895Y-50000000D03*
%TO.P,U1,35,VSS_35*%
%TO.N,GND*%
X43852342Y-49646447D03*
%TO.P,U1,36,VDD_36*%
%TO.N,/3.3V*%
X43498788Y-49292893D03*
D29*
%TO.P,U1,37,SWCLK_37*%
%TO.N,unconnected-(U1-SWCLK-Pad37)*%
X41501212Y-49292893D03*
%TO.P,U1,38,PA15_38*%
%TO.N,unconnected-(U1-PA15-Pad38)*%
X41147658Y-49646447D03*
%TO.P,U1,39,PB3_39*%
%TO.N,unconnected-(U1-PB3-Pad39)*%
X40794105Y-50000000D03*
%TO.P,U1,40,PB4_40*%
%TO.N,unconnected-(U1-PB4-Pad40)*%
X40440551Y-50353554D03*
%TO.P,U1,41,PB5_41*%
%TO.N,unconnected-(U1-PB5-Pad41)*%
X40086998Y-50707107D03*
%TO.P,U1,42,PB6_42*%
%TO.N,unconnected-(U1-PB6-Pad42)*%
X39733445Y-51060660D03*
%TO.P,U1,43,PB7_43*%
%TO.N,unconnected-(U1-PB7-Pad43)*%
X39379891Y-51414214D03*
%TO.P,U1,44,BOOT0_44*%
%TO.N,Net-(U1-BOOT0)*%
X39026338Y-51767767D03*
%TO.P,U1,45,PB8_45*%
%TO.N,unconnected-(U1-PB8-Pad45)*%
X38672785Y-52121320D03*
%TO.P,U1,46,PB9_46*%
%TO.N,unconnected-(U1-PB9-Pad46)*%
X38319231Y-52474874D03*
%TO.P,U1,47,VSS_47*%
%TO.N,GND*%
X37965678Y-52828427D03*
%TO.P,U1,48,VDD_48*%
%TO.N,/3.3V*%
X37612124Y-53181981D03*
%TD*%
D21*
%TO.P,R14,1*%
%TO.N,GND*%
X36675000Y-60000000D03*
%TO.P,R14,2*%
%TO.N,Net-(U1-BOOT0)*%
X38325000Y-60000000D03*
%TD*%
D30*
%TO.P,SW3,1,A_1*%
%TO.N,Net-(SW3-A)*%
X36855895Y-69500000D03*
%TO.P,SW3,2,B_2*%
%TO.N,/3.3V*%
X36855895Y-72000000D03*
%TO.P,SW3,3,C_3*%
%TO.N,Net-(SW3-C)*%
X36855895Y-74500000D03*
%TD*%
D31*
%TO.N,GND*%
X50000000Y-67250000D03*
X50500000Y-70250000D03*
X36750000Y-89000000D03*
X36000000Y-86000000D03*
%TO.N,unconnected-(U1-PB15-Pad28)*%
X47212500Y-87905248D03*
X41250000Y-85750000D03*
%TO.N,unconnected-(U1-PB3-Pad39)*%
X32750000Y-76750000D03*
%TO.N,unconnected-(U1-PB4-Pad40)*%
X32625000Y-75375000D03*
%TO.N,unconnected-(U1-PB5-Pad41)*%
X33137997Y-74387997D03*
%TO.N,unconnected-(U1-PB8-Pad45)*%
X34500000Y-65333924D03*
X36000000Y-66750000D03*
%TO.N,Net-(U1-BOOT0)*%
X33500000Y-56500000D03*
X35250000Y-56500000D03*
%TO.N,/3.3V*%
X45915447Y-68915447D03*
%TO.N,GND*%
X36000000Y-61250000D03*
%TO.N,unconnected-(U1-PC15-Pad4)*%
X37500000Y-57250000D03*
%TO.N,unconnected-(U1-PC14-Pad3)*%
X36250000Y-57000000D03*
%TO.N,unconnected-(U1-PC13-Pad2)*%
X36000000Y-55750000D03*
%TO.N,unconnected-(U1-PB15-Pad28)*%
X48750000Y-50500000D03*
%TO.N,unconnected-(U1-PB12-Pad25)*%
X49658566Y-52250000D03*
%TO.N,unconnected-(U1-PB13-Pad26)*%
X48000000Y-52067826D03*
%TO.N,unconnected-(U1-PB14-Pad27)*%
X48633867Y-51433960D03*
%TO.N,unconnected-(U1-PB11-Pad22)*%
X48250000Y-56750000D03*
%TO.N,unconnected-(U1-PB10-Pad21)*%
X48500000Y-57750000D03*
%TO.N,/USBDP*%
X43000000Y-91750000D03*
%TO.N,GND*%
X45249394Y-48249394D03*
X48350000Y-48851471D03*
%TO.N,/USBDN*%
X42000000Y-91750000D03*
%TO.N,/USBDP*%
X43000000Y-91750000D03*
%TO.N,unconnected-(U1-PB8-Pad45)*%
X36500000Y-50500000D03*
%TO.N,unconnected-(U1-PB9-Pad46)*%
X36500000Y-51750000D03*
%TO.N,unconnected-(U1-PB7-Pad43)*%
X36431878Y-49300000D03*
%TO.N,unconnected-(U1-PB6-Pad42)*%
X37858580Y-49327213D03*
%TO.N,unconnected-(U1-PB1-Pad19)*%
X47476544Y-58586807D03*
%TO.N,unconnected-(U1-PB0-Pad18)*%
X46750000Y-58250000D03*
%TO.N,unconnected-(U1-PB2-Pad20)*%
X48099278Y-59089003D03*
%TO.N,unconnected-(U1-PA15-Pad38)*%
X41638137Y-52013333D03*
%TO.N,unconnected-(U1-PA8-Pad29)*%
X48008949Y-49997017D03*
%TO.N,unconnected-(U1-PA9-Pad30)*%
X47235951Y-49790914D03*
%TO.N,unconnected-(U1-PA10-Pad31)*%
X46782108Y-49132108D03*
%TO.N,unconnected-(U1-PA7-Pad17)*%
X48786598Y-59689003D03*
%TO.N,unconnected-(U1-PA6-Pad16)*%
X46554433Y-59662132D03*
%TO.N,unconnected-(U1-PA5-Pad15)*%
X45758949Y-59747017D03*
%TO.N,unconnected-(U1-PA4-Pad14)*%
X45000000Y-60000000D03*
%TO.N,unconnected-(U1-PA3-Pad13)*%
X44248991Y-60450000D03*
%TO.N,unconnected-(U1-PA0-Pad10)*%
X41750000Y-56488921D03*
%TO.N,unconnected-(U1-PA1-Pad11)*%
X42549916Y-56500737D03*
%TO.N,unconnected-(U1-PA2-Pad12)*%
X43349918Y-56499895D03*
%TO.N,Net-(Q1-B)*%
X44925000Y-79075000D03*
%TO.N,/3.3V*%
X34000000Y-61000000D03*
%TO.N,/RST*%
X50050000Y-60774318D03*
X51250000Y-61000000D03*
%TO.N,GND*%
X39300000Y-88775000D03*
X45700000Y-88775000D03*
X46500000Y-85750000D03*
X47075000Y-86750000D03*
X36562922Y-82500000D03*
X38250000Y-87500000D03*
X37125001Y-85200000D03*
X39975000Y-83835000D03*
%TO.N,/USBDP*%
X43000000Y-87000000D03*
%TO.N,/USBDN*%
X42000000Y-87000000D03*
%TO.N,Net-(Q1-B)*%
X44925000Y-82565000D03*
%TD*%
%TO.N,Net-(SW3-C)*%
D32*
X36250000Y-83300000D02*
X37125001Y-83300000D01*
%TO.N,GND*%
X36562922Y-82500000D02*
X36500000Y-82500000D01*
X36500000Y-82500000D02*
X36425000Y-82425000D01*
X36425000Y-82425000D02*
X36425000Y-81500000D01*
%TO.N,Net-(SW3-A)*%
X33350000Y-76650000D02*
X33774524Y-76225476D01*
X33350000Y-76998529D02*
X33350000Y-76650000D01*
X32998529Y-77350000D02*
X33350000Y-76998529D01*
X33025000Y-77775000D02*
X33275000Y-77775000D01*
X33025000Y-79725000D02*
X33025000Y-77775000D01*
X34000000Y-79725000D02*
X33025000Y-79725000D01*
X34000000Y-87500000D02*
X34000000Y-79725000D01*
X37225000Y-90725000D02*
X34000000Y-87500000D01*
X47812500Y-85200000D02*
X47812500Y-90063871D01*
X33275000Y-77775000D02*
X32850000Y-77350000D01*
X33774524Y-76200000D02*
X33305895Y-75731371D01*
X47812500Y-90063871D02*
X47151371Y-90725000D01*
X32850000Y-77350000D02*
X32998529Y-77350000D01*
X33774524Y-74600000D02*
X34000000Y-74600000D01*
X47151371Y-90725000D02*
X37225000Y-90725000D01*
X33305895Y-75068629D02*
X33774524Y-74600000D01*
X33774524Y-76225476D02*
X33774524Y-76200000D01*
X33305895Y-75731371D02*
X33305895Y-75068629D01*
X34000000Y-74600000D02*
X34000000Y-72355895D01*
X34000000Y-72355895D02*
X36855895Y-69500000D01*
%TO.N,+3.3V*%
X48690639Y-71075000D02*
X48690639Y-71415256D01*
X48690639Y-71415256D02*
X48105895Y-72000000D01*
X51100000Y-70001471D02*
X51100000Y-74100000D01*
X48690639Y-71075000D02*
X50115639Y-69650000D01*
X50115639Y-69650000D02*
X50748529Y-69650000D01*
X50748529Y-69650000D02*
X51100000Y-70001471D01*
X51100000Y-74100000D02*
X51750000Y-74750000D01*
X51750000Y-74750000D02*
X51750000Y-78000000D01*
X51750000Y-78000000D02*
X51000000Y-78750000D01*
%TO.N,GND*%
X46100000Y-76778052D02*
X45003051Y-77875001D01*
X48765639Y-73500000D02*
X46946151Y-73500000D01*
X50500000Y-71000000D02*
X50000000Y-71500000D01*
X42774999Y-76500000D02*
X40378052Y-76500000D01*
X46946151Y-73500000D02*
X46100000Y-74346151D01*
X50500000Y-70250000D02*
X50500000Y-71000000D01*
X50000000Y-71500000D02*
X50000000Y-72265639D01*
X50000000Y-72265639D02*
X48765639Y-73500000D01*
X46100000Y-74346151D02*
X46100000Y-76778052D01*
X45003051Y-77875001D02*
X44150000Y-77875001D01*
X44150000Y-77875001D02*
X42774999Y-76500000D01*
X40378052Y-76500000D02*
X39003051Y-77875001D01*
X39003051Y-77875001D02*
X38550000Y-77875001D01*
X50000000Y-66550000D02*
X50000000Y-67250000D01*
X50590552Y-66550000D02*
X50000000Y-66550000D01*
X50850000Y-65609448D02*
X50850000Y-66290552D01*
X50590552Y-65350000D02*
X50850000Y-65609448D01*
X49812500Y-64503051D02*
X50000000Y-64690551D01*
X50850000Y-66290552D02*
X50590552Y-66550000D01*
X50000000Y-65350000D02*
X50590552Y-65350000D01*
X50000000Y-64690551D02*
X50000000Y-65350000D01*
X49812500Y-64050000D02*
X49812500Y-64503051D01*
X37925000Y-86750000D02*
X37925000Y-87175000D01*
X37925000Y-87175000D02*
X38250000Y-87500000D01*
X36750000Y-89000000D02*
X36750000Y-88500000D01*
X36750000Y-88500000D02*
X36000000Y-87750000D01*
X36000000Y-87750000D02*
X36000000Y-86000000D01*
%TO.N,unconnected-(U1-PB14-Pad27)*%
X48500000Y-51300093D02*
X47706673Y-51300093D01*
X47706673Y-51300093D02*
X47598535Y-51408231D01*
X47598535Y-51408231D02*
X47598535Y-51415686D01*
X48633867Y-51433960D02*
X48500000Y-51300093D01*
X47598535Y-51415686D02*
X47295887Y-51718334D01*
X47295887Y-51718334D02*
X47295887Y-51930466D01*
X47295887Y-51930466D02*
X46751479Y-52474874D01*
X46751479Y-52474874D02*
X46680769Y-52474874D01*
%TO.N,GND*%
X38550000Y-77875001D02*
X36124999Y-77875001D01*
X36124999Y-77875001D02*
X36000000Y-78000000D01*
%TO.N,/USB5V*%
X36881949Y-84435000D02*
X38500000Y-84435000D01*
X44925000Y-81295000D02*
X42605000Y-78975000D01*
X42605000Y-78975000D02*
X37412352Y-78975000D01*
X37412352Y-78975000D02*
X37125000Y-79262352D01*
X37125000Y-79262352D02*
X37125000Y-81921947D01*
X37125000Y-81921947D02*
X38500000Y-83296947D01*
X38500000Y-83296947D02*
X38500000Y-84435000D01*
%TO.N,Net-(SW3-C)*%
X36855895Y-74500000D02*
X36855895Y-77105895D01*
X35746950Y-83300000D02*
X36250000Y-83300000D01*
X36855895Y-77105895D02*
X36711790Y-77250000D01*
X36711790Y-77250000D02*
X35901471Y-77250000D01*
X35901471Y-77250000D02*
X35334284Y-77817187D01*
X35334284Y-77817187D02*
X35334284Y-82887334D01*
X35334284Y-82887334D02*
X35746950Y-83300000D01*
%TO.N,/USB5V*%
X36881949Y-84435000D02*
X36696949Y-84250000D01*
X36696949Y-84250000D02*
X35250000Y-84250000D01*
%TO.N,unconnected-(U1-PB15-Pad28)*%
X46125000Y-86817748D02*
X46125000Y-86262352D01*
X46375000Y-87067748D02*
X46125000Y-86817748D01*
X44737352Y-86250000D02*
X41750000Y-86250000D01*
X46125000Y-86262352D02*
X45837648Y-85975000D01*
X46375000Y-87237648D02*
X46375000Y-87067748D01*
X46662352Y-87525000D02*
X46375000Y-87237648D01*
X46832252Y-87525000D02*
X46662352Y-87525000D01*
X45012352Y-85975000D02*
X44737352Y-86250000D01*
X47212500Y-87905248D02*
X46832252Y-87525000D01*
X45837648Y-85975000D02*
X45012352Y-85975000D01*
X41750000Y-86250000D02*
X41250000Y-85750000D01*
%TO.N,unconnected-(U1-PB12-Pad25)*%
X49658566Y-52250000D02*
X49500000Y-52250000D01*
X49500000Y-52250000D02*
X48568019Y-53181981D01*
X48568019Y-53181981D02*
X47387876Y-53181981D01*
%TO.N,unconnected-(U1-PA15-Pad38)*%
X41250000Y-49819499D02*
X41250000Y-49748789D01*
X41692066Y-50261565D02*
X41250000Y-49819499D01*
X41692066Y-50569287D02*
X41692066Y-50261565D01*
X41338512Y-50922841D02*
X41338512Y-50897961D01*
X41250000Y-49748789D02*
X41147658Y-49646447D01*
X41363392Y-50897961D02*
X41692066Y-50569287D01*
X41250000Y-51723726D02*
X41250000Y-51011353D01*
X41338512Y-50897961D02*
X41363392Y-50897961D01*
X41250000Y-51011353D02*
X41338512Y-50922841D01*
X41539607Y-52013333D02*
X41250000Y-51723726D01*
X41638137Y-52013333D02*
X41539607Y-52013333D01*
%TO.N,GND*%
X43852342Y-49646447D02*
X43781630Y-49646447D01*
X43781630Y-49646447D02*
X44396749Y-49031328D01*
X44396749Y-49031328D02*
X44396749Y-48723606D01*
X44396749Y-48723606D02*
X44068075Y-48394932D01*
X44068075Y-48394932D02*
X43754241Y-48394932D01*
X43754241Y-48394932D02*
X42399173Y-49750000D01*
X42399173Y-49750000D02*
X42399173Y-52100827D01*
X42399173Y-52100827D02*
X41173612Y-53326388D01*
X38888518Y-53372835D02*
X38510086Y-53372835D01*
X41173612Y-53326388D02*
X38934965Y-53326388D01*
X38934965Y-53326388D02*
X38888518Y-53372835D01*
X38510086Y-53372835D02*
X37965678Y-52828427D01*
%TO.N,unconnected-(U1-PB3-Pad39)*%
X40250000Y-49455895D02*
X40250000Y-49078295D01*
X40250000Y-49078295D02*
X39071705Y-47900000D01*
X39071705Y-47900000D02*
X35804422Y-47900000D01*
X35804422Y-47900000D02*
X35477211Y-48227211D01*
X32000000Y-51704422D02*
X32000000Y-76000000D01*
X32000000Y-76000000D02*
X32750000Y-76750000D01*
X35804422Y-47900000D02*
X32000000Y-51704422D01*
%TO.N,unconnected-(U1-PB4-Pad40)*%
X32850000Y-54518628D02*
X32850000Y-51420108D01*
X32850000Y-51420108D02*
X35970108Y-48300000D01*
X32700001Y-54668627D02*
X32850000Y-54518628D01*
X32500000Y-56085785D02*
X32700000Y-55885785D01*
X32850000Y-57264215D02*
X32500000Y-56914214D01*
X38906019Y-48300000D02*
X39500000Y-48893981D01*
X32700000Y-55885785D02*
X32700001Y-54668627D01*
X32850000Y-72374523D02*
X32850000Y-57264215D01*
X32505895Y-72718628D02*
X32850000Y-72374523D01*
X32505895Y-73900000D02*
X32505895Y-72718628D01*
X32457366Y-73900000D02*
X32505895Y-73900000D01*
X39500000Y-49413003D02*
X40440551Y-50353554D01*
X32457366Y-75207366D02*
X32457366Y-73900000D01*
X32500000Y-56914214D02*
X32500000Y-56085785D01*
X32625000Y-75375000D02*
X32457366Y-75207366D01*
X35970108Y-48300000D02*
X38906019Y-48300000D01*
X39500000Y-48893981D02*
X39500000Y-49413003D01*
%TO.N,unconnected-(U1-PB5-Pad41)*%
X32900000Y-56748529D02*
X32900000Y-56251471D01*
X33250000Y-57098529D02*
X32900000Y-56748529D01*
X32900000Y-56251471D02*
X33100000Y-56051471D01*
X33100000Y-56051471D02*
X33100000Y-54834314D01*
X32905895Y-72884314D02*
X33250000Y-72540209D01*
X32905895Y-74300000D02*
X32905895Y-72884314D01*
X32993892Y-74387997D02*
X32905895Y-74300000D01*
X33137997Y-74387997D02*
X32993892Y-74387997D01*
X33250000Y-72540209D02*
X33250000Y-57098529D01*
X33100000Y-54834314D02*
X33250000Y-54684315D01*
X33250000Y-54684315D02*
X33250000Y-51633349D01*
X40086998Y-50707107D02*
X38750000Y-49370109D01*
X38750000Y-49370109D02*
X38750000Y-48850000D01*
X38750000Y-48850000D02*
X38600000Y-48700000D01*
X38600000Y-48700000D02*
X36183349Y-48700000D01*
X36183349Y-48700000D02*
X33250000Y-51633349D01*
X33250000Y-51633349D02*
X33250000Y-51750000D01*
%TO.N,unconnected-(U1-PB6-Pad42)*%
X37858580Y-49327213D02*
X37858582Y-49327215D01*
X38000000Y-49327215D02*
X39733445Y-51060660D01*
X37858582Y-49327215D02*
X38000000Y-49327215D01*
%TO.N,unconnected-(U1-PB7-Pad43)*%
X36431878Y-49300000D02*
X36447555Y-49284323D01*
X37965677Y-50000000D02*
X39379891Y-51414214D01*
X36447555Y-49284323D02*
X36534323Y-49284323D01*
X36534323Y-49284323D02*
X36750000Y-49500000D01*
X37114215Y-49700000D02*
X37382837Y-49700000D01*
X36750000Y-49500000D02*
X36914214Y-49500000D01*
X36914214Y-49500000D02*
X37114215Y-49700000D01*
X37382837Y-49700000D02*
X37682837Y-50000000D01*
X37682837Y-50000000D02*
X37965677Y-50000000D01*
%TO.N,unconnected-(U1-PB8-Pad45)*%
X34500000Y-65333924D02*
X35916076Y-66750000D01*
X35916076Y-66750000D02*
X36000000Y-66750000D01*
%TO.N,unconnected-(U1-PB4-Pad40)*%
X32625000Y-75375000D02*
X32750000Y-75500000D01*
%TO.N,Net-(U1-BOOT0)*%
X36251471Y-51100000D02*
X35900000Y-50748529D01*
X35900000Y-50748529D02*
X35900000Y-50251471D01*
X35900000Y-51501471D02*
X36251471Y-51150000D01*
X37217151Y-50100000D02*
X38340510Y-51223359D01*
X38955628Y-51767767D02*
X39026338Y-51767767D01*
X35900000Y-51998529D02*
X35900000Y-51501471D01*
X33500000Y-55000000D02*
X36200736Y-52299264D01*
X36200736Y-52299264D02*
X35900000Y-51998529D01*
X36748529Y-49900000D02*
X36948529Y-50100000D01*
X36251471Y-49900000D02*
X36748529Y-49900000D01*
X35900000Y-50251471D02*
X36251471Y-49900000D01*
X33500000Y-56500000D02*
X33500000Y-55000000D01*
X36948529Y-50100000D02*
X37217151Y-50100000D01*
X38340510Y-51223359D02*
X38411220Y-51223359D01*
X38411220Y-51223359D02*
X38955628Y-51767767D01*
%TO.N,GND*%
X47812500Y-83300000D02*
X47812500Y-83758184D01*
X47812500Y-83758184D02*
X46500000Y-85070684D01*
X46500000Y-85070684D02*
X46500000Y-85750000D01*
%TO.N,Net-(U1-BOOT0)*%
X40705895Y-62125000D02*
X40750000Y-62169105D01*
X40750000Y-62169105D02*
X40750000Y-67330895D01*
X40750000Y-67330895D02*
X40705895Y-67375000D01*
X39540448Y-60959552D02*
X39540448Y-59706500D01*
X39540448Y-59706500D02*
X38858948Y-59025000D01*
X38858948Y-59025000D02*
X35987352Y-59025000D01*
X35987352Y-59025000D02*
X35700000Y-58737648D01*
X35700000Y-58737648D02*
X35700000Y-57870841D01*
X35700000Y-57870841D02*
X35250000Y-57420841D01*
X35250000Y-57420841D02*
X35250000Y-56500000D01*
%TO.N,/RST*%
X44740639Y-61050000D02*
X43771151Y-61050000D01*
X45215209Y-60600000D02*
X44752924Y-61062285D01*
X44752924Y-61062285D02*
X44740639Y-61050000D01*
X41505895Y-61500000D02*
X41505895Y-61365256D01*
X41505895Y-61365256D02*
X41190639Y-61050000D01*
X43571151Y-61250000D02*
X43250000Y-61250000D01*
X43771151Y-61050000D02*
X43571151Y-61250000D01*
X43000000Y-61500000D02*
X41505895Y-61500000D01*
X40766239Y-60366606D02*
X39142590Y-58742956D01*
X43250000Y-61250000D02*
X43000000Y-61500000D01*
X46900000Y-60600000D02*
X45215209Y-60600000D01*
X47125000Y-60375000D02*
X46900000Y-60600000D01*
X48702671Y-60375000D02*
X47125000Y-60375000D01*
X49101989Y-60774318D02*
X48702671Y-60375000D01*
X50050000Y-60774318D02*
X49101989Y-60774318D01*
X41190639Y-60690639D02*
X40866606Y-60366606D01*
X41190639Y-61050000D02*
X41190639Y-60690639D01*
X40866606Y-60366606D02*
X40766239Y-60366606D01*
X39142590Y-58742956D02*
X39142590Y-58392590D01*
X39142590Y-58392590D02*
X39000000Y-58250000D01*
X39000000Y-58250000D02*
X38784323Y-58250000D01*
%TO.N,/3.3V*%
X35794105Y-55000000D02*
X35897052Y-54897052D01*
X34750000Y-58250000D02*
X34650000Y-58150000D01*
X34650000Y-58150000D02*
X34650000Y-56144104D01*
X34650000Y-56144104D02*
X35897052Y-54897052D01*
X35897052Y-54897052D02*
X37612124Y-53181981D01*
X45915447Y-68915447D02*
X45355895Y-69475000D01*
%TO.N,GND*%
X36675000Y-60000000D02*
X36675000Y-60575000D01*
X36675000Y-60575000D02*
X36000000Y-61250000D01*
%TO.N,/3.3V*%
X37505895Y-62125000D02*
X37380895Y-62250000D01*
X37380895Y-62250000D02*
X34500000Y-62250000D01*
X34500000Y-62250000D02*
X34000000Y-61750000D01*
X34000000Y-61750000D02*
X34000000Y-61000000D01*
X34750000Y-58750000D02*
X34750000Y-58250000D01*
X34750000Y-59250000D02*
X34750000Y-58250000D01*
X34000000Y-61000000D02*
X34000000Y-60000000D01*
X34000000Y-60000000D02*
X34750000Y-59250000D01*
%TO.N,GND*%
X49812500Y-64050000D02*
X50750000Y-63112500D01*
X50650000Y-61248529D02*
X50650000Y-60751471D01*
X50750000Y-63112500D02*
X50750000Y-61348529D01*
X48340251Y-55840251D02*
X48340251Y-55495536D01*
X50750000Y-61348529D02*
X50650000Y-61248529D01*
X50650000Y-60751471D02*
X50750000Y-60651471D01*
X48340251Y-55495536D02*
X48350000Y-55485787D01*
X50750000Y-60651471D02*
X50750000Y-58250000D01*
X50750000Y-58250000D02*
X48340251Y-55840251D01*
X48350000Y-55485787D02*
X48350000Y-55500000D01*
%TO.N,unconnected-(U1-PA6-Pad16)*%
X46554433Y-59662132D02*
X46598529Y-59618036D01*
X46598529Y-59618036D02*
X46598529Y-59500000D01*
X45815685Y-59000000D02*
X45551465Y-59000000D01*
X46598529Y-59500000D02*
X46248529Y-59150000D01*
X45965686Y-59150000D02*
X45815685Y-59000000D01*
X46248529Y-59150000D02*
X45965686Y-59150000D01*
X45551465Y-59000000D02*
X44559449Y-58007984D01*
%TO.N,unconnected-(U1-PA5-Pad15)*%
X45758949Y-59747017D02*
X45758949Y-59508949D01*
X45758949Y-59508949D02*
X45650000Y-59400000D01*
X45650000Y-59400000D02*
X45244357Y-59400000D01*
X45244357Y-59400000D02*
X44205895Y-58361538D01*
%TO.N,GND*%
X36425000Y-79750000D02*
X36425000Y-81500000D01*
%TO.N,unconnected-(U1-PB13-Pad26)*%
X48000000Y-52067826D02*
X47794923Y-52067826D01*
X47794923Y-52067826D02*
X47034322Y-52828427D01*
%TO.N,unconnected-(U1-PB15-Pad28)*%
X48750000Y-50500000D02*
X48354495Y-50500000D01*
X48354495Y-50500000D02*
X48257478Y-50597017D01*
X48257478Y-50597017D02*
X47844063Y-50597017D01*
X47844063Y-50597017D02*
X47198535Y-51242545D01*
X47198535Y-51242545D02*
X47198535Y-51250000D01*
X47198535Y-51250000D02*
X46327215Y-52121320D01*
%TO.N,unconnected-(U1-PA8-Pad29)*%
X47850000Y-50150000D02*
X47725394Y-50150000D01*
X47725394Y-50150000D02*
X46793455Y-51081939D01*
X46793455Y-51081939D02*
X46659490Y-51081939D01*
X46659490Y-51081939D02*
X45973662Y-51767767D01*
%TO.N,unconnected-(U1-PA9-Pad30)*%
X47235951Y-49790914D02*
X46855415Y-50171450D01*
X46855415Y-50171450D02*
X46721450Y-50171450D01*
X46721450Y-50171450D02*
X46210964Y-50681937D01*
X46210964Y-50681937D02*
X46210964Y-50823359D01*
X46210964Y-50823359D02*
X45620109Y-51414214D01*
%TO.N,GND*%
X45249394Y-48249394D02*
X43852342Y-49646447D01*
%TO.N,unconnected-(U1-PB3-Pad39)*%
X40250000Y-49455895D02*
X40794105Y-50000000D01*
%TO.N,unconnected-(U1-PA10-Pad31)*%
X46782108Y-49132108D02*
X46577215Y-49337001D01*
X46577215Y-49337001D02*
X46577215Y-49750000D01*
X46577215Y-49750000D02*
X45266555Y-51060660D01*
%TO.N,/USBDN*%
X48598529Y-48251471D02*
X48101471Y-48251471D01*
X48847058Y-48500000D02*
X48598529Y-48251471D01*
X42651471Y-91250000D02*
X42751471Y-91150000D01*
X52040687Y-48500000D02*
X48847058Y-48500000D01*
X52750000Y-49209313D02*
X52040687Y-48500000D01*
X52750000Y-88565685D02*
X52750000Y-49209313D01*
X50065684Y-91250000D02*
X52750000Y-88565685D01*
X48101471Y-48251471D02*
X47852942Y-48500000D01*
X43348529Y-91250000D02*
X50065684Y-91250000D01*
X43248529Y-91150000D02*
X43348529Y-91250000D01*
X42500000Y-91250000D02*
X42651471Y-91250000D01*
X42751471Y-91150000D02*
X43248529Y-91150000D01*
X45503856Y-49596393D02*
X45503856Y-49904121D01*
X42000000Y-91750000D02*
X42500000Y-91250000D01*
X47852942Y-48500000D02*
X46565686Y-48500000D01*
X45457410Y-50091989D02*
X44913002Y-50636397D01*
X46565686Y-48500000D02*
X45503860Y-49561826D01*
X45503860Y-49561826D02*
X45503861Y-49596388D01*
X45503861Y-49596388D02*
X45503856Y-49596393D01*
X45503856Y-49904121D02*
X45457410Y-49950566D01*
X45457410Y-49950566D02*
X45457410Y-50091989D01*
X44913002Y-50636397D02*
X44913002Y-50707107D01*
%TO.N,/USBDP*%
X43000000Y-91750000D02*
X50131370Y-91750000D01*
X53150000Y-88731370D02*
X53150000Y-48900000D01*
X50131370Y-91750000D02*
X53150000Y-88731370D01*
X44559449Y-50282842D02*
X44559449Y-50353554D01*
X53150000Y-48900000D02*
X52101471Y-47851471D01*
X45103856Y-49738435D02*
X44559449Y-50282842D01*
X52101471Y-47851471D02*
X46648529Y-47851471D01*
X46648529Y-47851471D02*
X45086571Y-49413429D01*
X45086571Y-49413429D02*
X45103856Y-49430713D01*
X45103856Y-49430713D02*
X45103856Y-49738435D01*
%TO.N,unconnected-(U1-PC15-Pad4)*%
X38672785Y-56240218D02*
X37663003Y-57250000D01*
X37663003Y-57250000D02*
X37500000Y-57250000D01*
%TO.N,unconnected-(U1-PC14-Pad3)*%
X38319231Y-55886664D02*
X37728377Y-56477518D01*
X37728377Y-56477518D02*
X36772482Y-56477518D01*
X36772482Y-56477518D02*
X36250000Y-57000000D01*
%TO.N,unconnected-(U1-PC13-Pad2)*%
X37965678Y-55533111D02*
X37421271Y-56077518D01*
X37421271Y-56077518D02*
X36327518Y-56077518D01*
X36327518Y-56077518D02*
X36000000Y-55750000D01*
%TO.N,/3.3V*%
X37612124Y-53181981D02*
X37612124Y-55179557D01*
%TO.N,GND*%
X48350000Y-55684681D02*
X48350000Y-55500000D01*
X51500000Y-50500000D02*
X51500000Y-52350000D01*
X51500000Y-52350000D02*
X48350000Y-55500000D01*
X51500000Y-50500000D02*
X49900000Y-48900000D01*
X49900000Y-48900000D02*
X48681372Y-48900000D01*
X48681372Y-48900000D02*
X48632844Y-48851471D01*
X48632844Y-48851471D02*
X48350000Y-48851471D01*
%TO.N,unconnected-(U1-PB11-Pad22)*%
X48250000Y-56750000D02*
X47795585Y-56750000D01*
X47795585Y-56750000D02*
X47495585Y-56450000D01*
X47495585Y-56450000D02*
X47244105Y-56450000D01*
X47244105Y-56450000D02*
X46680769Y-55886664D01*
%TO.N,unconnected-(U1-PB10-Pad21)*%
X46327215Y-56240218D02*
X46936997Y-56850000D01*
X46936997Y-56850000D02*
X47329899Y-56850000D01*
X47329899Y-56850000D02*
X48150000Y-57670100D01*
X48150000Y-57670100D02*
X48149999Y-57750000D01*
X48149999Y-57750000D02*
X48500000Y-57750000D01*
%TO.N,unconnected-(U1-PB2-Pad20)*%
X48099278Y-59089003D02*
X48099278Y-58599278D01*
X48099278Y-58599278D02*
X48076544Y-58576544D01*
X47750000Y-57835785D02*
X47164214Y-57250000D01*
X47164214Y-57250000D02*
X46629891Y-57250000D01*
X46629891Y-57250000D02*
X45973662Y-56593771D01*
X48076544Y-58576544D02*
X48076544Y-58338278D01*
X48076544Y-58338278D02*
X47750000Y-58011734D01*
X47750000Y-58011734D02*
X47750000Y-57835785D01*
%TO.N,unconnected-(U1-PB1-Pad19)*%
X47476544Y-58586807D02*
X47350000Y-58460263D01*
X47350000Y-58460263D02*
X47350000Y-58001471D01*
X47350000Y-58001471D02*
X46998529Y-57650000D01*
X46998529Y-57650000D02*
X46501471Y-57650000D01*
X46501471Y-57650000D02*
X46450735Y-57700735D01*
X46322785Y-57650000D02*
X45620109Y-56947324D01*
X46450735Y-57700735D02*
X46400000Y-57650000D01*
X46400000Y-57650000D02*
X46322785Y-57650000D01*
%TO.N,GND*%
X46536361Y-55035150D02*
X46607070Y-55035149D01*
X46536356Y-55035148D02*
X46536361Y-55035150D01*
X46489912Y-54988703D02*
X46536356Y-55035148D01*
X42399173Y-58807080D02*
X42399173Y-58701012D01*
X46111482Y-54988703D02*
X46489912Y-54988703D01*
X40931925Y-59966606D02*
X41239647Y-59966606D01*
X47649441Y-56077518D02*
X47957163Y-56077518D01*
X40086998Y-57654431D02*
X39542590Y-58198839D01*
X41239647Y-59966606D02*
X42399173Y-58807080D01*
X39542590Y-58577271D02*
X40931925Y-59966606D01*
X39542590Y-58198839D02*
X39542590Y-58577271D01*
X46607070Y-55035149D02*
X47649441Y-56077518D01*
X42399173Y-58701012D02*
X46111482Y-54988703D01*
X47957163Y-56077518D02*
X48350000Y-55684681D01*
%TO.N,unconnected-(U1-PB0-Pad18)*%
X46750000Y-58250000D02*
X46215677Y-58250000D01*
X46215677Y-58250000D02*
X45266555Y-57300878D01*
%TO.N,/3.3V*%
X37612124Y-53181981D02*
X38680143Y-54250000D01*
X38680143Y-54250000D02*
X45000000Y-54250000D01*
%TO.N,GND*%
X48350000Y-48851471D02*
X48249264Y-48750736D01*
%TO.N,/3.3V*%
X44001515Y-51251515D02*
X44015041Y-51265041D01*
X43990162Y-51251515D02*
X44001515Y-51251515D01*
X43661488Y-50922841D02*
X43990162Y-51251515D01*
X43307934Y-50544408D02*
X43307934Y-50569287D01*
X43307934Y-50569287D02*
X43636608Y-50897961D01*
X44500000Y-51761353D02*
X44500000Y-53750000D01*
X43647961Y-50897961D02*
X43661488Y-50911488D01*
X43636608Y-50897961D02*
X43647961Y-50897961D01*
X44015041Y-51265041D02*
X44015041Y-51276394D01*
X43283055Y-50544408D02*
X43307934Y-50544408D01*
X42954381Y-50215734D02*
X43283055Y-50544408D01*
X46772757Y-54635150D02*
X47317164Y-55179557D01*
X43661488Y-50911488D02*
X43661488Y-50922841D01*
X42954381Y-49908012D02*
X42954381Y-50215734D01*
X43498788Y-49363603D02*
X42954381Y-49908012D01*
X43498788Y-49292893D02*
X43498788Y-49363603D01*
X44015041Y-51276394D02*
X44343715Y-51605068D01*
X44343715Y-51605068D02*
X44355068Y-51605068D01*
X44368594Y-51629947D02*
X44500000Y-51761353D01*
X44355068Y-51605068D02*
X44368594Y-51618594D01*
X44368594Y-51618594D02*
X44368594Y-51629947D01*
X44500000Y-53750000D02*
X45592157Y-54842157D01*
X46702046Y-54635150D02*
X46772757Y-54635150D01*
X45592157Y-54842157D02*
X45845612Y-54588703D01*
X45845612Y-54588703D02*
X46655600Y-54588703D01*
X46655600Y-54588703D02*
X46702046Y-54635150D01*
X47317164Y-55179557D02*
X47387876Y-55179557D01*
%TO.N,GND*%
X43852342Y-49646447D02*
X43852342Y-49717157D01*
%TO.N,unconnected-(U1-PB9-Pad46)*%
X38319231Y-52474874D02*
X37094357Y-51250000D01*
X37094357Y-51250000D02*
X37000000Y-51250000D01*
X37000000Y-51250000D02*
X36500000Y-51750000D01*
%TO.N,unconnected-(U1-PB8-Pad45)*%
X38672785Y-52121320D02*
X37051465Y-50500000D01*
X37051465Y-50500000D02*
X36500000Y-50500000D01*
%TO.N,GND*%
X37894966Y-52828427D02*
X37965678Y-52828427D01*
%TO.N,unconnected-(U1-PA7-Pad17)*%
X48786598Y-59689003D02*
X47754688Y-59689003D01*
X47754688Y-59689003D02*
X47600000Y-59534315D01*
X47600000Y-59501471D02*
X47248529Y-59150000D01*
X47600000Y-59534315D02*
X47600000Y-59501471D01*
X47248529Y-59150000D02*
X47215685Y-59150000D01*
X47215685Y-59150000D02*
X47165685Y-59100000D01*
X47165685Y-59100000D02*
X46764215Y-59100000D01*
X46764215Y-59100000D02*
X46414214Y-58750000D01*
X46414214Y-58750000D02*
X46131371Y-58750000D01*
X46131371Y-58750000D02*
X45981370Y-58600000D01*
X45981370Y-58600000D02*
X45858571Y-58600000D01*
X45858571Y-58600000D02*
X44913002Y-57654431D01*
%TO.N,unconnected-(U1-PA3-Pad13)*%
X43498788Y-59068645D02*
X43498788Y-59699797D01*
X43498788Y-59699797D02*
X44248991Y-60450000D01*
%TO.N,unconnected-(U1-PA4-Pad14)*%
X43852342Y-58715091D02*
X45000000Y-59862749D01*
X45000000Y-59862749D02*
X45000000Y-60000000D01*
%TO.N,unconnected-(U1-PA2-Pad12)*%
X43349918Y-56499895D02*
X43349918Y-57150082D01*
X43349918Y-57150082D02*
X41501212Y-58998788D01*
X41501212Y-58998788D02*
X41501212Y-59068645D01*
%TO.N,unconnected-(U1-PA1-Pad11)*%
X41147658Y-58715091D02*
X42549916Y-57312833D01*
X42549916Y-57312833D02*
X42549916Y-56500737D01*
%TO.N,unconnected-(U1-PA0-Pad10)*%
X40794105Y-58361538D02*
X41750000Y-57405643D01*
X41750000Y-57405643D02*
X41750000Y-56488921D01*
%TO.N,Net-(Q1-B)*%
X46450000Y-77875001D02*
X45250001Y-79075000D01*
X45250001Y-79075000D02*
X44925000Y-79075000D01*
%TO.N,Net-(Q2-B)*%
X44925000Y-83835000D02*
X45270552Y-83835000D01*
X46200000Y-82905552D02*
X46200000Y-81950000D01*
X45270552Y-83835000D02*
X46200000Y-82905552D01*
X46200000Y-81950000D02*
X46042776Y-81792776D01*
X46042776Y-81792776D02*
X46200000Y-81635552D01*
X46200000Y-81635552D02*
X46200000Y-80954448D01*
X46200000Y-80954448D02*
X45940552Y-80695000D01*
X45940552Y-80695000D02*
X44945000Y-80695000D01*
X44945000Y-80695000D02*
X42125001Y-77875001D01*
X42125001Y-77875001D02*
X40450000Y-77875001D01*
%TO.N,/RST*%
X51250000Y-61000000D02*
X51250000Y-63793676D01*
X51250000Y-63793676D02*
X51687501Y-64231177D01*
X51687501Y-64231177D02*
X51687501Y-65000000D01*
%TO.N,GND*%
X36000000Y-78000000D02*
X36000000Y-79325000D01*
X36000000Y-79325000D02*
X36425000Y-79750000D01*
%TO.N,/USB5V*%
X44900000Y-88775000D02*
X44900000Y-89394999D01*
X44900000Y-89394999D02*
X44199999Y-90095000D01*
X44199999Y-90095000D02*
X40764594Y-90095000D01*
X40764594Y-90095000D02*
X40100000Y-89430406D01*
X40100000Y-89430406D02*
X40100000Y-88775000D01*
%TO.N,Net-(U1-BOOT0)*%
X38580895Y-60000000D02*
X39540448Y-60959552D01*
X39026338Y-51767767D02*
X39026338Y-51838477D01*
%TO.N,GND*%
X47034322Y-55533111D02*
X46489914Y-54988703D01*
X46489914Y-54988703D02*
X46011297Y-54988703D01*
%TO.N,/USBDN*%
X41750000Y-88775000D02*
X41750000Y-87250000D01*
X41750000Y-87250000D02*
X42000000Y-87000000D01*
%TO.N,/USBDP*%
X43250000Y-88775000D02*
X43250000Y-87250000D01*
X43250000Y-87250000D02*
X43000000Y-87000000D01*
X42250000Y-88775000D02*
X42250000Y-89427410D01*
X42250000Y-89427410D02*
X42517590Y-89695000D01*
X42517590Y-89695000D02*
X42982410Y-89695000D01*
X42982410Y-89695000D02*
X43250000Y-89427410D01*
X43250000Y-89427410D02*
X43250000Y-88775000D01*
%TO.N,/USBDN*%
X41750000Y-88775000D02*
X41750000Y-88122590D01*
X41750000Y-88122590D02*
X42017590Y-87855000D01*
X42482410Y-87855000D02*
X42750000Y-88122590D01*
X42017590Y-87855000D02*
X42482410Y-87855000D01*
X42750000Y-88122590D02*
X42750000Y-88775000D01*
%TO.N,Net-(U4-PROG)*%
X39975000Y-82565000D02*
X39140000Y-82565000D01*
X39140000Y-82565000D02*
X38075000Y-81500000D01*
%TO.N,Net-(U4-TEMP)*%
X39975000Y-81295000D02*
X38430000Y-79750000D01*
X38430000Y-79750000D02*
X38075000Y-79750000D01*
%TO.N,/USB5V*%
X38500000Y-84435000D02*
X39305000Y-84435000D01*
X39305000Y-84435000D02*
X39975000Y-85105000D01*
%TO.N,/3.3VRAW*%
X49687500Y-81500000D02*
X49687500Y-84250000D01*
X49687500Y-81500000D02*
X48194448Y-81500000D01*
X48194448Y-81500000D02*
X46200000Y-83494448D01*
X46200000Y-83494448D02*
X46200000Y-84804999D01*
X46200000Y-84804999D02*
X45899999Y-85105000D01*
X45899999Y-85105000D02*
X44925000Y-85105000D01*
X48105895Y-74500000D02*
X49687500Y-76081605D01*
X49687500Y-76081605D02*
X49687500Y-81500000D01*
%TO.N,Net-(U1-BOOT0)*%
X38325000Y-60000000D02*
X38580895Y-60000000D01*
X39540448Y-60959552D02*
X40705895Y-62125000D01*
%TO.N,/3.3V*%
X37505895Y-67375000D02*
X37505895Y-62125000D01*
X47455895Y-67375000D02*
X47455895Y-62125000D01*
%TO.N,Net-(Q3-B)*%
X44255895Y-67375000D02*
X44255895Y-62125000D01*
X49812500Y-65950000D02*
X48775000Y-64912500D01*
X45380895Y-61000000D02*
X44255895Y-62125000D01*
X48775000Y-64912500D02*
X48775000Y-61884361D01*
X48775000Y-61884361D02*
X47890639Y-61000000D01*
X47890639Y-61000000D02*
X45380895Y-61000000D01*
%TO.N,/3.3V*%
X39605895Y-69675000D02*
X39605895Y-69475000D01*
X39605895Y-69475000D02*
X37505895Y-67375000D01*
X47455895Y-67375000D02*
X45915447Y-68915447D01*
X45355895Y-69475000D02*
X45355895Y-69675000D01*
X36855895Y-72000000D02*
X39180895Y-69675000D01*
X39180895Y-69675000D02*
X45355895Y-69675000D01*
%TO.N,Net-(D2-K)*%
X39605895Y-71325000D02*
X39605895Y-75894105D01*
X39605895Y-75894105D02*
X39500000Y-76000000D01*
%TO.N,Net-(D1-K)*%
X45355895Y-71325000D02*
X45355895Y-75855895D01*
X45355895Y-75855895D02*
X45500000Y-76000000D01*
%TO.N,Net-(D1-A)*%
X41712499Y-74750000D02*
X42687499Y-73775000D01*
X42687499Y-73775000D02*
X43689687Y-73775000D01*
X43689687Y-73775000D02*
X43987501Y-73477186D01*
X43987501Y-73477186D02*
X43987501Y-71706606D01*
X43987501Y-71706606D02*
X43605895Y-71325000D01*
%TO.N,Net-(D2-A)*%
X43250001Y-73000000D02*
X41575001Y-71325000D01*
X41575001Y-71325000D02*
X41355895Y-71325000D01*
%TO.N,Net-(D2-K)*%
X39500000Y-76000000D02*
X39500000Y-75174999D01*
X39500000Y-75174999D02*
X41674999Y-73000000D01*
%TO.N,Net-(D1-K)*%
X45500000Y-76000000D02*
X44250000Y-74750000D01*
X44250000Y-74750000D02*
X43287501Y-74750000D01*
%TO.N,/USB5V*%
X40100000Y-88775000D02*
X40100000Y-88155001D01*
X40100000Y-88155001D02*
X39469999Y-87525000D01*
X38875000Y-87237648D02*
X38875000Y-86205000D01*
X39469999Y-87525000D02*
X39162352Y-87525000D01*
X39162352Y-87525000D02*
X38875000Y-87237648D01*
X38875000Y-86205000D02*
X39975000Y-85105000D01*
%TO.N,Net-(J1-CC1)*%
X39575000Y-86750000D02*
X39975000Y-86750000D01*
X39975000Y-86750000D02*
X41250000Y-88025000D01*
X41250000Y-88025000D02*
X41250000Y-88775000D01*
%TO.N,Net-(J1-CC2)*%
X45425000Y-86750000D02*
X44250000Y-87925000D01*
X44250000Y-87925000D02*
X44250000Y-88775000D01*
%TO.N,/RST*%
X36400000Y-58250000D02*
X38784323Y-58250000D01*
%TO.N,/3.3V*%
X40984959Y-57463576D02*
X40440551Y-58007984D01*
X38534965Y-54635150D02*
X40984959Y-57085144D01*
X38156531Y-54635150D02*
X38534965Y-54635150D01*
X37612124Y-55179557D02*
X38156531Y-54635150D01*
%TO.N,/RST*%
X38784323Y-58250000D02*
X39733445Y-57300878D01*
%TO.N,/3.3V*%
X40984959Y-57085144D02*
X40984959Y-57463576D01*
%TO.N,unconnected-(U1-PA8-Pad29)*%
X48008949Y-49997017D02*
X48002983Y-49997017D01*
X48002983Y-49997017D02*
X47850000Y-50150000D01*
%TD*%
M02*
