%TF.GenerationSoftware,KiCad,Pcbnew,10.0.4*%
%TF.CreationDate,2026-07-22T17:28:47-07:00*%
%TF.ProjectId,HyperPlex,48797065-7250-46c6-9578-2e6b69636164,rev?*%
%TF.SameCoordinates,Original*%
%TF.FileFunction,Copper,L2,Bot*%
%TF.FilePolarity,Positive*%
%FSLAX46Y46*%
G04 Gerber Fmt 4.6, Leading zero omitted, Abs format (unit mm)*
G04 Created by KiCad (PCBNEW 10.0.4) date 2026-07-22 17:28:47*
%MOMM*%
%LPD*%
G01*
G04 APERTURE LIST*
G04 Aperture macros list*
%AMRoundRect*
0 Rectangle with rounded corners*
0 $1 Rounding radius*
0 $2 $3 $4 $5 $6 $7 $8 $9 X,Y pos of 4 corners*
0 Add a 4 corners polygon primitive as box body*
4,1,4,$2,$3,$4,$5,$6,$7,$8,$9,$2,$3,0*
0 Add four circle primitives for the rounded corners*
1,1,$1+$1,$2,$3*
1,1,$1+$1,$4,$5*
1,1,$1+$1,$6,$7*
1,1,$1+$1,$8,$9*
0 Add four rect primitives between the rounded corners*
20,1,$1+$1,$2,$3,$4,$5,0*
20,1,$1+$1,$4,$5,$6,$7,0*
20,1,$1+$1,$6,$7,$8,$9,0*
20,1,$1+$1,$8,$9,$2,$3,0*%
G04 Aperture macros list end*
%TA.AperFunction,ComponentPad*%
%ADD10R,1.350000X1.350000*%
%TD*%
%TA.AperFunction,SMDPad,CuDef*%
%ADD11RoundRect,0.450000X1.050000X1.050000X-1.050000X1.050000X-1.050000X-1.050000X1.050000X-1.050000X0*%
%TD*%
%TA.AperFunction,SMDPad,CuDef*%
%ADD12RoundRect,0.300000X1.200000X0.700000X-1.200000X0.700000X-1.200000X-0.700000X1.200000X-0.700000X0*%
%TD*%
%TA.AperFunction,ComponentPad*%
%ADD13O,1.000000X1.800000*%
%TD*%
%TA.AperFunction,ComponentPad*%
%ADD14O,1.000000X2.100000*%
%TD*%
%TA.AperFunction,HeatsinkPad*%
%ADD15C,0.500000*%
%TD*%
%TA.AperFunction,HeatsinkPad*%
%ADD16R,1.900000X2.900000*%
%TD*%
%TA.AperFunction,ViaPad*%
%ADD17C,0.600000*%
%TD*%
%TA.AperFunction,Conductor*%
%ADD18C,0.200000*%
%TD*%
G04 APERTURE END LIST*
D10*
%TO.P,REF\u002A\u002A,1*%
%TO.N,GND*%
X34000000Y-78750000D03*
%TD*%
D11*
%TO.P,HyperPlex,C15*%
%TO.N,unconnected-(U1-PA9-Pad30)*%
X44500000Y-50750000D03*
%TO.N,unconnected-(U1-PA10-Pad31)*%
X40500000Y-49750000D03*
D12*
%TO.P,HyperPlex,3.3V*%
%TO.N,/3.3V*%
X47000000Y-69750000D03*
%TO.P,HyperPlex,GND*%
%TO.N,GND*%
X38000000Y-69750000D03*
D11*
%TO.P,HyperPlex,C1*%
%TO.N,unconnected-(U1-PB12-Pad25)*%
X51000000Y-50250000D03*
%TO.P,HyperPlex,C29*%
%TO.N,unconnected-(U1-PA8-Pad29)*%
X34000000Y-92250000D03*
%TO.P,HyperPlex,C20*%
%TO.N,unconnected-(U1-PB9-Pad46)*%
X38000000Y-63250000D03*
%TO.P,HyperPlex,C12*%
%TO.N,unconnected-(U1-PB0-Pad18)*%
X51000000Y-85250000D03*
%TO.P,HyperPlex,C23*%
%TO.N,unconnected-(U1-PB6-Pad42)*%
X34500000Y-72250000D03*
%TO.P,HyperPlex,C5*%
%TO.N,unconnected-(U1-PA6-Pad16)*%
X47000000Y-63250000D03*
%TO.P,HyperPlex,C19*%
%TO.N,unconnected-(U1-PC15-Pad4)*%
X34000000Y-63250000D03*
%TO.P,HyperPlex,C18*%
%TO.N,unconnected-(U1-PC14-Pad3)*%
X34000000Y-58750000D03*
%TO.P,HyperPlex,C28*%
%TO.N,unconnected-(U1-PA2-Pad12)*%
X34000000Y-88750000D03*
%TO.P,HyperPlex,C21*%
%TO.N,unconnected-(U1-PB8-Pad45)*%
X38000000Y-66750000D03*
%TO.P,HyperPlex,C7*%
%TO.N,unconnected-(U1-PA4-Pad14)*%
X47000000Y-73250000D03*
%TO.P,HyperPlex,C9*%
%TO.N,unconnected-(U1-PB2-Pad20)*%
X47000000Y-76750000D03*
%TO.P,HyperPlex,C26*%
%TO.N,unconnected-(U1-PB3-Pad39)*%
X34000000Y-81750000D03*
%TO.P,HyperPlex,C13*%
%TO.N,unconnected-(U1-PB13-Pad26)*%
X51000000Y-88750000D03*
%TO.P,HyperPlex,C25*%
%TO.N,unconnected-(U1-PA0-Pad10)*%
X38000000Y-80250000D03*
%TO.P,HyperPlex,C6*%
%TO.N,unconnected-(U1-PB1-Pad19)*%
X47000000Y-66750000D03*
%TO.P,HyperPlex,C27*%
%TO.N,unconnected-(U1-PA1-Pad11)*%
X34000000Y-85250000D03*
%TO.P,HyperPlex,C16*%
%TO.N,unconnected-(U1-PB7-Pad43)*%
X34000000Y-49750000D03*
%TO.P,HyperPlex,C24*%
%TO.N,unconnected-(U1-PB4-Pad40)*%
X38000000Y-76750000D03*
%TO.P,HyperPlex,C17*%
%TO.N,unconnected-(U1-PC13-Pad2)*%
X34000000Y-54250000D03*
%TO.P,HyperPlex,C11*%
%TO.N,unconnected-(U1-PB11-Pad22)*%
X51000000Y-81750000D03*
%TO.P,HyperPlex,C10*%
%TO.N,unconnected-(U1-PA3-Pad13)*%
X47000000Y-80250000D03*
%TO.P,HyperPlex,C14*%
%TO.N,unconnected-(U1-PB15-Pad28)*%
X51000000Y-92250000D03*
%TO.P,HyperPlex,C15*%
%TO.N,unconnected-(U1-PA15-Pad38)*%
X42500000Y-54250000D03*
%TO.P,HyperPlex,C22*%
%TO.N,unconnected-(U1-PB5-Pad41)*%
X38000000Y-73250000D03*
%TO.P,HyperPlex,C3*%
%TO.N,unconnected-(U1-PB10-Pad21)*%
X51000000Y-58750000D03*
%TO.P,HyperPlex,C8*%
%TO.N,unconnected-(U1-PA5-Pad15)*%
X50500000Y-72250000D03*
%TO.P,HyperPlex,C4*%
%TO.N,unconnected-(U1-PA7-Pad17)*%
X51000000Y-63250000D03*
%TO.P,HyperPlex,C2*%
%TO.N,unconnected-(U1-PB14-Pad27)*%
X51000000Y-54250000D03*
%TD*%
D10*
%TO.P,REF\u002A\u002A,1*%
%TO.N,+3.3V*%
X51000000Y-78750000D03*
%TD*%
D13*
%TO.P,J1,SH,SHIELD_SH*%
%TO.N,GND*%
X46820000Y-93575000D03*
D14*
X46820000Y-89375000D03*
D13*
X38180000Y-93575000D03*
D14*
X38180000Y-89375000D03*
%TD*%
D15*
%TO.P,U4,9,EPAD_9*%
%TO.N,GND*%
X41750000Y-82000000D03*
X41750000Y-83200000D03*
X41750000Y-84400000D03*
D16*
X42450000Y-83200000D03*
D15*
X43150000Y-82000000D03*
X43150000Y-83200000D03*
X43150000Y-84400000D03*
%TD*%
D17*
%TO.N,GND*%
X50000000Y-67250000D03*
X50500000Y-70250000D03*
X36750000Y-89000000D03*
X36000000Y-86000000D03*
%TO.N,unconnected-(U1-PB15-Pad28)*%
X47212500Y-87905248D03*
X41250000Y-85750000D03*
%TO.N,unconnected-(U1-PB3-Pad39)*%
X32750000Y-76750000D03*
%TO.N,unconnected-(U1-PB4-Pad40)*%
X32625000Y-75375000D03*
%TO.N,unconnected-(U1-PB5-Pad41)*%
X33137997Y-74387997D03*
%TO.N,unconnected-(U1-PB8-Pad45)*%
X34500000Y-65333924D03*
X36000000Y-66750000D03*
%TO.N,Net-(U1-BOOT0)*%
X33500000Y-56500000D03*
X35250000Y-56500000D03*
%TO.N,/3.3V*%
X45915447Y-68915447D03*
%TO.N,GND*%
X36000000Y-61250000D03*
%TO.N,unconnected-(U1-PC15-Pad4)*%
X37500000Y-57250000D03*
%TO.N,unconnected-(U1-PC14-Pad3)*%
X36250000Y-57000000D03*
%TO.N,unconnected-(U1-PC13-Pad2)*%
X36000000Y-55750000D03*
%TO.N,unconnected-(U1-PB15-Pad28)*%
X48750000Y-50500000D03*
%TO.N,unconnected-(U1-PB12-Pad25)*%
X49658566Y-52250000D03*
%TO.N,unconnected-(U1-PB13-Pad26)*%
X48000000Y-52067826D03*
%TO.N,unconnected-(U1-PB14-Pad27)*%
X48633867Y-51433960D03*
%TO.N,unconnected-(U1-PB11-Pad22)*%
X48250000Y-56750000D03*
%TO.N,unconnected-(U1-PB10-Pad21)*%
X48500000Y-57750000D03*
%TO.N,/USBDP*%
X43000000Y-91750000D03*
%TO.N,GND*%
X45249394Y-48249394D03*
X48350000Y-48851471D03*
%TO.N,/USBDN*%
X42000000Y-91750000D03*
%TO.N,/USBDP*%
X43000000Y-91750000D03*
%TO.N,unconnected-(U1-PB8-Pad45)*%
X36500000Y-50500000D03*
%TO.N,unconnected-(U1-PB9-Pad46)*%
X36500000Y-51750000D03*
%TO.N,unconnected-(U1-PB7-Pad43)*%
X36431878Y-49300000D03*
%TO.N,unconnected-(U1-PB6-Pad42)*%
X37858580Y-49327213D03*
%TO.N,unconnected-(U1-PB1-Pad19)*%
X47476544Y-58586807D03*
%TO.N,unconnected-(U1-PB0-Pad18)*%
X46750000Y-58250000D03*
%TO.N,unconnected-(U1-PB2-Pad20)*%
X48099278Y-59089003D03*
%TO.N,unconnected-(U1-PA15-Pad38)*%
X41638137Y-52013333D03*
%TO.N,unconnected-(U1-PA8-Pad29)*%
X48008949Y-49997017D03*
%TO.N,unconnected-(U1-PA9-Pad30)*%
X47235951Y-49790914D03*
%TO.N,unconnected-(U1-PA10-Pad31)*%
X46782108Y-49132108D03*
%TO.N,unconnected-(U1-PA7-Pad17)*%
X48786598Y-59689003D03*
%TO.N,unconnected-(U1-PA6-Pad16)*%
X46554433Y-59662132D03*
%TO.N,unconnected-(U1-PA5-Pad15)*%
X45758949Y-59747017D03*
%TO.N,unconnected-(U1-PA4-Pad14)*%
X45000000Y-60000000D03*
%TO.N,unconnected-(U1-PA3-Pad13)*%
X44248991Y-60450000D03*
%TO.N,unconnected-(U1-PA0-Pad10)*%
X41750000Y-56488921D03*
%TO.N,unconnected-(U1-PA1-Pad11)*%
X42549916Y-56500737D03*
%TO.N,unconnected-(U1-PA2-Pad12)*%
X43349918Y-56499895D03*
%TO.N,Net-(Q1-B)*%
X44925000Y-79075000D03*
%TO.N,/3.3V*%
X34000000Y-61000000D03*
%TO.N,/RST*%
X50050000Y-60774318D03*
X51250000Y-61000000D03*
%TO.N,GND*%
X39300000Y-88775000D03*
X45700000Y-88775000D03*
X46500000Y-85750000D03*
X47075000Y-86750000D03*
X36562922Y-82500000D03*
X38250000Y-87500000D03*
X37125001Y-85200000D03*
X39975000Y-83835000D03*
%TO.N,/USBDP*%
X43000000Y-87000000D03*
%TO.N,/USBDN*%
X42000000Y-87000000D03*
%TO.N,Net-(Q1-B)*%
X44925000Y-82565000D03*
%TD*%
%TO.N,unconnected-(U1-PB3-Pad39)*%
D18*
X32750000Y-76750000D02*
X33750000Y-77750000D01*
X33750000Y-77750000D02*
X34750000Y-77750000D01*
X34750000Y-77750000D02*
X34725000Y-77775000D01*
X34725000Y-77775000D02*
X34975000Y-77775000D01*
X34975000Y-77775000D02*
X34975000Y-79725000D01*
X34975000Y-79725000D02*
X34000000Y-79725000D01*
X34000000Y-79725000D02*
X34000000Y-80750000D01*
%TO.N,GND*%
X50500000Y-69500000D02*
X50000000Y-69000000D01*
X50500000Y-70250000D02*
X50500000Y-69500000D01*
X50000000Y-69000000D02*
X50000000Y-67250000D01*
%TO.N,unconnected-(U1-PA8-Pad29)*%
X48008949Y-49997017D02*
X48008949Y-50619034D01*
X48008949Y-50619034D02*
X44300000Y-54327983D01*
X40800000Y-80732297D02*
X40800000Y-81765686D01*
X44300000Y-54327983D02*
X44300000Y-57853405D01*
X42250000Y-59903405D02*
X42250000Y-79282296D01*
X38125001Y-84440685D02*
X38125001Y-86424999D01*
X44300000Y-57853405D02*
X42250000Y-59903405D01*
X36000000Y-90250000D02*
X35000000Y-91250000D01*
X42250000Y-79282296D02*
X40800000Y-80732297D01*
X35000000Y-91250000D02*
X34000000Y-91250000D01*
X40800000Y-81765686D02*
X38125001Y-84440685D01*
X36000000Y-88550000D02*
X36000000Y-90250000D01*
X38125001Y-86424999D02*
X36000000Y-88550000D01*
%TO.N,unconnected-(U1-PB15-Pad28)*%
X47212500Y-87905248D02*
X47212500Y-87962500D01*
X47212500Y-87962500D02*
X48250000Y-89000000D01*
X48250000Y-89000000D02*
X48250000Y-89250000D01*
X48250000Y-89250000D02*
X50250000Y-91250000D01*
X50250000Y-91250000D02*
X51000000Y-91250000D01*
%TO.N,unconnected-(U1-PB13-Pad26)*%
X43550000Y-78123530D02*
X43550000Y-77626472D01*
X43750000Y-81625785D02*
X43750000Y-78323530D01*
X43925000Y-81800785D02*
X43750000Y-81625785D01*
X45434777Y-57850000D02*
X45650000Y-57850000D01*
X43925000Y-82979214D02*
X43925000Y-81800785D01*
X45595785Y-84650000D02*
X43925000Y-82979214D01*
X47650000Y-84650000D02*
X45595785Y-84650000D01*
X49000000Y-86000000D02*
X47650000Y-84650000D01*
X49200000Y-86000000D02*
X49000000Y-86000000D01*
X49200000Y-86617848D02*
X49200000Y-86000000D01*
X43750000Y-78323530D02*
X43550000Y-78123530D01*
X49632152Y-87050000D02*
X49200000Y-86617848D01*
X50300000Y-87050000D02*
X49632152Y-87050000D01*
X51000000Y-87750000D02*
X50300000Y-87050000D01*
X43550000Y-77626472D02*
X44200000Y-76976472D01*
X44200000Y-76976472D02*
X44200000Y-72897057D01*
X48000000Y-55500000D02*
X48000000Y-52067826D01*
X44200000Y-72897057D02*
X43600000Y-72297056D01*
X43600000Y-72297056D02*
X43600000Y-61518631D01*
X43600000Y-61518631D02*
X43248991Y-61167621D01*
X43248991Y-61167621D02*
X43248991Y-60035785D01*
X45650000Y-57850000D02*
X48000000Y-55500000D01*
X43248991Y-60035785D02*
X45434777Y-57850000D01*
%TO.N,unconnected-(U1-PA10-Pad31)*%
X46782108Y-49132108D02*
X46600000Y-48950000D01*
X41300000Y-48950000D02*
X40500000Y-49750000D01*
X46600000Y-48950000D02*
X41300000Y-48950000D01*
%TO.N,unconnected-(U1-PA9-Pad30)*%
X47235951Y-49790914D02*
X46276865Y-50750000D01*
X46276865Y-50750000D02*
X44500000Y-50750000D01*
%TO.N,unconnected-(U1-PA2-Pad12)*%
X40400000Y-81500000D02*
X40400000Y-81600000D01*
X37725001Y-84274999D02*
X37725001Y-85524998D01*
X40400000Y-81600000D02*
X37725001Y-84274999D01*
X41000000Y-68967154D02*
X41000000Y-71195588D01*
X40550000Y-78499220D02*
X40549999Y-78831373D01*
X40600000Y-77500000D02*
X40600000Y-78449220D01*
X40600000Y-78449220D02*
X40550000Y-78499220D01*
X40914214Y-77500000D02*
X40600000Y-77500000D01*
X41500000Y-76914215D02*
X40914214Y-77500000D01*
X41500000Y-76085786D02*
X41500000Y-76914215D01*
X40549999Y-78831373D02*
X40400000Y-78981372D01*
X40400000Y-78981372D02*
X40400000Y-81500000D01*
X40914215Y-75500000D02*
X41500000Y-76085786D01*
X41000003Y-68304413D02*
X41000002Y-68967152D01*
X43349918Y-56499895D02*
X43349918Y-56650082D01*
X43349918Y-56650082D02*
X40750000Y-59250000D01*
X40750000Y-59250000D02*
X40750000Y-61135096D01*
X41000000Y-65114901D02*
X41000000Y-68304410D01*
X41000002Y-68967152D02*
X41000000Y-68967154D01*
X40750000Y-75500000D02*
X40914215Y-75500000D01*
X41000000Y-68304410D02*
X41000003Y-68304413D01*
X41000004Y-65114897D02*
X41000000Y-65114901D01*
X40750000Y-61135096D02*
X41000000Y-61385096D01*
X41000000Y-61385096D02*
X41000004Y-65114897D01*
X41000000Y-71195588D02*
X40750000Y-71445588D01*
X40750000Y-71445588D02*
X40750000Y-75500000D01*
X37725001Y-85524998D02*
X35499999Y-87750000D01*
X35499999Y-87750000D02*
X34000000Y-87750000D01*
%TO.N,unconnected-(U1-PB14-Pad27)*%
X49750000Y-53000000D02*
X51000000Y-54250000D01*
X49000000Y-53000000D02*
X49750000Y-53000000D01*
X49058566Y-52941434D02*
X49000000Y-53000000D01*
X49058566Y-51858659D02*
X49058566Y-52941434D01*
X48633867Y-51433960D02*
X49058566Y-51858659D01*
%TO.N,unconnected-(U1-PB12-Pad25)*%
X49658566Y-52250000D02*
X49658566Y-52091434D01*
X49658566Y-52091434D02*
X51000000Y-50750000D01*
X51000000Y-50750000D02*
X51000000Y-49750000D01*
%TO.N,unconnected-(U1-PB15-Pad28)*%
X48750000Y-50500000D02*
X48719297Y-50500000D01*
X48719297Y-50500000D02*
X46250000Y-52969297D01*
X46250000Y-52969297D02*
X46250000Y-56684314D01*
X46250000Y-56684314D02*
X45484314Y-57450000D01*
X41200000Y-85750000D02*
X41250000Y-85750000D01*
X45484314Y-57450000D02*
X45269091Y-57450000D01*
X45269091Y-57450000D02*
X42848991Y-59870099D01*
X42848991Y-79248991D02*
X41200000Y-80897982D01*
X42848991Y-59870099D02*
X42848991Y-79248991D01*
X41200000Y-80897982D02*
X41200000Y-85750000D01*
%TO.N,unconnected-(U1-PB0-Pad18)*%
X44600000Y-72731372D02*
X44000000Y-72131371D01*
X44750000Y-76865686D02*
X44600000Y-76715685D01*
X44676471Y-78475000D02*
X44749999Y-78475000D01*
X44000000Y-72131371D02*
X44000000Y-61352945D01*
X45600462Y-58250000D02*
X46750000Y-58250000D01*
X44325000Y-78826471D02*
X44676471Y-78475000D01*
X44600000Y-76715685D02*
X44600000Y-72731372D01*
X44749999Y-78475000D02*
X44750000Y-76865686D01*
X44325000Y-82316471D02*
X44500000Y-82141471D01*
X44325000Y-79323529D02*
X44325000Y-78826471D01*
X44000000Y-61352945D02*
X43648991Y-61001936D01*
X43648991Y-60201471D02*
X45600462Y-58250000D01*
X44500000Y-79498529D02*
X44325000Y-79323529D01*
X44500000Y-82141471D02*
X44500000Y-79498529D01*
X44325000Y-82813529D02*
X44325000Y-82316471D01*
X45761471Y-84250000D02*
X44325000Y-82813529D01*
X51000000Y-84250000D02*
X45761471Y-84250000D01*
X43648991Y-61001936D02*
X43648991Y-60201471D01*
%TO.N,unconnected-(U1-PA3-Pad13)*%
X44248991Y-60450000D02*
X44600000Y-60801009D01*
X44600000Y-61018629D02*
X44400000Y-61218630D01*
X45200000Y-77576470D02*
X45149999Y-77626471D01*
X44600000Y-60801009D02*
X44600000Y-61018629D01*
X44400000Y-61218630D02*
X44400000Y-71965686D01*
X44400000Y-71965686D02*
X45000000Y-72565686D01*
X45000000Y-72565686D02*
X45000000Y-76550000D01*
X45200000Y-76750000D02*
X45200000Y-77576470D01*
X45000000Y-76550000D02*
X45200000Y-76750000D01*
X45149999Y-77626471D02*
X45149999Y-78399999D01*
X45149999Y-78399999D02*
X47000000Y-80250000D01*
%TO.N,unconnected-(U1-PA15-Pad38)*%
X41812597Y-52062598D02*
X42500000Y-52750001D01*
X41638137Y-52013333D02*
X41687402Y-52062598D01*
X41687402Y-52062598D02*
X41812597Y-52062598D01*
X42500000Y-52750001D02*
X42500000Y-54250000D01*
%TO.N,unconnected-(U1-PA1-Pad11)*%
X40200000Y-75951471D02*
X40251471Y-75900000D01*
X40251471Y-75900000D02*
X40748529Y-75900000D01*
X40150000Y-75166466D02*
X40200000Y-75216467D01*
X40150000Y-74833533D02*
X40150000Y-75166466D01*
X40200000Y-74783534D02*
X40150000Y-74833533D01*
X40200000Y-71716467D02*
X40200000Y-74783534D01*
X40150000Y-71666466D02*
X40200000Y-71716467D01*
X40150000Y-71479902D02*
X40150000Y-71666466D01*
X40600000Y-68801468D02*
X40600000Y-71029902D01*
X40589561Y-68459657D02*
X40599998Y-68470094D01*
X40600000Y-68449219D02*
X40589561Y-68459657D01*
X40600000Y-65050781D02*
X40600000Y-68449219D01*
X40200000Y-75216467D02*
X40200000Y-75951471D01*
X42350000Y-56700653D02*
X42350000Y-56737450D01*
X42350000Y-56737450D02*
X41998529Y-57088921D01*
X40550000Y-65000780D02*
X40600000Y-65050781D01*
X40550000Y-64999218D02*
X40550000Y-65000780D01*
X40600000Y-68470099D02*
X40600002Y-68801466D01*
X40599998Y-68470094D02*
X40600000Y-68470099D01*
X40600000Y-71029902D02*
X40150000Y-71479902D01*
X41998529Y-57088921D02*
X41961732Y-57088921D01*
X41961732Y-57088921D02*
X40150000Y-58900653D01*
X40150000Y-58900653D02*
X40150000Y-61100780D01*
X42549916Y-56500737D02*
X42350000Y-56700653D01*
X40600002Y-68801466D02*
X40600000Y-68801468D01*
X40600000Y-64783529D02*
X40600002Y-64949215D01*
X40600000Y-61550781D02*
X40600000Y-64783529D01*
X40600002Y-64949215D02*
X40550000Y-64999218D01*
X40150000Y-61100780D02*
X40600000Y-61550781D01*
X40748529Y-75900000D02*
X41100000Y-76251471D01*
X41100000Y-76251471D02*
X41100000Y-76748529D01*
X41100000Y-76748529D02*
X40748529Y-77100000D01*
X40748529Y-77100000D02*
X40251471Y-77100000D01*
X40251471Y-77100000D02*
X40200000Y-77048529D01*
X40200000Y-77048529D02*
X40200000Y-78283534D01*
X40200000Y-78283534D02*
X40150000Y-78333534D01*
X40150000Y-78333534D02*
X40150000Y-78665686D01*
X40150000Y-78665686D02*
X40000000Y-78815685D01*
X40000000Y-78815685D02*
X40000000Y-81417848D01*
X37167848Y-84250000D02*
X34000000Y-84250000D01*
X40000000Y-81417848D02*
X37167848Y-84250000D01*
%TO.N,unconnected-(U1-PA0-Pad10)*%
X40200000Y-68635784D02*
X40150000Y-68585785D01*
X39750000Y-71314216D02*
X40200000Y-70864216D01*
X40200000Y-64783533D02*
X40200000Y-61716466D01*
X39750000Y-71832152D02*
X39750000Y-71314216D01*
X40200000Y-70864216D02*
X40200000Y-68635784D01*
X39750000Y-74667848D02*
X39800000Y-74617848D01*
X39750000Y-75332152D02*
X39750000Y-74667848D01*
X39800000Y-75382152D02*
X39750000Y-75332152D01*
X39800000Y-74617848D02*
X39800000Y-71882152D01*
X39800000Y-78117848D02*
X39800000Y-75382152D01*
X39800000Y-71882152D02*
X39750000Y-71832152D01*
X40150000Y-64833534D02*
X40200000Y-64783533D01*
X39750000Y-78500000D02*
X39750000Y-78167848D01*
X40150000Y-65166466D02*
X40150000Y-64833534D01*
X39750000Y-78167848D02*
X39800000Y-78117848D01*
X38000000Y-80250000D02*
X39750000Y-78500000D01*
X40150000Y-68585785D02*
X40150000Y-68333533D01*
X40150000Y-68333533D02*
X40200000Y-68283533D01*
X39750000Y-61266466D02*
X39750000Y-58488921D01*
X40200000Y-68283533D02*
X40200000Y-65216466D01*
X40200000Y-65216466D02*
X40150000Y-65166466D01*
X40200000Y-61716466D02*
X39750000Y-61266466D01*
X39750000Y-58488921D02*
X41750000Y-56488921D01*
%TO.N,unconnected-(U1-PB5-Pad41)*%
X36750000Y-74500000D02*
X38000000Y-73250000D01*
X33250000Y-74500000D02*
X36750000Y-74500000D01*
X33137997Y-74387997D02*
X33250000Y-74500000D01*
%TO.N,unconnected-(U1-PB6-Pad42)*%
X39300000Y-61001471D02*
X39300000Y-61382152D01*
X39300000Y-61382152D02*
X39800000Y-61882152D01*
X38948529Y-60650000D02*
X39300000Y-61001471D01*
X38500000Y-60582152D02*
X38567848Y-60650000D01*
X38500000Y-53184314D02*
X38500000Y-60582152D01*
X37534322Y-49150001D02*
X37500000Y-49184323D01*
X38567848Y-60650000D02*
X38948529Y-60650000D01*
X37681368Y-49150001D02*
X37534322Y-49150001D01*
X37858580Y-49327213D02*
X37681368Y-49150001D01*
X37500000Y-52184314D02*
X38500000Y-53184314D01*
X37500000Y-49184323D02*
X37500000Y-52184314D01*
X39800000Y-64617848D02*
X39750000Y-64667848D01*
X39800000Y-61882152D02*
X39800000Y-64617848D01*
X39750000Y-64667848D02*
X39750000Y-65332152D01*
X39750000Y-65332152D02*
X39800000Y-65382152D01*
X39800000Y-65382152D02*
X39800000Y-68117848D01*
X39800000Y-68117848D02*
X39750000Y-68167848D01*
X39750000Y-68167848D02*
X39750000Y-68751470D01*
X39750000Y-68751470D02*
X39800000Y-68801470D01*
X39800000Y-68801470D02*
X39800000Y-70698530D01*
X39800000Y-70698530D02*
X39448530Y-71050000D01*
X39448530Y-71050000D02*
X35700000Y-71050000D01*
X35700000Y-71050000D02*
X34500000Y-72250000D01*
%TO.N,unconnected-(U1-PB8-Pad45)*%
X32916076Y-65333924D02*
X31850000Y-64267848D01*
X31850000Y-64267848D02*
X31850000Y-53232152D01*
X31850000Y-53232152D02*
X32632152Y-52450000D01*
X32632152Y-52450000D02*
X34550000Y-52450000D01*
X34550000Y-52450000D02*
X36500000Y-50500000D01*
X34500000Y-65333924D02*
X32916076Y-65333924D01*
%TO.N,unconnected-(U1-PB4-Pad40)*%
X32625000Y-75375000D02*
X34000000Y-76750000D01*
X34000000Y-76750000D02*
X38000000Y-76750000D01*
%TO.N,unconnected-(U1-PB7-Pad43)*%
X36431878Y-49300000D02*
X35949999Y-49300000D01*
X35949999Y-49300000D02*
X35499999Y-49750000D01*
X35499999Y-49750000D02*
X34000000Y-49750000D01*
%TO.N,unconnected-(U1-PB8-Pad45)*%
X36000000Y-66750000D02*
X38000000Y-66750000D01*
%TO.N,Net-(U1-BOOT0)*%
X35250000Y-56500000D02*
X33500000Y-56500000D01*
%TO.N,unconnected-(U1-PC15-Pad4)*%
X37500000Y-57250000D02*
X35800000Y-58950000D01*
X35800000Y-58950000D02*
X35800000Y-60117848D01*
X35800000Y-60117848D02*
X35367848Y-60550000D01*
X35367848Y-60550000D02*
X35200000Y-60550000D01*
X35200000Y-60550000D02*
X34600000Y-61150000D01*
X34600000Y-61150000D02*
X34600000Y-61248529D01*
X34600000Y-61248529D02*
X34248529Y-61600000D01*
X34248529Y-61600000D02*
X34150000Y-61600000D01*
X34150000Y-61600000D02*
X34000000Y-61750000D01*
X34000000Y-61750000D02*
X34000000Y-63250000D01*
%TO.N,unconnected-(U1-PB11-Pad22)*%
X52800000Y-61882152D02*
X52500000Y-61582152D01*
X52650000Y-70666467D02*
X52650000Y-68334314D01*
X52800000Y-60117848D02*
X52800000Y-57382152D01*
X52700000Y-70716466D02*
X52650000Y-70666467D01*
X52700000Y-73783533D02*
X52700000Y-70716466D01*
X52650000Y-73833533D02*
X52700000Y-73783533D01*
X52650000Y-75302951D02*
X52650000Y-73833533D01*
X52800000Y-64617848D02*
X52800000Y-61882152D01*
X52500000Y-64917848D02*
X52800000Y-64617848D01*
X52500000Y-75452951D02*
X52650000Y-75302951D01*
X52500000Y-79250000D02*
X52500000Y-75452951D01*
X52650000Y-68334314D02*
X52500000Y-68184315D01*
X52500000Y-68184315D02*
X52500000Y-64917848D01*
X51000000Y-80750000D02*
X52500000Y-79250000D01*
X52500000Y-61582152D02*
X52500000Y-60417848D01*
X52500000Y-60417848D02*
X52800000Y-60117848D01*
X52800000Y-57382152D02*
X52167848Y-56750000D01*
X52167848Y-56750000D02*
X48250000Y-56750000D01*
%TO.N,unconnected-(U1-PB2-Pad20)*%
X47000000Y-76250000D02*
X51137266Y-76250000D01*
X52250000Y-75137266D02*
X52250000Y-73667848D01*
X51137266Y-76250000D02*
X52250000Y-75137266D01*
X49200000Y-61425000D02*
X48099278Y-60324278D01*
X52250000Y-73667848D02*
X52300000Y-73617848D01*
X49200000Y-65450000D02*
X49200000Y-61425000D01*
X52300000Y-73617848D02*
X52300000Y-70882152D01*
X52300000Y-70882152D02*
X52250000Y-70832152D01*
X52250000Y-70832152D02*
X52250000Y-68500000D01*
X52250000Y-68500000D02*
X49200000Y-65450000D01*
X48099278Y-60324278D02*
X48099278Y-59089003D01*
%TO.N,unconnected-(U1-PB10-Pad21)*%
X48500000Y-57750000D02*
X50000000Y-57750000D01*
X50000000Y-57750000D02*
X51000000Y-58750000D01*
%TO.N,unconnected-(U1-PA7-Pad17)*%
X48786598Y-59689003D02*
X48786598Y-60359445D01*
X48786598Y-60359445D02*
X49827153Y-61400000D01*
X49827153Y-61400000D02*
X49900000Y-61400000D01*
X49900000Y-61400000D02*
X51000000Y-62500000D01*
X51000000Y-62500000D02*
X51000000Y-63250000D01*
%TO.N,/RST*%
X50275682Y-61000000D02*
X51250000Y-61000000D01*
X50050000Y-60774318D02*
X50275682Y-61000000D01*
%TO.N,unconnected-(U1-PA6-Pad16)*%
X46554433Y-59662132D02*
X46554433Y-62804433D01*
X46554433Y-62804433D02*
X47000000Y-63250000D01*
%TO.N,unconnected-(U1-PB1-Pad19)*%
X47476544Y-58586807D02*
X47375000Y-58688351D01*
X47750000Y-61450000D02*
X48367848Y-61450000D01*
X47375000Y-58688351D02*
X47375000Y-61075000D01*
X47375000Y-61075000D02*
X47750000Y-61450000D01*
X48367848Y-61450000D02*
X48800000Y-61882152D01*
X48800000Y-61882152D02*
X48800000Y-65950000D01*
X48800000Y-65950000D02*
X47000000Y-67750000D01*
%TO.N,unconnected-(U1-PB9-Pad46)*%
X38000000Y-63250000D02*
X38100000Y-63150000D01*
X38100000Y-63150000D02*
X38100000Y-53350000D01*
X38100000Y-53350000D02*
X36500000Y-51750000D01*
%TO.N,unconnected-(U1-PC13-Pad2)*%
X36000000Y-55750000D02*
X35500000Y-55750000D01*
X35500000Y-55750000D02*
X34000000Y-54250000D01*
%TO.N,unconnected-(U1-PC14-Pad3)*%
X36250000Y-57000000D02*
X34500000Y-58750000D01*
X34500000Y-58750000D02*
X34000000Y-58750000D01*
%TO.N,/USBDP*%
X43000000Y-87000000D02*
X43000000Y-91750000D01*
%TO.N,/USBDN*%
X42000000Y-87000000D02*
X42000000Y-91750000D01*
%TO.N,Net-(Q1-B)*%
X44925000Y-82565000D02*
X44925000Y-79075000D01*
%TO.N,GND*%
X36000000Y-61250000D02*
X36000000Y-65500000D01*
%TO.N,unconnected-(U1-PA4-Pad14)*%
X45000000Y-60000000D02*
X45000000Y-61184314D01*
X45000000Y-61184314D02*
X44800000Y-61384315D01*
X44800000Y-61384315D02*
X44800000Y-71800000D01*
X44800000Y-71800000D02*
X45250000Y-72250000D01*
X45250000Y-72250000D02*
X47000000Y-72250000D01*
%TO.N,unconnected-(U1-PA5-Pad15)*%
X45758949Y-59747017D02*
X45758949Y-60241051D01*
X45758949Y-60241051D02*
X45750000Y-60250000D01*
X45200000Y-61550000D02*
X45200000Y-71250000D01*
X45750000Y-60250000D02*
X45750000Y-61000000D01*
X45750000Y-61000000D02*
X45200000Y-61550000D01*
X45200000Y-71250000D02*
X50000000Y-71250000D01*
X50000000Y-71250000D02*
X51000000Y-72250000D01*
%TD*%
%TA.AperFunction,Conductor*%
%TO.N,GND*%
G36*
X53692539Y-47770185D02*
G01*
X53738294Y-47822989D01*
X53749500Y-47874500D01*
X53749500Y-94375500D01*
X53729815Y-94442539D01*
X53677011Y-94488294D01*
X53625500Y-94499500D01*
X47870717Y-94499500D01*
X47803678Y-94479815D01*
X47757923Y-94427011D01*
X47747979Y-94357853D01*
X47756156Y-94328048D01*
X47781569Y-94266693D01*
X47781572Y-94266681D01*
X47819999Y-94073495D01*
X47820000Y-94073492D01*
X47820000Y-93825000D01*
X47120000Y-93825000D01*
X47120000Y-93325000D01*
X47820000Y-93325000D01*
X47820000Y-93076508D01*
X47819999Y-93076504D01*
X47781572Y-92883318D01*
X47781569Y-92883306D01*
X47706192Y-92701328D01*
X47706185Y-92701315D01*
X47596751Y-92537537D01*
X47596748Y-92537533D01*
X47457466Y-92398251D01*
X47457462Y-92398248D01*
X47293684Y-92288814D01*
X47293671Y-92288807D01*
X47111691Y-92213429D01*
X47111683Y-92213427D01*
X47070000Y-92205135D01*
X47070000Y-93008011D01*
X47060060Y-92990795D01*
X47004205Y-92934940D01*
X46935796Y-92895444D01*
X46859496Y-92875000D01*
X46780504Y-92875000D01*
X46704204Y-92895444D01*
X46635795Y-92934940D01*
X46579940Y-92990795D01*
X46570000Y-93008011D01*
X46570000Y-92205136D01*
X46569999Y-92205135D01*
X46528316Y-92213427D01*
X46528308Y-92213429D01*
X46346328Y-92288807D01*
X46346315Y-92288814D01*
X46182537Y-92398248D01*
X46182533Y-92398251D01*
X46043251Y-92537533D01*
X46043248Y-92537537D01*
X45933814Y-92701315D01*
X45933807Y-92701328D01*
X45858430Y-92883306D01*
X45858427Y-92883318D01*
X45820000Y-93076504D01*
X45820000Y-93325000D01*
X46520000Y-93325000D01*
X46520000Y-93825000D01*
X45820000Y-93825000D01*
X45820000Y-94073495D01*
X45858427Y-94266681D01*
X45858430Y-94266693D01*
X45883844Y-94328048D01*
X45891313Y-94397517D01*
X45860037Y-94459996D01*
X45799948Y-94495648D01*
X45769283Y-94499500D01*
X39230717Y-94499500D01*
X39163678Y-94479815D01*
X39117923Y-94427011D01*
X39107979Y-94357853D01*
X39116156Y-94328048D01*
X39141569Y-94266693D01*
X39141572Y-94266681D01*
X39179999Y-94073495D01*
X39180000Y-94073492D01*
X39180000Y-93825000D01*
X38480000Y-93825000D01*
X38480000Y-93325000D01*
X39180000Y-93325000D01*
X39180000Y-93076508D01*
X39179999Y-93076504D01*
X39141572Y-92883318D01*
X39141569Y-92883306D01*
X39066192Y-92701328D01*
X39066185Y-92701315D01*
X38956751Y-92537537D01*
X38956748Y-92537533D01*
X38817466Y-92398251D01*
X38817462Y-92398248D01*
X38653684Y-92288814D01*
X38653671Y-92288807D01*
X38471691Y-92213429D01*
X38471683Y-92213427D01*
X38430000Y-92205135D01*
X38430000Y-93008011D01*
X38420060Y-92990795D01*
X38364205Y-92934940D01*
X38295796Y-92895444D01*
X38219496Y-92875000D01*
X38140504Y-92875000D01*
X38064204Y-92895444D01*
X37995795Y-92934940D01*
X37939940Y-92990795D01*
X37930000Y-93008011D01*
X37930000Y-92205136D01*
X37929999Y-92205135D01*
X37888316Y-92213427D01*
X37888308Y-92213429D01*
X37706328Y-92288807D01*
X37706315Y-92288814D01*
X37542537Y-92398248D01*
X37542533Y-92398251D01*
X37403251Y-92537533D01*
X37403248Y-92537537D01*
X37293814Y-92701315D01*
X37293807Y-92701328D01*
X37218430Y-92883306D01*
X37218427Y-92883318D01*
X37180000Y-93076504D01*
X37180000Y-93325000D01*
X37880000Y-93325000D01*
X37880000Y-93825000D01*
X37180000Y-93825000D01*
X37180000Y-94073495D01*
X37218427Y-94266681D01*
X37218430Y-94266693D01*
X37243844Y-94328048D01*
X37251313Y-94397517D01*
X37220037Y-94459996D01*
X37159948Y-94495648D01*
X37129283Y-94499500D01*
X31624500Y-94499500D01*
X31557461Y-94479815D01*
X31511706Y-94427011D01*
X31500500Y-94375500D01*
X31500500Y-68668995D01*
X33405394Y-68668995D01*
X33432313Y-68804322D01*
X33432316Y-68804332D01*
X33485116Y-68931804D01*
X33485123Y-68931817D01*
X33561780Y-69046541D01*
X33561783Y-69046545D01*
X33659349Y-69144111D01*
X33659353Y-69144114D01*
X33774077Y-69220771D01*
X33774090Y-69220778D01*
X33901562Y-69273578D01*
X33901567Y-69273580D01*
X33901571Y-69273580D01*
X33901572Y-69273581D01*
X34036899Y-69300500D01*
X34036902Y-69300500D01*
X34174890Y-69300500D01*
X34265936Y-69282389D01*
X34310223Y-69273580D01*
X34437706Y-69220775D01*
X34552437Y-69144114D01*
X34650009Y-69046542D01*
X34726670Y-68931811D01*
X34779475Y-68804328D01*
X34792188Y-68740417D01*
X34806395Y-68668995D01*
X34806395Y-68531004D01*
X34779476Y-68395677D01*
X34779475Y-68395676D01*
X34779475Y-68395672D01*
X34750513Y-68325751D01*
X34726673Y-68268195D01*
X34726666Y-68268182D01*
X34650009Y-68153458D01*
X34650006Y-68153454D01*
X34552440Y-68055888D01*
X34552436Y-68055885D01*
X34437712Y-67979228D01*
X34437699Y-67979221D01*
X34310227Y-67926421D01*
X34310217Y-67926418D01*
X34174890Y-67899500D01*
X34174888Y-67899500D01*
X34036902Y-67899500D01*
X34036900Y-67899500D01*
X33901572Y-67926418D01*
X33901562Y-67926421D01*
X33774090Y-67979221D01*
X33774077Y-67979228D01*
X33659353Y-68055885D01*
X33659349Y-68055888D01*
X33561783Y-68153454D01*
X33561780Y-68153458D01*
X33485123Y-68268182D01*
X33485116Y-68268195D01*
X33432316Y-68395667D01*
X33432313Y-68395677D01*
X33405395Y-68531004D01*
X33405395Y-68531007D01*
X33405395Y-68668993D01*
X33405395Y-68668995D01*
X33405394Y-68668995D01*
X31500500Y-68668995D01*
X31500500Y-65066945D01*
X31520185Y-64999906D01*
X31572989Y-64954151D01*
X31642147Y-64944207D01*
X31705703Y-64973232D01*
X31712181Y-64979264D01*
X32431215Y-65698298D01*
X32431225Y-65698309D01*
X32435555Y-65702639D01*
X32435556Y-65702640D01*
X32547360Y-65814444D01*
X32630894Y-65862672D01*
X32684291Y-65893501D01*
X32837019Y-65934424D01*
X33920234Y-65934424D01*
X33987273Y-65954109D01*
X33989125Y-65955322D01*
X34120814Y-66043314D01*
X34120827Y-66043321D01*
X34266498Y-66103659D01*
X34266503Y-66103661D01*
X34421153Y-66134423D01*
X34421156Y-66134424D01*
X34421158Y-66134424D01*
X34578844Y-66134424D01*
X34578845Y-66134423D01*
X34733497Y-66103661D01*
X34879179Y-66043318D01*
X35010289Y-65955713D01*
X35121789Y-65844213D01*
X35209394Y-65713103D01*
X35269737Y-65567421D01*
X35300500Y-65412766D01*
X35300500Y-65310463D01*
X35320185Y-65243424D01*
X35372989Y-65197669D01*
X35390382Y-65191249D01*
X35404406Y-65187237D01*
X35575751Y-65097734D01*
X35725571Y-64975571D01*
X35847734Y-64825751D01*
X35890091Y-64744661D01*
X35892965Y-64741679D01*
X35894032Y-64737678D01*
X35917003Y-64716738D01*
X35938577Y-64694355D01*
X35942607Y-64693400D01*
X35945668Y-64690610D01*
X35976318Y-64685413D01*
X36006565Y-64678247D01*
X36010471Y-64679622D01*
X36014555Y-64678930D01*
X36043145Y-64691127D01*
X36072468Y-64701453D01*
X36076100Y-64705187D01*
X36078820Y-64706348D01*
X36086830Y-64716220D01*
X36102597Y-64732431D01*
X36106601Y-64738329D01*
X36152266Y-64825751D01*
X36233895Y-64925860D01*
X36236948Y-64930358D01*
X36246034Y-64958652D01*
X36257562Y-64986035D01*
X36256599Y-64991550D01*
X36258312Y-64996882D01*
X36250660Y-65025593D01*
X36245553Y-65054865D01*
X36240949Y-65062027D01*
X36240319Y-65064395D01*
X36238168Y-65066354D01*
X36230453Y-65078361D01*
X36152265Y-65174250D01*
X36062762Y-65345594D01*
X36009582Y-65531451D01*
X35999500Y-65644863D01*
X35999500Y-65832152D01*
X35979815Y-65899191D01*
X35927011Y-65944946D01*
X35899692Y-65953769D01*
X35766508Y-65980261D01*
X35766498Y-65980264D01*
X35620827Y-66040602D01*
X35620814Y-66040609D01*
X35489711Y-66128210D01*
X35489707Y-66128213D01*
X35378213Y-66239707D01*
X35378210Y-66239711D01*
X35290609Y-66370814D01*
X35290602Y-66370827D01*
X35230264Y-66516498D01*
X35230261Y-66516510D01*
X35199500Y-66671153D01*
X35199500Y-66828846D01*
X35230261Y-66983489D01*
X35230264Y-66983501D01*
X35290602Y-67129172D01*
X35290609Y-67129185D01*
X35378210Y-67260288D01*
X35378213Y-67260292D01*
X35489707Y-67371786D01*
X35489711Y-67371789D01*
X35620814Y-67459390D01*
X35620827Y-67459397D01*
X35766498Y-67519735D01*
X35766503Y-67519737D01*
X35876987Y-67541713D01*
X35899691Y-67546230D01*
X35961602Y-67578615D01*
X35996176Y-67639330D01*
X35999500Y-67667847D01*
X35999500Y-67855136D01*
X36009582Y-67968548D01*
X36009582Y-67968551D01*
X36009583Y-67968552D01*
X36012637Y-67979225D01*
X36062490Y-68153454D01*
X36062763Y-68154406D01*
X36152266Y-68325751D01*
X36152268Y-68325753D01*
X36189541Y-68371465D01*
X36216650Y-68435861D01*
X36204641Y-68504691D01*
X36181123Y-68537504D01*
X36170580Y-68548046D01*
X36170579Y-68548048D01*
X36074663Y-68700698D01*
X36015122Y-68870858D01*
X36000000Y-69005069D01*
X36000000Y-69500000D01*
X37876000Y-69500000D01*
X37943039Y-69519685D01*
X37988794Y-69572489D01*
X38000000Y-69624000D01*
X38000000Y-69876000D01*
X37980315Y-69943039D01*
X37927511Y-69988794D01*
X37876000Y-70000000D01*
X36000000Y-70000000D01*
X36000000Y-70175658D01*
X35980315Y-70242697D01*
X35927511Y-70288452D01*
X35858353Y-70298396D01*
X35841888Y-70294874D01*
X35772139Y-70274916D01*
X35718552Y-70259583D01*
X35718551Y-70259582D01*
X35718548Y-70259582D01*
X35629662Y-70251680D01*
X35605138Y-70249500D01*
X33394862Y-70249500D01*
X33382599Y-70250590D01*
X33281451Y-70259582D01*
X33095594Y-70312762D01*
X32924250Y-70402265D01*
X32774428Y-70524428D01*
X32652265Y-70674250D01*
X32562762Y-70845594D01*
X32509582Y-71031451D01*
X32499500Y-71144863D01*
X32499500Y-73355136D01*
X32509582Y-73468548D01*
X32562763Y-73654406D01*
X32581251Y-73689801D01*
X32594841Y-73758337D01*
X32569221Y-73823340D01*
X32559024Y-73834890D01*
X32516209Y-73877705D01*
X32516205Y-73877711D01*
X32428606Y-74008811D01*
X32428600Y-74008823D01*
X32368261Y-74154495D01*
X32368258Y-74154507D01*
X32337497Y-74309150D01*
X32337497Y-74466837D01*
X32347193Y-74515585D01*
X32340964Y-74585176D01*
X32298101Y-74640353D01*
X32273029Y-74654336D01*
X32245820Y-74665606D01*
X32245814Y-74665609D01*
X32114711Y-74753210D01*
X32114707Y-74753213D01*
X32003213Y-74864707D01*
X32003210Y-74864711D01*
X31915609Y-74995814D01*
X31915602Y-74995827D01*
X31855264Y-75141498D01*
X31855261Y-75141510D01*
X31824500Y-75296153D01*
X31824500Y-75453846D01*
X31855261Y-75608489D01*
X31855264Y-75608501D01*
X31915602Y-75754172D01*
X31915609Y-75754185D01*
X32003210Y-75885288D01*
X32003213Y-75885292D01*
X32114707Y-75996786D01*
X32114712Y-75996790D01*
X32142792Y-76015552D01*
X32187598Y-76069163D01*
X32196307Y-76138488D01*
X32166153Y-76201516D01*
X32161585Y-76206335D01*
X32128214Y-76239706D01*
X32128210Y-76239711D01*
X32040609Y-76370814D01*
X32040602Y-76370827D01*
X31980264Y-76516498D01*
X31980261Y-76516510D01*
X31949500Y-76671153D01*
X31949500Y-76828846D01*
X31980261Y-76983489D01*
X31980264Y-76983501D01*
X32040602Y-77129172D01*
X32040609Y-77129185D01*
X32128210Y-77260288D01*
X32128213Y-77260292D01*
X32239707Y-77371786D01*
X32239711Y-77371789D01*
X32370814Y-77459390D01*
X32370827Y-77459397D01*
X32516498Y-77519735D01*
X32516503Y-77519737D01*
X32516507Y-77519737D01*
X32516508Y-77519738D01*
X32671849Y-77550638D01*
X32688605Y-77559403D01*
X32707083Y-77563423D01*
X32732126Y-77582168D01*
X32733759Y-77583023D01*
X32735335Y-77584570D01*
X32853015Y-77702250D01*
X32886499Y-77763571D01*
X32881515Y-77833263D01*
X32831403Y-77967620D01*
X32831401Y-77967627D01*
X32825000Y-78027155D01*
X32825000Y-78500000D01*
X33684314Y-78500000D01*
X33679920Y-78504394D01*
X33627259Y-78595606D01*
X33600000Y-78697339D01*
X33600000Y-78802661D01*
X33627259Y-78904394D01*
X33679920Y-78995606D01*
X33684314Y-79000000D01*
X32825000Y-79000000D01*
X32825000Y-79472844D01*
X32831401Y-79532372D01*
X32831403Y-79532379D01*
X32856289Y-79599102D01*
X32861273Y-79668794D01*
X32827788Y-79730117D01*
X32774219Y-79761651D01*
X32595594Y-79812762D01*
X32424250Y-79902265D01*
X32274428Y-80024428D01*
X32152265Y-80174250D01*
X32062762Y-80345594D01*
X32009582Y-80531451D01*
X31999500Y-80644863D01*
X31999500Y-82855136D01*
X32009582Y-82968548D01*
X32062762Y-83154405D01*
X32096969Y-83219891D01*
X32152266Y-83325751D01*
X32170351Y-83347930D01*
X32230453Y-83421639D01*
X32257562Y-83486035D01*
X32245553Y-83554865D01*
X32230453Y-83578361D01*
X32152265Y-83674250D01*
X32062762Y-83845594D01*
X32009582Y-84031451D01*
X31999500Y-84144863D01*
X31999500Y-86355136D01*
X32009582Y-86468548D01*
X32062762Y-86654405D01*
X32092428Y-86711197D01*
X32152266Y-86825751D01*
X32217309Y-86905519D01*
X32230453Y-86921639D01*
X32257562Y-86986035D01*
X32245553Y-87054865D01*
X32230453Y-87078360D01*
X32214139Y-87098368D01*
X32152265Y-87174250D01*
X32062762Y-87345594D01*
X32009582Y-87531451D01*
X31999500Y-87644863D01*
X31999500Y-89855136D01*
X32009582Y-89968548D01*
X32062762Y-90154405D01*
X32095299Y-90216693D01*
X32152266Y-90325751D01*
X32230453Y-90421639D01*
X32257562Y-90486035D01*
X32245553Y-90554865D01*
X32230453Y-90578361D01*
X32152265Y-90674250D01*
X32062762Y-90845594D01*
X32009582Y-91031451D01*
X31999500Y-91144863D01*
X31999500Y-93355136D01*
X32009582Y-93468548D01*
X32062762Y-93654405D01*
X32062763Y-93654406D01*
X32152266Y-93825751D01*
X32199518Y-93883700D01*
X32274428Y-93975571D01*
X32322166Y-94014496D01*
X32424249Y-94097734D01*
X32595594Y-94187237D01*
X32781448Y-94240417D01*
X32894862Y-94250500D01*
X32894870Y-94250500D01*
X35105130Y-94250500D01*
X35105138Y-94250500D01*
X35218552Y-94240417D01*
X35404406Y-94187237D01*
X35575751Y-94097734D01*
X35725571Y-93975571D01*
X35847734Y-93825751D01*
X35937237Y-93654406D01*
X35990417Y-93468552D01*
X36000500Y-93355138D01*
X36000500Y-91150096D01*
X36020185Y-91083057D01*
X36036819Y-91062415D01*
X36067786Y-91031448D01*
X36480520Y-90618716D01*
X36559577Y-90481784D01*
X36600501Y-90329057D01*
X36600501Y-90170942D01*
X36600501Y-90163347D01*
X36600500Y-90163329D01*
X36600500Y-88850096D01*
X36620185Y-88783057D01*
X36636814Y-88762420D01*
X37026886Y-88372348D01*
X37088208Y-88338864D01*
X37157900Y-88343848D01*
X37213833Y-88385720D01*
X37238250Y-88451184D01*
X37229128Y-88507481D01*
X37218429Y-88533311D01*
X37218427Y-88533318D01*
X37180000Y-88726504D01*
X37180000Y-89125000D01*
X37880000Y-89125000D01*
X37880000Y-89625000D01*
X37180000Y-89625000D01*
X37180000Y-90023495D01*
X37218427Y-90216681D01*
X37218430Y-90216693D01*
X37293807Y-90398671D01*
X37293814Y-90398684D01*
X37403248Y-90562462D01*
X37403251Y-90562466D01*
X37542533Y-90701748D01*
X37542537Y-90701751D01*
X37706315Y-90811185D01*
X37706328Y-90811192D01*
X37888308Y-90886569D01*
X37930000Y-90894862D01*
X37930000Y-90091988D01*
X37939940Y-90109205D01*
X37995795Y-90165060D01*
X38064204Y-90204556D01*
X38140504Y-90225000D01*
X38219496Y-90225000D01*
X38295796Y-90204556D01*
X38364205Y-90165060D01*
X38420060Y-90109205D01*
X38430000Y-90091988D01*
X38430000Y-90894862D01*
X38471690Y-90886569D01*
X38471692Y-90886569D01*
X38653671Y-90811192D01*
X38653684Y-90811185D01*
X38817462Y-90701751D01*
X38817466Y-90701748D01*
X38956748Y-90562466D01*
X38956751Y-90562462D01*
X39066181Y-90398690D01*
X39069037Y-90393346D01*
X39117993Y-90343495D01*
X39186128Y-90328025D01*
X39251811Y-90351847D01*
X39253895Y-90353412D01*
X39256632Y-90355512D01*
X39256635Y-90355515D01*
X39387865Y-90431281D01*
X39534234Y-90470500D01*
X39534236Y-90470500D01*
X39685764Y-90470500D01*
X39685766Y-90470500D01*
X39832135Y-90431281D01*
X39963365Y-90355515D01*
X40070515Y-90248365D01*
X40146281Y-90117135D01*
X40185500Y-89970766D01*
X40185500Y-89819234D01*
X40146281Y-89672865D01*
X40070515Y-89541635D01*
X39963365Y-89434485D01*
X39894430Y-89394685D01*
X39832136Y-89358719D01*
X39758950Y-89339109D01*
X39685766Y-89319500D01*
X39534234Y-89319500D01*
X39387863Y-89358719D01*
X39256635Y-89434485D01*
X39256632Y-89434487D01*
X39149487Y-89541632D01*
X39149483Y-89541638D01*
X39137150Y-89563000D01*
X39086583Y-89611216D01*
X39029763Y-89625000D01*
X38480000Y-89625000D01*
X38480000Y-89125000D01*
X39180000Y-89125000D01*
X39180000Y-88726508D01*
X39179999Y-88726504D01*
X39141572Y-88533318D01*
X39141569Y-88533306D01*
X39066192Y-88351328D01*
X39066185Y-88351315D01*
X38956751Y-88187537D01*
X38956748Y-88187533D01*
X38817466Y-88048251D01*
X38817462Y-88048248D01*
X38653684Y-87938814D01*
X38653671Y-87938807D01*
X38471691Y-87863429D01*
X38471683Y-87863427D01*
X38430000Y-87855135D01*
X38430000Y-88658011D01*
X38420060Y-88640795D01*
X38364205Y-88584940D01*
X38295796Y-88545444D01*
X38219496Y-88525000D01*
X38140504Y-88525000D01*
X38064204Y-88545444D01*
X37995795Y-88584940D01*
X37939940Y-88640795D01*
X37930000Y-88658011D01*
X37930000Y-87902800D01*
X37796096Y-87882112D01*
X37794625Y-87881421D01*
X37793012Y-87881595D01*
X37763130Y-87866637D01*
X37732848Y-87852422D01*
X37731984Y-87851046D01*
X37730533Y-87850320D01*
X37713477Y-87821573D01*
X37695693Y-87793251D01*
X37695710Y-87791627D01*
X37694881Y-87790230D01*
X37696075Y-87756803D01*
X37696426Y-87723385D01*
X37697317Y-87722028D01*
X37697376Y-87720405D01*
X37727349Y-87671885D01*
X38063985Y-87335249D01*
X38483507Y-86915726D01*
X38483512Y-86915723D01*
X38493715Y-86905519D01*
X38493717Y-86905519D01*
X38605521Y-86793715D01*
X38664319Y-86691873D01*
X38684578Y-86656784D01*
X38725501Y-86504057D01*
X38725501Y-86345942D01*
X38725501Y-84740782D01*
X38745186Y-84673743D01*
X38761820Y-84653101D01*
X40387819Y-83027102D01*
X40449142Y-82993617D01*
X40518834Y-82998601D01*
X40574767Y-83040473D01*
X40599184Y-83105937D01*
X40599500Y-83114783D01*
X40599500Y-85245064D01*
X40579815Y-85312103D01*
X40578603Y-85313954D01*
X40540608Y-85370817D01*
X40540602Y-85370828D01*
X40480264Y-85516498D01*
X40480261Y-85516510D01*
X40449500Y-85671153D01*
X40449500Y-85828846D01*
X40480261Y-85983489D01*
X40480264Y-85983501D01*
X40540602Y-86129172D01*
X40540609Y-86129185D01*
X40628210Y-86260288D01*
X40628213Y-86260292D01*
X40739707Y-86371786D01*
X40739711Y-86371789D01*
X40870814Y-86459390D01*
X40870827Y-86459397D01*
X41016498Y-86519735D01*
X41016503Y-86519737D01*
X41112273Y-86538787D01*
X41160233Y-86548327D01*
X41222144Y-86580712D01*
X41256718Y-86641427D01*
X41252979Y-86711197D01*
X41250603Y-86717396D01*
X41230264Y-86766498D01*
X41230261Y-86766510D01*
X41199500Y-86921153D01*
X41199500Y-87078846D01*
X41230261Y-87233489D01*
X41230264Y-87233501D01*
X41290602Y-87379172D01*
X41290609Y-87379185D01*
X41378602Y-87510874D01*
X41399480Y-87577551D01*
X41399500Y-87579765D01*
X41399500Y-91170234D01*
X41379815Y-91237273D01*
X41378602Y-91239125D01*
X41290609Y-91370814D01*
X41290602Y-91370827D01*
X41230264Y-91516498D01*
X41230261Y-91516510D01*
X41199500Y-91671153D01*
X41199500Y-91828846D01*
X41230261Y-91983489D01*
X41230264Y-91983501D01*
X41290602Y-92129172D01*
X41290609Y-92129185D01*
X41378210Y-92260288D01*
X41378213Y-92260292D01*
X41489707Y-92371786D01*
X41489711Y-92371789D01*
X41620814Y-92459390D01*
X41620827Y-92459397D01*
X41766498Y-92519735D01*
X41766503Y-92519737D01*
X41921153Y-92550499D01*
X41921156Y-92550500D01*
X41921158Y-92550500D01*
X42078844Y-92550500D01*
X42078845Y-92550499D01*
X42233497Y-92519737D01*
X42379179Y-92459394D01*
X42431110Y-92424694D01*
X42497785Y-92403816D01*
X42565165Y-92422300D01*
X42568863Y-92424676D01*
X42620821Y-92459394D01*
X42620823Y-92459395D01*
X42620825Y-92459396D01*
X42766498Y-92519735D01*
X42766503Y-92519737D01*
X42921153Y-92550499D01*
X42921156Y-92550500D01*
X42921158Y-92550500D01*
X43078844Y-92550500D01*
X43078845Y-92550499D01*
X43233497Y-92519737D01*
X43379179Y-92459394D01*
X43510289Y-92371789D01*
X43621789Y-92260289D01*
X43709394Y-92129179D01*
X43769737Y-91983497D01*
X43800500Y-91828842D01*
X43800500Y-91671158D01*
X43800500Y-91671155D01*
X43800499Y-91671153D01*
X43769738Y-91516510D01*
X43769737Y-91516503D01*
X43769735Y-91516498D01*
X43709397Y-91370827D01*
X43709390Y-91370814D01*
X43621398Y-91239125D01*
X43600520Y-91172447D01*
X43600500Y-91170234D01*
X43600500Y-87579765D01*
X43620185Y-87512726D01*
X43621398Y-87510874D01*
X43709390Y-87379185D01*
X43709390Y-87379184D01*
X43709394Y-87379179D01*
X43769737Y-87233497D01*
X43800500Y-87078842D01*
X43800500Y-86921158D01*
X43800500Y-86921155D01*
X43800499Y-86921153D01*
X43775150Y-86793715D01*
X43769737Y-86766503D01*
X43769735Y-86766498D01*
X43709397Y-86620827D01*
X43709390Y-86620814D01*
X43621789Y-86489711D01*
X43621786Y-86489707D01*
X43510292Y-86378213D01*
X43510288Y-86378210D01*
X43379185Y-86290609D01*
X43379172Y-86290602D01*
X43233501Y-86230264D01*
X43233489Y-86230261D01*
X43078845Y-86199500D01*
X43078842Y-86199500D01*
X42921158Y-86199500D01*
X42921155Y-86199500D01*
X42766510Y-86230261D01*
X42766498Y-86230264D01*
X42620827Y-86290602D01*
X42620814Y-86290609D01*
X42568891Y-86325304D01*
X42502214Y-86346182D01*
X42434833Y-86327698D01*
X42431109Y-86325304D01*
X42379185Y-86290609D01*
X42379172Y-86290602D01*
X42233501Y-86230264D01*
X42233491Y-86230261D01*
X42089765Y-86201672D01*
X42027854Y-86169287D01*
X41993280Y-86108571D01*
X41997020Y-86038802D01*
X41999389Y-86032620D01*
X42019737Y-85983497D01*
X42050500Y-85828842D01*
X42050500Y-85671158D01*
X42050500Y-85671155D01*
X42050499Y-85671153D01*
X42019738Y-85516510D01*
X42019737Y-85516503D01*
X41959397Y-85370828D01*
X41959397Y-85370827D01*
X41959393Y-85370820D01*
X41959391Y-85370817D01*
X41914721Y-85303963D01*
X41893844Y-85237288D01*
X41912328Y-85169908D01*
X41964306Y-85123218D01*
X41970370Y-85120513D01*
X42074024Y-85077577D01*
X42825975Y-85077577D01*
X42931236Y-85121178D01*
X42931240Y-85121179D01*
X43076126Y-85149999D01*
X43076129Y-85150000D01*
X43223871Y-85150000D01*
X43223873Y-85149999D01*
X43368760Y-85121179D01*
X43368775Y-85121175D01*
X43474024Y-85077578D01*
X43474024Y-85077577D01*
X43150001Y-84753554D01*
X43150000Y-84753554D01*
X42825975Y-85077577D01*
X42074024Y-85077577D01*
X41836819Y-84840372D01*
X41803334Y-84779049D01*
X41800500Y-84752691D01*
X41800500Y-84487321D01*
X41806645Y-84484776D01*
X41834776Y-84456645D01*
X41850000Y-84419891D01*
X41850000Y-84399999D01*
X42103554Y-84399999D01*
X42103554Y-84400001D01*
X42427929Y-84724376D01*
X42472069Y-84724376D01*
X42796446Y-84400000D01*
X42776555Y-84380109D01*
X43050000Y-84380109D01*
X43050000Y-84419891D01*
X43065224Y-84456645D01*
X43093355Y-84484776D01*
X43130109Y-84500000D01*
X43169891Y-84500000D01*
X43206645Y-84484776D01*
X43234776Y-84456645D01*
X43250000Y-84419891D01*
X43250000Y-84399999D01*
X43503554Y-84399999D01*
X43503554Y-84400001D01*
X43827577Y-84724024D01*
X43827578Y-84724024D01*
X43871175Y-84618775D01*
X43871179Y-84618760D01*
X43899999Y-84473873D01*
X43900000Y-84473871D01*
X43900000Y-84326128D01*
X43899999Y-84326126D01*
X43871179Y-84181240D01*
X43871178Y-84181236D01*
X43831661Y-84085834D01*
X43824689Y-84078862D01*
X43503554Y-84399999D01*
X43250000Y-84399999D01*
X43250000Y-84380109D01*
X43234776Y-84343355D01*
X43206645Y-84315224D01*
X43169891Y-84300000D01*
X43130109Y-84300000D01*
X43093355Y-84315224D01*
X43065224Y-84343355D01*
X43050000Y-84380109D01*
X42776555Y-84380109D01*
X42472068Y-84075622D01*
X42427930Y-84075622D01*
X42103554Y-84399999D01*
X41850000Y-84399999D01*
X41850000Y-84380109D01*
X41834776Y-84343355D01*
X41806645Y-84315224D01*
X41800500Y-84312678D01*
X41800500Y-84047308D01*
X41820185Y-83980269D01*
X41836819Y-83959627D01*
X41996446Y-83800000D01*
X42903554Y-83800000D01*
X43150000Y-84046446D01*
X43396446Y-83800000D01*
X43150000Y-83553554D01*
X42903554Y-83800000D01*
X41996446Y-83800000D01*
X41836819Y-83640373D01*
X41803334Y-83579050D01*
X41800500Y-83552692D01*
X41800500Y-83287321D01*
X41806645Y-83284776D01*
X41834776Y-83256645D01*
X41850000Y-83219891D01*
X41850000Y-83199999D01*
X42103554Y-83199999D01*
X42103554Y-83200001D01*
X42427929Y-83524376D01*
X42472069Y-83524376D01*
X42796446Y-83200000D01*
X42776555Y-83180109D01*
X43050000Y-83180109D01*
X43050000Y-83219891D01*
X43065224Y-83256645D01*
X43093355Y-83284776D01*
X43130109Y-83300000D01*
X43169891Y-83300000D01*
X43206645Y-83284776D01*
X43234776Y-83256645D01*
X43250000Y-83219891D01*
X43250000Y-83180109D01*
X43234776Y-83143355D01*
X43206645Y-83115224D01*
X43169891Y-83100000D01*
X43130109Y-83100000D01*
X43093355Y-83115224D01*
X43065224Y-83143355D01*
X43050000Y-83180109D01*
X42776555Y-83180109D01*
X42472068Y-82875622D01*
X42427930Y-82875622D01*
X42103554Y-83199999D01*
X41850000Y-83199999D01*
X41850000Y-83180109D01*
X41834776Y-83143355D01*
X41806645Y-83115224D01*
X41800500Y-83112678D01*
X41800500Y-82847308D01*
X41820185Y-82780269D01*
X41836819Y-82759627D01*
X41996446Y-82600000D01*
X41836819Y-82440373D01*
X41803334Y-82379050D01*
X41800500Y-82352692D01*
X41800500Y-82087321D01*
X41806645Y-82084776D01*
X41834776Y-82056645D01*
X41850000Y-82019891D01*
X41850000Y-81999999D01*
X42103554Y-81999999D01*
X42103554Y-82000001D01*
X42427929Y-82324376D01*
X42472069Y-82324376D01*
X42796446Y-82000000D01*
X42776555Y-81980109D01*
X43050000Y-81980109D01*
X43050000Y-82019891D01*
X43065224Y-82056645D01*
X43093355Y-82084776D01*
X43130109Y-82100000D01*
X43169891Y-82100000D01*
X43206645Y-82084776D01*
X43234776Y-82056645D01*
X43250000Y-82019891D01*
X43250000Y-81980109D01*
X43234776Y-81943355D01*
X43206645Y-81915224D01*
X43169891Y-81900000D01*
X43130109Y-81900000D01*
X43093355Y-81915224D01*
X43065224Y-81943355D01*
X43050000Y-81980109D01*
X42776555Y-81980109D01*
X42472068Y-81675622D01*
X42427930Y-81675622D01*
X42103554Y-81999999D01*
X41850000Y-81999999D01*
X41850000Y-81980109D01*
X41834776Y-81943355D01*
X41806645Y-81915224D01*
X41800500Y-81912678D01*
X41800500Y-81647307D01*
X41820185Y-81580268D01*
X41836819Y-81559626D01*
X42074023Y-81322421D01*
X41968767Y-81278822D01*
X41968759Y-81278820D01*
X41945759Y-81274245D01*
X41883848Y-81241861D01*
X41849274Y-81181145D01*
X41853013Y-81111375D01*
X41882267Y-81064949D01*
X42937819Y-80009398D01*
X42999142Y-79975913D01*
X43068834Y-79980897D01*
X43124767Y-80022769D01*
X43149184Y-80088233D01*
X43149500Y-80097079D01*
X43149500Y-81133641D01*
X43129815Y-81200680D01*
X43077011Y-81246435D01*
X43049692Y-81255258D01*
X42931238Y-81278820D01*
X42931228Y-81278823D01*
X42825974Y-81322420D01*
X42825974Y-81322421D01*
X43113180Y-81609626D01*
X43146665Y-81670949D01*
X43149499Y-81697307D01*
X43149499Y-81704839D01*
X43149498Y-81704839D01*
X43149499Y-81704842D01*
X43190423Y-81857570D01*
X43194817Y-81865180D01*
X43203279Y-81879838D01*
X43203282Y-81879842D01*
X43253374Y-81966604D01*
X43269479Y-81994500D01*
X43288181Y-82013202D01*
X43302884Y-82040129D01*
X43319477Y-82065948D01*
X43320368Y-82072148D01*
X43321666Y-82074525D01*
X43324500Y-82100883D01*
X43324500Y-82229554D01*
X43304815Y-82296593D01*
X43252011Y-82342348D01*
X43200500Y-82353554D01*
X43150000Y-82353554D01*
X42903554Y-82600000D01*
X43150000Y-82846446D01*
X43200499Y-82846446D01*
X43267538Y-82866131D01*
X43313293Y-82918935D01*
X43324499Y-82970446D01*
X43324499Y-83058271D01*
X43358936Y-83186789D01*
X43358935Y-83186789D01*
X43365420Y-83210991D01*
X43365426Y-83211004D01*
X43444475Y-83347923D01*
X43444481Y-83347931D01*
X43563349Y-83466799D01*
X43563354Y-83466803D01*
X45227069Y-85130520D01*
X45227071Y-85130521D01*
X45227075Y-85130524D01*
X45363994Y-85209573D01*
X45364001Y-85209577D01*
X45516728Y-85250501D01*
X45516730Y-85250501D01*
X45682439Y-85250501D01*
X45682455Y-85250500D01*
X47349903Y-85250500D01*
X47416942Y-85270185D01*
X47437584Y-85286819D01*
X48519478Y-86368713D01*
X48519480Y-86368716D01*
X48555431Y-86404667D01*
X48563182Y-86412418D01*
X48578381Y-86440255D01*
X48596666Y-86473739D01*
X48599500Y-86500098D01*
X48599500Y-86531178D01*
X48599499Y-86531196D01*
X48599499Y-86696902D01*
X48599498Y-86696902D01*
X48640423Y-86849633D01*
X48669358Y-86899748D01*
X48669359Y-86899752D01*
X48669360Y-86899752D01*
X48719479Y-86986562D01*
X48719481Y-86986565D01*
X48838349Y-87105433D01*
X48838355Y-87105438D01*
X49014651Y-87281734D01*
X49048136Y-87343057D01*
X49046186Y-87403527D01*
X49009582Y-87531451D01*
X48999500Y-87644863D01*
X48999500Y-88634397D01*
X48979815Y-88701436D01*
X48927011Y-88747191D01*
X48857853Y-88757135D01*
X48794297Y-88728110D01*
X48768113Y-88696397D01*
X48730522Y-88631287D01*
X48730518Y-88631282D01*
X48049319Y-87950083D01*
X48015834Y-87888760D01*
X48013000Y-87862402D01*
X48013000Y-87826403D01*
X48012999Y-87826401D01*
X47999155Y-87756803D01*
X47982237Y-87671751D01*
X47971099Y-87644862D01*
X47921897Y-87526075D01*
X47921890Y-87526062D01*
X47834289Y-87394959D01*
X47834286Y-87394955D01*
X47722792Y-87283461D01*
X47722788Y-87283458D01*
X47591685Y-87195857D01*
X47591672Y-87195850D01*
X47446001Y-87135512D01*
X47445989Y-87135509D01*
X47291345Y-87104748D01*
X47291342Y-87104748D01*
X47133658Y-87104748D01*
X47133655Y-87104748D01*
X46979010Y-87135509D01*
X46978998Y-87135512D01*
X46833327Y-87195850D01*
X46833314Y-87195857D01*
X46702211Y-87283458D01*
X46702207Y-87283461D01*
X46590713Y-87394955D01*
X46590710Y-87394959D01*
X46503109Y-87526062D01*
X46503102Y-87526075D01*
X46442764Y-87671746D01*
X46442761Y-87671758D01*
X46412000Y-87826401D01*
X46412000Y-87829382D01*
X46411558Y-87830884D01*
X46411403Y-87832466D01*
X46411103Y-87832436D01*
X46392315Y-87896421D01*
X46350877Y-87934663D01*
X46351387Y-87935427D01*
X46346543Y-87938663D01*
X46346469Y-87938732D01*
X46346327Y-87938807D01*
X46182536Y-88048248D01*
X46043251Y-88187533D01*
X46043248Y-88187537D01*
X45933814Y-88351315D01*
X45933807Y-88351328D01*
X45858430Y-88533306D01*
X45858427Y-88533318D01*
X45820000Y-88726504D01*
X45820000Y-89125000D01*
X46520000Y-89125000D01*
X46520000Y-89625000D01*
X45970237Y-89625000D01*
X45903198Y-89605315D01*
X45862850Y-89563000D01*
X45850515Y-89541635D01*
X45743365Y-89434485D01*
X45674430Y-89394685D01*
X45612136Y-89358719D01*
X45538950Y-89339109D01*
X45465766Y-89319500D01*
X45314234Y-89319500D01*
X45167863Y-89358719D01*
X45036635Y-89434485D01*
X45036632Y-89434487D01*
X44929487Y-89541632D01*
X44929485Y-89541635D01*
X44853719Y-89672863D01*
X44814500Y-89819234D01*
X44814500Y-89970765D01*
X44853719Y-90117136D01*
X44884782Y-90170938D01*
X44929485Y-90248365D01*
X45036635Y-90355515D01*
X45167865Y-90431281D01*
X45314234Y-90470500D01*
X45314236Y-90470500D01*
X45465764Y-90470500D01*
X45465766Y-90470500D01*
X45612135Y-90431281D01*
X45743365Y-90355515D01*
X45743373Y-90355506D01*
X45746105Y-90353412D01*
X45748834Y-90352356D01*
X45750403Y-90351451D01*
X45750544Y-90351695D01*
X45811274Y-90328215D01*
X45879719Y-90342251D01*
X45929710Y-90391064D01*
X45930955Y-90393335D01*
X45933812Y-90398680D01*
X46043248Y-90562462D01*
X46043251Y-90562466D01*
X46182533Y-90701748D01*
X46182537Y-90701751D01*
X46346315Y-90811185D01*
X46346328Y-90811192D01*
X46528308Y-90886569D01*
X46570000Y-90894862D01*
X46570000Y-90091988D01*
X46579940Y-90109205D01*
X46635795Y-90165060D01*
X46704204Y-90204556D01*
X46780504Y-90225000D01*
X46859496Y-90225000D01*
X46935796Y-90204556D01*
X47004205Y-90165060D01*
X47060060Y-90109205D01*
X47070000Y-90091988D01*
X47070000Y-90894862D01*
X47111690Y-90886569D01*
X47111692Y-90886569D01*
X47293671Y-90811192D01*
X47293684Y-90811185D01*
X47457462Y-90701751D01*
X47457466Y-90701748D01*
X47596748Y-90562466D01*
X47596751Y-90562462D01*
X47706185Y-90398684D01*
X47706192Y-90398671D01*
X47781569Y-90216693D01*
X47781572Y-90216681D01*
X47819999Y-90023495D01*
X47820000Y-90023492D01*
X47820000Y-89968597D01*
X47839685Y-89901558D01*
X47892489Y-89855803D01*
X47961647Y-89845859D01*
X48025203Y-89874884D01*
X48031681Y-89880916D01*
X48996374Y-90845609D01*
X49029859Y-90906932D01*
X49027909Y-90967401D01*
X49009583Y-91031448D01*
X49009582Y-91031453D01*
X48999500Y-91144863D01*
X48999500Y-93355136D01*
X49009582Y-93468548D01*
X49062762Y-93654405D01*
X49062763Y-93654406D01*
X49152266Y-93825751D01*
X49199518Y-93883700D01*
X49274428Y-93975571D01*
X49322166Y-94014496D01*
X49424249Y-94097734D01*
X49595594Y-94187237D01*
X49781448Y-94240417D01*
X49894862Y-94250500D01*
X49894870Y-94250500D01*
X52105130Y-94250500D01*
X52105138Y-94250500D01*
X52218552Y-94240417D01*
X52404406Y-94187237D01*
X52575751Y-94097734D01*
X52725571Y-93975571D01*
X52847734Y-93825751D01*
X52937237Y-93654406D01*
X52990417Y-93468552D01*
X53000500Y-93355138D01*
X53000500Y-91144862D01*
X52990417Y-91031448D01*
X52937237Y-90845594D01*
X52847734Y-90674249D01*
X52769546Y-90578360D01*
X52742438Y-90513965D01*
X52754447Y-90445135D01*
X52769547Y-90421639D01*
X52847734Y-90325751D01*
X52937237Y-90154406D01*
X52990417Y-89968552D01*
X53000500Y-89855138D01*
X53000500Y-87644862D01*
X52990417Y-87531448D01*
X52937237Y-87345594D01*
X52847734Y-87174249D01*
X52769546Y-87078360D01*
X52742438Y-87013965D01*
X52754447Y-86945135D01*
X52769547Y-86921639D01*
X52782691Y-86905519D01*
X52847734Y-86825751D01*
X52937237Y-86654406D01*
X52990417Y-86468552D01*
X53000500Y-86355138D01*
X53000500Y-84144862D01*
X52990417Y-84031448D01*
X52937237Y-83845594D01*
X52847734Y-83674249D01*
X52769546Y-83578360D01*
X52742438Y-83513965D01*
X52754447Y-83445135D01*
X52769547Y-83421639D01*
X52769549Y-83421637D01*
X52847734Y-83325751D01*
X52937237Y-83154406D01*
X52990417Y-82968552D01*
X53000500Y-82855138D01*
X53000500Y-80644862D01*
X52990417Y-80531448D01*
X52937237Y-80345594D01*
X52847734Y-80174249D01*
X52770166Y-80079120D01*
X52728650Y-80028204D01*
X52727616Y-80025748D01*
X52725485Y-80024153D01*
X52714140Y-79993737D01*
X52701541Y-79963808D01*
X52701998Y-79961184D01*
X52701068Y-79958689D01*
X52707968Y-79926966D01*
X52713550Y-79894978D01*
X52715527Y-79892218D01*
X52715920Y-79890416D01*
X52737068Y-79862165D01*
X52858506Y-79740728D01*
X52858511Y-79740724D01*
X52868714Y-79730520D01*
X52868716Y-79730520D01*
X52980520Y-79618716D01*
X53059577Y-79481784D01*
X53100500Y-79329057D01*
X53100500Y-75752881D01*
X53104942Y-75736797D01*
X53104459Y-75721797D01*
X53115120Y-75699946D01*
X53118079Y-75689237D01*
X53125709Y-75676477D01*
X53130520Y-75671667D01*
X53183988Y-75579057D01*
X53209577Y-75534736D01*
X53250501Y-75382008D01*
X53250501Y-75223894D01*
X53250501Y-75216299D01*
X53250500Y-75216281D01*
X53250500Y-74061896D01*
X53250737Y-74060348D01*
X53250522Y-74059560D01*
X53251791Y-74053479D01*
X53256202Y-74024726D01*
X53258658Y-74016908D01*
X53259577Y-74015317D01*
X53261318Y-74008818D01*
X53300501Y-73862590D01*
X53300501Y-73704475D01*
X53300501Y-73696880D01*
X53300500Y-73696862D01*
X53300500Y-70795520D01*
X53300501Y-70795517D01*
X53300500Y-70637403D01*
X53278567Y-70555557D01*
X53259577Y-70484682D01*
X53258002Y-70481954D01*
X53255071Y-70471459D01*
X53255199Y-70461730D01*
X53250500Y-70438102D01*
X53250500Y-68413372D01*
X53250501Y-68413369D01*
X53250500Y-68255254D01*
X53209576Y-68102527D01*
X53170753Y-68035284D01*
X53130520Y-67965598D01*
X53125880Y-67960958D01*
X53118329Y-67948443D01*
X53111131Y-67921090D01*
X53100930Y-67894702D01*
X53100500Y-67884383D01*
X53100500Y-65217945D01*
X53120185Y-65150906D01*
X53136817Y-65130266D01*
X53158502Y-65108580D01*
X53158507Y-65108576D01*
X53168714Y-65098368D01*
X53168716Y-65098368D01*
X53280520Y-64986564D01*
X53340245Y-64883116D01*
X53359577Y-64849633D01*
X53400500Y-64696905D01*
X53400500Y-64538791D01*
X53400500Y-64538790D01*
X53400500Y-61803095D01*
X53382414Y-61735596D01*
X53359577Y-61650367D01*
X53319701Y-61581300D01*
X53280520Y-61513436D01*
X53168716Y-61401632D01*
X53168715Y-61401631D01*
X53164385Y-61397301D01*
X53164374Y-61397291D01*
X53136819Y-61369736D01*
X53103334Y-61308413D01*
X53100500Y-61282055D01*
X53100500Y-60717945D01*
X53120185Y-60650906D01*
X53136817Y-60630266D01*
X53158502Y-60608580D01*
X53158507Y-60608576D01*
X53168714Y-60598368D01*
X53168716Y-60598368D01*
X53280520Y-60486564D01*
X53347149Y-60371158D01*
X53359577Y-60349633D01*
X53400500Y-60196905D01*
X53400500Y-60038791D01*
X53400500Y-57471211D01*
X53400501Y-57471198D01*
X53400501Y-57303097D01*
X53400501Y-57303095D01*
X53359577Y-57150367D01*
X53330209Y-57099500D01*
X53280520Y-57013436D01*
X53168716Y-56901632D01*
X53168715Y-56901631D01*
X53164385Y-56897301D01*
X53164374Y-56897291D01*
X52655438Y-56388355D01*
X52648369Y-56381286D01*
X52648368Y-56381284D01*
X52556140Y-56289056D01*
X52531068Y-56243138D01*
X52522658Y-56227736D01*
X52527642Y-56158044D01*
X52569514Y-56102111D01*
X52575589Y-56097840D01*
X52575743Y-56097737D01*
X52575751Y-56097734D01*
X52725571Y-55975571D01*
X52847734Y-55825751D01*
X52937237Y-55654406D01*
X52990417Y-55468552D01*
X53000500Y-55355138D01*
X53000500Y-53144862D01*
X52990417Y-53031448D01*
X52937237Y-52845594D01*
X52847734Y-52674249D01*
X52774613Y-52584574D01*
X52725571Y-52524428D01*
X52633700Y-52449518D01*
X52575751Y-52402266D01*
X52494661Y-52359908D01*
X52444355Y-52311423D01*
X52428247Y-52243435D01*
X52451453Y-52177532D01*
X52494661Y-52140091D01*
X52575751Y-52097734D01*
X52725571Y-51975571D01*
X52847734Y-51825751D01*
X52937237Y-51654406D01*
X52990417Y-51468552D01*
X53000500Y-51355138D01*
X53000500Y-49144862D01*
X52990417Y-49031448D01*
X52937237Y-48845594D01*
X52847734Y-48674249D01*
X52779383Y-48590424D01*
X52725571Y-48524428D01*
X52600823Y-48422710D01*
X52575751Y-48402266D01*
X52467258Y-48345594D01*
X52404405Y-48312762D01*
X52249845Y-48268537D01*
X52218552Y-48259583D01*
X52218551Y-48259582D01*
X52218548Y-48259582D01*
X52129662Y-48251680D01*
X52105138Y-48249500D01*
X49894862Y-48249500D01*
X49882599Y-48250590D01*
X49781451Y-48259582D01*
X49595594Y-48312762D01*
X49424250Y-48402265D01*
X49274428Y-48524428D01*
X49152265Y-48674250D01*
X49062762Y-48845594D01*
X49009582Y-49031451D01*
X48999500Y-49144863D01*
X48999500Y-49582351D01*
X48994055Y-49600892D01*
X48993579Y-49620209D01*
X48984415Y-49633723D01*
X48979815Y-49649390D01*
X48965212Y-49662042D01*
X48954367Y-49678038D01*
X48939349Y-49684453D01*
X48927011Y-49695145D01*
X48907886Y-49697894D01*
X48890115Y-49705487D01*
X48862577Y-49704409D01*
X48857853Y-49705089D01*
X48854831Y-49704616D01*
X48853037Y-49704312D01*
X48828842Y-49699500D01*
X48824567Y-49699500D01*
X48814357Y-49697774D01*
X48786655Y-49684287D01*
X48758086Y-49672752D01*
X48755250Y-49668998D01*
X48751537Y-49667191D01*
X48741839Y-49651250D01*
X48720465Y-49622961D01*
X48718343Y-49617838D01*
X48694631Y-49582351D01*
X48630738Y-49486728D01*
X48630735Y-49486724D01*
X48519241Y-49375230D01*
X48519237Y-49375227D01*
X48388134Y-49287626D01*
X48388121Y-49287619D01*
X48242450Y-49227281D01*
X48242438Y-49227278D01*
X48087794Y-49196517D01*
X48087791Y-49196517D01*
X47930107Y-49196517D01*
X47930104Y-49196517D01*
X47864598Y-49209547D01*
X47795007Y-49203320D01*
X47769103Y-49189378D01*
X47760319Y-49183204D01*
X47746240Y-49169125D01*
X47625608Y-49088521D01*
X47624397Y-49087670D01*
X47603508Y-49061442D01*
X47582005Y-49035712D01*
X47581349Y-49033619D01*
X47580869Y-49033016D01*
X47580728Y-49031635D01*
X47574084Y-49010413D01*
X47551846Y-48898618D01*
X47551845Y-48898611D01*
X47529869Y-48845555D01*
X47491505Y-48752935D01*
X47491498Y-48752922D01*
X47403897Y-48621819D01*
X47403894Y-48621815D01*
X47292400Y-48510321D01*
X47292396Y-48510318D01*
X47161293Y-48422717D01*
X47161280Y-48422710D01*
X47015609Y-48362372D01*
X47015597Y-48362369D01*
X46860953Y-48331608D01*
X46860950Y-48331608D01*
X46703266Y-48331608D01*
X46703264Y-48331608D01*
X46648886Y-48342424D01*
X46625301Y-48347116D01*
X46601112Y-48349499D01*
X46520943Y-48349499D01*
X46520939Y-48349499D01*
X46513332Y-48349500D01*
X46513331Y-48349499D01*
X46513331Y-48349500D01*
X42514403Y-48349500D01*
X42447364Y-48329815D01*
X42404494Y-48282911D01*
X42347734Y-48174249D01*
X42286652Y-48099339D01*
X42225571Y-48024428D01*
X42159558Y-47970602D01*
X42120041Y-47912981D01*
X42117949Y-47843142D01*
X42153947Y-47783260D01*
X42216606Y-47752345D01*
X42237919Y-47750500D01*
X53625500Y-47750500D01*
X53692539Y-47770185D01*
G37*
%TD.AperFunction*%
%TA.AperFunction,Conductor*%
G36*
X37067540Y-84870185D02*
G01*
X37113295Y-84922989D01*
X37124501Y-84974500D01*
X37124501Y-85224900D01*
X37104816Y-85291939D01*
X37088182Y-85312581D01*
X36212181Y-86188582D01*
X36150858Y-86222067D01*
X36081166Y-86217083D01*
X36025233Y-86175211D01*
X36000816Y-86109747D01*
X36000500Y-86100901D01*
X36000500Y-84974500D01*
X36020185Y-84907461D01*
X36072989Y-84861706D01*
X36124500Y-84850500D01*
X37000501Y-84850500D01*
X37067540Y-84870185D01*
G37*
%TD.AperFunction*%
%TA.AperFunction,Conductor*%
G36*
X36135038Y-81866202D02*
G01*
X36142147Y-81865180D01*
X36167815Y-81876902D01*
X36194633Y-81885657D01*
X36202165Y-81892589D01*
X36205703Y-81894205D01*
X36220602Y-81909558D01*
X36274426Y-81975569D01*
X36304390Y-82000001D01*
X36424249Y-82097734D01*
X36595594Y-82187237D01*
X36781448Y-82240417D01*
X36894862Y-82250500D01*
X38018750Y-82250500D01*
X38085789Y-82270185D01*
X38131544Y-82322989D01*
X38141488Y-82392147D01*
X38112463Y-82455703D01*
X38106431Y-82462181D01*
X36955432Y-83613181D01*
X36894109Y-83646666D01*
X36867751Y-83649500D01*
X35886442Y-83649500D01*
X35884592Y-83648956D01*
X35882729Y-83649444D01*
X35851213Y-83639155D01*
X35819403Y-83629815D01*
X35817560Y-83628169D01*
X35816309Y-83627761D01*
X35790339Y-83603860D01*
X35769546Y-83578359D01*
X35742438Y-83513963D01*
X35754448Y-83445133D01*
X35769547Y-83421639D01*
X35847734Y-83325751D01*
X35937237Y-83154406D01*
X35990417Y-82968552D01*
X36000500Y-82855138D01*
X36000500Y-81987918D01*
X36008449Y-81960846D01*
X36013299Y-81933052D01*
X36018162Y-81927767D01*
X36020185Y-81920879D01*
X36041503Y-81902406D01*
X36060614Y-81881642D01*
X36067562Y-81879825D01*
X36072989Y-81875124D01*
X36100916Y-81871108D01*
X36128213Y-81863974D01*
X36135038Y-81866202D01*
G37*
%TD.AperFunction*%
%TA.AperFunction,Conductor*%
G36*
X49293303Y-66408404D02*
G01*
X49337681Y-66436916D01*
X50644523Y-67743758D01*
X50678008Y-67805081D01*
X50673024Y-67874773D01*
X50631152Y-67930706D01*
X50604295Y-67946000D01*
X50524087Y-67979223D01*
X50524077Y-67979228D01*
X50409353Y-68055885D01*
X50409349Y-68055888D01*
X50311783Y-68153454D01*
X50311780Y-68153458D01*
X50235123Y-68268182D01*
X50235116Y-68268195D01*
X50182316Y-68395667D01*
X50182313Y-68395677D01*
X50155395Y-68531004D01*
X50155395Y-68531007D01*
X50155395Y-68668993D01*
X50155395Y-68668995D01*
X50155394Y-68668995D01*
X50182313Y-68804322D01*
X50182316Y-68804332D01*
X50235116Y-68931804D01*
X50235123Y-68931817D01*
X50311780Y-69046541D01*
X50311783Y-69046545D01*
X50409349Y-69144111D01*
X50409353Y-69144114D01*
X50524077Y-69220771D01*
X50524090Y-69220778D01*
X50651562Y-69273578D01*
X50651567Y-69273580D01*
X50651571Y-69273580D01*
X50651572Y-69273581D01*
X50786899Y-69300500D01*
X50786902Y-69300500D01*
X50924890Y-69300500D01*
X51015936Y-69282389D01*
X51060223Y-69273580D01*
X51187706Y-69220775D01*
X51302437Y-69144114D01*
X51400009Y-69046542D01*
X51422398Y-69013035D01*
X51476010Y-68968230D01*
X51545335Y-68959523D01*
X51608363Y-68989677D01*
X51645082Y-69049120D01*
X51649500Y-69081926D01*
X51649500Y-70125500D01*
X51629815Y-70192539D01*
X51577011Y-70238294D01*
X51525500Y-70249500D01*
X49394862Y-70249500D01*
X49382599Y-70250590D01*
X49281451Y-70259582D01*
X49158612Y-70294731D01*
X49088744Y-70294248D01*
X49030228Y-70256068D01*
X49001643Y-70192313D01*
X49000500Y-70175515D01*
X49000500Y-69005043D01*
X49000499Y-69005039D01*
X48985369Y-68870750D01*
X48985368Y-68870745D01*
X48962128Y-68804328D01*
X48925789Y-68700478D01*
X48829816Y-68547738D01*
X48819196Y-68537118D01*
X48785711Y-68475795D01*
X48790695Y-68406103D01*
X48810773Y-68371078D01*
X48847734Y-68325751D01*
X48937237Y-68154406D01*
X48990417Y-67968552D01*
X49000500Y-67855138D01*
X49000500Y-66650097D01*
X49009145Y-66620653D01*
X49015668Y-66590671D01*
X49019422Y-66585655D01*
X49020185Y-66583058D01*
X49036814Y-66562420D01*
X49158505Y-66440728D01*
X49158515Y-66440721D01*
X49162296Y-66436939D01*
X49168362Y-66433624D01*
X49190729Y-66417504D01*
X49190735Y-66417501D01*
X49192266Y-66420563D01*
X49223610Y-66403438D01*
X49293303Y-66408404D01*
G37*
%TD.AperFunction*%
%TA.AperFunction,Conductor*%
G36*
X37418834Y-58282915D02*
G01*
X37474767Y-58324787D01*
X37499184Y-58390251D01*
X37499500Y-58399097D01*
X37499500Y-61125500D01*
X37479815Y-61192539D01*
X37427011Y-61238294D01*
X37375500Y-61249500D01*
X36894862Y-61249500D01*
X36882599Y-61250590D01*
X36781451Y-61259582D01*
X36595594Y-61312762D01*
X36424250Y-61402265D01*
X36274428Y-61524428D01*
X36152266Y-61674248D01*
X36109909Y-61755338D01*
X36061422Y-61805645D01*
X35993434Y-61821752D01*
X35927531Y-61798545D01*
X35890091Y-61755338D01*
X35847733Y-61674248D01*
X35725571Y-61524428D01*
X35633700Y-61449518D01*
X35575751Y-61402266D01*
X35495540Y-61360367D01*
X35483278Y-61348549D01*
X35468081Y-61340863D01*
X35458644Y-61324806D01*
X35445233Y-61311881D01*
X35441306Y-61295308D01*
X35432678Y-61280627D01*
X35433419Y-61262018D01*
X35429126Y-61243894D01*
X35434782Y-61227829D01*
X35435461Y-61210813D01*
X35446146Y-61195558D01*
X35452332Y-61177991D01*
X35465997Y-61167217D01*
X35475546Y-61153586D01*
X35497119Y-61142682D01*
X35505974Y-61135702D01*
X35513251Y-61132722D01*
X35599633Y-61109577D01*
X35665083Y-61071789D01*
X35736564Y-61030520D01*
X35848368Y-60918716D01*
X35848368Y-60918714D01*
X35858572Y-60908511D01*
X35858576Y-60908506D01*
X36158506Y-60608576D01*
X36158511Y-60608572D01*
X36168714Y-60598368D01*
X36168716Y-60598368D01*
X36280520Y-60486564D01*
X36347149Y-60371158D01*
X36359577Y-60349633D01*
X36400500Y-60196906D01*
X36400500Y-60038791D01*
X36400500Y-59250097D01*
X36420185Y-59183058D01*
X36436819Y-59162416D01*
X37287819Y-58311416D01*
X37349142Y-58277931D01*
X37418834Y-58282915D01*
G37*
%TD.AperFunction*%
%TD*%
M02*
