M48
; DRILL file KiCad 10.0.4 date 2026-07-22T17:28:35
; FORMAT={-:-/ absolute / metric / decimal}
; #@! TF.CreationDate,2026-07-22T17:28:35-07:00
; #@! TF.GenerationSoftware,Kicad,Pcbnew,10.0.4
; #@! TF.FileFunction,Plated,1,2,PTH
FMAT,2
METRIC
; #@! TA.AperFunction,Plated,PTH,ComponentDrill
T1C0.200
; #@! TA.AperFunction,Plated,PTH,ViaDrill
T2C0.300
; #@! TA.AperFunction,Plated,PTH,ComponentDrill
T3C0.600
; #@! TA.AperFunction,Plated,PTH,ComponentDrill
T4C0.800
%
G90
G05
T1
X41.75Y-82.0
X41.75Y-83.2
X41.75Y-84.4
X43.15Y-82.0
X43.15Y-83.2
X43.15Y-84.4
T2
X32.625Y-75.375
X32.75Y-76.75
X33.138Y-74.388
X33.5Y-56.5
X34.0Y-61.0
X34.5Y-65.334
X35.25Y-56.5
X36.0Y-55.75
X36.0Y-61.25
X36.0Y-66.75
X36.0Y-86.0
X36.25Y-57.0
X36.432Y-49.3
X36.5Y-50.5
X36.5Y-51.75
X36.563Y-82.5
X36.75Y-89.0
X37.125Y-85.2
X37.5Y-57.25
X37.859Y-49.327
X38.25Y-87.5
X39.3Y-88.775
X39.975Y-83.835
X41.25Y-85.75
X41.638Y-52.013
X41.75Y-56.489
X42.0Y-87.0
X42.0Y-91.75
X42.55Y-56.501
X43.0Y-87.0
X43.0Y-91.75
X43.0Y-91.75
X43.35Y-56.5
X44.249Y-60.45
X44.925Y-79.075
X44.925Y-82.565
X45.0Y-60.0
X45.249Y-48.249
X45.7Y-88.775
X45.759Y-59.747
X45.915Y-68.915
X46.5Y-85.75
X46.554Y-59.662
X46.75Y-58.25
X46.782Y-49.132
X47.075Y-86.75
X47.212Y-87.905
X47.236Y-49.791
X47.477Y-58.587
X48.0Y-52.068
X48.009Y-49.997
X48.099Y-59.089
X48.25Y-56.75
X48.35Y-48.851
X48.5Y-57.75
X48.634Y-51.434
X48.75Y-50.5
X48.787Y-59.689
X49.659Y-52.25
X50.0Y-67.25
X50.05Y-60.774
X50.5Y-70.25
X51.25Y-61.0
T4
X34.0Y-78.75
X51.0Y-78.75
T3
G00X38.18Y-88.825
M15
G01X38.18Y-89.925
M16
G05
G00X38.18Y-93.175
M15
G01X38.18Y-93.975
M16
G05
G00X46.82Y-88.825
M15
G01X46.82Y-89.925
M16
G05
G00X46.82Y-93.175
M15
G01X46.82Y-93.975
M16
G05
M30
