%TF.GenerationSoftware,KiCad,Pcbnew,10.0.4*%
%TF.CreationDate,2026-07-22T17:28:47-07:00*%
%TF.ProjectId,HyperPlex,48797065-7250-46c6-9578-2e6b69636164,rev?*%
%TF.SameCoordinates,Original*%
%TF.FileFunction,Paste,Top*%
%TF.FilePolarity,Positive*%
%FSLAX46Y46*%
G04 Gerber Fmt 4.6, Leading zero omitted, Abs format (unit mm)*
G04 Created by KiCad (PCBNEW 10.0.4) date 2026-07-22 17:28:47*
%MOMM*%
%LPD*%
G01*
G04 APERTURE LIST*
G04 Aperture macros list*
%AMRoundRect*
0 Rectangle with rounded corners*
0 $1 Rounding radius*
0 $2 $3 $4 $5 $6 $7 $8 $9 X,Y pos of 4 corners*
0 Add a 4 corners polygon primitive as box body*
4,1,4,$2,$3,$4,$5,$6,$7,$8,$9,$2,$3,0*
0 Add four circle primitives for the rounded corners*
1,1,$1+$1,$2,$3*
1,1,$1+$1,$4,$5*
1,1,$1+$1,$6,$7*
1,1,$1+$1,$8,$9*
0 Add four rect primitives between the rounded corners*
20,1,$1+$1,$2,$3,$4,$5,0*
20,1,$1+$1,$4,$5,$6,$7,0*
20,1,$1+$1,$6,$7,$8,$9,0*
20,1,$1+$1,$8,$9,$2,$3,0*%
G04 Aperture macros list end*
%ADD10RoundRect,0.150000X-0.150000X-0.470000X0.150000X-0.470000X0.150000X0.470000X-0.150000X0.470000X0*%
%ADD11RoundRect,0.075000X-0.075000X-0.545000X0.075000X-0.545000X0.075000X0.545000X-0.075000X0.545000X0*%
%ADD12RoundRect,0.218750X-0.218750X-0.256250X0.218750X-0.256250X0.218750X0.256250X-0.218750X0.256250X0*%
%ADD13RoundRect,0.150000X0.150000X-0.587500X0.150000X0.587500X-0.150000X0.587500X-0.150000X-0.587500X0*%
%ADD14RoundRect,0.200000X-0.275000X0.200000X-0.275000X-0.200000X0.275000X-0.200000X0.275000X0.200000X0*%
%ADD15RoundRect,0.250000X0.250000X-0.525000X0.250000X0.525000X-0.250000X0.525000X-0.250000X-0.525000X0*%
%ADD16RoundRect,0.200000X0.200000X0.275000X-0.200000X0.275000X-0.200000X-0.275000X0.200000X-0.275000X0*%
%ADD17RoundRect,0.150000X-0.587500X-0.150000X0.587500X-0.150000X0.587500X0.150000X-0.587500X0.150000X0*%
%ADD18RoundRect,0.200000X-0.200000X-0.275000X0.200000X-0.275000X0.200000X0.275000X-0.200000X0.275000X0*%
%ADD19RoundRect,0.150000X0.587500X0.150000X-0.587500X0.150000X-0.587500X-0.150000X0.587500X-0.150000X0*%
%ADD20RoundRect,0.250000X-0.255000X-0.440000X0.255000X-0.440000X0.255000X0.440000X-0.255000X0.440000X0*%
%ADD21RoundRect,0.150000X-0.825000X-0.150000X0.825000X-0.150000X0.825000X0.150000X-0.825000X0.150000X0*%
%ADD22RoundRect,0.250000X1.000000X-0.375000X1.000000X0.375000X-1.000000X0.375000X-1.000000X-0.375000X0*%
%ADD23RoundRect,0.218750X0.218750X0.256250X-0.218750X0.256250X-0.218750X-0.256250X0.218750X-0.256250X0*%
%ADD24RoundRect,0.075000X-0.415425X-0.521491X0.521491X0.415425X0.415425X0.521491X-0.521491X-0.415425X0*%
%ADD25RoundRect,0.075000X0.415425X-0.521491X0.521491X-0.415425X-0.415425X0.521491X-0.521491X0.415425X0*%
%ADD26RoundRect,0.250000X-1.000000X0.375000X-1.000000X-0.375000X1.000000X-0.375000X1.000000X0.375000X0*%
G04 APERTURE END LIST*
D10*
%TO.C,J1*%
X39300000Y-88775000D03*
X40100000Y-88775000D03*
D11*
X40750000Y-88775000D03*
X41750000Y-88775000D03*
X43250000Y-88775000D03*
X44250000Y-88775000D03*
D10*
X44900000Y-88775000D03*
X45700000Y-88775000D03*
X45700000Y-88775000D03*
X44900000Y-88775000D03*
D11*
X43750000Y-88775000D03*
X42750000Y-88775000D03*
X42250000Y-88775000D03*
X41250000Y-88775000D03*
D10*
X40100000Y-88775000D03*
X39300000Y-88775000D03*
%TD*%
D12*
%TO.C,D2*%
X41674999Y-73000000D03*
X43250001Y-73000000D03*
%TD*%
D13*
%TO.C,Q2*%
X38550000Y-77875001D03*
X40450000Y-77875001D03*
X39500000Y-76000000D03*
%TD*%
D14*
%TO.C,R6*%
X39605895Y-69675000D03*
X39605895Y-71325000D03*
%TD*%
D15*
%TO.C,SW4*%
X37505895Y-67375000D03*
X37505895Y-62125000D03*
X40705895Y-67375000D03*
X40705895Y-62125000D03*
%TD*%
D16*
%TO.C,R13*%
X39575000Y-86750000D03*
X37925000Y-86750000D03*
%TD*%
D17*
%TO.C,U3*%
X47812500Y-83300000D03*
X47812500Y-85200000D03*
X49687500Y-84250000D03*
%TD*%
D13*
%TO.C,Q1*%
X44550000Y-77875001D03*
X46450000Y-77875001D03*
X45500000Y-76000000D03*
%TD*%
D14*
%TO.C,R5*%
X41355895Y-69675000D03*
X41355895Y-71325000D03*
%TD*%
%TO.C,R4*%
X43605895Y-69675000D03*
X43605895Y-71325000D03*
%TD*%
D18*
%TO.C,R15*%
X34750000Y-58250000D03*
X36400000Y-58250000D03*
%TD*%
D16*
%TO.C,R1*%
X38075000Y-79750000D03*
X36425000Y-79750000D03*
%TD*%
D15*
%TO.C,SW1*%
X44255895Y-67375000D03*
X44255895Y-62125000D03*
X47455895Y-67375000D03*
X47455895Y-62125000D03*
%TD*%
D19*
%TO.C,U6*%
X37125001Y-85200000D03*
X37125001Y-83300000D03*
X35250000Y-84250000D03*
%TD*%
D20*
%TO.C,U4*%
X41850000Y-82375000D03*
X41850000Y-84025000D03*
X43050000Y-82375000D03*
X43050000Y-84025000D03*
D21*
X39975000Y-81295000D03*
X39975000Y-82565000D03*
X39975000Y-83835000D03*
X39975000Y-85105000D03*
X44925000Y-85105000D03*
X44925000Y-83835000D03*
X44925000Y-82565000D03*
X44925000Y-81295000D03*
%TD*%
D14*
%TO.C,R3*%
X45355895Y-69675000D03*
X45355895Y-71325000D03*
%TD*%
D22*
%TO.C,SW2*%
X48105895Y-74500000D03*
X48105895Y-72000000D03*
X48105895Y-69500000D03*
%TD*%
D18*
%TO.C,R12*%
X45425000Y-86750000D03*
X47075000Y-86750000D03*
%TD*%
D23*
%TO.C,D1*%
X43287501Y-74750000D03*
X41712499Y-74750000D03*
%TD*%
D16*
%TO.C,R2*%
X38075000Y-81500000D03*
X36425000Y-81500000D03*
%TD*%
D17*
%TO.C,Q3*%
X49812500Y-64050000D03*
X49812500Y-65950000D03*
X51687501Y-65000000D03*
%TD*%
D24*
%TO.C,U1*%
X37612124Y-55179557D03*
X37965678Y-55533111D03*
X38319231Y-55886664D03*
X38672785Y-56240218D03*
X39026338Y-56593771D03*
X39379891Y-56947324D03*
X39733445Y-57300878D03*
X40086998Y-57654431D03*
X40440551Y-58007984D03*
X40794105Y-58361538D03*
X41147658Y-58715091D03*
X41501212Y-59068645D03*
D25*
X43498788Y-59068645D03*
X43852342Y-58715091D03*
X44205895Y-58361538D03*
X44559449Y-58007984D03*
X44913002Y-57654431D03*
X45266555Y-57300878D03*
X45620109Y-56947324D03*
X45973662Y-56593771D03*
X46327215Y-56240218D03*
X46680769Y-55886664D03*
X47034322Y-55533111D03*
X47387876Y-55179557D03*
D24*
X47387876Y-53181981D03*
X47034322Y-52828427D03*
X46680769Y-52474874D03*
X46327215Y-52121320D03*
X45973662Y-51767767D03*
X45620109Y-51414214D03*
X45266555Y-51060660D03*
X44913002Y-50707107D03*
X44559449Y-50353554D03*
X44205895Y-50000000D03*
X43852342Y-49646447D03*
X43498788Y-49292893D03*
D25*
X41501212Y-49292893D03*
X41147658Y-49646447D03*
X40794105Y-50000000D03*
X40440551Y-50353554D03*
X40086998Y-50707107D03*
X39733445Y-51060660D03*
X39379891Y-51414214D03*
X39026338Y-51767767D03*
X38672785Y-52121320D03*
X38319231Y-52474874D03*
X37965678Y-52828427D03*
X37612124Y-53181981D03*
%TD*%
D18*
%TO.C,R14*%
X36675000Y-60000000D03*
X38325000Y-60000000D03*
%TD*%
D26*
%TO.C,SW3*%
X36855895Y-69500000D03*
X36855895Y-72000000D03*
X36855895Y-74500000D03*
%TD*%
M02*
