%TF.GenerationSoftware,KiCad,Pcbnew,10.0.4*%
%TF.CreationDate,2026-07-24T13:42:32-07:00*%
%TF.ProjectId,HyperPlex,48797065-7250-46c6-9578-2e6b69636164,rev?*%
%TF.SameCoordinates,Original*%
%TF.FileFunction,Copper,L2,Bot*%
%TF.FilePolarity,Positive*%
%FSLAX46Y46*%
G04 Gerber Fmt 4.6, Leading zero omitted, Abs format (unit mm)*
G04 Created by KiCad (PCBNEW 10.0.4) date 2026-07-24 13:42:32*
%MOMM*%
%LPD*%
G01*
G04 APERTURE LIST*
G04 Aperture macros list*
%AMRoundRect*
0 Rectangle with rounded corners*
0 $1 Rounding radius*
0 $2 $3 $4 $5 $6 $7 $8 $9 X,Y pos of 4 corners*
0 Add a 4 corners polygon primitive as box body*
4,1,4,$2,$3,$4,$5,$6,$7,$8,$9,$2,$3,0*
0 Add four circle primitives for the rounded corners*
1,1,$1+$1,$2,$3*
1,1,$1+$1,$4,$5*
1,1,$1+$1,$6,$7*
1,1,$1+$1,$8,$9*
0 Add four rect primitives between the rounded corners*
20,1,$1+$1,$2,$3,$4,$5,0*
20,1,$1+$1,$4,$5,$6,$7,0*
20,1,$1+$1,$6,$7,$8,$9,0*
20,1,$1+$1,$8,$9,$2,$3,0*%
G04 Aperture macros list end*
%TA.AperFunction,ComponentPad*%
%ADD10R,1.350000X1.350000*%
%TD*%
%TA.AperFunction,HeatsinkPad*%
%ADD11C,0.500000*%
%TD*%
%TA.AperFunction,HeatsinkPad*%
%ADD12R,1.900000X2.900000*%
%TD*%
%TA.AperFunction,ComponentPad*%
%ADD13O,1.000000X2.100000*%
%TD*%
%TA.AperFunction,ComponentPad*%
%ADD14O,1.000000X1.800000*%
%TD*%
%TA.AperFunction,SMDPad,CuDef*%
%ADD15RoundRect,0.300000X1.200000X0.700000X-1.200000X0.700000X-1.200000X-0.700000X1.200000X-0.700000X0*%
%TD*%
%TA.AperFunction,SMDPad,CuDef*%
%ADD16RoundRect,0.450000X1.050000X1.050000X-1.050000X1.050000X-1.050000X-1.050000X1.050000X-1.050000X0*%
%TD*%
%TA.AperFunction,ViaPad*%
%ADD17C,0.600000*%
%TD*%
%TA.AperFunction,Conductor*%
%ADD18C,0.200000*%
%TD*%
G04 APERTURE END LIST*
D10*
%TO.P,REF\u002A\u002A,1*%
%TO.N,+3.3V*%
X51000000Y-78750000D03*
%TD*%
D11*
%TO.P,U2,9,EPAD_9*%
%TO.N,GND*%
X41750000Y-82000000D03*
X41750000Y-83200000D03*
X41750000Y-84400000D03*
D12*
X42450000Y-83200000D03*
D11*
X43150000Y-82000000D03*
X43150000Y-83200000D03*
X43150000Y-84400000D03*
%TD*%
D10*
%TO.P,REF\u002A\u002A,1*%
%TO.N,GND*%
X34000000Y-78750000D03*
%TD*%
D13*
%TO.P,J1,SH,SHIELD_SH*%
%TO.N,GND*%
X38180000Y-89375000D03*
D14*
X38180000Y-93575000D03*
D13*
X46820000Y-89375000D03*
D14*
X46820000Y-93575000D03*
%TD*%
D15*
%TO.P,HyperPlex,3.3V*%
%TO.N,/3.3V*%
X47000000Y-69750000D03*
D16*
%TO.P,HyperPlex,C1*%
%TO.N,unconnected-(U1-PB12-Pad25)*%
X51000000Y-50250000D03*
%TO.P,HyperPlex,C2*%
%TO.N,unconnected-(U1-PB14-Pad27)*%
X51000000Y-54250000D03*
%TO.P,HyperPlex,C3*%
%TO.N,unconnected-(U1-PB10-Pad21)*%
X51000000Y-58750000D03*
%TO.P,HyperPlex,C4*%
%TO.N,unconnected-(U1-PA7-Pad17)*%
X51000000Y-63250000D03*
%TO.P,HyperPlex,C5*%
%TO.N,unconnected-(U1-PA6-Pad16)*%
X47000000Y-63250000D03*
%TO.P,HyperPlex,C6*%
%TO.N,unconnected-(U1-PB1-Pad19)*%
X47000000Y-66750000D03*
%TO.P,HyperPlex,C7*%
%TO.N,unconnected-(U1-PA4-Pad14)*%
X47000000Y-73250000D03*
%TO.P,HyperPlex,C8*%
%TO.N,unconnected-(U1-PA5-Pad15)*%
X50500000Y-72250000D03*
%TO.P,HyperPlex,C9*%
%TO.N,unconnected-(U1-PB2-Pad20)*%
X47000000Y-76750000D03*
%TO.P,HyperPlex,C10*%
%TO.N,unconnected-(U1-PA3-Pad13)*%
X47000000Y-80250000D03*
%TO.P,HyperPlex,C11*%
%TO.N,unconnected-(U1-PB11-Pad22)*%
X51000000Y-81750000D03*
%TO.P,HyperPlex,C12*%
%TO.N,unconnected-(U1-PB0-Pad18)*%
X51000000Y-85250000D03*
%TO.P,HyperPlex,C13*%
%TO.N,unconnected-(U1-PB13-Pad26)*%
X51000000Y-88750000D03*
%TO.P,HyperPlex,C14*%
%TO.N,unconnected-(U1-PB15-Pad28)*%
X51000000Y-92250000D03*
%TO.P,HyperPlex,C15*%
%TO.N,unconnected-(U1-PA9-Pad30)*%
X44500000Y-50750000D03*
%TO.N,unconnected-(U1-PA15-Pad38)*%
X42500000Y-54250000D03*
%TO.N,unconnected-(U1-PA10-Pad31)*%
X40500000Y-49750000D03*
%TO.P,HyperPlex,C16*%
%TO.N,unconnected-(U1-PB7-Pad43)*%
X34000000Y-49750000D03*
%TO.P,HyperPlex,C17*%
%TO.N,unconnected-(U1-PC13-Pad2)*%
X34000000Y-54250000D03*
%TO.P,HyperPlex,C18*%
%TO.N,unconnected-(U1-PC14-Pad3)*%
X34000000Y-58750000D03*
%TO.P,HyperPlex,C19*%
%TO.N,unconnected-(U1-PC15-Pad4)*%
X34000000Y-63250000D03*
%TO.P,HyperPlex,C20*%
%TO.N,unconnected-(U1-PB9-Pad46)*%
X38000000Y-63250000D03*
%TO.P,HyperPlex,C21*%
%TO.N,unconnected-(U1-PB8-Pad45)*%
X38000000Y-66750000D03*
%TO.P,HyperPlex,C22*%
%TO.N,unconnected-(U1-PB5-Pad41)*%
X38000000Y-73250000D03*
%TO.P,HyperPlex,C23*%
%TO.N,unconnected-(U1-PB6-Pad42)*%
X34500000Y-72250000D03*
%TO.P,HyperPlex,C24*%
%TO.N,unconnected-(U1-PB4-Pad40)*%
X38000000Y-76750000D03*
%TO.P,HyperPlex,C25*%
%TO.N,unconnected-(U1-PA0-Pad10)*%
X38000000Y-80250000D03*
%TO.P,HyperPlex,C26*%
%TO.N,unconnected-(U1-PB3-Pad39)*%
X34000000Y-81750000D03*
%TO.P,HyperPlex,C27*%
%TO.N,unconnected-(U1-PA1-Pad11)*%
X34000000Y-85250000D03*
%TO.P,HyperPlex,C28*%
%TO.N,unconnected-(U1-PA2-Pad12)*%
X34000000Y-88750000D03*
%TO.P,HyperPlex,C29*%
%TO.N,unconnected-(U1-PA8-Pad29)*%
X34000000Y-92250000D03*
D15*
%TO.P,HyperPlex,GND*%
%TO.N,GND*%
X38000000Y-69750000D03*
%TD*%
D17*
%TO.N,GND*%
X45249394Y-48249394D03*
X39300000Y-88775000D03*
X39975000Y-83835000D03*
X36000000Y-86000000D03*
X48350000Y-48851471D03*
X50000000Y-67250000D03*
X47075000Y-86750000D03*
X36750000Y-89000000D03*
X36562922Y-82500000D03*
X46500000Y-85750000D03*
X36000000Y-61250000D03*
X50500000Y-70250000D03*
X45700000Y-88775000D03*
X37125001Y-85200000D03*
X38250000Y-87500000D03*
%TO.N,Net-(U1-BOOT0)*%
X35250000Y-56500000D03*
X33500000Y-56500000D03*
%TO.N,/3.3V*%
X45915447Y-68915447D03*
X34000000Y-61000000D03*
%TO.N,Net-(Q1-B)*%
X44925000Y-82565000D03*
X44925000Y-79075000D03*
%TO.N,/RST*%
X51250000Y-61000000D03*
X50050000Y-60774318D03*
%TO.N,/USBDP*%
X43000000Y-91750000D03*
X43000000Y-91750000D03*
X43000000Y-87000000D03*
%TO.N,/USBDN*%
X42000000Y-87000000D03*
X42000000Y-91750000D03*
%TO.N,unconnected-(U1-PC13-Pad2)*%
X36000000Y-55750000D03*
%TO.N,unconnected-(U1-PC14-Pad3)*%
X36250000Y-57000000D03*
%TO.N,unconnected-(U1-PC15-Pad4)*%
X37500000Y-57250000D03*
%TO.N,unconnected-(U1-PA0-Pad10)*%
X41750000Y-56488921D03*
%TO.N,unconnected-(U1-PA1-Pad11)*%
X42549916Y-56500737D03*
%TO.N,unconnected-(U1-PA2-Pad12)*%
X43349918Y-56499895D03*
%TO.N,unconnected-(U1-PA3-Pad13)*%
X44248991Y-60450000D03*
%TO.N,unconnected-(U1-PA4-Pad14)*%
X45000000Y-60000000D03*
%TO.N,unconnected-(U1-PA5-Pad15)*%
X45758949Y-59747017D03*
%TO.N,unconnected-(U1-PA6-Pad16)*%
X46554433Y-59662132D03*
%TO.N,unconnected-(U1-PA7-Pad17)*%
X48786598Y-59689003D03*
%TO.N,unconnected-(U1-PB0-Pad18)*%
X46750000Y-58250000D03*
%TO.N,unconnected-(U1-PB1-Pad19)*%
X47476544Y-58586807D03*
%TO.N,unconnected-(U1-PB2-Pad20)*%
X48099278Y-59089003D03*
%TO.N,unconnected-(U1-PB10-Pad21)*%
X48500000Y-57750000D03*
%TO.N,unconnected-(U1-PB11-Pad22)*%
X48250000Y-56750000D03*
%TO.N,unconnected-(U1-PB12-Pad25)*%
X49658566Y-52250000D03*
%TO.N,unconnected-(U1-PB13-Pad26)*%
X48000000Y-52067826D03*
%TO.N,unconnected-(U1-PB14-Pad27)*%
X48633867Y-51433960D03*
%TO.N,unconnected-(U1-PB15-Pad28)*%
X48750000Y-50500000D03*
X47212500Y-87905248D03*
X41250000Y-85750000D03*
%TO.N,unconnected-(U1-PA8-Pad29)*%
X48008949Y-49997017D03*
%TO.N,unconnected-(U1-PA9-Pad30)*%
X47235951Y-49790914D03*
%TO.N,unconnected-(U1-PA10-Pad31)*%
X46782108Y-49132108D03*
%TO.N,unconnected-(U1-PA15-Pad38)*%
X41638137Y-52013333D03*
%TO.N,unconnected-(U1-PB3-Pad39)*%
X32750000Y-76750000D03*
%TO.N,unconnected-(U1-PB4-Pad40)*%
X32625000Y-75375000D03*
%TO.N,unconnected-(U1-PB5-Pad41)*%
X33137997Y-74387997D03*
%TO.N,unconnected-(U1-PB6-Pad42)*%
X37858580Y-49327213D03*
%TO.N,unconnected-(U1-PB7-Pad43)*%
X36431878Y-49300000D03*
%TO.N,unconnected-(U1-PB8-Pad45)*%
X34500000Y-65333924D03*
X36000000Y-66750000D03*
X36500000Y-50500000D03*
%TO.N,unconnected-(U1-PB9-Pad46)*%
X36500000Y-51750000D03*
%TD*%
%TO.N,GND*%
D18*
X36000000Y-61250000D02*
X36000000Y-65500000D01*
X50500000Y-69500000D02*
X50000000Y-69000000D01*
X50500000Y-70250000D02*
X50500000Y-69500000D01*
X50000000Y-69000000D02*
X50000000Y-67250000D01*
%TO.N,Net-(U1-BOOT0)*%
X35250000Y-56500000D02*
X33500000Y-56500000D01*
%TO.N,Net-(Q1-B)*%
X44925000Y-82565000D02*
X44925000Y-79075000D01*
%TO.N,/RST*%
X50050000Y-60774318D02*
X50275682Y-61000000D01*
X50275682Y-61000000D02*
X51250000Y-61000000D01*
%TO.N,/USBDP*%
X43000000Y-87000000D02*
X43000000Y-91750000D01*
%TO.N,/USBDN*%
X42000000Y-87000000D02*
X42000000Y-91750000D01*
%TO.N,unconnected-(U1-PC13-Pad2)*%
X36000000Y-55750000D02*
X35500000Y-55750000D01*
X35500000Y-55750000D02*
X34000000Y-54250000D01*
%TO.N,unconnected-(U1-PC14-Pad3)*%
X36250000Y-57000000D02*
X34500000Y-58750000D01*
X34500000Y-58750000D02*
X34000000Y-58750000D01*
%TO.N,unconnected-(U1-PC15-Pad4)*%
X35800000Y-58950000D02*
X35800000Y-60117848D01*
X34248529Y-61600000D02*
X34150000Y-61600000D01*
X37500000Y-57250000D02*
X35800000Y-58950000D01*
X34600000Y-61150000D02*
X34600000Y-61248529D01*
X34150000Y-61600000D02*
X34000000Y-61750000D01*
X35800000Y-60117848D02*
X35367848Y-60550000D01*
X35367848Y-60550000D02*
X35200000Y-60550000D01*
X35200000Y-60550000D02*
X34600000Y-61150000D01*
X34000000Y-61750000D02*
X34000000Y-63250000D01*
X34600000Y-61248529D02*
X34248529Y-61600000D01*
%TO.N,unconnected-(U1-PA0-Pad10)*%
X40200000Y-65216466D02*
X40150000Y-65166466D01*
X40150000Y-68585785D02*
X40150000Y-68333533D01*
X40150000Y-64833534D02*
X40200000Y-64783533D01*
X38000000Y-80250000D02*
X39750000Y-78500000D01*
X39800000Y-78117848D02*
X39800000Y-75382152D01*
X40200000Y-68283533D02*
X40200000Y-65216466D01*
X39750000Y-75332152D02*
X39750000Y-74667848D01*
X39750000Y-74667848D02*
X39800000Y-74617848D01*
X39750000Y-71832152D02*
X39750000Y-71314216D01*
X40200000Y-70864216D02*
X40200000Y-68635784D01*
X39750000Y-61266466D02*
X39750000Y-58488921D01*
X39750000Y-78500000D02*
X39750000Y-78167848D01*
X39750000Y-58488921D02*
X41750000Y-56488921D01*
X39800000Y-74617848D02*
X39800000Y-71882152D01*
X39750000Y-78167848D02*
X39800000Y-78117848D01*
X39800000Y-75382152D02*
X39750000Y-75332152D01*
X40200000Y-64783533D02*
X40200000Y-61716466D01*
X40150000Y-68333533D02*
X40200000Y-68283533D01*
X40150000Y-65166466D02*
X40150000Y-64833534D01*
X40200000Y-61716466D02*
X39750000Y-61266466D01*
X40200000Y-68635784D02*
X40150000Y-68585785D01*
X39750000Y-71314216D02*
X40200000Y-70864216D01*
X39800000Y-71882152D02*
X39750000Y-71832152D01*
%TO.N,unconnected-(U1-PA1-Pad11)*%
X40600000Y-61550781D02*
X40600000Y-64783529D01*
X40600000Y-71029902D02*
X40150000Y-71479902D01*
X37167848Y-84250000D02*
X34000000Y-84250000D01*
X40600000Y-68801468D02*
X40600000Y-71029902D01*
X41100000Y-76251471D02*
X41100000Y-76748529D01*
X40000000Y-81417848D02*
X37167848Y-84250000D01*
X42350000Y-56737450D02*
X41998529Y-57088921D01*
X40550000Y-65000780D02*
X40600000Y-65050781D01*
X40251471Y-75900000D02*
X40748529Y-75900000D01*
X40550000Y-64999218D02*
X40550000Y-65000780D01*
X40599998Y-68470094D02*
X40600000Y-68470099D01*
X40600002Y-64949215D02*
X40550000Y-64999218D01*
X40600000Y-64783529D02*
X40600002Y-64949215D01*
X41998529Y-57088921D02*
X41961732Y-57088921D01*
X40200000Y-78283534D02*
X40150000Y-78333534D01*
X40150000Y-61100780D02*
X40600000Y-61550781D01*
X40748529Y-75900000D02*
X41100000Y-76251471D01*
X40200000Y-74783534D02*
X40150000Y-74833533D01*
X40748529Y-77100000D02*
X40251471Y-77100000D01*
X40600000Y-68449219D02*
X40589561Y-68459657D01*
X40600000Y-68470099D02*
X40600002Y-68801466D01*
X40251471Y-77100000D02*
X40200000Y-77048529D01*
X40150000Y-75166466D02*
X40200000Y-75216467D01*
X40000000Y-78815685D02*
X40000000Y-81417848D01*
X40150000Y-78333534D02*
X40150000Y-78665686D01*
X40150000Y-78665686D02*
X40000000Y-78815685D01*
X40200000Y-75951471D02*
X40251471Y-75900000D01*
X40150000Y-58900653D02*
X40150000Y-61100780D01*
X40200000Y-77048529D02*
X40200000Y-78283534D01*
X40200000Y-71716467D02*
X40200000Y-74783534D01*
X41100000Y-76748529D02*
X40748529Y-77100000D01*
X40150000Y-71666466D02*
X40200000Y-71716467D01*
X41961732Y-57088921D02*
X40150000Y-58900653D01*
X40600000Y-65050781D02*
X40600000Y-68449219D01*
X40200000Y-75216467D02*
X40200000Y-75951471D01*
X42549916Y-56500737D02*
X42350000Y-56700653D01*
X42350000Y-56700653D02*
X42350000Y-56737450D01*
X40600002Y-68801466D02*
X40600000Y-68801468D01*
X40150000Y-71479902D02*
X40150000Y-71666466D01*
X40150000Y-74833533D02*
X40150000Y-75166466D01*
X40589561Y-68459657D02*
X40599998Y-68470094D01*
%TO.N,unconnected-(U1-PA2-Pad12)*%
X40600000Y-77500000D02*
X40600000Y-78449220D01*
X43349918Y-56650082D02*
X40750000Y-59250000D01*
X41500000Y-76085786D02*
X41500000Y-76914215D01*
X41000002Y-68967152D02*
X41000000Y-68967154D01*
X41000000Y-68304410D02*
X41000003Y-68304413D01*
X41500000Y-76914215D02*
X40914214Y-77500000D01*
X41000004Y-65114897D02*
X41000000Y-65114901D01*
X41000003Y-68304413D02*
X41000002Y-68967152D01*
X40750000Y-61135096D02*
X41000000Y-61385096D01*
X40400000Y-78981372D02*
X40400000Y-81500000D01*
X40750000Y-75500000D02*
X40914215Y-75500000D01*
X40400000Y-81600000D02*
X37725001Y-84274999D01*
X43349918Y-56499895D02*
X43349918Y-56650082D01*
X40750000Y-59250000D02*
X40750000Y-61135096D01*
X40914214Y-77500000D02*
X40600000Y-77500000D01*
X40914215Y-75500000D02*
X41500000Y-76085786D01*
X40600000Y-78449220D02*
X40550000Y-78499220D01*
X41000000Y-71195588D02*
X40750000Y-71445588D01*
X40750000Y-71445588D02*
X40750000Y-75500000D01*
X40549999Y-78831373D02*
X40400000Y-78981372D01*
X37725001Y-85524998D02*
X35499999Y-87750000D01*
X41000000Y-61385096D02*
X41000004Y-65114897D01*
X41000000Y-65114901D02*
X41000000Y-68304410D01*
X40400000Y-81500000D02*
X40400000Y-81600000D01*
X41000000Y-68967154D02*
X41000000Y-71195588D01*
X40550000Y-78499220D02*
X40549999Y-78831373D01*
X37725001Y-84274999D02*
X37725001Y-85524998D01*
X35499999Y-87750000D02*
X34000000Y-87750000D01*
%TO.N,unconnected-(U1-PA3-Pad13)*%
X44600000Y-61018629D02*
X44400000Y-61218630D01*
X45000000Y-72565686D02*
X45000000Y-76550000D01*
X45200000Y-76750000D02*
X45200000Y-77576470D01*
X44248991Y-60450000D02*
X44600000Y-60801009D01*
X45149999Y-77626471D02*
X45149999Y-78399999D01*
X44400000Y-71965686D02*
X45000000Y-72565686D01*
X45149999Y-78399999D02*
X47000000Y-80250000D01*
X44400000Y-61218630D02*
X44400000Y-71965686D01*
X44600000Y-60801009D02*
X44600000Y-61018629D01*
X45000000Y-76550000D02*
X45200000Y-76750000D01*
X45200000Y-77576470D02*
X45149999Y-77626471D01*
%TO.N,unconnected-(U1-PA4-Pad14)*%
X45250000Y-72250000D02*
X47000000Y-72250000D01*
X44800000Y-71800000D02*
X45250000Y-72250000D01*
X45000000Y-60000000D02*
X45000000Y-61184314D01*
X44800000Y-61384315D02*
X44800000Y-71800000D01*
X45000000Y-61184314D02*
X44800000Y-61384315D01*
%TO.N,unconnected-(U1-PA5-Pad15)*%
X45200000Y-71250000D02*
X50000000Y-71250000D01*
X45758949Y-60241051D02*
X45750000Y-60250000D01*
X45758949Y-59747017D02*
X45758949Y-60241051D01*
X45750000Y-60250000D02*
X45750000Y-61000000D01*
X45200000Y-61550000D02*
X45200000Y-71250000D01*
X50000000Y-71250000D02*
X51000000Y-72250000D01*
X45750000Y-61000000D02*
X45200000Y-61550000D01*
%TO.N,unconnected-(U1-PA6-Pad16)*%
X46554433Y-59662132D02*
X46554433Y-62804433D01*
X46554433Y-62804433D02*
X47000000Y-63250000D01*
%TO.N,unconnected-(U1-PA7-Pad17)*%
X51000000Y-62500000D02*
X51000000Y-63250000D01*
X49827153Y-61400000D02*
X49900000Y-61400000D01*
X49900000Y-61400000D02*
X51000000Y-62500000D01*
X48786598Y-60359445D02*
X49827153Y-61400000D01*
X48786598Y-59689003D02*
X48786598Y-60359445D01*
%TO.N,unconnected-(U1-PB0-Pad18)*%
X44325000Y-82316471D02*
X44500000Y-82141471D01*
X44600000Y-76715685D02*
X44600000Y-72731372D01*
X44000000Y-61352945D02*
X43648991Y-61001936D01*
X44500000Y-79498529D02*
X44325000Y-79323529D01*
X44500000Y-82141471D02*
X44500000Y-79498529D01*
X51000000Y-84250000D02*
X45761471Y-84250000D01*
X44676471Y-78475000D02*
X44749999Y-78475000D01*
X44325000Y-82813529D02*
X44325000Y-82316471D01*
X45600462Y-58250000D02*
X46750000Y-58250000D01*
X44325000Y-79323529D02*
X44325000Y-78826471D01*
X43648991Y-61001936D02*
X43648991Y-60201471D01*
X44750000Y-76865686D02*
X44600000Y-76715685D01*
X44000000Y-72131371D02*
X44000000Y-61352945D01*
X44600000Y-72731372D02*
X44000000Y-72131371D01*
X44325000Y-78826471D02*
X44676471Y-78475000D01*
X45761471Y-84250000D02*
X44325000Y-82813529D01*
X44749999Y-78475000D02*
X44750000Y-76865686D01*
X43648991Y-60201471D02*
X45600462Y-58250000D01*
%TO.N,unconnected-(U1-PB1-Pad19)*%
X47750000Y-61450000D02*
X48367848Y-61450000D01*
X47375000Y-58688351D02*
X47375000Y-61075000D01*
X47375000Y-61075000D02*
X47750000Y-61450000D01*
X47476544Y-58586807D02*
X47375000Y-58688351D01*
X48367848Y-61450000D02*
X48800000Y-61882152D01*
X48800000Y-65950000D02*
X47000000Y-67750000D01*
X48800000Y-61882152D02*
X48800000Y-65950000D01*
%TO.N,unconnected-(U1-PB2-Pad20)*%
X47000000Y-76250000D02*
X51137266Y-76250000D01*
X52250000Y-70832152D02*
X52250000Y-68500000D01*
X51137266Y-76250000D02*
X52250000Y-75137266D01*
X52250000Y-75137266D02*
X52250000Y-73667848D01*
X49200000Y-61425000D02*
X48099278Y-60324278D01*
X52300000Y-70882152D02*
X52250000Y-70832152D01*
X52300000Y-73617848D02*
X52300000Y-70882152D01*
X52250000Y-73667848D02*
X52300000Y-73617848D01*
X48099278Y-60324278D02*
X48099278Y-59089003D01*
X52250000Y-68500000D02*
X49200000Y-65450000D01*
X49200000Y-65450000D02*
X49200000Y-61425000D01*
%TO.N,unconnected-(U1-PB10-Pad21)*%
X50000000Y-57750000D02*
X51000000Y-58750000D01*
X48500000Y-57750000D02*
X50000000Y-57750000D01*
%TO.N,unconnected-(U1-PB11-Pad22)*%
X52700000Y-73783533D02*
X52700000Y-70716466D01*
X51000000Y-80750000D02*
X52500000Y-79250000D01*
X52800000Y-64617848D02*
X52800000Y-61882152D01*
X52500000Y-64917848D02*
X52800000Y-64617848D01*
X52500000Y-79250000D02*
X52500000Y-75452951D01*
X52800000Y-57382152D02*
X52167848Y-56750000D01*
X52700000Y-70716466D02*
X52650000Y-70666467D01*
X52500000Y-60417848D02*
X52800000Y-60117848D01*
X52500000Y-75452951D02*
X52650000Y-75302951D01*
X52500000Y-68184315D02*
X52500000Y-64917848D01*
X52500000Y-61582152D02*
X52500000Y-60417848D01*
X52650000Y-75302951D02*
X52650000Y-73833533D01*
X52650000Y-68334314D02*
X52500000Y-68184315D01*
X52650000Y-73833533D02*
X52700000Y-73783533D01*
X52800000Y-60117848D02*
X52800000Y-57382152D01*
X52800000Y-61882152D02*
X52500000Y-61582152D01*
X52167848Y-56750000D02*
X48250000Y-56750000D01*
X52650000Y-70666467D02*
X52650000Y-68334314D01*
%TO.N,unconnected-(U1-PB12-Pad25)*%
X51000000Y-50750000D02*
X51000000Y-49750000D01*
X49658566Y-52091434D02*
X51000000Y-50750000D01*
X49658566Y-52250000D02*
X49658566Y-52091434D01*
%TO.N,unconnected-(U1-PB13-Pad26)*%
X44200000Y-72897057D02*
X43600000Y-72297056D01*
X43248991Y-60035785D02*
X45434777Y-57850000D01*
X43925000Y-81800785D02*
X43750000Y-81625785D01*
X50300000Y-87050000D02*
X49632152Y-87050000D01*
X43750000Y-81625785D02*
X43750000Y-78323530D01*
X43750000Y-78323530D02*
X43550000Y-78123530D01*
X45434777Y-57850000D02*
X45650000Y-57850000D01*
X49000000Y-86000000D02*
X47650000Y-84650000D01*
X43600000Y-61518631D02*
X43248991Y-61167621D01*
X49200000Y-86617848D02*
X49200000Y-86000000D01*
X43925000Y-82979214D02*
X43925000Y-81800785D01*
X45650000Y-57850000D02*
X48000000Y-55500000D01*
X45595785Y-84650000D02*
X43925000Y-82979214D01*
X44200000Y-76976472D02*
X44200000Y-72897057D01*
X49632152Y-87050000D02*
X49200000Y-86617848D01*
X51000000Y-87750000D02*
X50300000Y-87050000D01*
X47650000Y-84650000D02*
X45595785Y-84650000D01*
X43248991Y-61167621D02*
X43248991Y-60035785D01*
X49200000Y-86000000D02*
X49000000Y-86000000D01*
X48000000Y-55500000D02*
X48000000Y-52067826D01*
X43550000Y-77626472D02*
X44200000Y-76976472D01*
X43550000Y-78123530D02*
X43550000Y-77626472D01*
X43600000Y-72297056D02*
X43600000Y-61518631D01*
%TO.N,unconnected-(U1-PB14-Pad27)*%
X49750000Y-53000000D02*
X51000000Y-54250000D01*
X48633867Y-51433960D02*
X49058566Y-51858659D01*
X49058566Y-51858659D02*
X49058566Y-52941434D01*
X49058566Y-52941434D02*
X49000000Y-53000000D01*
X49000000Y-53000000D02*
X49750000Y-53000000D01*
%TO.N,unconnected-(U1-PB15-Pad28)*%
X45484314Y-57450000D02*
X45269091Y-57450000D01*
X42848991Y-59870099D02*
X42848991Y-79248991D01*
X48250000Y-89000000D02*
X48250000Y-89250000D01*
X42848991Y-79248991D02*
X41200000Y-80897982D01*
X47212500Y-87962500D02*
X48250000Y-89000000D01*
X46250000Y-56684314D02*
X45484314Y-57450000D01*
X48250000Y-89250000D02*
X50250000Y-91250000D01*
X46250000Y-52969297D02*
X46250000Y-56684314D01*
X48719297Y-50500000D02*
X46250000Y-52969297D01*
X47212500Y-87905248D02*
X47212500Y-87962500D01*
X41200000Y-85750000D02*
X41250000Y-85750000D01*
X48750000Y-50500000D02*
X48719297Y-50500000D01*
X50250000Y-91250000D02*
X51000000Y-91250000D01*
X41200000Y-80897982D02*
X41200000Y-85750000D01*
X45269091Y-57450000D02*
X42848991Y-59870099D01*
%TO.N,unconnected-(U1-PA8-Pad29)*%
X35000000Y-91250000D02*
X34000000Y-91250000D01*
X44300000Y-54327983D02*
X44300000Y-57853405D01*
X40800000Y-80732297D02*
X40800000Y-81765686D01*
X36000000Y-88550000D02*
X36000000Y-90250000D01*
X40800000Y-81765686D02*
X38125001Y-84440685D01*
X42250000Y-79282296D02*
X40800000Y-80732297D01*
X48008949Y-50619034D02*
X44300000Y-54327983D01*
X36000000Y-90250000D02*
X35000000Y-91250000D01*
X44300000Y-57853405D02*
X42250000Y-59903405D01*
X48008949Y-49997017D02*
X48008949Y-50619034D01*
X38125001Y-86424999D02*
X36000000Y-88550000D01*
X38125001Y-84440685D02*
X38125001Y-86424999D01*
X42250000Y-59903405D02*
X42250000Y-79282296D01*
%TO.N,unconnected-(U1-PA9-Pad30)*%
X46276865Y-50750000D02*
X44500000Y-50750000D01*
X47235951Y-49790914D02*
X46276865Y-50750000D01*
%TO.N,unconnected-(U1-PA10-Pad31)*%
X46600000Y-48950000D02*
X41300000Y-48950000D01*
X41300000Y-48950000D02*
X40500000Y-49750000D01*
X46782108Y-49132108D02*
X46600000Y-48950000D01*
%TO.N,unconnected-(U1-PA15-Pad38)*%
X41638137Y-52013333D02*
X41687402Y-52062598D01*
X41812597Y-52062598D02*
X42500000Y-52750001D01*
X42500000Y-52750001D02*
X42500000Y-54250000D01*
X41687402Y-52062598D02*
X41812597Y-52062598D01*
%TO.N,unconnected-(U1-PB3-Pad39)*%
X34750000Y-77750000D02*
X34725000Y-77775000D01*
X34975000Y-77775000D02*
X34975000Y-79725000D01*
X32750000Y-76750000D02*
X33750000Y-77750000D01*
X33750000Y-77750000D02*
X34750000Y-77750000D01*
X34000000Y-79725000D02*
X34000000Y-80750000D01*
X34725000Y-77775000D02*
X34975000Y-77775000D01*
X34975000Y-79725000D02*
X34000000Y-79725000D01*
%TO.N,unconnected-(U1-PB4-Pad40)*%
X34000000Y-76750000D02*
X38000000Y-76750000D01*
X32625000Y-75375000D02*
X34000000Y-76750000D01*
%TO.N,unconnected-(U1-PB5-Pad41)*%
X33137997Y-74387997D02*
X33250000Y-74500000D01*
X33250000Y-74500000D02*
X36750000Y-74500000D01*
X36750000Y-74500000D02*
X38000000Y-73250000D01*
%TO.N,unconnected-(U1-PB6-Pad42)*%
X39800000Y-64617848D02*
X39750000Y-64667848D01*
X39300000Y-61382152D02*
X39800000Y-61882152D01*
X39750000Y-64667848D02*
X39750000Y-65332152D01*
X39750000Y-65332152D02*
X39800000Y-65382152D01*
X39750000Y-68167848D02*
X39750000Y-68751470D01*
X38567848Y-60650000D02*
X38948529Y-60650000D01*
X37858580Y-49327213D02*
X37681368Y-49150001D01*
X39800000Y-61882152D02*
X39800000Y-64617848D01*
X39448530Y-71050000D02*
X35700000Y-71050000D01*
X37500000Y-49184323D02*
X37500000Y-52184314D01*
X37500000Y-52184314D02*
X38500000Y-53184314D01*
X39800000Y-70698530D02*
X39448530Y-71050000D01*
X37534322Y-49150001D02*
X37500000Y-49184323D01*
X38948529Y-60650000D02*
X39300000Y-61001471D01*
X39300000Y-61001471D02*
X39300000Y-61382152D01*
X38500000Y-60582152D02*
X38567848Y-60650000D01*
X35700000Y-71050000D02*
X34500000Y-72250000D01*
X38500000Y-53184314D02*
X38500000Y-60582152D01*
X37681368Y-49150001D02*
X37534322Y-49150001D01*
X39750000Y-68751470D02*
X39800000Y-68801470D01*
X39800000Y-68801470D02*
X39800000Y-70698530D01*
X39800000Y-68117848D02*
X39750000Y-68167848D01*
X39800000Y-65382152D02*
X39800000Y-68117848D01*
%TO.N,unconnected-(U1-PB7-Pad43)*%
X35499999Y-49750000D02*
X34000000Y-49750000D01*
X35949999Y-49300000D02*
X35499999Y-49750000D01*
X36431878Y-49300000D02*
X35949999Y-49300000D01*
%TO.N,unconnected-(U1-PB8-Pad45)*%
X34550000Y-52450000D02*
X36500000Y-50500000D01*
X32916076Y-65333924D02*
X31850000Y-64267848D01*
X31850000Y-53232152D02*
X32632152Y-52450000D01*
X31850000Y-64267848D02*
X31850000Y-53232152D01*
X36000000Y-66750000D02*
X38000000Y-66750000D01*
X32632152Y-52450000D02*
X34550000Y-52450000D01*
X34500000Y-65333924D02*
X32916076Y-65333924D01*
%TO.N,unconnected-(U1-PB9-Pad46)*%
X38100000Y-53350000D02*
X36500000Y-51750000D01*
X38100000Y-63150000D02*
X38100000Y-53350000D01*
X38000000Y-63250000D02*
X38100000Y-63150000D01*
%TD*%
%TA.AperFunction,Conductor*%
%TO.N,GND*%
G36*
X52254418Y-47750816D02*
G01*
X52454561Y-47765130D01*
X52472063Y-47767647D01*
X52663795Y-47809355D01*
X52680760Y-47814336D01*
X52864611Y-47882909D01*
X52880694Y-47890253D01*
X53052908Y-47984290D01*
X53067791Y-47993855D01*
X53224864Y-48111438D01*
X53238235Y-48123024D01*
X53376975Y-48261764D01*
X53388561Y-48275135D01*
X53506144Y-48432208D01*
X53515709Y-48447091D01*
X53609743Y-48619300D01*
X53617093Y-48635394D01*
X53685661Y-48819234D01*
X53690645Y-48836209D01*
X53732351Y-49027931D01*
X53734869Y-49045442D01*
X53749184Y-49245580D01*
X53749500Y-49254427D01*
X53749500Y-92995572D01*
X53749184Y-93004419D01*
X53734869Y-93204557D01*
X53732351Y-93222068D01*
X53690645Y-93413790D01*
X53685661Y-93430765D01*
X53617093Y-93614605D01*
X53609743Y-93630699D01*
X53515709Y-93802908D01*
X53506144Y-93817791D01*
X53388561Y-93974864D01*
X53376975Y-93988235D01*
X53238235Y-94126975D01*
X53224864Y-94138561D01*
X53067791Y-94256144D01*
X53052908Y-94265709D01*
X52880699Y-94359743D01*
X52864605Y-94367093D01*
X52680765Y-94435661D01*
X52663790Y-94440645D01*
X52472068Y-94482351D01*
X52454557Y-94484869D01*
X52273779Y-94497799D01*
X52254417Y-94499184D01*
X52245572Y-94499500D01*
X47870717Y-94499500D01*
X47803678Y-94479815D01*
X47757923Y-94427011D01*
X47747979Y-94357853D01*
X47756156Y-94328048D01*
X47781569Y-94266693D01*
X47781572Y-94266681D01*
X47819999Y-94073495D01*
X47820000Y-94073492D01*
X47820000Y-93825000D01*
X47120000Y-93825000D01*
X47120000Y-93325000D01*
X47820000Y-93325000D01*
X47820000Y-93076508D01*
X47819999Y-93076504D01*
X47781572Y-92883318D01*
X47781569Y-92883306D01*
X47706192Y-92701328D01*
X47706185Y-92701315D01*
X47596751Y-92537537D01*
X47596748Y-92537533D01*
X47457466Y-92398251D01*
X47457462Y-92398248D01*
X47293684Y-92288814D01*
X47293671Y-92288807D01*
X47111691Y-92213429D01*
X47111683Y-92213427D01*
X47070000Y-92205135D01*
X47070000Y-93008011D01*
X47060060Y-92990795D01*
X47004205Y-92934940D01*
X46935796Y-92895444D01*
X46859496Y-92875000D01*
X46780504Y-92875000D01*
X46704204Y-92895444D01*
X46635795Y-92934940D01*
X46579940Y-92990795D01*
X46570000Y-93008011D01*
X46570000Y-92205136D01*
X46569999Y-92205135D01*
X46528316Y-92213427D01*
X46528308Y-92213429D01*
X46346328Y-92288807D01*
X46346315Y-92288814D01*
X46182537Y-92398248D01*
X46182533Y-92398251D01*
X46043251Y-92537533D01*
X46043248Y-92537537D01*
X45933814Y-92701315D01*
X45933807Y-92701328D01*
X45858430Y-92883306D01*
X45858427Y-92883318D01*
X45820000Y-93076504D01*
X45820000Y-93325000D01*
X46520000Y-93325000D01*
X46520000Y-93825000D01*
X45820000Y-93825000D01*
X45820000Y-94073495D01*
X45858427Y-94266681D01*
X45858430Y-94266693D01*
X45883844Y-94328048D01*
X45891313Y-94397517D01*
X45860037Y-94459996D01*
X45799948Y-94495648D01*
X45769283Y-94499500D01*
X39230717Y-94499500D01*
X39163678Y-94479815D01*
X39117923Y-94427011D01*
X39107979Y-94357853D01*
X39116156Y-94328048D01*
X39141569Y-94266693D01*
X39141572Y-94266681D01*
X39179999Y-94073495D01*
X39180000Y-94073492D01*
X39180000Y-93825000D01*
X38480000Y-93825000D01*
X38480000Y-93325000D01*
X39180000Y-93325000D01*
X39180000Y-93076508D01*
X39179999Y-93076504D01*
X39141572Y-92883318D01*
X39141569Y-92883306D01*
X39066192Y-92701328D01*
X39066185Y-92701315D01*
X38956751Y-92537537D01*
X38956748Y-92537533D01*
X38817466Y-92398251D01*
X38817462Y-92398248D01*
X38653684Y-92288814D01*
X38653671Y-92288807D01*
X38471691Y-92213429D01*
X38471683Y-92213427D01*
X38430000Y-92205135D01*
X38430000Y-93008011D01*
X38420060Y-92990795D01*
X38364205Y-92934940D01*
X38295796Y-92895444D01*
X38219496Y-92875000D01*
X38140504Y-92875000D01*
X38064204Y-92895444D01*
X37995795Y-92934940D01*
X37939940Y-92990795D01*
X37930000Y-93008011D01*
X37930000Y-92205136D01*
X37929999Y-92205135D01*
X37888316Y-92213427D01*
X37888308Y-92213429D01*
X37706328Y-92288807D01*
X37706315Y-92288814D01*
X37542537Y-92398248D01*
X37542533Y-92398251D01*
X37403251Y-92537533D01*
X37403248Y-92537537D01*
X37293814Y-92701315D01*
X37293807Y-92701328D01*
X37218430Y-92883306D01*
X37218427Y-92883318D01*
X37180000Y-93076504D01*
X37180000Y-93325000D01*
X37880000Y-93325000D01*
X37880000Y-93825000D01*
X37180000Y-93825000D01*
X37180000Y-94073495D01*
X37218427Y-94266681D01*
X37218430Y-94266693D01*
X37243844Y-94328048D01*
X37251313Y-94397517D01*
X37220037Y-94459996D01*
X37159948Y-94495648D01*
X37129283Y-94499500D01*
X33004428Y-94499500D01*
X32995582Y-94499184D01*
X32973622Y-94497613D01*
X32795442Y-94484869D01*
X32777931Y-94482351D01*
X32586209Y-94440645D01*
X32569234Y-94435661D01*
X32385394Y-94367093D01*
X32369300Y-94359743D01*
X32197091Y-94265709D01*
X32182208Y-94256144D01*
X32025135Y-94138561D01*
X32011764Y-94126975D01*
X31873024Y-93988235D01*
X31861438Y-93974864D01*
X31743855Y-93817791D01*
X31734290Y-93802908D01*
X31640253Y-93630694D01*
X31632909Y-93614611D01*
X31564336Y-93430760D01*
X31559354Y-93413790D01*
X31545481Y-93350018D01*
X31517647Y-93222063D01*
X31515130Y-93204556D01*
X31510191Y-93135504D01*
X31500816Y-93004418D01*
X31500500Y-92995572D01*
X31500500Y-68668995D01*
X33405394Y-68668995D01*
X33432313Y-68804322D01*
X33432316Y-68804332D01*
X33485116Y-68931804D01*
X33485123Y-68931817D01*
X33561780Y-69046541D01*
X33561783Y-69046545D01*
X33659349Y-69144111D01*
X33659353Y-69144114D01*
X33774077Y-69220771D01*
X33774090Y-69220778D01*
X33901562Y-69273578D01*
X33901567Y-69273580D01*
X33901571Y-69273580D01*
X33901572Y-69273581D01*
X34036899Y-69300500D01*
X34036902Y-69300500D01*
X34174890Y-69300500D01*
X34265936Y-69282389D01*
X34310223Y-69273580D01*
X34437706Y-69220775D01*
X34552437Y-69144114D01*
X34650009Y-69046542D01*
X34726670Y-68931811D01*
X34779475Y-68804328D01*
X34796795Y-68717255D01*
X34806395Y-68668995D01*
X34806395Y-68531004D01*
X34779476Y-68395677D01*
X34779475Y-68395676D01*
X34779475Y-68395672D01*
X34745665Y-68314047D01*
X34726673Y-68268195D01*
X34726666Y-68268182D01*
X34650009Y-68153458D01*
X34650006Y-68153454D01*
X34552440Y-68055888D01*
X34552436Y-68055885D01*
X34437712Y-67979228D01*
X34437699Y-67979221D01*
X34310227Y-67926421D01*
X34310217Y-67926418D01*
X34174890Y-67899500D01*
X34174888Y-67899500D01*
X34036902Y-67899500D01*
X34036900Y-67899500D01*
X33901572Y-67926418D01*
X33901562Y-67926421D01*
X33774090Y-67979221D01*
X33774077Y-67979228D01*
X33659353Y-68055885D01*
X33659349Y-68055888D01*
X33561783Y-68153454D01*
X33561780Y-68153458D01*
X33485123Y-68268182D01*
X33485116Y-68268195D01*
X33432316Y-68395667D01*
X33432313Y-68395677D01*
X33405395Y-68531004D01*
X33405395Y-68531007D01*
X33405395Y-68668993D01*
X33405395Y-68668995D01*
X33405394Y-68668995D01*
X31500500Y-68668995D01*
X31500500Y-64784103D01*
X31520185Y-64717064D01*
X31572989Y-64671309D01*
X31642147Y-64661365D01*
X31705703Y-64690390D01*
X31712181Y-64696422D01*
X32670163Y-65654404D01*
X32761488Y-65707131D01*
X32863349Y-65734424D01*
X33999902Y-65734424D01*
X34066941Y-65754109D01*
X34087583Y-65770743D01*
X34131284Y-65814444D01*
X34131286Y-65814445D01*
X34131290Y-65814448D01*
X34268209Y-65893497D01*
X34268216Y-65893501D01*
X34420943Y-65934424D01*
X34420945Y-65934424D01*
X34579055Y-65934424D01*
X34579057Y-65934424D01*
X34731784Y-65893501D01*
X34868716Y-65814444D01*
X34980520Y-65702640D01*
X35059577Y-65565708D01*
X35100500Y-65412981D01*
X35100500Y-65254867D01*
X35084873Y-65196546D01*
X35086536Y-65126699D01*
X35125698Y-65068836D01*
X35189927Y-65041332D01*
X35192048Y-65041097D01*
X35202797Y-65039999D01*
X35369334Y-64984814D01*
X35518656Y-64892712D01*
X35642712Y-64768656D01*
X35734814Y-64619334D01*
X35789999Y-64452797D01*
X35800500Y-64350009D01*
X35800499Y-62149992D01*
X35789999Y-62047203D01*
X35734814Y-61880666D01*
X35642712Y-61731344D01*
X35518656Y-61607288D01*
X35369334Y-61515186D01*
X35202797Y-61460001D01*
X35202795Y-61460000D01*
X35148095Y-61454412D01*
X35083404Y-61428015D01*
X35043253Y-61370834D01*
X35040391Y-61301023D01*
X35073015Y-61243377D01*
X35329575Y-60986816D01*
X35390897Y-60953334D01*
X35417255Y-60950500D01*
X35420573Y-60950500D01*
X35420575Y-60950500D01*
X35522436Y-60923207D01*
X35613761Y-60870480D01*
X36120480Y-60363761D01*
X36173207Y-60272436D01*
X36200500Y-60170575D01*
X36200500Y-60065121D01*
X36200500Y-59167255D01*
X36220185Y-59100216D01*
X36236819Y-59079574D01*
X37429574Y-57886819D01*
X37456501Y-57872115D01*
X37482320Y-57855523D01*
X37488520Y-57854631D01*
X37490897Y-57853334D01*
X37517255Y-57850500D01*
X37575500Y-57850500D01*
X37642539Y-57870185D01*
X37688294Y-57922989D01*
X37699500Y-57974500D01*
X37699500Y-61325500D01*
X37679815Y-61392539D01*
X37627011Y-61438294D01*
X37575500Y-61449500D01*
X36899998Y-61449500D01*
X36899980Y-61449501D01*
X36797203Y-61460000D01*
X36797200Y-61460001D01*
X36630668Y-61515185D01*
X36630663Y-61515187D01*
X36481342Y-61607289D01*
X36357289Y-61731342D01*
X36265187Y-61880663D01*
X36265186Y-61880666D01*
X36210001Y-62047203D01*
X36210001Y-62047204D01*
X36210000Y-62047204D01*
X36199500Y-62149983D01*
X36199500Y-64350001D01*
X36199501Y-64350018D01*
X36210000Y-64452796D01*
X36210001Y-64452799D01*
X36265185Y-64619331D01*
X36265187Y-64619336D01*
X36357289Y-64768657D01*
X36481346Y-64892714D01*
X36484182Y-64894463D01*
X36485717Y-64896170D01*
X36487011Y-64897193D01*
X36486836Y-64897414D01*
X36530905Y-64946411D01*
X36542126Y-65015374D01*
X36514282Y-65079456D01*
X36484182Y-65105537D01*
X36481346Y-65107285D01*
X36357289Y-65231342D01*
X36265187Y-65380663D01*
X36265185Y-65380668D01*
X36254478Y-65412980D01*
X36210001Y-65547203D01*
X36210001Y-65547204D01*
X36210000Y-65547204D01*
X36199500Y-65649983D01*
X36199500Y-66025500D01*
X36179815Y-66092539D01*
X36127011Y-66138294D01*
X36075500Y-66149500D01*
X35920943Y-66149500D01*
X35768216Y-66190423D01*
X35768209Y-66190426D01*
X35631290Y-66269475D01*
X35631282Y-66269481D01*
X35519481Y-66381282D01*
X35519475Y-66381290D01*
X35440426Y-66518209D01*
X35440423Y-66518216D01*
X35399500Y-66670943D01*
X35399500Y-66829056D01*
X35440423Y-66981783D01*
X35440426Y-66981790D01*
X35519475Y-67118709D01*
X35519479Y-67118714D01*
X35519480Y-67118716D01*
X35631284Y-67230520D01*
X35631286Y-67230521D01*
X35631290Y-67230524D01*
X35768209Y-67309573D01*
X35768216Y-67309577D01*
X35920943Y-67350500D01*
X35920945Y-67350500D01*
X36075500Y-67350500D01*
X36142539Y-67370185D01*
X36188294Y-67422989D01*
X36199500Y-67474500D01*
X36199500Y-67850001D01*
X36199501Y-67850019D01*
X36210000Y-67952796D01*
X36210001Y-67952799D01*
X36265185Y-68119331D01*
X36265189Y-68119340D01*
X36343717Y-68246655D01*
X36362157Y-68314047D01*
X36341234Y-68380711D01*
X36304154Y-68416742D01*
X36298056Y-68420573D01*
X36298051Y-68420577D01*
X36170577Y-68548051D01*
X36074663Y-68700698D01*
X36015122Y-68870858D01*
X36000000Y-69005069D01*
X36000000Y-69500000D01*
X37876000Y-69500000D01*
X37943039Y-69519685D01*
X37988794Y-69572489D01*
X38000000Y-69624000D01*
X38000000Y-69876000D01*
X37980315Y-69943039D01*
X37927511Y-69988794D01*
X37876000Y-70000000D01*
X36000000Y-70000000D01*
X36000000Y-70386764D01*
X35980315Y-70453803D01*
X35927511Y-70499558D01*
X35858353Y-70509502D01*
X35836996Y-70504470D01*
X35782302Y-70486346D01*
X35702797Y-70460001D01*
X35702795Y-70460000D01*
X35600010Y-70449500D01*
X33399998Y-70449500D01*
X33399981Y-70449501D01*
X33297203Y-70460000D01*
X33297200Y-70460001D01*
X33130668Y-70515185D01*
X33130663Y-70515187D01*
X32981342Y-70607289D01*
X32857289Y-70731342D01*
X32765187Y-70880663D01*
X32765186Y-70880666D01*
X32710001Y-71047203D01*
X32710001Y-71047204D01*
X32710000Y-71047204D01*
X32699500Y-71149983D01*
X32699500Y-73350001D01*
X32699501Y-73350018D01*
X32710000Y-73452796D01*
X32710001Y-73452799D01*
X32765185Y-73619331D01*
X32765186Y-73619334D01*
X32830300Y-73724902D01*
X32848740Y-73792293D01*
X32827817Y-73858956D01*
X32786763Y-73897383D01*
X32769284Y-73907474D01*
X32769279Y-73907478D01*
X32657478Y-74019279D01*
X32657472Y-74019287D01*
X32578423Y-74156206D01*
X32578420Y-74156213D01*
X32537497Y-74308940D01*
X32537497Y-74467053D01*
X32578421Y-74619787D01*
X32578752Y-74620584D01*
X32578830Y-74621309D01*
X32580524Y-74627632D01*
X32579537Y-74627896D01*
X32586218Y-74690053D01*
X32554940Y-74752531D01*
X32496283Y-74787806D01*
X32393214Y-74815423D01*
X32393209Y-74815426D01*
X32256290Y-74894475D01*
X32256282Y-74894481D01*
X32144481Y-75006282D01*
X32144475Y-75006290D01*
X32065426Y-75143209D01*
X32065423Y-75143216D01*
X32024500Y-75295943D01*
X32024500Y-75454057D01*
X32064764Y-75604322D01*
X32065423Y-75606783D01*
X32065426Y-75606790D01*
X32144475Y-75743709D01*
X32144479Y-75743714D01*
X32144480Y-75743716D01*
X32256284Y-75855520D01*
X32256286Y-75855521D01*
X32256290Y-75855524D01*
X32393209Y-75934573D01*
X32393216Y-75934577D01*
X32492100Y-75961073D01*
X32551760Y-75997437D01*
X32582289Y-76060284D01*
X32573994Y-76129659D01*
X32529509Y-76183537D01*
X32522006Y-76188234D01*
X32381287Y-76269477D01*
X32381282Y-76269481D01*
X32269481Y-76381282D01*
X32269475Y-76381290D01*
X32190426Y-76518209D01*
X32190423Y-76518216D01*
X32149500Y-76670943D01*
X32149500Y-76829057D01*
X32154281Y-76846898D01*
X32190423Y-76981783D01*
X32190426Y-76981790D01*
X32269475Y-77118709D01*
X32269479Y-77118714D01*
X32269480Y-77118716D01*
X32381284Y-77230520D01*
X32381286Y-77230521D01*
X32381290Y-77230524D01*
X32457460Y-77274500D01*
X32518216Y-77309577D01*
X32670943Y-77350500D01*
X32732745Y-77350500D01*
X32762185Y-77359144D01*
X32792172Y-77365668D01*
X32797187Y-77369422D01*
X32799784Y-77370185D01*
X32820426Y-77386819D01*
X32971933Y-77538326D01*
X33005418Y-77599649D01*
X33000434Y-77669341D01*
X32971937Y-77713684D01*
X32967811Y-77717810D01*
X32881649Y-77832906D01*
X32881645Y-77832913D01*
X32831403Y-77967620D01*
X32831401Y-77967627D01*
X32825000Y-78027155D01*
X32825000Y-78500000D01*
X33684314Y-78500000D01*
X33679920Y-78504394D01*
X33627259Y-78595606D01*
X33600000Y-78697339D01*
X33600000Y-78802661D01*
X33627259Y-78904394D01*
X33679920Y-78995606D01*
X33684314Y-79000000D01*
X32825000Y-79000000D01*
X32825000Y-79472844D01*
X32831401Y-79532372D01*
X32831403Y-79532379D01*
X32881645Y-79667086D01*
X32881647Y-79667089D01*
X32948038Y-79755775D01*
X32972456Y-79821239D01*
X32957605Y-79889513D01*
X32908200Y-79938918D01*
X32861375Y-79953445D01*
X32797202Y-79960001D01*
X32797200Y-79960001D01*
X32630668Y-80015185D01*
X32630663Y-80015187D01*
X32481342Y-80107289D01*
X32357289Y-80231342D01*
X32265187Y-80380663D01*
X32265186Y-80380666D01*
X32210001Y-80547203D01*
X32210001Y-80547204D01*
X32210000Y-80547204D01*
X32199500Y-80649983D01*
X32199500Y-82850001D01*
X32199501Y-82850018D01*
X32210000Y-82952796D01*
X32210001Y-82952799D01*
X32265185Y-83119331D01*
X32265187Y-83119336D01*
X32357289Y-83268657D01*
X32481346Y-83392714D01*
X32484182Y-83394463D01*
X32485717Y-83396170D01*
X32487011Y-83397193D01*
X32486836Y-83397414D01*
X32530905Y-83446411D01*
X32542126Y-83515374D01*
X32514282Y-83579456D01*
X32484182Y-83605537D01*
X32481346Y-83607285D01*
X32357289Y-83731342D01*
X32265187Y-83880663D01*
X32265186Y-83880666D01*
X32210001Y-84047203D01*
X32210001Y-84047204D01*
X32210000Y-84047204D01*
X32199500Y-84149983D01*
X32199500Y-86350001D01*
X32199501Y-86350018D01*
X32210000Y-86452796D01*
X32210001Y-86452799D01*
X32265185Y-86619331D01*
X32265187Y-86619336D01*
X32296999Y-86670911D01*
X32357012Y-86768209D01*
X32357289Y-86768657D01*
X32481346Y-86892714D01*
X32484182Y-86894463D01*
X32485717Y-86896170D01*
X32487011Y-86897193D01*
X32486836Y-86897414D01*
X32530905Y-86946411D01*
X32542126Y-87015374D01*
X32514282Y-87079456D01*
X32484182Y-87105537D01*
X32481346Y-87107285D01*
X32357289Y-87231342D01*
X32265187Y-87380663D01*
X32265186Y-87380666D01*
X32210001Y-87547203D01*
X32210001Y-87547204D01*
X32210000Y-87547204D01*
X32199500Y-87649983D01*
X32199500Y-89850001D01*
X32199501Y-89850018D01*
X32210000Y-89952796D01*
X32210001Y-89952799D01*
X32215955Y-89970766D01*
X32265186Y-90119334D01*
X32344772Y-90248365D01*
X32357289Y-90268657D01*
X32481346Y-90392714D01*
X32484182Y-90394463D01*
X32485717Y-90396170D01*
X32487011Y-90397193D01*
X32486836Y-90397414D01*
X32530905Y-90446411D01*
X32542126Y-90515374D01*
X32514282Y-90579456D01*
X32484182Y-90605537D01*
X32481346Y-90607285D01*
X32357289Y-90731342D01*
X32265187Y-90880663D01*
X32265186Y-90880666D01*
X32210001Y-91047203D01*
X32210001Y-91047204D01*
X32210000Y-91047204D01*
X32199500Y-91149983D01*
X32199500Y-93350001D01*
X32199501Y-93350018D01*
X32210000Y-93452796D01*
X32210001Y-93452799D01*
X32263619Y-93614605D01*
X32265186Y-93619334D01*
X32357288Y-93768656D01*
X32481344Y-93892712D01*
X32630666Y-93984814D01*
X32797203Y-94039999D01*
X32899991Y-94050500D01*
X35100008Y-94050499D01*
X35202797Y-94039999D01*
X35369334Y-93984814D01*
X35518656Y-93892712D01*
X35642712Y-93768656D01*
X35734814Y-93619334D01*
X35789999Y-93452797D01*
X35800500Y-93350009D01*
X35800499Y-92230524D01*
X35800499Y-91149998D01*
X35800498Y-91149981D01*
X35794058Y-91086937D01*
X35806828Y-91018245D01*
X35829732Y-90986658D01*
X36235703Y-90580688D01*
X36235708Y-90580684D01*
X36245911Y-90570480D01*
X36245913Y-90570480D01*
X36320480Y-90495913D01*
X36373207Y-90404587D01*
X36376831Y-90391064D01*
X36386357Y-90355514D01*
X36393722Y-90328025D01*
X36400501Y-90302727D01*
X36400501Y-90197273D01*
X36400501Y-90189678D01*
X36400500Y-90189660D01*
X36400500Y-88767255D01*
X36409144Y-88737814D01*
X36411605Y-88726504D01*
X37180000Y-88726504D01*
X37180000Y-89125000D01*
X37880000Y-89125000D01*
X37880000Y-89625000D01*
X37180000Y-89625000D01*
X37180000Y-90023495D01*
X37218427Y-90216681D01*
X37218430Y-90216693D01*
X37293807Y-90398671D01*
X37293814Y-90398684D01*
X37403248Y-90562462D01*
X37403251Y-90562466D01*
X37542533Y-90701748D01*
X37542537Y-90701751D01*
X37706315Y-90811185D01*
X37706328Y-90811192D01*
X37888308Y-90886569D01*
X37930000Y-90894862D01*
X37930000Y-90091988D01*
X37939940Y-90109205D01*
X37995795Y-90165060D01*
X38064204Y-90204556D01*
X38140504Y-90225000D01*
X38219496Y-90225000D01*
X38295796Y-90204556D01*
X38364205Y-90165060D01*
X38420060Y-90109205D01*
X38430000Y-90091988D01*
X38430000Y-90894862D01*
X38471690Y-90886569D01*
X38471692Y-90886569D01*
X38653671Y-90811192D01*
X38653684Y-90811185D01*
X38817462Y-90701751D01*
X38817466Y-90701748D01*
X38956748Y-90562466D01*
X38956751Y-90562462D01*
X39066181Y-90398690D01*
X39069037Y-90393346D01*
X39117993Y-90343495D01*
X39186128Y-90328025D01*
X39251811Y-90351847D01*
X39253895Y-90353412D01*
X39256632Y-90355512D01*
X39256635Y-90355515D01*
X39387865Y-90431281D01*
X39534234Y-90470500D01*
X39534236Y-90470500D01*
X39685764Y-90470500D01*
X39685766Y-90470500D01*
X39832135Y-90431281D01*
X39963365Y-90355515D01*
X40070515Y-90248365D01*
X40146281Y-90117135D01*
X40185500Y-89970766D01*
X40185500Y-89819234D01*
X40146281Y-89672865D01*
X40070515Y-89541635D01*
X39963365Y-89434485D01*
X39894430Y-89394685D01*
X39832136Y-89358719D01*
X39758950Y-89339109D01*
X39685766Y-89319500D01*
X39534234Y-89319500D01*
X39387863Y-89358719D01*
X39256635Y-89434485D01*
X39256632Y-89434487D01*
X39149487Y-89541632D01*
X39149483Y-89541638D01*
X39137150Y-89563000D01*
X39086583Y-89611216D01*
X39029763Y-89625000D01*
X38480000Y-89625000D01*
X38480000Y-89125000D01*
X39180000Y-89125000D01*
X39180000Y-88726508D01*
X39179999Y-88726504D01*
X39141572Y-88533318D01*
X39141569Y-88533306D01*
X39066192Y-88351328D01*
X39066185Y-88351315D01*
X38956751Y-88187537D01*
X38956748Y-88187533D01*
X38817466Y-88048251D01*
X38817462Y-88048248D01*
X38653684Y-87938814D01*
X38653671Y-87938807D01*
X38471691Y-87863429D01*
X38471683Y-87863427D01*
X38430000Y-87855135D01*
X38430000Y-88658011D01*
X38420060Y-88640795D01*
X38364205Y-88584940D01*
X38295796Y-88545444D01*
X38219496Y-88525000D01*
X38140504Y-88525000D01*
X38064204Y-88545444D01*
X37995795Y-88584940D01*
X37939940Y-88640795D01*
X37930000Y-88658011D01*
X37930000Y-87855136D01*
X37929999Y-87855135D01*
X37888316Y-87863427D01*
X37888308Y-87863429D01*
X37706328Y-87938807D01*
X37706315Y-87938814D01*
X37542537Y-88048248D01*
X37542533Y-88048251D01*
X37403251Y-88187533D01*
X37403248Y-88187537D01*
X37293814Y-88351315D01*
X37293807Y-88351328D01*
X37218430Y-88533306D01*
X37218427Y-88533318D01*
X37180000Y-88726504D01*
X36411605Y-88726504D01*
X36415668Y-88707828D01*
X36419422Y-88702812D01*
X36420185Y-88700216D01*
X36436819Y-88679574D01*
X38195450Y-86920943D01*
X41399500Y-86920943D01*
X41399500Y-87079057D01*
X41407065Y-87107288D01*
X41440423Y-87231783D01*
X41440426Y-87231790D01*
X41519475Y-87368709D01*
X41519481Y-87368717D01*
X41563181Y-87412417D01*
X41596666Y-87473740D01*
X41599500Y-87500098D01*
X41599500Y-91249902D01*
X41579815Y-91316941D01*
X41563181Y-91337583D01*
X41519481Y-91381282D01*
X41519475Y-91381290D01*
X41440426Y-91518209D01*
X41440423Y-91518216D01*
X41399500Y-91670943D01*
X41399500Y-91829056D01*
X41440423Y-91981783D01*
X41440426Y-91981790D01*
X41519475Y-92118709D01*
X41519479Y-92118714D01*
X41519480Y-92118716D01*
X41631284Y-92230520D01*
X41631286Y-92230521D01*
X41631290Y-92230524D01*
X41732241Y-92288807D01*
X41768216Y-92309577D01*
X41920943Y-92350500D01*
X41920945Y-92350500D01*
X42079055Y-92350500D01*
X42079057Y-92350500D01*
X42231784Y-92309577D01*
X42368716Y-92230520D01*
X42412319Y-92186917D01*
X42473642Y-92153432D01*
X42543334Y-92158416D01*
X42587681Y-92186917D01*
X42631284Y-92230520D01*
X42631286Y-92230521D01*
X42631290Y-92230524D01*
X42732241Y-92288807D01*
X42768216Y-92309577D01*
X42920943Y-92350500D01*
X42920945Y-92350500D01*
X43079055Y-92350500D01*
X43079057Y-92350500D01*
X43231784Y-92309577D01*
X43368716Y-92230520D01*
X43480520Y-92118716D01*
X43559577Y-91981784D01*
X43600500Y-91829057D01*
X43600500Y-91670943D01*
X43559577Y-91518216D01*
X43500000Y-91415024D01*
X43480524Y-91381290D01*
X43480518Y-91381282D01*
X43436819Y-91337583D01*
X43403334Y-91276260D01*
X43400500Y-91249902D01*
X43400500Y-87500098D01*
X43420185Y-87433059D01*
X43436819Y-87412417D01*
X43480520Y-87368716D01*
X43559577Y-87231784D01*
X43600500Y-87079057D01*
X43600500Y-86920943D01*
X43559577Y-86768216D01*
X43536785Y-86728739D01*
X43480524Y-86631290D01*
X43480518Y-86631282D01*
X43368717Y-86519481D01*
X43368709Y-86519475D01*
X43231790Y-86440426D01*
X43231786Y-86440424D01*
X43231784Y-86440423D01*
X43079057Y-86399500D01*
X42920943Y-86399500D01*
X42768216Y-86440423D01*
X42768209Y-86440426D01*
X42631290Y-86519475D01*
X42631282Y-86519481D01*
X42587681Y-86563083D01*
X42526358Y-86596568D01*
X42456666Y-86591584D01*
X42412319Y-86563083D01*
X42368717Y-86519481D01*
X42368709Y-86519475D01*
X42231790Y-86440426D01*
X42231786Y-86440424D01*
X42231784Y-86440423D01*
X42079057Y-86399500D01*
X41920943Y-86399500D01*
X41768216Y-86440423D01*
X41768209Y-86440426D01*
X41631290Y-86519475D01*
X41631282Y-86519481D01*
X41519481Y-86631282D01*
X41519475Y-86631290D01*
X41440426Y-86768209D01*
X41440423Y-86768216D01*
X41399500Y-86920943D01*
X38195450Y-86920943D01*
X38291258Y-86825135D01*
X38348184Y-86768209D01*
X38445481Y-86670912D01*
X38498208Y-86579587D01*
X38525501Y-86477726D01*
X38525501Y-86372272D01*
X38525501Y-84657940D01*
X38545186Y-84590901D01*
X38561820Y-84570259D01*
X40587819Y-82544260D01*
X40649142Y-82510775D01*
X40718834Y-82515759D01*
X40774767Y-82557631D01*
X40799184Y-82623095D01*
X40799500Y-82631941D01*
X40799500Y-85300069D01*
X40779815Y-85367108D01*
X40773875Y-85375557D01*
X40769475Y-85381290D01*
X40690426Y-85518209D01*
X40690423Y-85518216D01*
X40649500Y-85670943D01*
X40649500Y-85829056D01*
X40690423Y-85981783D01*
X40690426Y-85981790D01*
X40769475Y-86118709D01*
X40769479Y-86118714D01*
X40769480Y-86118716D01*
X40881284Y-86230520D01*
X40881286Y-86230521D01*
X40881290Y-86230524D01*
X41018209Y-86309573D01*
X41018216Y-86309577D01*
X41170943Y-86350500D01*
X41170945Y-86350500D01*
X41329055Y-86350500D01*
X41329057Y-86350500D01*
X41481784Y-86309577D01*
X41618716Y-86230520D01*
X41730520Y-86118716D01*
X41809577Y-85981784D01*
X41850500Y-85829057D01*
X41850500Y-85670943D01*
X41809577Y-85518216D01*
X41768195Y-85446539D01*
X41730524Y-85381290D01*
X41730518Y-85381282D01*
X41710917Y-85361681D01*
X41677432Y-85300358D01*
X41682416Y-85230666D01*
X41724288Y-85174733D01*
X41789752Y-85150316D01*
X41798598Y-85150000D01*
X41823871Y-85150000D01*
X41823873Y-85149999D01*
X41968760Y-85121179D01*
X41968775Y-85121175D01*
X42074024Y-85077578D01*
X42074024Y-85077577D01*
X42825975Y-85077577D01*
X42931236Y-85121178D01*
X42931240Y-85121179D01*
X43076126Y-85149999D01*
X43076129Y-85150000D01*
X43223871Y-85150000D01*
X43223873Y-85149999D01*
X43368760Y-85121179D01*
X43368775Y-85121175D01*
X43474024Y-85077578D01*
X43474024Y-85077577D01*
X43150001Y-84753554D01*
X43150000Y-84753554D01*
X42825975Y-85077577D01*
X42074024Y-85077577D01*
X41636819Y-84640372D01*
X41622115Y-84613444D01*
X41605523Y-84587626D01*
X41604631Y-84581425D01*
X41603334Y-84579049D01*
X41600500Y-84552691D01*
X41600500Y-84380109D01*
X41650000Y-84380109D01*
X41650000Y-84419891D01*
X41665224Y-84456645D01*
X41693355Y-84484776D01*
X41730109Y-84500000D01*
X41769891Y-84500000D01*
X41806645Y-84484776D01*
X41834776Y-84456645D01*
X41850000Y-84419891D01*
X41850000Y-84399999D01*
X42103554Y-84399999D01*
X42103554Y-84400001D01*
X42427929Y-84724376D01*
X42472069Y-84724376D01*
X42796446Y-84400000D01*
X42776555Y-84380109D01*
X43050000Y-84380109D01*
X43050000Y-84419891D01*
X43065224Y-84456645D01*
X43093355Y-84484776D01*
X43130109Y-84500000D01*
X43169891Y-84500000D01*
X43206645Y-84484776D01*
X43234776Y-84456645D01*
X43250000Y-84419891D01*
X43250000Y-84399999D01*
X43503554Y-84399999D01*
X43503554Y-84400001D01*
X43827577Y-84724024D01*
X43827578Y-84724024D01*
X43871175Y-84618775D01*
X43871179Y-84618760D01*
X43899999Y-84473873D01*
X43900000Y-84473871D01*
X43900000Y-84326128D01*
X43899999Y-84326126D01*
X43871179Y-84181240D01*
X43871178Y-84181236D01*
X43827577Y-84075975D01*
X43503554Y-84399999D01*
X43250000Y-84399999D01*
X43250000Y-84380109D01*
X43234776Y-84343355D01*
X43206645Y-84315224D01*
X43169891Y-84300000D01*
X43130109Y-84300000D01*
X43093355Y-84315224D01*
X43065224Y-84343355D01*
X43050000Y-84380109D01*
X42776555Y-84380109D01*
X42472068Y-84075622D01*
X42427930Y-84075622D01*
X42103554Y-84399999D01*
X41850000Y-84399999D01*
X41850000Y-84380109D01*
X41834776Y-84343355D01*
X41806645Y-84315224D01*
X41769891Y-84300000D01*
X41730109Y-84300000D01*
X41693355Y-84315224D01*
X41665224Y-84343355D01*
X41650000Y-84380109D01*
X41600500Y-84380109D01*
X41600500Y-84170446D01*
X41620185Y-84103407D01*
X41672989Y-84057652D01*
X41724500Y-84046446D01*
X41750000Y-84046446D01*
X41996446Y-83800000D01*
X42903554Y-83800000D01*
X43150000Y-84046446D01*
X43396446Y-83800000D01*
X43150000Y-83553554D01*
X42903554Y-83800000D01*
X41996446Y-83800000D01*
X41750000Y-83553554D01*
X41724500Y-83553554D01*
X41657461Y-83533869D01*
X41611706Y-83481065D01*
X41600500Y-83429554D01*
X41600500Y-83180109D01*
X41650000Y-83180109D01*
X41650000Y-83219891D01*
X41665224Y-83256645D01*
X41693355Y-83284776D01*
X41730109Y-83300000D01*
X41769891Y-83300000D01*
X41806645Y-83284776D01*
X41834776Y-83256645D01*
X41850000Y-83219891D01*
X41850000Y-83199999D01*
X42103554Y-83199999D01*
X42103554Y-83200001D01*
X42427929Y-83524376D01*
X42472069Y-83524376D01*
X42796446Y-83200000D01*
X42776555Y-83180109D01*
X43050000Y-83180109D01*
X43050000Y-83219891D01*
X43065224Y-83256645D01*
X43093355Y-83284776D01*
X43130109Y-83300000D01*
X43169891Y-83300000D01*
X43206645Y-83284776D01*
X43234776Y-83256645D01*
X43250000Y-83219891D01*
X43250000Y-83180109D01*
X43234776Y-83143355D01*
X43206645Y-83115224D01*
X43169891Y-83100000D01*
X43130109Y-83100000D01*
X43093355Y-83115224D01*
X43065224Y-83143355D01*
X43050000Y-83180109D01*
X42776555Y-83180109D01*
X42472068Y-82875622D01*
X42427930Y-82875622D01*
X42103554Y-83199999D01*
X41850000Y-83199999D01*
X41850000Y-83180109D01*
X41834776Y-83143355D01*
X41806645Y-83115224D01*
X41769891Y-83100000D01*
X41730109Y-83100000D01*
X41693355Y-83115224D01*
X41665224Y-83143355D01*
X41650000Y-83180109D01*
X41600500Y-83180109D01*
X41600500Y-82970446D01*
X41620185Y-82903407D01*
X41672989Y-82857652D01*
X41724500Y-82846446D01*
X41750000Y-82846446D01*
X41996446Y-82600000D01*
X41750000Y-82353554D01*
X41724500Y-82353554D01*
X41657461Y-82333869D01*
X41611706Y-82281065D01*
X41600500Y-82229554D01*
X41600500Y-81980109D01*
X41650000Y-81980109D01*
X41650000Y-82019891D01*
X41665224Y-82056645D01*
X41693355Y-82084776D01*
X41730109Y-82100000D01*
X41769891Y-82100000D01*
X41806645Y-82084776D01*
X41834776Y-82056645D01*
X41850000Y-82019891D01*
X41850000Y-81999999D01*
X42103554Y-81999999D01*
X42103554Y-82000001D01*
X42427929Y-82324376D01*
X42472069Y-82324376D01*
X42796446Y-82000000D01*
X42776555Y-81980109D01*
X43050000Y-81980109D01*
X43050000Y-82019891D01*
X43065224Y-82056645D01*
X43093355Y-82084776D01*
X43130109Y-82100000D01*
X43169891Y-82100000D01*
X43206645Y-82084776D01*
X43234776Y-82056645D01*
X43250000Y-82019891D01*
X43250000Y-81980109D01*
X43234776Y-81943355D01*
X43206645Y-81915224D01*
X43169891Y-81900000D01*
X43130109Y-81900000D01*
X43093355Y-81915224D01*
X43065224Y-81943355D01*
X43050000Y-81980109D01*
X42776555Y-81980109D01*
X42472068Y-81675622D01*
X42427930Y-81675622D01*
X42103554Y-81999999D01*
X41850000Y-81999999D01*
X41850000Y-81980109D01*
X41834776Y-81943355D01*
X41806645Y-81915224D01*
X41769891Y-81900000D01*
X41730109Y-81900000D01*
X41693355Y-81915224D01*
X41665224Y-81943355D01*
X41650000Y-81980109D01*
X41600500Y-81980109D01*
X41600500Y-81847308D01*
X41620185Y-81780269D01*
X41636819Y-81759627D01*
X42074024Y-81322421D01*
X41968767Y-81278822D01*
X41968759Y-81278820D01*
X41823872Y-81250000D01*
X41724500Y-81250000D01*
X41715814Y-81247449D01*
X41706853Y-81248738D01*
X41682812Y-81237759D01*
X41657461Y-81230315D01*
X41651533Y-81223474D01*
X41643297Y-81219713D01*
X41629007Y-81197478D01*
X41611706Y-81177511D01*
X41609418Y-81166996D01*
X41605523Y-81160935D01*
X41600500Y-81126000D01*
X41600500Y-81115237D01*
X41620185Y-81048198D01*
X41636819Y-81027556D01*
X43137819Y-79526556D01*
X43199142Y-79493071D01*
X43268834Y-79498055D01*
X43324767Y-79539927D01*
X43349184Y-79605391D01*
X43349500Y-79614237D01*
X43349500Y-81126000D01*
X43329815Y-81193039D01*
X43277011Y-81238794D01*
X43225500Y-81250000D01*
X43076128Y-81250000D01*
X42931240Y-81278820D01*
X42931228Y-81278823D01*
X42825974Y-81322420D01*
X42825974Y-81322421D01*
X43326777Y-81823223D01*
X43488181Y-81984627D01*
X43521666Y-82045950D01*
X43524500Y-82072308D01*
X43524500Y-82428692D01*
X43504815Y-82495731D01*
X43452011Y-82541486D01*
X43382853Y-82551430D01*
X43319297Y-82522405D01*
X43312819Y-82516373D01*
X43150000Y-82353554D01*
X42903554Y-82600000D01*
X43150000Y-82846446D01*
X43312819Y-82683627D01*
X43374142Y-82650142D01*
X43443834Y-82655126D01*
X43499767Y-82696998D01*
X43524184Y-82762462D01*
X43524500Y-82771308D01*
X43524500Y-83031942D01*
X43537059Y-83078815D01*
X43535395Y-83148665D01*
X43504966Y-83198587D01*
X43503554Y-83199999D01*
X43503554Y-83200001D01*
X43828131Y-83524578D01*
X43895420Y-83530599D01*
X43937701Y-83558308D01*
X45270964Y-84891571D01*
X45270974Y-84891582D01*
X45275304Y-84895912D01*
X45275305Y-84895913D01*
X45349872Y-84970480D01*
X45441198Y-85023207D01*
X45543058Y-85050501D01*
X45543060Y-85050501D01*
X45656108Y-85050501D01*
X45656124Y-85050500D01*
X47432745Y-85050500D01*
X47499784Y-85070185D01*
X47520426Y-85086819D01*
X48759834Y-86326227D01*
X48758149Y-86327911D01*
X48792187Y-86374523D01*
X48799500Y-86416476D01*
X48799500Y-86565121D01*
X48799500Y-86670575D01*
X48799591Y-86670914D01*
X48826793Y-86772437D01*
X48853156Y-86818098D01*
X48879520Y-86863761D01*
X48879522Y-86863763D01*
X49245923Y-87230164D01*
X49279408Y-87291487D01*
X49274424Y-87361179D01*
X49268125Y-87374061D01*
X49268240Y-87374115D01*
X49265188Y-87380660D01*
X49265186Y-87380665D01*
X49265186Y-87380666D01*
X49210001Y-87547203D01*
X49210001Y-87547204D01*
X49210000Y-87547204D01*
X49199500Y-87649983D01*
X49199500Y-89333745D01*
X49179815Y-89400784D01*
X49127011Y-89446539D01*
X49057853Y-89456483D01*
X48994297Y-89427458D01*
X48987819Y-89421426D01*
X48686820Y-89120427D01*
X48653335Y-89059104D01*
X48650501Y-89032746D01*
X48650501Y-88947274D01*
X48650501Y-88947273D01*
X48623207Y-88845413D01*
X48594628Y-88795913D01*
X48570480Y-88754087D01*
X48495913Y-88679520D01*
X48495910Y-88679518D01*
X48202160Y-88385768D01*
X47849319Y-88032926D01*
X47815834Y-87971603D01*
X47813000Y-87945245D01*
X47813000Y-87826193D01*
X47813000Y-87826191D01*
X47772077Y-87673464D01*
X47758519Y-87649981D01*
X47693024Y-87536538D01*
X47693018Y-87536530D01*
X47581217Y-87424729D01*
X47581209Y-87424723D01*
X47444290Y-87345674D01*
X47444286Y-87345672D01*
X47444284Y-87345671D01*
X47291557Y-87304748D01*
X47133443Y-87304748D01*
X46980716Y-87345671D01*
X46980709Y-87345674D01*
X46843790Y-87424723D01*
X46843782Y-87424729D01*
X46731981Y-87536530D01*
X46731975Y-87536538D01*
X46652926Y-87673457D01*
X46652923Y-87673462D01*
X46626129Y-87773461D01*
X46589764Y-87833121D01*
X46534014Y-87861235D01*
X46534143Y-87861660D01*
X46531707Y-87862399D01*
X46530547Y-87862984D01*
X46528315Y-87863427D01*
X46528306Y-87863430D01*
X46346328Y-87938807D01*
X46346315Y-87938814D01*
X46182537Y-88048248D01*
X46182533Y-88048251D01*
X46043251Y-88187533D01*
X46043248Y-88187537D01*
X45933814Y-88351315D01*
X45933807Y-88351328D01*
X45858430Y-88533306D01*
X45858427Y-88533318D01*
X45820000Y-88726504D01*
X45820000Y-89125000D01*
X46520000Y-89125000D01*
X46520000Y-89625000D01*
X45970237Y-89625000D01*
X45903198Y-89605315D01*
X45862850Y-89563000D01*
X45850515Y-89541635D01*
X45743365Y-89434485D01*
X45674430Y-89394685D01*
X45612136Y-89358719D01*
X45538950Y-89339109D01*
X45465766Y-89319500D01*
X45314234Y-89319500D01*
X45167863Y-89358719D01*
X45036635Y-89434485D01*
X45036632Y-89434487D01*
X44929487Y-89541632D01*
X44929485Y-89541635D01*
X44853719Y-89672863D01*
X44814500Y-89819234D01*
X44814500Y-89970765D01*
X44853719Y-90117136D01*
X44891602Y-90182750D01*
X44929485Y-90248365D01*
X45036635Y-90355515D01*
X45167865Y-90431281D01*
X45314234Y-90470500D01*
X45314236Y-90470500D01*
X45465764Y-90470500D01*
X45465766Y-90470500D01*
X45612135Y-90431281D01*
X45743365Y-90355515D01*
X45743373Y-90355506D01*
X45746105Y-90353412D01*
X45748834Y-90352356D01*
X45750403Y-90351451D01*
X45750544Y-90351695D01*
X45811274Y-90328215D01*
X45879719Y-90342251D01*
X45929710Y-90391064D01*
X45930955Y-90393335D01*
X45933812Y-90398680D01*
X46043248Y-90562462D01*
X46043251Y-90562466D01*
X46182533Y-90701748D01*
X46182537Y-90701751D01*
X46346315Y-90811185D01*
X46346328Y-90811192D01*
X46528308Y-90886569D01*
X46570000Y-90894862D01*
X46570000Y-90091988D01*
X46579940Y-90109205D01*
X46635795Y-90165060D01*
X46704204Y-90204556D01*
X46780504Y-90225000D01*
X46859496Y-90225000D01*
X46935796Y-90204556D01*
X47004205Y-90165060D01*
X47060060Y-90109205D01*
X47070000Y-90091988D01*
X47070000Y-90894862D01*
X47111690Y-90886569D01*
X47111692Y-90886569D01*
X47293671Y-90811192D01*
X47293684Y-90811185D01*
X47457462Y-90701751D01*
X47457466Y-90701748D01*
X47596748Y-90562466D01*
X47596751Y-90562462D01*
X47706185Y-90398684D01*
X47706192Y-90398671D01*
X47781569Y-90216693D01*
X47781572Y-90216681D01*
X47819999Y-90023495D01*
X47820000Y-90023492D01*
X47820000Y-89685755D01*
X47839685Y-89618716D01*
X47892489Y-89572961D01*
X47961647Y-89563017D01*
X48025203Y-89592042D01*
X48031681Y-89598074D01*
X49223320Y-90789713D01*
X49256805Y-90851036D01*
X49253345Y-90916397D01*
X49210001Y-91047200D01*
X49210000Y-91047204D01*
X49199500Y-91149983D01*
X49199500Y-93350001D01*
X49199501Y-93350018D01*
X49210000Y-93452796D01*
X49210001Y-93452799D01*
X49263619Y-93614605D01*
X49265186Y-93619334D01*
X49357288Y-93768656D01*
X49481344Y-93892712D01*
X49630666Y-93984814D01*
X49797203Y-94039999D01*
X49899991Y-94050500D01*
X52100008Y-94050499D01*
X52202797Y-94039999D01*
X52369334Y-93984814D01*
X52518656Y-93892712D01*
X52642712Y-93768656D01*
X52734814Y-93619334D01*
X52789999Y-93452797D01*
X52800500Y-93350009D01*
X52800499Y-91149992D01*
X52789999Y-91047203D01*
X52734814Y-90880666D01*
X52642712Y-90731344D01*
X52518656Y-90607288D01*
X52515819Y-90605538D01*
X52514283Y-90603830D01*
X52512989Y-90602807D01*
X52513163Y-90602585D01*
X52469096Y-90553594D01*
X52457872Y-90484632D01*
X52485713Y-90420549D01*
X52515817Y-90394462D01*
X52518656Y-90392712D01*
X52642712Y-90268656D01*
X52734814Y-90119334D01*
X52789999Y-89952797D01*
X52800500Y-89850009D01*
X52800499Y-87649992D01*
X52789999Y-87547203D01*
X52734814Y-87380666D01*
X52642712Y-87231344D01*
X52518656Y-87107288D01*
X52515819Y-87105538D01*
X52514283Y-87103830D01*
X52512989Y-87102807D01*
X52513163Y-87102585D01*
X52469096Y-87053594D01*
X52457872Y-86984632D01*
X52485713Y-86920549D01*
X52515817Y-86894462D01*
X52518656Y-86892712D01*
X52642712Y-86768656D01*
X52734814Y-86619334D01*
X52789999Y-86452797D01*
X52800500Y-86350009D01*
X52800499Y-84149992D01*
X52789999Y-84047203D01*
X52734814Y-83880666D01*
X52642712Y-83731344D01*
X52518656Y-83607288D01*
X52515819Y-83605538D01*
X52514283Y-83603830D01*
X52512989Y-83602807D01*
X52513163Y-83602585D01*
X52469096Y-83553594D01*
X52457872Y-83484632D01*
X52485713Y-83420549D01*
X52515817Y-83394462D01*
X52518656Y-83392712D01*
X52642712Y-83268656D01*
X52734814Y-83119334D01*
X52789999Y-82952797D01*
X52800500Y-82850009D01*
X52800499Y-80649992D01*
X52789999Y-80547203D01*
X52734814Y-80380666D01*
X52642712Y-80231344D01*
X52518656Y-80107288D01*
X52518655Y-80107287D01*
X52460673Y-80071524D01*
X52413948Y-80019576D01*
X52402725Y-79950614D01*
X52430569Y-79886531D01*
X52438088Y-79878304D01*
X52590893Y-79725500D01*
X52820480Y-79495913D01*
X52821013Y-79494991D01*
X52830187Y-79479099D01*
X52830194Y-79479087D01*
X52873207Y-79404587D01*
X52900500Y-79302727D01*
X52900500Y-75670206D01*
X52920185Y-75603167D01*
X52936819Y-75582525D01*
X52949814Y-75569530D01*
X52970480Y-75548864D01*
X53023207Y-75457539D01*
X53050500Y-75355678D01*
X53050500Y-75250224D01*
X53050500Y-74010675D01*
X53057487Y-73969639D01*
X53061320Y-73958707D01*
X53073207Y-73938120D01*
X53087103Y-73886260D01*
X53100501Y-73836260D01*
X53100501Y-73730806D01*
X53100501Y-73723211D01*
X53100500Y-73723193D01*
X53100500Y-70786050D01*
X53100500Y-70769192D01*
X53100501Y-70769189D01*
X53100500Y-70663735D01*
X53079734Y-70586239D01*
X53073207Y-70561879D01*
X53073087Y-70561672D01*
X53072974Y-70561476D01*
X53067110Y-70551318D01*
X53050500Y-70489324D01*
X53050500Y-68281587D01*
X53048569Y-68274382D01*
X53048037Y-68272396D01*
X53032322Y-68213744D01*
X53023207Y-68179727D01*
X53023087Y-68179520D01*
X53015977Y-68167205D01*
X53015976Y-68167201D01*
X52993763Y-68128727D01*
X52993763Y-68128728D01*
X52970480Y-68088401D01*
X52936819Y-68054740D01*
X52903334Y-67993417D01*
X52900500Y-67967059D01*
X52900500Y-65135103D01*
X52920185Y-65068064D01*
X52936819Y-65047422D01*
X53018034Y-64966207D01*
X53120480Y-64863761D01*
X53173207Y-64772436D01*
X53200500Y-64670575D01*
X53200500Y-64565121D01*
X53200500Y-61829425D01*
X53184361Y-61769193D01*
X53174220Y-61731344D01*
X53173208Y-61727565D01*
X53157543Y-61700433D01*
X53120480Y-61636239D01*
X52936819Y-61452578D01*
X52903334Y-61391255D01*
X52900500Y-61364897D01*
X52900500Y-60635103D01*
X52920185Y-60568064D01*
X52936819Y-60547422D01*
X53023011Y-60461230D01*
X53120480Y-60363761D01*
X53173207Y-60272436D01*
X53200500Y-60170575D01*
X53200500Y-60065121D01*
X53200500Y-57329425D01*
X53177479Y-57243508D01*
X53173207Y-57227564D01*
X53120480Y-57136239D01*
X52413761Y-56429520D01*
X52361765Y-56399500D01*
X52322437Y-56376793D01*
X52271505Y-56363146D01*
X52220575Y-56349500D01*
X52220574Y-56349500D01*
X48750098Y-56349500D01*
X48683059Y-56329815D01*
X48662417Y-56313181D01*
X48618717Y-56269481D01*
X48618709Y-56269475D01*
X48481790Y-56190426D01*
X48481786Y-56190424D01*
X48481784Y-56190423D01*
X48329057Y-56149500D01*
X48216255Y-56149500D01*
X48149216Y-56129815D01*
X48103461Y-56077011D01*
X48093517Y-56007853D01*
X48122542Y-55944297D01*
X48128574Y-55937819D01*
X48217957Y-55848436D01*
X48320480Y-55745913D01*
X48373207Y-55654588D01*
X48400500Y-55552727D01*
X48400500Y-55447273D01*
X48400500Y-53225411D01*
X48420185Y-53158372D01*
X48472989Y-53112617D01*
X48542147Y-53102673D01*
X48605703Y-53131698D01*
X48631887Y-53163411D01*
X48679517Y-53245909D01*
X48679519Y-53245911D01*
X48679520Y-53245913D01*
X48754087Y-53320480D01*
X48845412Y-53373207D01*
X48947273Y-53400500D01*
X49075500Y-53400500D01*
X49142539Y-53420185D01*
X49188294Y-53472989D01*
X49199500Y-53524500D01*
X49199500Y-55350001D01*
X49199501Y-55350018D01*
X49210000Y-55452796D01*
X49210001Y-55452799D01*
X49250500Y-55575014D01*
X49265186Y-55619334D01*
X49357288Y-55768656D01*
X49481344Y-55892712D01*
X49630666Y-55984814D01*
X49797203Y-56039999D01*
X49899991Y-56050500D01*
X52100008Y-56050499D01*
X52202797Y-56039999D01*
X52369334Y-55984814D01*
X52518656Y-55892712D01*
X52642712Y-55768656D01*
X52734814Y-55619334D01*
X52789999Y-55452797D01*
X52800500Y-55350009D01*
X52800499Y-53149992D01*
X52797385Y-53119512D01*
X52789999Y-53047203D01*
X52789998Y-53047200D01*
X52756885Y-52947273D01*
X52734814Y-52880666D01*
X52642712Y-52731344D01*
X52518656Y-52607288D01*
X52369334Y-52515186D01*
X52202797Y-52460001D01*
X52202795Y-52460000D01*
X52100016Y-52449500D01*
X52100009Y-52449500D01*
X50383066Y-52449500D01*
X50374380Y-52446949D01*
X50365419Y-52448238D01*
X50341378Y-52437259D01*
X50316027Y-52429815D01*
X50310099Y-52422974D01*
X50301863Y-52419213D01*
X50287573Y-52396978D01*
X50270272Y-52377011D01*
X50267984Y-52366496D01*
X50264089Y-52360435D01*
X50259066Y-52325500D01*
X50259066Y-52174499D01*
X50278751Y-52107460D01*
X50331555Y-52061705D01*
X50383066Y-52050499D01*
X52100002Y-52050499D01*
X52100008Y-52050499D01*
X52202797Y-52039999D01*
X52369334Y-51984814D01*
X52518656Y-51892712D01*
X52642712Y-51768656D01*
X52734814Y-51619334D01*
X52789999Y-51452797D01*
X52800500Y-51350009D01*
X52800499Y-49149992D01*
X52792145Y-49068216D01*
X52789999Y-49047203D01*
X52789998Y-49047200D01*
X52767789Y-48980179D01*
X52734814Y-48880666D01*
X52642712Y-48731344D01*
X52518656Y-48607288D01*
X52418116Y-48545275D01*
X52369336Y-48515187D01*
X52369331Y-48515185D01*
X52337792Y-48504734D01*
X52202797Y-48460001D01*
X52202795Y-48460000D01*
X52100010Y-48449500D01*
X49899998Y-48449500D01*
X49899981Y-48449501D01*
X49797203Y-48460000D01*
X49797200Y-48460001D01*
X49630668Y-48515185D01*
X49630663Y-48515187D01*
X49481342Y-48607289D01*
X49357289Y-48731342D01*
X49265187Y-48880663D01*
X49265185Y-48880668D01*
X49260609Y-48894477D01*
X49210001Y-49047203D01*
X49210001Y-49047204D01*
X49210000Y-49047204D01*
X49199500Y-49149983D01*
X49199500Y-49851346D01*
X49179815Y-49918385D01*
X49127011Y-49964140D01*
X49057853Y-49974084D01*
X49013503Y-49958735D01*
X48981786Y-49940424D01*
X48981785Y-49940423D01*
X48981784Y-49940423D01*
X48829057Y-49899500D01*
X48699651Y-49899500D01*
X48632612Y-49879815D01*
X48586857Y-49827011D01*
X48579876Y-49807594D01*
X48568526Y-49765233D01*
X48539232Y-49714494D01*
X48489473Y-49628307D01*
X48489467Y-49628299D01*
X48377666Y-49516498D01*
X48377658Y-49516492D01*
X48240739Y-49437443D01*
X48240735Y-49437441D01*
X48240733Y-49437440D01*
X48088006Y-49396517D01*
X47929892Y-49396517D01*
X47810469Y-49428516D01*
X47740619Y-49426853D01*
X47690695Y-49396422D01*
X47604668Y-49310395D01*
X47604660Y-49310389D01*
X47467741Y-49231340D01*
X47467738Y-49231338D01*
X47467735Y-49231337D01*
X47467731Y-49231336D01*
X47460228Y-49228228D01*
X47461478Y-49225208D01*
X47414852Y-49196787D01*
X47384324Y-49133939D01*
X47382608Y-49113379D01*
X47382608Y-49053053D01*
X47382608Y-49053051D01*
X47341685Y-48900324D01*
X47329844Y-48879815D01*
X47262632Y-48763398D01*
X47262626Y-48763390D01*
X47150825Y-48651589D01*
X47150817Y-48651583D01*
X47013898Y-48572534D01*
X47013894Y-48572532D01*
X47013892Y-48572531D01*
X46861165Y-48531608D01*
X46703051Y-48531608D01*
X46652045Y-48545275D01*
X46619952Y-48549500D01*
X42380301Y-48549500D01*
X42313262Y-48529815D01*
X42267507Y-48477011D01*
X42262595Y-48464504D01*
X42261103Y-48460001D01*
X42234814Y-48380666D01*
X42142712Y-48231344D01*
X42018656Y-48107288D01*
X41869334Y-48015186D01*
X41799983Y-47992205D01*
X41742539Y-47952433D01*
X41715716Y-47887917D01*
X41728031Y-47819142D01*
X41775574Y-47767942D01*
X41838988Y-47750500D01*
X52184108Y-47750500D01*
X52245572Y-47750500D01*
X52254418Y-47750816D01*
G37*
%TD.AperFunction*%
%TA.AperFunction,Conductor*%
G36*
X37267540Y-84670185D02*
G01*
X37313295Y-84722989D01*
X37324501Y-84774500D01*
X37324501Y-85307743D01*
X37304816Y-85374782D01*
X37288182Y-85395424D01*
X35941495Y-86742110D01*
X35880172Y-86775595D01*
X35810480Y-86770611D01*
X35754547Y-86728739D01*
X35730130Y-86663275D01*
X35736107Y-86615431D01*
X35789999Y-86452797D01*
X35800500Y-86350009D01*
X35800499Y-84774499D01*
X35820184Y-84707461D01*
X35872987Y-84661706D01*
X35924499Y-84650500D01*
X37200501Y-84650500D01*
X37267540Y-84670185D01*
G37*
%TD.AperFunction*%
%TA.AperFunction,Conductor*%
G36*
X36142540Y-77170185D02*
G01*
X36188295Y-77222989D01*
X36199501Y-77274500D01*
X36199501Y-77850018D01*
X36210000Y-77952796D01*
X36210001Y-77952799D01*
X36265185Y-78119331D01*
X36265187Y-78119336D01*
X36284409Y-78150500D01*
X36336885Y-78235578D01*
X36357289Y-78268657D01*
X36481346Y-78392714D01*
X36484182Y-78394463D01*
X36485717Y-78396170D01*
X36487011Y-78397193D01*
X36486836Y-78397414D01*
X36530905Y-78446411D01*
X36542126Y-78515374D01*
X36514282Y-78579456D01*
X36484182Y-78605537D01*
X36481346Y-78607285D01*
X36357289Y-78731342D01*
X36265187Y-78880663D01*
X36265185Y-78880668D01*
X36257323Y-78904394D01*
X36210001Y-79047203D01*
X36210001Y-79047204D01*
X36210000Y-79047204D01*
X36199500Y-79149983D01*
X36199500Y-81350001D01*
X36199501Y-81350018D01*
X36210000Y-81452796D01*
X36210001Y-81452799D01*
X36265185Y-81619331D01*
X36265186Y-81619334D01*
X36357288Y-81768656D01*
X36481344Y-81892712D01*
X36630666Y-81984814D01*
X36797203Y-82039999D01*
X36899991Y-82050500D01*
X38501593Y-82050499D01*
X38568632Y-82070184D01*
X38614387Y-82122987D01*
X38624331Y-82192146D01*
X38595306Y-82255702D01*
X38589274Y-82262180D01*
X37038274Y-83813181D01*
X36976951Y-83846666D01*
X36950593Y-83849500D01*
X35784798Y-83849500D01*
X35717759Y-83829815D01*
X35679259Y-83790597D01*
X35642712Y-83731344D01*
X35518656Y-83607288D01*
X35515819Y-83605538D01*
X35514283Y-83603830D01*
X35512989Y-83602807D01*
X35513163Y-83602585D01*
X35469096Y-83553594D01*
X35457872Y-83484632D01*
X35485713Y-83420549D01*
X35515817Y-83394462D01*
X35518656Y-83392712D01*
X35642712Y-83268656D01*
X35734814Y-83119334D01*
X35789999Y-82952797D01*
X35800500Y-82850009D01*
X35800499Y-80649992D01*
X35789999Y-80547203D01*
X35734814Y-80380666D01*
X35642712Y-80231344D01*
X35518656Y-80107288D01*
X35518655Y-80107287D01*
X35397643Y-80032647D01*
X35350918Y-79980699D01*
X35339695Y-79911737D01*
X35346119Y-79887442D01*
X35346103Y-79887438D01*
X35347495Y-79882239D01*
X35348181Y-79879649D01*
X35348203Y-79879592D01*
X35348207Y-79879587D01*
X35375500Y-79777727D01*
X35375500Y-77722273D01*
X35348207Y-77620413D01*
X35295480Y-77529087D01*
X35220913Y-77454520D01*
X35129587Y-77401793D01*
X35101527Y-77394274D01*
X35041867Y-77357910D01*
X35011338Y-77295063D01*
X35019633Y-77225688D01*
X35064118Y-77171810D01*
X35130670Y-77150535D01*
X35133621Y-77150500D01*
X36075501Y-77150500D01*
X36142540Y-77170185D01*
G37*
%TD.AperFunction*%
%TA.AperFunction,Conductor*%
G36*
X49318529Y-66136163D02*
G01*
X49329563Y-66145956D01*
X50871426Y-67687819D01*
X50904911Y-67749142D01*
X50899927Y-67818834D01*
X50858055Y-67874767D01*
X50792591Y-67899184D01*
X50788695Y-67899323D01*
X50786899Y-67899499D01*
X50651572Y-67926418D01*
X50651562Y-67926421D01*
X50524090Y-67979221D01*
X50524077Y-67979228D01*
X50409353Y-68055885D01*
X50409349Y-68055888D01*
X50311783Y-68153454D01*
X50311780Y-68153458D01*
X50235123Y-68268182D01*
X50235116Y-68268195D01*
X50182316Y-68395667D01*
X50182313Y-68395677D01*
X50155395Y-68531004D01*
X50155395Y-68531007D01*
X50155395Y-68668993D01*
X50155395Y-68668995D01*
X50155394Y-68668995D01*
X50182313Y-68804322D01*
X50182316Y-68804332D01*
X50235116Y-68931804D01*
X50235123Y-68931817D01*
X50311780Y-69046541D01*
X50311783Y-69046545D01*
X50409349Y-69144111D01*
X50409353Y-69144114D01*
X50524077Y-69220771D01*
X50524090Y-69220778D01*
X50651562Y-69273578D01*
X50651567Y-69273580D01*
X50651571Y-69273580D01*
X50651572Y-69273581D01*
X50786899Y-69300500D01*
X50786902Y-69300500D01*
X50924890Y-69300500D01*
X51015936Y-69282389D01*
X51060223Y-69273580D01*
X51187706Y-69220775D01*
X51302437Y-69144114D01*
X51400009Y-69046542D01*
X51476670Y-68931811D01*
X51529475Y-68804328D01*
X51546795Y-68717255D01*
X51556395Y-68668995D01*
X51556992Y-68662933D01*
X51559042Y-68663134D01*
X51562633Y-68650904D01*
X51564213Y-68628816D01*
X51572285Y-68618032D01*
X51576080Y-68605111D01*
X51592813Y-68590611D01*
X51606085Y-68572883D01*
X51618705Y-68568175D01*
X51628884Y-68559356D01*
X51650801Y-68556204D01*
X51671549Y-68548466D01*
X51684709Y-68551328D01*
X51698042Y-68549412D01*
X51718185Y-68558611D01*
X51739822Y-68563318D01*
X51757547Y-68576586D01*
X51761598Y-68578437D01*
X51768076Y-68584469D01*
X51813181Y-68629574D01*
X51846666Y-68690897D01*
X51849500Y-68717255D01*
X51849500Y-70338051D01*
X51829815Y-70405090D01*
X51777011Y-70450845D01*
X51709545Y-70460545D01*
X51709531Y-70460689D01*
X51708956Y-70460630D01*
X51707853Y-70460789D01*
X51704304Y-70460155D01*
X51600010Y-70449500D01*
X49399998Y-70449500D01*
X49399981Y-70449501D01*
X49297203Y-70460000D01*
X49297200Y-70460001D01*
X49130668Y-70515185D01*
X49130659Y-70515189D01*
X48989374Y-70602334D01*
X48921981Y-70620774D01*
X48855318Y-70599851D01*
X48810549Y-70546209D01*
X48801373Y-70493420D01*
X48800500Y-70493420D01*
X48800499Y-69010636D01*
X48785046Y-68893246D01*
X48785044Y-68893241D01*
X48785044Y-68893238D01*
X48724536Y-68747159D01*
X48628282Y-68621718D01*
X48606639Y-68605111D01*
X48548850Y-68560767D01*
X48507648Y-68504339D01*
X48503493Y-68434593D01*
X48536653Y-68374714D01*
X48642712Y-68268656D01*
X48734814Y-68119334D01*
X48789999Y-67952797D01*
X48800500Y-67850009D01*
X48800499Y-66567254D01*
X48820184Y-66500216D01*
X48836818Y-66479574D01*
X48935110Y-66381282D01*
X49120480Y-66195913D01*
X49123004Y-66191541D01*
X49123652Y-66190420D01*
X49125745Y-66186793D01*
X49134494Y-66171639D01*
X49185056Y-66123424D01*
X49253663Y-66110198D01*
X49318529Y-66136163D01*
G37*
%TD.AperFunction*%
%TD*%
M02*
